<svg width="200" height="56" viewBox="0 0 200 56" fill="none" xmlns="http://www.w3.org/2000/svg">
<g id="Relume / Black">
<g id="Group">
<g id="Group_2">
<path id="Vector" d="M125.515 26.1115C123.29 30.5877 118.67 33.6644 113.33 33.6644C105.883 33.6644 99.8339 27.6769 99.7319 20.2539H105.084C105.11 21.4654 105.4 22.7349 106.001 24.0084C106.703 25.4898 107.897 26.6933 109.378 27.393C113.016 29.1123 116.607 28.2806 118.942 26.1115H125.515Z" fill="#0073FF"/>
<path id="Vector_2" d="M125.515 13.5535H118.942C117.468 12.186 115.497 11.3504 113.33 11.3504C108.95 11.3504 105.367 14.765 105.098 19.0772H99.7417C99.8017 17.4679 100.142 15.7986 100.807 14.1153C102.073 10.9106 104.614 8.36161 107.814 7.09013C115.323 4.10535 122.548 7.58793 125.515 13.5555V13.5535Z" fill="#0073FF"/>
</g>
<g id="Group_3">
<g id="Group_4">
<path id="Vector_3" d="M79.7502 42.6587L78.6107 42.6787L78.5687 40.1377L77.2732 42.7007L76.7315 42.7107L75.344 40.1777L75.386 42.7326L74.2465 42.7526L74.1665 37.9846L75.32 37.9646L76.9714 40.9614L78.5227 37.9106L79.6683 37.8906L79.7482 42.6587H79.7502Z" fill="#0073FF"/>
<path id="Vector_4" d="M84.0961 42.5841L83.7462 41.7224L81.739 41.7564L81.4192 42.6301L80.1597 42.6521L82.0729 37.852L83.2744 37.832L85.3455 42.5661L84.0941 42.5861L84.0961 42.5841ZM82.7006 39.1615L82.1229 40.7368L83.3404 40.7169L82.7026 39.1615H82.7006Z" fill="#0073FF"/>
<path id="Vector_5" d="M90.3157 42.4829L89.3481 42.4989L86.8891 39.778L86.9351 42.5389L85.7616 42.5589L85.6816 37.7908L86.6572 37.7748L89.1182 40.5817L89.0702 37.7348L90.2378 37.7148L90.3177 42.4829H90.3157Z" fill="#0073FF"/>
<path id="Vector_6" d="M94.642 42.4083L94.2921 41.5467L92.2849 41.5806L91.965 42.4543L90.7056 42.4763L92.6188 37.6762L93.8203 37.6562L95.8934 42.3903L94.642 42.4103V42.4083ZM93.2465 38.9857L92.6688 40.5611L93.8863 40.5411L93.2485 38.9857H93.2465Z" fill="#0073FF"/>
<path id="Vector_7" d="M100.919 39.4943C100.943 39.6642 100.953 39.8062 100.955 39.9281C100.979 41.3735 99.9657 42.4291 98.5283 42.4531C97.0829 42.4771 95.9414 41.4075 95.9174 40.0061C95.8934 38.6107 96.9929 37.4971 98.4224 37.4731C99.4819 37.4551 100.424 37.939 100.773 38.8646L99.6479 39.2104C99.362 38.6746 98.9042 38.5387 98.4404 38.5467C97.6647 38.5587 97.0849 39.1824 97.0969 39.9861C97.1109 40.7978 97.7246 41.3995 98.5223 41.3855C99.1481 41.3755 99.5979 41.0397 99.7678 40.5099L98.3084 40.5339L98.2924 39.5383L100.917 39.4943H100.919Z" fill="#0073FF"/>
<path id="Vector_8" d="M105.372 42.2309L101.657 42.2929L101.577 37.5249L105.27 37.4629L105.286 38.4725L102.767 38.5145L102.781 39.4101L105.094 39.3721L105.11 40.3257L102.797 40.3637L102.813 41.2593L105.354 41.2174L105.37 42.2269L105.372 42.2309Z" fill="#0073FF"/>
<path id="Vector_9" d="M111.605 42.1274L110.466 42.1474L110.424 39.6065L109.128 42.1694L108.586 42.1794L107.199 39.6464L107.241 42.2014L106.101 42.2214L106.021 37.4533L107.175 37.4333L108.826 40.4301L110.378 37.3794L111.523 37.3594L111.603 42.1274H111.605Z" fill="#0073FF"/>
<path id="Vector_10" d="M116.145 42.0513L112.431 42.1132L112.351 37.3452L116.043 37.2832L116.059 38.2928L113.54 38.3348L113.554 39.2304L115.867 39.1924L115.883 40.146L113.57 40.184L113.586 41.0797L116.127 41.0377L116.143 42.0473L116.145 42.0513Z" fill="#0073FF"/>
<path id="Vector_11" d="M121.431 41.9634L120.463 41.9794L118.004 39.2585L118.05 42.0193L116.877 42.0393L116.797 37.2713L117.772 37.2553L120.231 40.0621L120.183 37.2153L121.351 37.1953L121.431 41.9634Z" fill="#0073FF"/>
<path id="Vector_12" d="M124.641 38.1648L124.703 41.9073L123.536 41.9273L123.474 38.1848L121.931 38.2108L121.913 37.1853L126.169 37.1133L126.187 38.1389L124.643 38.1648H124.641Z" fill="#0073FF"/>
</g>
<g id="Group_5">
<path id="Vector_13" d="M78.9263 48.1063C78.7063 49.3018 77.7447 49.9995 76.5212 49.9995C75.1058 49.9995 73.9883 48.91 73.9883 47.5086C73.9883 46.1071 75.1058 45.0176 76.5212 45.0176C77.6948 45.0176 78.6924 45.7153 78.9203 46.8468L77.7667 47.1167C77.6168 46.427 77.133 46.0911 76.5212 46.0911C75.7675 46.0911 75.1618 46.6969 75.1618 47.5066C75.1618 48.3162 75.7675 48.93 76.5212 48.93C77.127 48.93 77.6108 48.5881 77.7747 47.8764L78.9283 48.1043L78.9263 48.1063Z" fill="#0073FF"/>
<path id="Vector_14" d="M84.5062 47.5146C84.5062 48.902 83.3887 49.9976 81.9653 49.9976C80.5419 49.9976 79.4243 48.902 79.4243 47.5146C79.4243 46.1272 80.5419 45.0156 81.9653 45.0156C83.3887 45.0156 84.5062 46.1192 84.5062 47.5146ZM83.3327 47.5146C83.3327 46.6969 82.741 46.0912 81.9673 46.0912C81.1936 46.0912 80.6018 46.6969 80.6018 47.5146C80.6018 48.3323 81.1916 48.924 81.9673 48.924C82.743 48.924 83.3327 48.3263 83.3327 47.5146Z" fill="#0073FF"/>
<path id="Vector_15" d="M89.7221 49.8911H88.7545L86.3415 47.1302V49.8911H85.168V45.123H86.1436L88.5566 47.9699V45.123H89.7241V49.8911H89.7221Z" fill="#0073FF"/>
<path id="Vector_16" d="M94.3962 46.3972L93.2427 46.6311C93.1567 46.1833 92.7869 45.9614 92.409 45.9614C92.0312 45.9614 91.7693 46.1753 91.7693 46.4452C91.7693 46.6371 91.8553 46.779 92.1531 46.843L93.1427 47.0629C93.9684 47.2488 94.4522 47.6967 94.4522 48.4504C94.4522 49.4679 93.5486 49.9937 92.487 49.9937C91.4254 49.9937 90.5298 49.4819 90.4019 48.5483L91.6114 48.3144C91.7333 48.8062 92.0732 49.0181 92.551 49.0181C92.9928 49.0181 93.2547 48.8182 93.2547 48.5263C93.2547 48.3124 93.1547 48.1785 92.8129 48.1065L91.8173 47.8926C91.1336 47.7366 90.5358 47.3808 90.5358 46.5112C90.5358 45.5855 91.3035 45.0098 92.421 45.0098C93.4606 45.0098 94.2143 45.5216 94.3922 46.3912L94.3962 46.3972Z" fill="#0073FF"/>
<path id="Vector_17" d="M99.4139 47.742C99.4139 49.1074 98.5663 49.9971 97.3008 49.9971C96.0353 49.9971 95.1377 49.1074 95.1377 47.742V45.123H96.3112V47.742C96.3112 48.4677 96.7031 48.9155 97.3008 48.9155C97.8626 48.9155 98.2404 48.4677 98.2404 47.742V45.123H99.4139V47.742Z" fill="#0073FF"/>
<path id="Vector_18" d="M103.748 49.8911H100.226V45.123H101.399V48.8655H103.748V49.8911Z" fill="#0073FF"/>
<path id="Vector_19" d="M106.117 46.1486V49.8911H104.95V46.1486H103.406V45.123H107.663V46.1486H106.119H106.117Z" fill="#0073FF"/>
<path id="Vector_20" d="M111.241 49.8911L110.907 49.0235H108.9L108.566 49.8911H107.307L109.3 45.123H110.503L112.497 49.8911H111.245H111.241ZM109.904 46.4465L109.298 48.0119H110.515L109.904 46.4465Z" fill="#0073FF"/>
<path id="Vector_21" d="M117.46 49.8911H116.493L114.08 47.1302V49.8911H112.906V45.123H113.882L116.295 47.9699V45.123H117.462V49.8911H117.46Z" fill="#0073FF"/>
<path id="Vector_22" d="M120.735 46.1486V49.8911H119.568V46.1486H118.024V45.123H122.281V46.1486H120.737H120.735Z" fill="#0073FF"/>
<path id="Vector_23" d="M126.535 46.3972L125.381 46.6311C125.295 46.1833 124.926 45.9614 124.548 45.9614C124.17 45.9614 123.908 46.1753 123.908 46.4452C123.908 46.6371 123.994 46.779 124.292 46.843L125.281 47.0629C126.107 47.2488 126.591 47.6967 126.591 48.4504C126.591 49.4679 125.687 49.9937 124.626 49.9937C123.564 49.9937 122.668 49.4819 122.541 48.5483L123.75 48.3144C123.87 48.8062 124.212 49.0181 124.69 49.0181C125.131 49.0181 125.393 48.8182 125.393 48.5263C125.393 48.3124 125.293 48.1785 124.952 48.1065L123.956 47.8926C123.272 47.7366 122.674 47.3808 122.674 46.5112C122.674 45.5855 123.442 45.0098 124.56 45.0098C125.599 45.0098 126.353 45.5216 126.531 46.3912L126.535 46.3972Z" fill="#0073FF"/>
</g>
</g>
<g id="Group_6">
<path id="Vector_24" d="M93.9242 20.252C93.8262 24.7221 90.1717 28.3147 85.6775 28.3147C81.1834 28.3147 77.5289 24.7221 77.4309 20.252H72.0791C72.1791 27.6769 78.2286 33.6645 85.6755 33.6645C93.1225 33.6645 99.174 27.6769 99.274 20.252H93.9222H93.9242Z" fill="#0073FF"/>
<path id="Vector_25" d="M99.2342 19.0747H72.0894C72.4232 14.5245 74.4344 6 85.6658 6V6.01999L97.0511 14.9803C98.3126 15.9719 99.1083 17.4453 99.2322 19.0467V19.0747H99.2342Z" fill="#0073FF"/>
<path id="Vector_26" d="M85.6675 6.0106L86.3872 12.254C86.4492 12.7838 86.6991 13.2536 87.0689 13.5935C87.5287 14.0173 88.1665 14.1972 88.7882 14.1213C89.6079 14.0213 91.799 13.7774 93.5243 13.7774C95.6894 13.7774 96.3311 14.4172 96.3311 14.4172C96.3351 14.4172 96.3371 14.4132 96.3351 14.4112C95.9893 14.1353 85.9833 6.2505 85.6755 6.0086C85.6735 6.0066 85.6695 6.0086 85.6695 6.0126L85.6675 6.0106Z" fill="#82BBFF"/>
</g>
</g>
</g>
</svg>
