<svg width="152" height="48" viewBox="0 0 152 48" fill="none" xmlns="http://www.w3.org/2000/svg">
<g id="Care Quality Commission svg" clip-path="url(#clip0_1450_41603)">
<g id="layer1">
<g id="g4446">
<path id="path4098" d="M65.1473 26.9259C62.2028 26.9259 60.3011 29.0505 60.3011 32.1877C60.3011 35.3445 62.1817 37.409 65.0021 37.409C67.9255 37.409 69.8272 35.3248 69.8272 32.1877C69.8272 28.9903 67.9687 26.9259 65.1473 26.9259ZM65.1052 35.9433C63.3742 35.9433 62.0765 34.4174 62.0765 32.1264C62.0765 29.878 63.2257 28.3719 65.0431 28.3719C66.7775 28.3719 68.0541 29.9185 68.0541 32.2096C68.0541 34.4798 66.9869 35.9433 65.1052 35.9433ZM126.441 23.4198C125.835 23.4198 125.356 23.896 125.356 24.4947C125.356 25.0924 125.835 25.5675 126.441 25.5675C127.045 25.5675 127.527 25.0924 127.527 24.4947C127.527 23.896 127.045 23.4198 126.441 23.4198ZM55.3109 35.7999C52.2379 35.7999 50.3152 33.6118 50.3152 30.2491C50.3152 26.8022 52.6147 24.7596 55.4561 24.7596C57.4209 24.7596 58.6533 25.5839 58.8206 25.6879L59.6351 24.4105C59.4677 24.2429 58.1103 23.1309 55.3531 23.1309C51.5087 23.1309 48.3936 25.8116 48.3936 30.4144C48.3936 34.8487 51.3403 37.4495 55.0804 37.4495C57.9019 37.4495 59.6141 36.171 59.7604 36.0068L58.9469 34.7272C58.7996 34.8094 57.3157 35.7999 55.3109 35.7999ZM134.088 26.9259C131.143 26.9259 129.242 29.0505 129.242 32.1877C129.242 35.3445 131.122 37.409 133.943 37.409C136.868 37.409 138.767 35.3248 138.767 32.1877C138.767 28.9903 136.911 26.9259 134.088 26.9259ZM134.046 35.9433C132.312 35.9433 131.019 34.4174 131.019 32.1264C131.019 29.878 132.167 28.3719 133.985 28.3719C135.717 28.3719 136.994 29.9185 136.994 32.2096C136.994 34.4798 135.927 35.9433 134.046 35.9433ZM145.372 26.9259C143.658 26.9259 142.384 27.8355 142.215 27.9384V27.1952H140.63V37.1813H142.403V29.2804C142.487 29.2167 143.762 28.4113 145.058 28.4113C145.684 28.4113 146.205 28.6399 146.478 28.9071C146.999 29.4238 147.022 30.2491 147.022 31.5068V37.1813H148.795V31.3842C148.795 29.7751 148.755 28.7418 147.794 27.7928C147.481 27.4841 146.77 26.9259 145.372 26.9259ZM82.0673 26.9259C80.5436 26.9259 79.3933 27.5651 78.5588 28.0818C78.0978 27.4623 77.3442 26.9259 76.072 26.9259C74.4839 26.9259 73.1053 27.8541 72.9801 27.9384V27.1952H71.3909V37.1813H73.1674V29.2377C73.3138 29.1567 74.5238 28.4113 75.7584 28.4113C76.3623 28.4113 76.8034 28.5984 77.0738 28.8666C77.5969 29.403 77.5769 30.3104 77.5769 31.6513V37.1813H79.3323V31.59C79.3323 30.7844 79.3323 29.6919 79.1627 29.2574C79.3932 29.114 80.6044 28.4113 81.8367 28.4113C82.4429 28.4113 82.904 28.5776 83.2165 28.929C83.7395 29.4851 83.7196 30.7231 83.7196 31.3426V37.1813H85.4949V31.3842C85.4949 29.7751 85.4528 28.7418 84.4898 27.7928C84.1772 27.4841 83.4659 26.9259 82.0673 26.9259ZM103.771 37.1813H105.547V27.1941H103.771V37.1813ZM104.649 23.4198C104.043 23.4198 103.561 23.896 103.561 24.4947C103.561 25.0924 104.043 25.5675 104.649 25.5675C105.253 25.5675 105.734 25.0924 105.734 24.4947C105.734 23.896 105.253 23.4198 104.649 23.4198ZM98.1073 26.9259C96.5847 26.9259 95.4344 27.5651 94.5977 28.0818C94.14 27.4623 93.3875 26.9259 92.1142 26.9259C90.525 26.9259 89.1453 27.8541 89.0201 27.9384V27.1952H87.4321V37.1813H89.2085V29.2377C89.3558 29.1567 90.5672 28.4113 91.7984 28.4113C92.4056 28.4113 92.8456 28.5984 93.116 28.8666C93.6391 29.403 93.618 30.3104 93.618 31.6513V37.1813H95.3734V31.59C95.3734 30.7844 95.3734 29.6919 95.2038 29.2574C95.4343 29.114 96.6467 28.4113 97.8789 28.4113C98.4829 28.4113 98.9439 28.5776 99.2587 28.929C99.7806 29.4851 99.7585 30.7231 99.7585 31.3426V37.1813H101.535V31.3842C101.535 29.7751 101.493 28.7418 100.532 27.7928C100.219 27.4841 99.5092 26.9259 98.1073 26.9259ZM109.661 29.6504C109.661 28.9071 110.289 28.3084 111.52 28.3084C112.753 28.3084 113.799 28.9071 113.923 28.9903L114.591 27.8136C114.486 27.7314 113.359 26.9259 111.396 26.9259C109.328 26.9259 107.864 28.0621 107.864 29.7522C107.864 32.9309 112.856 32.4767 112.856 34.5203C112.856 35.408 112.002 36.0068 110.914 36.0068C109.453 36.0068 108.429 35.3676 108.218 35.2428L107.55 36.46C107.677 36.5639 109.013 37.4495 111.018 37.4495C113.005 37.4495 114.718 36.3363 114.718 34.3966C114.718 31.2189 109.661 31.5703 109.661 29.6504ZM125.564 37.1813H127.339V27.1941H125.564V37.1813ZM118.272 29.6504C118.272 28.9071 118.897 28.3084 120.132 28.3084C121.363 28.3084 122.408 28.9071 122.535 28.9903L123.201 27.8136C123.098 27.7314 121.97 26.9259 120.006 26.9259C117.938 26.9259 116.476 28.0621 116.476 29.7522C116.476 32.9309 121.467 32.4767 121.467 34.5203C121.467 35.408 120.614 36.0068 119.525 36.0068C118.064 36.0068 117.038 35.3676 116.829 35.2428L116.161 36.46C116.288 36.5639 117.624 37.4495 119.632 37.4495C121.613 37.4495 123.327 36.3363 123.327 34.3966C123.327 31.2189 118.272 31.5703 118.272 29.6504Z" fill="#596876"/>
<path id="path4102" d="M55.2488 19.9027C58.3639 19.9027 60.1603 18.3757 60.3266 18.2115L59.1087 16.2751C58.8825 16.3977 57.4153 17.396 55.5979 17.396C52.9781 17.396 51.3069 15.5417 51.3069 12.7078C51.3069 9.81471 53.2463 8.07974 55.7441 8.07974C57.7456 8.07974 58.8615 9.01783 59.0255 9.11964L60.2856 7.22595C60.1404 7.0826 58.7163 5.65625 55.6211 5.65625C51.513 5.65625 48.3757 8.36654 48.3757 12.8928C48.3757 17.2537 51.369 19.9027 55.2488 19.9027ZM61.1245 16.5794C61.1245 18.4764 62.3823 19.8009 64.4047 19.8009C66.0138 19.8009 67.0866 18.9854 67.2727 18.8628V19.5776H69.6886V13.5637C69.6886 12.259 69.7106 11.2202 68.8619 10.3839C67.8712 9.40642 66.4073 9.26409 65.5406 9.26409C63.2079 9.26409 61.8248 10.2197 61.6819 10.3423L62.6083 12.097C62.7547 12.0147 63.9714 11.3625 65.3134 11.3625C66.077 11.3625 66.5302 11.5465 66.7563 11.7697C67.0457 12.0564 67.0667 12.3411 67.0667 12.9519H66.7774C65.5406 12.9519 61.1245 13.0133 61.1245 16.5794ZM67.0666 17.1103C66.9435 17.1718 66.261 17.7222 65.1262 17.7222C64.4469 17.7222 63.5592 17.4365 63.5592 16.3978C63.5592 15.1335 64.8369 14.8281 66.6344 14.8281H67.0666V17.1103Z" fill="#596876"/>
<path id="path4106" d="M73.787 12.9949C74.0973 12.5472 74.9406 11.5478 76.6339 11.5478C76.7769 11.5478 77.1703 11.5882 77.2534 11.609L77.8928 9.52809C77.8319 9.50947 77.4595 9.26527 76.7348 9.26527C74.7145 9.26527 73.4567 10.6697 73.3725 10.813V9.54987H71.001V19.5787H73.787V12.9949ZM82.5528 9.26555C79.666 9.26555 77.6834 11.5478 77.6834 14.6259C77.6834 17.5409 79.4388 19.8625 82.739 19.8625C84.9898 19.8625 86.5368 18.8237 86.5967 18.7635L85.6902 17.0099C85.2557 17.2135 84.265 17.7236 82.9851 17.7236C80.9637 17.7236 80.3442 16.1955 80.3863 15.4611H87.0732C87.0732 15.3199 87.1153 15.0331 87.1153 14.6062C87.1153 11.3431 85.5228 9.26555 82.5528 9.26555ZM80.3652 13.4831C80.5713 12.2396 81.3537 11.3037 82.6149 11.3037C84.3281 11.3037 84.5343 12.9347 84.5343 13.4831H80.3652ZM107.565 19.8625C109.008 19.8625 110.269 18.9463 110.433 18.8237V19.579H112.804V9.55015H110.021V16.8885C109.854 17.0101 109.029 17.52 108.141 17.52C107.483 17.52 107.173 17.2759 107.05 17.1534C106.677 16.7856 106.615 16.1353 106.615 14.8295V9.55015H103.829V14.9521C103.829 16.2558 103.787 17.7641 104.923 18.8861C105.583 19.5374 106.492 19.8625 107.565 19.8625ZM120.06 18.8642V19.579H122.473V13.5652C122.473 12.2604 122.495 11.2216 121.65 10.3853C120.658 9.40784 119.194 9.26555 118.328 9.26555C115.995 9.26555 114.612 10.2212 114.468 10.3438L115.395 12.0984C115.542 12.0162 116.757 11.3639 118.098 11.3639C118.864 11.3639 119.317 11.5479 119.542 11.7711C119.833 12.0578 119.854 12.3425 119.854 12.9533H119.564C118.328 12.9533 113.911 13.0147 113.911 16.5808C113.911 18.4778 115.169 19.8023 117.192 19.8023C118.801 19.8023 119.874 18.9869 120.06 18.8642ZM116.346 16.3992C116.346 15.1349 117.625 14.8295 119.42 14.8295H119.854V17.1118C119.73 17.1732 119.048 17.7236 117.913 17.7236C117.233 17.7236 116.346 17.4379 116.346 16.3992ZM126.622 4.82031H123.836V19.579H126.622V4.82031ZM129.467 8.30557C130.351 8.30557 131.055 7.61378 131.055 6.73701C131.055 5.86132 130.351 5.16731 129.467 5.16731C128.579 5.16731 127.876 5.86132 127.876 6.73701C127.876 7.61378 128.579 8.30557 129.467 8.30557ZM130.869 9.55015H128.083V19.579H130.869V9.55015ZM138.073 17.5594C136.853 17.5594 136.791 16.6433 136.791 15.8486V11.8324H139.683V9.55015H136.791V6.75779H134.009V9.55015H132.253V11.8324H134.009V15.7468C134.009 17.1533 134.009 18.11 134.875 18.966C135.554 19.6392 136.586 19.8625 137.494 19.8625C139 19.8625 139.971 19.2725 140.05 19.2112L139.351 17.3165C139.166 17.3776 138.711 17.5594 138.073 17.5594ZM142.484 22.0846C141.678 22.0846 141.062 21.8001 140.917 21.7398L140.091 23.6947C140.173 23.7363 141.143 24.3264 142.629 24.3264C144.302 24.3264 145.165 23.7156 145.6 23.2876C146.321 22.575 146.776 21.6576 147.561 19.6797L151.585 9.5501H148.84L146.302 16.5808L143.577 9.5501H140.627L144.878 19.579C144.713 20.0267 144.361 21.0862 143.867 21.5755C143.536 21.9007 143.104 22.0846 142.484 22.0846ZM102.602 12.6873C102.602 8.59887 99.9514 5.65109 95.871 5.65109C91.8737 5.65109 89.142 8.49489 89.142 12.6873C89.142 16.9552 91.8139 19.8778 95.7568 19.9446C95.7568 19.9446 95.913 19.9488 95.9265 19.9488C97.8403 19.9925 99.1646 20.6264 100.009 21.6553C100.296 21.4691 102.373 19.7025 102.373 19.7025C102.373 19.7025 101.654 18.852 99.9892 18.6309C101.613 17.3852 102.602 15.3187 102.602 12.6873ZM95.9331 17.5144C93.7589 17.5144 92.1032 15.7367 92.1032 12.8732C92.1032 10.0294 93.5516 8.02514 95.7691 8.02514C98.0864 8.02514 99.6412 9.96698 99.6412 12.6674C99.6412 14.8566 98.7934 17.5144 95.9331 17.5144Z" fill="#596876"/>
<path id="path4110" d="M34.1026 38.7294C39.5638 34.907 43.1322 28.6206 43.1322 21.5056C43.1322 9.85454 33.5695 0.410156 21.775 0.410156C9.97707 0.410156 0.415527 9.85454 0.415527 21.5056C0.415527 33.1578 9.97707 42.6021 21.775 42.6021H22.3823C28.0629 42.6974 31.9671 44.5604 34.4605 47.5892C35.2983 47.0441 41.3513 41.8961 41.3513 41.8961C41.3513 41.8961 39.1836 39.3106 34.1026 38.7294ZM21.3029 37.2035C26.7186 36.1143 31.1403 32.3018 33.0863 27.2633C33.0753 27.2571 33.0609 27.2602 33.0464 27.2695C30.9331 31.2966 26.6832 34.0495 21.775 34.0495C14.7578 34.0495 9.07277 28.4331 9.07277 21.5052C9.07277 14.5774 14.7578 8.96202 21.775 8.96202C26.6832 8.96202 30.9353 11.7172 33.0487 15.7443C33.0619 15.7567 33.0763 15.7598 33.0863 15.7474C31.1403 10.7089 26.7175 6.89739 21.3028 5.80714C21.4801 5.80094 21.6553 5.79474 21.8337 5.79474C30.5319 5.79474 37.5812 12.8288 37.5812 21.5047C37.5812 30.1828 30.5319 37.2179 21.8337 37.2179C21.6553 37.2179 21.4802 37.2097 21.3029 37.2035Z" fill="#893277"/>
</g>
</g>
</g>
<defs>
<clipPath id="clip0_1450_41603">
<rect width="152" height="48" fill="white"/>
</clipPath>
</defs>
</svg>
