<svg width="100" height="100" viewBox="0 0 100 100" fill="none" xmlns="http://www.w3.org/2000/svg">
<path d="M36.8316 99.0448C36.2498 90.3564 37.849 81.6249 37.1851 72.9418C37.1595 72.6105 37.1333 72.2651 37.2562 71.9565C37.3791 71.6478 37.7034 71.391 38.1373 71.1732C38.0593 70.0795 38.0336 68.9817 38.0616 67.8857C38.0651 67.7506 38.0738 67.6033 38.1635 67.5013C38.2503 67.4029 38.3901 67.3738 38.5193 67.3511C38.8938 67.2841 39.2688 67.2171 39.6433 67.1502C39.6573 64.7933 39.7639 62.4365 40.0067 59.9375C40.1069 58.364 40.207 56.791 40.3072 55.2174C40.3934 53.8652 40.4796 52.5112 40.4743 51.156C40.4668 49.1113 40.2531 47.0427 40.6514 45.0365C40.8016 44.2811 41.0509 43.5182 41.5896 42.7594C43.1835 42.5888 44.7117 41.8602 45.8484 40.7298C48.3783 38.2134 48.6718 34.2504 50.4032 31.1301C51.017 30.0241 51.8166 29.0225 52.7588 28.1786C53.1018 27.8717 53.4769 27.5782 53.9201 27.4547C54.3633 27.3307 54.8915 27.4122 55.192 27.7605C55.5688 28.1973 55.4715 28.8536 55.3626 29.4197C54.7942 32.3717 54.4902 35.375 54.6579 38.4638C58.427 36.6993 62.3289 35.2189 66.2989 33.6378C65.7532 31.8837 65.1062 30.1604 64.3625 28.4809C63.779 27.163 63.1285 25.8457 62.9247 24.4188C62.9107 24.3187 62.899 24.2133 62.9375 24.1201C62.9969 23.9751 63.1594 23.9005 63.3137 23.8726C63.7971 23.7858 64.2909 24.0391 64.6217 24.402C64.9525 24.7648 65.1505 25.226 65.3433 25.6779C66.1539 27.5817 66.964 29.4855 67.7746 31.3886C68.046 32.0263 68.3215 32.6798 68.3611 33.3716C68.4106 34.2306 68.0926 35.0634 67.6954 35.9655C65.9652 38.6374 63.3312 40.5656 60.834 42.5398C58.3368 44.5141 55.8407 46.6985 54.5776 49.6203C54.1431 50.6255 53.8677 51.6912 53.6318 52.7604C52.5544 57.6459 52.2755 62.7061 52.94 67.7948C53.3296 67.7972 53.7192 67.7989 54.1093 67.8013C54.1268 69.0732 54.054 70.3462 53.8933 71.6076C54.1262 71.628 54.3592 71.6484 54.5921 71.6688C53.057 80.7753 55.2432 90.0926 54.9381 99.7582C50.303 100.025 45.6551 100.072 41.0159 99.8985C39.62 99.8479 38.1944 99.7687 36.8316 99.0448Z" fill="white"/>
<path d="M39.2129 78.7515C39.1867 78.7515 39.1605 78.7445 39.1366 78.7305C39.0668 78.6886 39.044 78.5978 39.086 78.5273L42.7625 72.4054C42.8044 72.3355 42.8958 72.3134 42.9657 72.3548C43.0356 72.3967 43.0583 72.4875 43.0164 72.558L39.3399 78.6799C39.3119 78.7259 39.263 78.7515 39.2129 78.7515Z" fill="black"/>
<path d="M38.2568 84.7799C38.2295 84.7799 38.2027 84.7729 38.1782 84.7572C38.1095 84.7135 38.0885 84.6221 38.1322 84.5533L45.4939 72.8914C45.5376 72.8215 45.6296 72.8017 45.6978 72.8454C45.7665 72.8891 45.7875 72.9805 45.7438 73.0492L38.3821 84.7112C38.3541 84.7554 38.3058 84.7799 38.2568 84.7799Z" fill="black"/>
<path d="M38.7722 89.9155C38.7448 89.9155 38.7175 89.908 38.693 89.8928C38.6237 89.8492 38.6033 89.7577 38.647 89.6884L49.0557 73.2382C49.0999 73.1695 49.1914 73.1497 49.2601 73.1922C49.3288 73.2359 49.3498 73.3274 49.3061 73.3967L38.8974 89.8468C38.8689 89.8911 38.8211 89.9155 38.7722 89.9155Z" fill="black"/>
<path d="M38.8374 75.2028C38.8112 75.2028 38.7844 75.1958 38.7606 75.1813C38.6907 75.1387 38.6686 75.0479 38.7111 74.978L39.8298 73.1395C39.8723 73.0696 39.9631 73.0475 40.0325 73.09C40.1023 73.1325 40.1245 73.2233 40.082 73.2932L38.9632 75.1318C38.9359 75.1778 38.8869 75.2028 38.8374 75.2028Z" fill="black"/>
<path d="M38.8596 96.2064C38.8305 96.2064 38.8014 96.1982 38.7757 96.1802C38.7082 96.1341 38.6913 96.0421 38.7373 95.9746C43.6426 88.8248 48.1134 81.275 52.0252 73.5359C52.0619 73.4631 52.151 73.4346 52.2238 73.4707C52.2966 73.5074 52.3263 73.5965 52.289 73.6693C48.3714 81.42 43.8936 88.9809 38.9807 96.1417C38.9528 96.1837 38.9068 96.2064 38.8596 96.2064Z" fill="black"/>
<path d="M40.6676 99.5177C40.6385 99.5177 40.6094 99.5096 40.5838 99.4915C40.5168 99.4449 40.4999 99.3529 40.5459 99.2854C44.8432 93.0534 48.8365 86.5111 52.4152 79.8401C52.4536 79.7679 52.5439 79.7405 52.6155 79.7795C52.6877 79.8179 52.7145 79.9076 52.6761 79.9798C49.0922 86.6608 45.093 93.2124 40.7899 99.4537C40.7602 99.4956 40.7142 99.5177 40.6676 99.5177Z" fill="black"/>
<path d="M44.2599 98.7398C44.2326 98.7398 44.2052 98.7322 44.1807 98.7165C44.112 98.6728 44.0916 98.5814 44.1353 98.5121L52.3321 85.6231C52.3764 85.5544 52.4684 85.534 52.5366 85.5777C52.6053 85.6214 52.6257 85.7128 52.582 85.7821L44.3851 98.6711C44.3566 98.7159 44.3088 98.7398 44.2599 98.7398Z" fill="black"/>
<path d="M47.25 99.2182C47.2208 99.2182 47.1917 99.21 47.1667 99.1925C47.0997 99.1465 47.0823 99.0545 47.1283 98.987L52.3579 91.3393C52.4045 91.2723 52.4965 91.2554 52.5635 91.3009C52.6305 91.3469 52.6479 91.4389 52.6019 91.5064L47.3723 99.1541C47.3437 99.196 47.2971 99.2182 47.25 99.2182Z" fill="black"/>
<path d="M50.4427 99.2699C50.4142 99.2699 50.3851 99.2618 50.36 99.2443C50.2925 99.1989 50.2744 99.1069 50.3204 99.0387L52.3814 95.9906C52.4274 95.9231 52.5195 95.9056 52.5864 95.951C52.654 95.9964 52.672 96.0891 52.626 96.1566L50.5644 99.2047C50.5365 99.2472 50.4899 99.2699 50.4427 99.2699Z" fill="black"/>
<path d="M23.8962 25.6504C23.5118 20.8657 22.6907 16.1165 21.583 11.4732C26.2781 9.73078 31.0319 8.1479 35.893 6.75138C35.7899 8.56895 35.9582 10.475 36.8923 12.0375C37.8264 13.6006 39.6807 14.7176 41.4616 14.3385C43.3456 13.9372 44.6104 11.9356 44.5703 10.0097C44.5301 8.08384 43.4119 6.30703 41.8896 4.92914C46.7606 3.91466 51.5383 2.45291 56.1146 0.601562C56.9421 5.37408 58.1459 10.0814 59.6117 14.6565C61.463 14.7065 62.8974 13.0654 63.8042 11.4505C64.0237 11.0592 64.2357 10.6533 64.5636 10.3469C65.5222 9.45182 67.1371 9.74825 68.1655 10.5624C69.9511 11.9764 70.4548 14.7083 69.4427 16.7489C68.4305 18.7895 66.0865 20.0282 63.8129 19.8978C63.5846 19.885 63.3499 19.8599 63.1327 19.9327C62.965 19.9886 62.82 20.0999 62.7006 20.2309C61.9854 21.0159 62.2632 22.25 62.5841 23.2627C62.9539 24.4286 63.3231 25.5945 63.6236 26.6474C64.5473 29.0899 65.4709 31.5323 66.1558 34.0523C62.12 35.3463 58.154 36.8599 54.2335 38.4864C54.5695 35.2816 54.9056 32.0774 55.2422 28.8727C55.2818 28.4959 55.3185 28.0987 55.1647 27.7522C54.877 27.1046 54 26.8961 53.3332 27.1378C52.667 27.3795 52.1766 27.9467 51.7585 28.5192C50.3014 30.5138 49.3434 32.824 48.4879 35.1413C47.6242 37.4807 46.7833 39.9592 44.8539 41.6696C40.0214 43.0813 35.1895 44.493 30.4333 45.9093C29.615 42.0307 27.543 38.1498 26.9379 34.3067C27.1988 33.5514 28.3443 33.5951 29.0437 33.209C30.5381 32.3844 31.7552 31.0525 32.4395 29.4882C33.1232 27.9246 32.9491 25.9084 31.7017 24.7437C30.6173 23.7309 28.968 23.5434 27.5144 23.8416C26.1488 24.1199 24.8664 24.7833 23.8962 25.6504Z" fill="#ACD4F7"/>
<g opacity="0.1294">
<path d="M54.7477 97.6341C54.6935 95.3192 54.8455 92.995 54.6097 90.6853C54.4851 88.6848 54.4396 88.0122 54.2451 86.5528C54.1857 85.7328 54.2364 84.9047 54.1531 84.0847C53.965 81.8991 53.827 79.6936 54.0716 77.5063C54.4297 75.2059 54.1717 75.0324 54.7029 72.9294C54.8991 72.5899 55.0604 72.2172 54.9306 71.8183C54.8222 71.3698 54.4641 71.0857 54.0594 70.9901C54.1461 70.4322 54.0093 70.5242 54.0238 70.0246C54.004 69.4323 54.1776 68.8022 54.0448 68.2268C53.9277 67.9112 53.6191 67.8087 53.346 67.8692C53.3221 67.8587 53.2959 67.8547 53.2708 67.8483C53.0594 67.5245 52.5301 67.5076 52.3641 67.9356C52.1451 68.3625 52.2097 68.8453 52.1393 69.3059C52.1008 69.9605 51.9419 70.6564 52.0781 71.3C52.1154 71.4007 52.1748 71.4764 52.2459 71.5323C52.3326 71.6814 52.4532 71.788 52.5918 71.8538C52.3839 72.3826 52.3408 72.965 52.3058 73.5298C52.2662 74.4669 52.2808 75.4132 52.3833 76.3456C52.3699 76.2594 52.3431 76.0026 52.3507 76.175C52.3716 76.8721 52.3606 77.5697 52.3984 78.2663C52.4211 79.707 52.3815 81.1472 52.4008 82.5869C52.4124 83.8331 52.4986 85.0747 52.5825 86.3175C52.54 87.5352 52.498 88.7541 52.5941 89.9707C52.8113 93.1551 52.7339 97.3429 53.0734 98.51C53.0763 98.5327 53.0798 98.5566 53.0833 98.581C52.7793 99.3381 53.5603 100.321 54.495 99.8168C55.0389 99.5169 55.0989 98.7866 54.7658 98.3399C54.7465 98.1052 54.7471 97.8705 54.7477 97.6341Z" fill="black"/>
</g>
<g opacity="0.1294">
<path d="M68.511 32.8047C68.511 33.3475 68.4132 33.8733 68.2402 34.3777C68.3992 34.0469 68.5314 33.7283 68.5611 33.2112C68.5454 32.9887 68.5809 32.9381 68.511 32.8047Z" fill="black"/>
</g>
<g opacity="0.1294">
<path d="M53.0132 49.2645C52.6382 49.7577 52.2952 50.2702 51.976 50.7944C51.8893 51.0413 51.8031 51.2888 51.7145 51.5357C51.35 52.5601 51.1852 53.6707 50.8247 55.2116C50.5766 57.0869 50.5201 58.9825 50.5131 60.8717C50.4957 62.0515 50.5085 63.2565 50.491 64.8743C50.5137 65.7548 50.3978 66.6785 50.5918 67.5363C50.8946 68.3353 52.1542 68.0907 52.1379 67.2247C52.0104 65.7484 52.0803 64.2634 51.9597 62.7865C51.9953 61.5653 52.0716 60.8029 52.1257 59.2853C52.1263 59.2585 52.1275 59.2346 52.128 59.2084C52.3651 59.1385 52.5619 58.9394 52.5706 58.6039C52.6568 56.5697 53.3737 54.603 53.6014 52.2334C53.6154 52.0045 53.6463 51.75 53.5449 51.5444C54.044 50.2056 54.5769 49.1381 55.5401 47.596C55.7224 47.3071 55.8779 47.0025 56.0474 46.7055C56.5069 46.1727 57.0083 45.6777 57.5068 45.1809C57.5394 45.1518 57.5709 45.1215 57.6029 45.0918C55.8575 46.2239 54.2875 47.5878 53.0132 49.2645Z" fill="black"/>
</g>
<g opacity="0.1294">
<path d="M64.8438 39.1981C65.0604 39.0047 65.2724 38.8027 65.4768 38.5907C65.7395 38.2873 65.994 37.9547 66.217 37.6426C65.8367 38.0834 65.4314 38.5027 64.9946 38.9011C64.8025 39.0764 64.6056 39.2458 64.4082 39.4153C64.5532 39.3431 64.6982 39.2703 64.8438 39.1981Z" fill="black"/>
</g>
<g opacity="0.1294">
<path d="M65.3045 34.3068C65.3167 34.2946 65.3336 34.2824 65.3441 34.2696C65.3924 34.191 65.4111 34.103 65.4087 34.0157C65.3878 34.032 65.3651 34.0465 65.3388 34.0582C64.6977 34.3406 63.9982 34.495 63.3279 34.6959C62.671 34.8927 62.0153 35.0948 61.3618 35.3027C60.0335 35.7261 58.7214 36.1873 57.4157 36.6765C57.3721 36.6928 57.3307 36.7015 57.2905 36.7056C57.2899 36.7138 57.2888 36.7219 57.2882 36.7301C57.2888 36.7353 57.2911 36.7388 57.2911 36.7435C57.2928 36.7773 57.2864 36.8087 57.2777 36.8384C57.28 36.8588 57.2818 36.8792 57.2841 36.899C57.2847 36.903 57.2853 36.9065 57.2853 36.91C57.2858 36.9129 57.2859 36.9135 57.2864 36.917C57.287 36.9199 57.287 36.9223 57.287 36.9246C57.2882 36.9322 57.2888 36.9403 57.2899 36.9479C57.2894 36.9415 57.2888 36.938 57.2876 36.9333C57.301 37.0352 57.2963 37.1232 57.2468 37.2164C57.2334 37.242 57.2101 37.2595 57.1909 37.2798C57.1962 37.4353 57.1135 37.5815 56.9656 37.6438C56.7804 37.7219 56.6045 37.6432 56.4927 37.4889C56.269 37.1808 56.3197 36.7307 56.3238 36.3696C56.3255 36.1768 56.3389 35.9852 56.357 35.7936C56.3494 35.7465 56.3418 35.6999 56.3325 35.6527C56.3255 35.6183 56.329 35.5863 56.329 35.5537C56.2399 35.2538 56.106 34.6941 56.092 34.3569C56.0908 34.2655 56.0722 34.1863 56.0442 34.1158C56.046 33.94 56.0472 33.7641 56.0501 33.5882C56.1316 32.3274 56.3459 31.0665 56.2114 29.8005C56.1689 29.3387 56.1095 28.878 56.0914 28.4139C56.0437 28.1652 56.0809 27.867 55.919 27.6603C55.5917 27.1979 54.8335 27.5793 54.9942 28.1209C55.1317 29.1127 55.0076 31.0968 54.7799 32.0793C54.6221 33.1689 54.2086 34.2218 54.1574 35.3225C54.1527 35.8431 54.1166 36.3649 54.1486 36.885C54.1568 37.1715 54.2092 37.4703 54.4282 37.6753C54.8649 38.1423 55.6436 37.9368 55.8952 37.4161C56.0734 37.4505 56.2609 37.4534 56.4496 37.4423C55.6727 37.7737 54.8609 38.1528 54.0543 38.6269C54.0508 39.1766 54.0467 39.7264 54.0321 40.2761C54.0298 40.367 54.024 40.4578 54.0205 40.5493C54.3105 40.7164 54.6838 40.7478 55.0775 40.533C57.3895 38.96 59.9752 37.8471 62.4625 36.5886C63.1783 36.2042 63.9167 35.8594 64.3069 35.7115C64.6546 35.5304 65.1117 35.4722 65.372 35.167C65.612 34.8811 65.5264 34.5247 65.3045 34.3068Z" fill="black"/>
</g>
<g opacity="0.1294">
<path d="M69.896 11.8648C69.56 11.6587 69.0918 11.8538 68.9916 12.2329C68.938 12.4029 68.9963 12.5695 69.0248 12.7384C69.0545 13.0208 69.033 13.3056 69.005 13.5875C68.9817 13.7936 68.9561 14.0941 68.7907 14.6287C68.7779 14.6631 68.7645 14.6963 68.7511 14.7301C68.7499 14.733 68.7494 14.7347 68.7476 14.7382C68.5875 15.0888 68.3883 15.4213 68.1618 15.7335C68.04 15.8983 67.983 15.9699 68.1425 15.7638C67.4111 16.7818 66.6616 17.5464 65.1154 18.2423C64.427 18.5295 63.6286 18.5743 62.9775 18.9307C62.3421 19.3785 62.8663 20.4239 63.6105 20.2014C64.5604 19.9481 65.5434 19.7926 66.4187 19.3209C68.0849 18.4508 69.5676 17.0118 70.0341 15.1447C70.2169 14.401 70.6036 12.347 69.896 11.8648Z" fill="black"/>
</g>
<path d="M39.5253 67.8018C39.2801 67.8018 39.0815 67.6032 39.0815 67.358C39.0815 65.0839 39.2941 62.7591 39.5195 60.298C39.7769 57.4886 40.0425 54.5832 40.0582 51.2567C40.0599 50.8438 40.0378 50.2323 40.0116 49.5236C39.9458 47.7421 39.8648 45.5262 40.0937 44.4651C40.4757 42.697 41.5287 42.4321 42.5461 42.1752C43.2111 42.0075 43.8995 41.834 44.6117 41.2691C46.2499 39.971 47.3349 37.1546 48.3837 34.4315C49.3848 31.8324 50.3306 29.3777 51.7766 27.9159C52.4376 27.2479 53.3286 26.5113 54.36 26.7576C54.8504 26.8735 55.2167 27.128 55.4479 27.5118C55.9021 28.2653 55.7117 29.32 55.4956 30.154C55.014 32.0123 54.9424 34.0052 54.8736 35.9322C54.8201 37.4301 54.77 38.8447 54.5335 40.1387C54.4899 40.3798 54.2558 40.5382 54.0176 40.4951C53.7765 40.4514 53.6169 40.2202 53.6612 39.9791C53.8854 38.7492 53.9354 37.3654 53.9873 35.9008C54.0577 33.926 54.1311 31.8836 54.6366 29.9315C54.8864 28.9683 54.9033 28.3265 54.6879 27.9695C54.5813 27.7925 54.4118 27.6812 54.155 27.6207C53.554 27.4757 52.9047 28.0371 52.4079 28.5396C51.0923 29.8698 50.1366 32.3507 49.2118 34.75C48.1199 37.5838 46.9907 40.5149 45.1632 41.9638C44.3013 42.6469 43.4487 42.8624 42.7633 43.0348C41.7721 43.2846 41.2264 43.4221 40.9608 44.6515C40.7553 45.6036 40.838 47.8498 40.8979 49.4898C40.9242 50.2078 40.9469 50.8281 40.9451 51.2596C40.9294 54.6251 40.6615 57.5498 40.4024 60.3778C40.1793 62.8179 39.9679 65.1229 39.9679 67.3569C39.9691 67.6026 39.7705 67.8018 39.5253 67.8018Z" fill="black"/>
<path d="M30.6355 46.2339C30.4532 46.2339 30.2861 46.1215 30.2203 45.9456C28.599 41.6052 27.4284 37.9514 26.425 34.0985C26.365 33.8696 26.496 33.6343 26.7214 33.5638C28.2321 33.0898 30.112 32.4993 31.2132 31.1557C31.5883 30.698 31.8835 30.1418 32.0914 29.503C32.5981 27.9457 32.3611 25.8725 30.9285 24.9232C30.5208 24.653 29.9972 24.4655 29.3718 24.3659C27.5303 24.0701 25.4676 24.7305 24.2388 26.007C24.1182 26.1317 23.9365 26.1747 23.7735 26.1183C23.6098 26.0612 23.4939 25.9138 23.4776 25.7415C23.0164 20.9439 22.1877 16.218 21.0142 11.6953C20.9571 11.4746 21.0765 11.2463 21.2908 11.1677C26.5951 9.21791 31.2156 7.69443 35.8303 6.3742C35.9828 6.33111 36.1459 6.37129 36.2595 6.48077C36.373 6.59026 36.4208 6.75216 36.3835 6.90532C35.765 9.45377 37.1196 12.3656 39.4677 13.5338C40.3873 13.9916 41.2905 14.0778 41.9457 13.7709C42.3068 13.6014 42.6498 13.291 42.9637 12.8484C43.7505 11.7396 44.0492 10.2522 43.7633 8.86907C43.4307 7.2629 42.3906 5.9945 41.5765 5.21296C41.4588 5.09998 41.4128 4.93167 41.4565 4.77443C41.5002 4.61719 41.6266 4.49664 41.7856 4.45995C46.4923 3.3884 51.3603 2.28015 55.9895 0.0438493C56.1142 -0.0161347 56.2603 -0.0143876 56.3832 0.0479258C56.5067 0.110822 56.594 0.227295 56.6185 0.36357C56.9982 2.44787 58.3423 9.54054 59.8512 14.1657C60.0725 14.2601 60.3113 14.27 60.5769 14.1972C61.2035 14.0254 61.9047 13.3912 62.321 12.6189C62.4305 12.4163 62.5359 12.2055 62.6425 11.9935C63.1742 10.933 63.777 9.73039 64.9994 9.29303C65.5777 9.08629 66.2672 9.08047 66.994 9.27615C69.5762 9.97091 71.2866 12.9387 70.6542 15.6275C70.0479 18.2039 67.517 20.1437 64.7647 20.1437C64.6616 20.1426 64.5608 20.1414 64.4584 20.1391C64.0128 20.1286 63.5941 20.1193 63.2919 20.3021C62.639 20.6964 62.7508 21.8116 62.9593 22.6776C63.5493 25.1282 64.2778 26.9644 65.0483 28.9078C65.6196 30.348 66.2101 31.8365 66.8129 33.7188C66.8828 33.9371 66.7744 34.1736 66.563 34.2627C65.276 34.8066 63.6139 35.4158 61.8546 36.0616C59.3178 36.9917 56.6954 37.9532 54.8586 38.8395C54.6379 38.9461 54.3729 38.8535 54.2663 38.6334C54.1597 38.4126 54.2523 38.1477 54.4725 38.0411C56.3483 37.1355 58.9917 36.1665 61.5488 35.2288C63.13 34.6494 64.6325 34.0985 65.8421 33.6023C65.2911 31.928 64.749 30.5606 64.2231 29.2351C63.4404 27.2614 62.7008 25.3973 62.0963 22.8855C61.5931 20.7948 62.2186 19.9137 62.8324 19.5427C63.3554 19.2271 63.9517 19.2405 64.4776 19.2521C64.5737 19.2545 64.6604 19.2603 64.7635 19.2568C67.0773 19.2568 69.2839 17.5755 69.7899 15.4248C70.3082 13.2211 68.8651 10.6989 66.7622 10.1334C66.3778 10.0303 65.8106 9.94529 65.2964 10.1293C64.4088 10.4467 63.9354 11.3919 63.434 12.3924C63.3233 12.6125 63.2138 12.8315 63.1003 13.0417C62.6955 13.7918 61.8528 14.769 60.8092 15.0544C60.2571 15.2052 59.7202 15.1371 59.256 14.8576C59.1652 14.8028 59.0971 14.7172 59.0639 14.6171C57.6318 10.297 56.3419 3.7384 55.8492 1.09211C51.5437 3.08847 47.0863 4.16003 42.7476 5.15123C43.521 6.01779 44.327 7.22155 44.631 8.68912C44.9665 10.3093 44.613 12.0564 43.6864 13.362C43.2823 13.931 42.8233 14.3387 42.3213 14.5745C41.0861 15.1534 39.7548 14.6689 39.0717 14.3288C36.5897 13.0936 35.0714 10.1672 35.3906 7.42479C31.1317 8.66175 26.8385 10.0821 21.9722 11.8636C23.0356 16.0415 23.8084 20.386 24.2732 24.7969C25.7034 23.7177 27.7016 23.2018 29.511 23.4906C30.2622 23.6106 30.9034 23.8441 31.4176 24.1848C33.2195 25.3781 33.5439 27.9021 32.9341 29.7779C32.6919 30.5221 32.343 31.1755 31.8981 31.7183C30.7328 33.141 28.9333 33.7921 27.3894 34.2837C28.334 37.8547 29.4341 41.2826 30.9215 45.2898C33.58 44.8024 36.2601 43.9533 38.8551 43.1304C39.5464 42.9114 40.7338 42.4927 41.8817 42.088C43.04 41.6797 44.2385 41.2575 44.9414 41.0351C45.1749 40.9599 45.4242 41.0904 45.4982 41.3239C45.5727 41.5574 45.4428 41.8067 45.2093 41.8807C44.5198 42.099 43.3282 42.5189 42.1763 42.9248C41.0221 43.3319 39.8282 43.7524 39.127 43.9749C36.3812 44.8449 33.5468 45.7441 30.7095 46.2286C30.685 46.2315 30.66 46.2339 30.6355 46.2339Z" fill="black"/>
<path d="M52.5727 68.0506C52.3491 68.0506 52.1569 67.8823 52.1324 67.6552C51.5285 62.0918 52.3269 54.461 53.9902 49.9057C55.3535 46.171 58.7901 43.548 61.8225 41.2342C64.3866 39.2775 66.8081 37.4291 67.4551 35.2964C68.1534 32.9943 68.1103 32.9052 67.0096 30.6223C66.4902 29.5444 65.7051 27.9155 64.6848 25.36C64.4921 24.8773 64.3057 24.4376 64.142 24.3601C63.9807 24.2832 63.5131 24.4096 63.007 24.5569C62.7717 24.6251 62.5254 24.4911 62.4567 24.2559C62.3879 24.0206 62.5225 23.7742 62.7577 23.7055C64.4676 23.2053 64.8537 23.391 65.5077 25.0304C66.5169 27.5573 67.263 29.1064 67.8086 30.2368C68.9547 32.6152 69.1021 32.9204 68.3036 35.5538C67.5739 37.9602 65.0412 39.8931 62.36 41.9395C59.4249 44.1799 56.0978 46.719 54.8236 50.2103C53.2005 54.6549 52.4224 62.1139 53.0141 67.5597C53.0409 67.8037 52.8645 68.022 52.621 68.0483C52.6047 68.05 52.5884 68.0506 52.5727 68.0506Z" fill="black"/>
<path d="M36.9025 99.5496C36.8972 99.5496 36.8914 99.5496 36.8862 99.549C36.641 99.5403 36.45 99.3341 36.4593 99.0895C36.7936 89.9848 36.9106 80.7473 36.8093 71.6326C36.807 71.4183 36.9584 71.2331 37.1686 71.1923C40.6058 70.5278 43.973 70.7026 47.2285 70.8709C49.6686 70.9972 52.1087 71.123 54.5256 71.2447C54.6479 71.2506 54.762 71.3076 54.8412 71.4008C54.9204 71.494 54.9577 71.6157 54.9437 71.738C54.4714 75.9118 54.6292 80.187 54.7818 84.3218L55.3246 99.036C55.3333 99.2811 55.1423 99.4867 54.8977 99.4955C54.642 99.5048 54.4475 99.3132 54.4382 99.0686L53.8954 84.3545C53.7475 80.3408 53.5943 76.1955 54.0119 72.1072C51.7482 71.9937 49.4648 71.8754 47.1825 71.7572C44.0959 71.5982 40.908 71.4334 37.6998 71.9972C37.7941 81.0047 37.6747 90.1281 37.3451 99.1227C37.3369 99.3615 37.1401 99.5496 36.9025 99.5496Z" fill="black"/>
<path d="M37.8995 71.8413C37.8954 71.8413 37.8913 71.8413 37.8873 71.8407C37.6421 71.8343 37.4493 71.6305 37.4557 71.3859L37.5588 67.5551C37.5646 67.321 37.7521 67.1323 37.9857 67.1235C43.3615 66.9249 48.8044 67.0612 54.1651 67.5306C54.3945 67.5504 54.5704 67.7432 54.5698 67.9738C54.5669 69.1333 54.4859 70.3039 54.3305 71.4517C54.2978 71.6945 54.0748 71.8663 53.8313 71.832C53.5885 71.7988 53.4185 71.5757 53.4511 71.3329C53.5833 70.3574 53.659 69.3662 53.6776 68.3791C48.6238 67.9534 43.499 67.8241 38.4335 67.9953L38.3409 71.4092C38.3363 71.6503 38.1388 71.8413 37.8995 71.8413Z" fill="black"/>
<path d="M69.1055 43.0126C69.0164 43.0126 68.9261 42.9858 68.8481 42.9299C68.6484 42.7878 68.6023 42.5106 68.745 42.3114C71.3814 38.6181 72.987 34.2765 73.3888 29.7556C73.4104 29.511 73.6288 29.3328 73.8699 29.3531C74.1139 29.3747 74.2938 29.5902 74.2723 29.8342C73.8565 34.5118 72.1944 39.0048 69.4666 42.8268C69.3798 42.948 69.2435 43.0126 69.1055 43.0126Z" fill="black"/>
<path d="M73.8501 45.3105C73.7768 45.3105 73.7022 45.2925 73.6341 45.254C73.4204 45.1347 73.3441 44.8644 73.464 44.6507L77.3863 37.6431C77.5057 37.4293 77.7765 37.353 77.9896 37.4724C78.2034 37.5918 78.2796 37.862 78.1603 38.0758L74.238 45.0834C74.1565 45.229 74.0056 45.3105 73.8501 45.3105Z" fill="black"/>
<path d="M39.2129 78.7515C39.1867 78.7515 39.1605 78.7445 39.1366 78.7305C39.0668 78.6886 39.044 78.5978 39.086 78.5273L42.7625 72.4054C42.8044 72.3355 42.8958 72.3134 42.9657 72.3548C43.0356 72.3967 43.0583 72.4875 43.0164 72.558L39.3399 78.6799C39.3119 78.7259 39.263 78.7515 39.2129 78.7515Z" fill="black"/>
<path d="M38.2568 84.7799C38.2295 84.7799 38.2027 84.7729 38.1782 84.7572C38.1095 84.7135 38.0885 84.6221 38.1322 84.5533L45.4939 72.8914C45.5376 72.8215 45.6296 72.8017 45.6978 72.8454C45.7665 72.8891 45.7875 72.9805 45.7438 73.0492L38.3821 84.7112C38.3541 84.7554 38.3058 84.7799 38.2568 84.7799Z" fill="black"/>
<path d="M38.7722 89.9155C38.7448 89.9155 38.7175 89.908 38.693 89.8928C38.6237 89.8492 38.6033 89.7577 38.647 89.6884L49.0557 73.2382C49.0999 73.1695 49.1914 73.1497 49.2601 73.1922C49.3288 73.2359 49.3498 73.3274 49.3061 73.3967L38.8974 89.8468C38.8689 89.8911 38.8211 89.9155 38.7722 89.9155Z" fill="black"/>
<path d="M38.8374 75.2028C38.8112 75.2028 38.7844 75.1958 38.7606 75.1813C38.6907 75.1387 38.6686 75.0479 38.7111 74.978L39.8298 73.1395C39.8723 73.0696 39.9631 73.0475 40.0325 73.09C40.1023 73.1325 40.1245 73.2233 40.082 73.2932L38.9632 75.1318C38.9359 75.1778 38.8869 75.2028 38.8374 75.2028Z" fill="black"/>
<path d="M38.8596 96.2064C38.8305 96.2064 38.8014 96.1982 38.7757 96.1802C38.7082 96.1341 38.6913 96.0421 38.7373 95.9746C43.6426 88.8248 48.1134 81.275 52.0252 73.5359C52.0619 73.4631 52.151 73.4346 52.2238 73.4707C52.2966 73.5074 52.3263 73.5965 52.289 73.6693C48.3714 81.42 43.8936 88.9809 38.9807 96.1417C38.9528 96.1837 38.9068 96.2064 38.8596 96.2064Z" fill="black"/>
<path d="M40.6676 99.5177C40.6385 99.5177 40.6094 99.5096 40.5838 99.4915C40.5168 99.4449 40.4999 99.3529 40.5459 99.2854C44.8432 93.0534 48.8365 86.5111 52.4152 79.8401C52.4536 79.7679 52.5439 79.7405 52.6155 79.7795C52.6877 79.8179 52.7145 79.9076 52.6761 79.9798C49.0922 86.6608 45.093 93.2124 40.7899 99.4537C40.7602 99.4956 40.7142 99.5177 40.6676 99.5177Z" fill="black"/>
<path d="M44.2599 98.7398C44.2326 98.7398 44.2052 98.7322 44.1807 98.7165C44.112 98.6728 44.0916 98.5814 44.1353 98.5121L52.3321 85.6231C52.3764 85.5544 52.4684 85.534 52.5366 85.5777C52.6053 85.6214 52.6257 85.7128 52.582 85.7821L44.3851 98.6711C44.3566 98.7159 44.3088 98.7398 44.2599 98.7398Z" fill="black"/>
<path d="M47.25 99.2182C47.2208 99.2182 47.1917 99.21 47.1667 99.1925C47.0997 99.1465 47.0823 99.0545 47.1283 98.987L52.3579 91.3393C52.4045 91.2723 52.4965 91.2554 52.5635 91.3009C52.6305 91.3469 52.6479 91.4389 52.6019 91.5064L47.3723 99.1541C47.3437 99.196 47.2971 99.2182 47.25 99.2182Z" fill="black"/>
<path d="M50.4427 99.2699C50.4142 99.2699 50.3851 99.2618 50.36 99.2443C50.2925 99.1989 50.2744 99.1069 50.3204 99.0387L52.3814 95.9906C52.4274 95.9231 52.5195 95.9056 52.5864 95.951C52.654 95.9964 52.672 96.0891 52.626 96.1566L50.5644 99.2047C50.5365 99.2472 50.4899 99.2699 50.4427 99.2699Z" fill="black"/>
<path d="M23.8962 25.6504C23.5118 20.8657 22.6907 16.1165 21.583 11.4732C26.2781 9.73078 31.0319 8.1479 35.893 6.75138C35.7899 8.56895 35.9582 10.475 36.8923 12.0375C37.8264 13.6006 39.6807 14.7176 41.4616 14.3385C43.3456 13.9372 44.6104 11.9356 44.5703 10.0097C44.5301 8.08384 43.4119 6.30703 41.8896 4.92914C46.7606 3.91466 51.5383 2.45291 56.1146 0.601562C56.9421 5.37408 58.1459 10.0814 59.6117 14.6565C61.463 14.7065 62.8974 13.0654 63.8042 11.4505C64.0237 11.0592 64.2357 10.6533 64.5636 10.3469C65.5222 9.45182 67.1371 9.74825 68.1655 10.5624C69.9511 11.9764 70.4548 14.7083 69.4427 16.7489C68.4305 18.7895 66.0865 20.0282 63.8129 19.8978C63.5846 19.885 63.3499 19.8599 63.1327 19.9327C62.965 19.9886 62.82 20.0999 62.7006 20.2309C61.9854 21.0159 62.2632 22.25 62.5841 23.2627C62.9539 24.4286 63.3231 25.5945 63.6236 26.6474C64.5473 29.0899 65.4709 31.5323 66.1558 34.0523C62.12 35.3463 58.154 36.8599 54.2335 38.4864C54.5695 35.2816 54.9056 32.0774 55.2422 28.8727C55.2818 28.4959 55.3185 28.0987 55.1647 27.7522C54.877 27.1046 54 26.8961 53.3332 27.1378C52.667 27.3795 52.1766 27.9467 51.7585 28.5192C50.3014 30.5138 49.3434 32.824 48.4879 35.1413C47.6242 37.4807 46.7833 39.9592 44.8539 41.6696C40.0214 43.0813 35.1895 44.493 30.4333 45.9093C29.615 42.0307 27.543 38.1498 26.9379 34.3067C27.1988 33.5514 28.3443 33.5951 29.0437 33.209C30.5381 32.3844 31.7552 31.0525 32.4395 29.4882C33.1232 27.9246 32.9491 25.9084 31.7017 24.7437C30.6173 23.7309 28.968 23.5434 27.5144 23.8416C26.1488 24.1199 24.8664 24.7833 23.8962 25.6504Z" fill="#2E90FA"/>
<g opacity="0.1294">
<path d="M54.7477 97.6341C54.6935 95.3192 54.8455 92.995 54.6097 90.6853C54.4851 88.6848 54.4396 88.0122 54.2451 86.5528C54.1857 85.7328 54.2364 84.9047 54.1531 84.0847C53.965 81.8991 53.827 79.6936 54.0716 77.5063C54.4297 75.2059 54.1717 75.0324 54.7029 72.9294C54.8991 72.5899 55.0604 72.2172 54.9306 71.8183C54.8222 71.3698 54.4641 71.0857 54.0594 70.9901C54.1461 70.4322 54.0093 70.5242 54.0238 70.0246C54.004 69.4323 54.1776 68.8022 54.0448 68.2268C53.9277 67.9112 53.6191 67.8087 53.346 67.8692C53.3221 67.8587 53.2959 67.8547 53.2708 67.8483C53.0594 67.5245 52.5301 67.5076 52.3641 67.9356C52.1451 68.3625 52.2097 68.8453 52.1393 69.3059C52.1008 69.9605 51.9419 70.6564 52.0781 71.3C52.1154 71.4007 52.1748 71.4764 52.2459 71.5323C52.3326 71.6814 52.4532 71.788 52.5918 71.8538C52.3839 72.3826 52.3408 72.965 52.3058 73.5298C52.2662 74.4669 52.2808 75.4132 52.3833 76.3456C52.3699 76.2594 52.3431 76.0026 52.3507 76.175C52.3716 76.8721 52.3606 77.5697 52.3984 78.2663C52.4211 79.707 52.3815 81.1472 52.4008 82.5869C52.4124 83.8331 52.4986 85.0747 52.5825 86.3175C52.54 87.5352 52.498 88.7541 52.5941 89.9707C52.8113 93.1551 52.7339 97.3429 53.0734 98.51C53.0763 98.5327 53.0798 98.5566 53.0833 98.581C52.7793 99.3381 53.5603 100.321 54.495 99.8168C55.0389 99.5169 55.0989 98.7866 54.7658 98.3399C54.7465 98.1052 54.7471 97.8705 54.7477 97.6341Z" fill="black"/>
</g>
<g opacity="0.1294">
<path d="M68.511 32.8047C68.511 33.3475 68.4132 33.8733 68.2402 34.3777C68.3992 34.0469 68.5314 33.7283 68.5611 33.2112C68.5454 32.9887 68.5809 32.9381 68.511 32.8047Z" fill="black"/>
</g>
<g opacity="0.1294">
<path d="M53.0132 49.2645C52.6382 49.7577 52.2952 50.2702 51.976 50.7944C51.8893 51.0413 51.8031 51.2888 51.7145 51.5357C51.35 52.5601 51.1852 53.6707 50.8247 55.2116C50.5766 57.0869 50.5201 58.9825 50.5131 60.8717C50.4957 62.0515 50.5085 63.2565 50.491 64.8743C50.5137 65.7548 50.3978 66.6785 50.5918 67.5363C50.8946 68.3353 52.1542 68.0907 52.1379 67.2247C52.0104 65.7484 52.0803 64.2634 51.9597 62.7865C51.9953 61.5653 52.0716 60.8029 52.1257 59.2853C52.1263 59.2585 52.1275 59.2346 52.128 59.2084C52.3651 59.1385 52.5619 58.9394 52.5706 58.6039C52.6568 56.5697 53.3737 54.603 53.6014 52.2334C53.6154 52.0045 53.6463 51.75 53.5449 51.5444C54.044 50.2056 54.5769 49.1381 55.5401 47.596C55.7224 47.3071 55.8779 47.0025 56.0474 46.7055C56.5069 46.1727 57.0083 45.6777 57.5068 45.1809C57.5394 45.1518 57.5709 45.1215 57.6029 45.0918C55.8575 46.2239 54.2875 47.5878 53.0132 49.2645Z" fill="black"/>
</g>
<g opacity="0.1294">
<path d="M64.8438 39.1981C65.0604 39.0047 65.2724 38.8027 65.4768 38.5907C65.7395 38.2873 65.994 37.9547 66.217 37.6426C65.8367 38.0834 65.4314 38.5027 64.9946 38.9011C64.8025 39.0764 64.6056 39.2458 64.4082 39.4153C64.5532 39.3431 64.6982 39.2703 64.8438 39.1981Z" fill="black"/>
</g>
<g opacity="0.1294">
<path d="M65.3045 34.3068C65.3167 34.2946 65.3336 34.2824 65.3441 34.2696C65.3924 34.191 65.4111 34.103 65.4087 34.0157C65.3878 34.032 65.3651 34.0465 65.3388 34.0582C64.6977 34.3406 63.9982 34.495 63.3279 34.6959C62.671 34.8927 62.0153 35.0948 61.3618 35.3027C60.0335 35.7261 58.7214 36.1873 57.4157 36.6765C57.3721 36.6928 57.3307 36.7015 57.2905 36.7056C57.2899 36.7138 57.2888 36.7219 57.2882 36.7301C57.2888 36.7353 57.2911 36.7388 57.2911 36.7435C57.2928 36.7773 57.2864 36.8087 57.2777 36.8384C57.28 36.8588 57.2818 36.8792 57.2841 36.899C57.2847 36.903 57.2853 36.9065 57.2853 36.91C57.2858 36.9129 57.2859 36.9135 57.2864 36.917C57.287 36.9199 57.287 36.9223 57.287 36.9246C57.2882 36.9322 57.2888 36.9403 57.2899 36.9479C57.2894 36.9415 57.2888 36.938 57.2876 36.9333C57.301 37.0352 57.2963 37.1232 57.2468 37.2164C57.2334 37.242 57.2101 37.2595 57.1909 37.2798C57.1962 37.4353 57.1135 37.5815 56.9656 37.6438C56.7804 37.7219 56.6045 37.6432 56.4927 37.4889C56.269 37.1808 56.3197 36.7307 56.3238 36.3696C56.3255 36.1768 56.3389 35.9852 56.357 35.7936C56.3494 35.7465 56.3418 35.6999 56.3325 35.6527C56.3255 35.6183 56.329 35.5863 56.329 35.5537C56.2399 35.2538 56.106 34.6941 56.092 34.3569C56.0908 34.2655 56.0722 34.1863 56.0442 34.1158C56.046 33.94 56.0472 33.7641 56.0501 33.5882C56.1316 32.3274 56.3459 31.0665 56.2114 29.8005C56.1689 29.3387 56.1095 28.878 56.0914 28.4139C56.0437 28.1652 56.0809 27.867 55.919 27.6603C55.5917 27.1979 54.8335 27.5793 54.9942 28.1209C55.1317 29.1127 55.0076 31.0968 54.7799 32.0793C54.6221 33.1689 54.2086 34.2218 54.1574 35.3225C54.1527 35.8431 54.1166 36.3649 54.1486 36.885C54.1568 37.1715 54.2092 37.4703 54.4282 37.6753C54.8649 38.1423 55.6436 37.9368 55.8952 37.4161C56.0734 37.4505 56.2609 37.4534 56.4496 37.4423C55.6727 37.7737 54.8609 38.1528 54.0543 38.6269C54.0508 39.1766 54.0467 39.7264 54.0321 40.2761C54.0298 40.367 54.024 40.4578 54.0205 40.5493C54.3105 40.7164 54.6838 40.7478 55.0775 40.533C57.3895 38.96 59.9752 37.8471 62.4625 36.5886C63.1783 36.2042 63.9167 35.8594 64.3069 35.7115C64.6546 35.5304 65.1117 35.4722 65.372 35.167C65.612 34.8811 65.5264 34.5247 65.3045 34.3068Z" fill="black"/>
</g>
<g opacity="0.1294">
<path d="M69.896 11.8648C69.56 11.6587 69.0918 11.8538 68.9916 12.2329C68.938 12.4029 68.9963 12.5695 69.0248 12.7384C69.0545 13.0208 69.033 13.3056 69.005 13.5875C68.9817 13.7936 68.9561 14.0941 68.7907 14.6287C68.7779 14.6631 68.7645 14.6963 68.7511 14.7301C68.7499 14.733 68.7494 14.7347 68.7476 14.7382C68.5875 15.0888 68.3883 15.4213 68.1618 15.7335C68.04 15.8983 67.983 15.9699 68.1425 15.7638C67.4111 16.7818 66.6616 17.5464 65.1154 18.2423C64.427 18.5295 63.6286 18.5743 62.9775 18.9307C62.3421 19.3785 62.8663 20.4239 63.6105 20.2014C64.5604 19.9481 65.5434 19.7926 66.4187 19.3209C68.0849 18.4508 69.5676 17.0118 70.0341 15.1447C70.2169 14.401 70.6036 12.347 69.896 11.8648Z" fill="black"/>
</g>
<path d="M39.5253 67.8018C39.2801 67.8018 39.0815 67.6032 39.0815 67.358C39.0815 65.0839 39.2941 62.7591 39.5195 60.298C39.7769 57.4886 40.0425 54.5832 40.0582 51.2567C40.0599 50.8438 40.0378 50.2323 40.0116 49.5236C39.9458 47.7421 39.8648 45.5262 40.0937 44.4651C40.4757 42.697 41.5287 42.4321 42.5461 42.1752C43.2111 42.0075 43.8995 41.834 44.6117 41.2691C46.2499 39.971 47.3349 37.1546 48.3837 34.4315C49.3848 31.8324 50.3306 29.3777 51.7766 27.9159C52.4376 27.2479 53.3286 26.5113 54.36 26.7576C54.8504 26.8735 55.2167 27.128 55.4479 27.5118C55.9021 28.2653 55.7117 29.32 55.4956 30.154C55.014 32.0123 54.9424 34.0052 54.8736 35.9322C54.8201 37.4301 54.77 38.8447 54.5335 40.1387C54.4899 40.3798 54.2558 40.5382 54.0176 40.4951C53.7765 40.4514 53.6169 40.2202 53.6612 39.9791C53.8854 38.7492 53.9354 37.3654 53.9873 35.9008C54.0577 33.926 54.1311 31.8836 54.6366 29.9315C54.8864 28.9683 54.9033 28.3265 54.6879 27.9695C54.5813 27.7925 54.4118 27.6812 54.155 27.6207C53.554 27.4757 52.9047 28.0371 52.4079 28.5396C51.0923 29.8698 50.1366 32.3507 49.2118 34.75C48.1199 37.5838 46.9907 40.5149 45.1632 41.9638C44.3013 42.6469 43.4487 42.8624 42.7633 43.0348C41.7721 43.2846 41.2264 43.4221 40.9608 44.6515C40.7553 45.6036 40.838 47.8498 40.8979 49.4898C40.9242 50.2078 40.9469 50.8281 40.9451 51.2596C40.9294 54.6251 40.6615 57.5498 40.4024 60.3778C40.1793 62.8179 39.9679 65.1229 39.9679 67.3569C39.9691 67.6026 39.7705 67.8018 39.5253 67.8018Z" fill="black"/>
<path d="M30.6355 46.2339C30.4532 46.2339 30.2861 46.1215 30.2203 45.9456C28.599 41.6052 27.4284 37.9514 26.425 34.0985C26.365 33.8696 26.496 33.6343 26.7214 33.5638C28.2321 33.0898 30.112 32.4993 31.2132 31.1557C31.5883 30.698 31.8835 30.1418 32.0914 29.503C32.5981 27.9457 32.3611 25.8725 30.9285 24.9232C30.5208 24.653 29.9972 24.4655 29.3718 24.3659C27.5303 24.0701 25.4676 24.7305 24.2388 26.007C24.1182 26.1317 23.9365 26.1747 23.7735 26.1183C23.6098 26.0612 23.4939 25.9138 23.4776 25.7415C23.0164 20.9439 22.1877 16.218 21.0142 11.6953C20.9571 11.4746 21.0765 11.2463 21.2908 11.1677C26.5951 9.21791 31.2156 7.69443 35.8303 6.3742C35.9828 6.33111 36.1459 6.37129 36.2595 6.48077C36.373 6.59026 36.4208 6.75216 36.3835 6.90532C35.765 9.45377 37.1196 12.3656 39.4677 13.5338C40.3873 13.9916 41.2905 14.0778 41.9457 13.7709C42.3068 13.6014 42.6498 13.291 42.9637 12.8484C43.7505 11.7396 44.0492 10.2522 43.7633 8.86907C43.4307 7.2629 42.3906 5.9945 41.5765 5.21296C41.4588 5.09998 41.4128 4.93167 41.4565 4.77443C41.5002 4.61719 41.6266 4.49664 41.7856 4.45995C46.4923 3.3884 51.3603 2.28015 55.9895 0.0438493C56.1142 -0.0161347 56.2603 -0.0143876 56.3832 0.0479258C56.5067 0.110822 56.594 0.227295 56.6185 0.36357C56.9982 2.44787 58.3423 9.54054 59.8512 14.1657C60.0725 14.2601 60.3113 14.27 60.5769 14.1972C61.2035 14.0254 61.9047 13.3912 62.321 12.6189C62.4305 12.4163 62.5359 12.2055 62.6425 11.9935C63.1742 10.933 63.777 9.73039 64.9994 9.29303C65.5777 9.08629 66.2672 9.08047 66.994 9.27615C69.5762 9.97091 71.2866 12.9387 70.6542 15.6275C70.0479 18.2039 67.517 20.1437 64.7647 20.1437C64.6616 20.1426 64.5608 20.1414 64.4584 20.1391C64.0128 20.1286 63.5941 20.1193 63.2919 20.3021C62.639 20.6964 62.7508 21.8116 62.9593 22.6776C63.5493 25.1282 64.2778 26.9644 65.0483 28.9078C65.6196 30.348 66.2101 31.8365 66.8129 33.7188C66.8828 33.9371 66.7744 34.1736 66.563 34.2627C65.276 34.8066 63.6139 35.4158 61.8546 36.0616C59.3178 36.9917 56.6954 37.9532 54.8586 38.8395C54.6379 38.9461 54.3729 38.8535 54.2663 38.6334C54.1597 38.4126 54.2523 38.1477 54.4725 38.0411C56.3483 37.1355 58.9917 36.1665 61.5488 35.2288C63.13 34.6494 64.6325 34.0985 65.8421 33.6023C65.2911 31.928 64.749 30.5606 64.2231 29.2351C63.4404 27.2614 62.7008 25.3973 62.0963 22.8855C61.5931 20.7948 62.2186 19.9137 62.8324 19.5427C63.3554 19.2271 63.9517 19.2405 64.4776 19.2521C64.5737 19.2545 64.6604 19.2603 64.7635 19.2568C67.0773 19.2568 69.2839 17.5755 69.7899 15.4248C70.3082 13.2211 68.8651 10.6989 66.7622 10.1334C66.3778 10.0303 65.8106 9.94529 65.2964 10.1293C64.4088 10.4467 63.9354 11.3919 63.434 12.3924C63.3233 12.6125 63.2138 12.8315 63.1003 13.0417C62.6955 13.7918 61.8528 14.769 60.8092 15.0544C60.2571 15.2052 59.7202 15.1371 59.256 14.8576C59.1652 14.8028 59.0971 14.7172 59.0639 14.6171C57.6318 10.297 56.3419 3.7384 55.8492 1.09211C51.5437 3.08847 47.0863 4.16003 42.7476 5.15123C43.521 6.01779 44.327 7.22155 44.631 8.68912C44.9665 10.3093 44.613 12.0564 43.6864 13.362C43.2823 13.931 42.8233 14.3387 42.3213 14.5745C41.0861 15.1534 39.7548 14.6689 39.0717 14.3288C36.5897 13.0936 35.0714 10.1672 35.3906 7.42479C31.1317 8.66175 26.8385 10.0821 21.9722 11.8636C23.0356 16.0415 23.8084 20.386 24.2732 24.7969C25.7034 23.7177 27.7016 23.2018 29.511 23.4906C30.2622 23.6106 30.9034 23.8441 31.4176 24.1848C33.2195 25.3781 33.5439 27.9021 32.9341 29.7779C32.6919 30.5221 32.343 31.1755 31.8981 31.7183C30.7328 33.141 28.9333 33.7921 27.3894 34.2837C28.334 37.8547 29.4341 41.2826 30.9215 45.2898C33.58 44.8024 36.2601 43.9533 38.8551 43.1304C39.5464 42.9114 40.7338 42.4927 41.8817 42.088C43.04 41.6797 44.2385 41.2575 44.9414 41.0351C45.1749 40.9599 45.4242 41.0904 45.4982 41.3239C45.5727 41.5574 45.4428 41.8067 45.2093 41.8807C44.5198 42.099 43.3282 42.5189 42.1763 42.9248C41.0221 43.3319 39.8282 43.7524 39.127 43.9749C36.3812 44.8449 33.5468 45.7441 30.7095 46.2286C30.685 46.2315 30.66 46.2339 30.6355 46.2339Z" fill="black"/>
<path d="M52.5727 68.0506C52.3491 68.0506 52.1569 67.8823 52.1324 67.6552C51.5285 62.0918 52.3269 54.461 53.9902 49.9057C55.3535 46.171 58.7901 43.548 61.8225 41.2342C64.3866 39.2775 66.8081 37.4291 67.4551 35.2964C68.1534 32.9943 68.1103 32.9052 67.0096 30.6223C66.4902 29.5444 65.7051 27.9155 64.6848 25.36C64.4921 24.8773 64.3057 24.4376 64.142 24.3601C63.9807 24.2832 63.5131 24.4096 63.007 24.5569C62.7717 24.6251 62.5254 24.4911 62.4567 24.2559C62.3879 24.0206 62.5225 23.7742 62.7577 23.7055C64.4676 23.2053 64.8537 23.391 65.5077 25.0304C66.5169 27.5573 67.263 29.1064 67.8086 30.2368C68.9547 32.6152 69.1021 32.9204 68.3036 35.5538C67.5739 37.9602 65.0412 39.8931 62.36 41.9395C59.4249 44.1799 56.0978 46.719 54.8236 50.2103C53.2005 54.6549 52.4224 62.1139 53.0141 67.5597C53.0409 67.8037 52.8645 68.022 52.621 68.0483C52.6047 68.05 52.5884 68.0506 52.5727 68.0506Z" fill="black"/>
<path d="M36.9025 99.5496C36.8972 99.5496 36.8914 99.5496 36.8862 99.549C36.641 99.5403 36.45 99.3341 36.4593 99.0895C36.7936 89.9848 36.9106 80.7473 36.8093 71.6326C36.807 71.4183 36.9584 71.2331 37.1686 71.1923C40.6058 70.5278 43.973 70.7026 47.2285 70.8709C49.6686 70.9972 52.1087 71.123 54.5256 71.2447C54.6479 71.2506 54.762 71.3076 54.8412 71.4008C54.9204 71.494 54.9577 71.6157 54.9437 71.738C54.4714 75.9118 54.6292 80.187 54.7818 84.3218L55.3246 99.036C55.3333 99.2811 55.1423 99.4867 54.8977 99.4955C54.642 99.5048 54.4475 99.3132 54.4382 99.0686L53.8954 84.3545C53.7475 80.3408 53.5943 76.1955 54.0119 72.1072C51.7482 71.9937 49.4648 71.8754 47.1825 71.7572C44.0959 71.5982 40.908 71.4334 37.6998 71.9972C37.7941 81.0047 37.6747 90.1281 37.3451 99.1227C37.3369 99.3615 37.1401 99.5496 36.9025 99.5496Z" fill="black"/>
<path d="M37.8995 71.8413C37.8954 71.8413 37.8913 71.8413 37.8873 71.8407C37.6421 71.8343 37.4493 71.6305 37.4557 71.3859L37.5588 67.5551C37.5646 67.321 37.7521 67.1323 37.9857 67.1235C43.3615 66.9249 48.8044 67.0612 54.1651 67.5306C54.3945 67.5504 54.5704 67.7432 54.5698 67.9738C54.5669 69.1333 54.4859 70.3039 54.3305 71.4517C54.2978 71.6945 54.0748 71.8663 53.8313 71.832C53.5885 71.7988 53.4185 71.5757 53.4511 71.3329C53.5833 70.3574 53.659 69.3662 53.6776 68.3791C48.6238 67.9534 43.499 67.8241 38.4335 67.9953L38.3409 71.4092C38.3363 71.6503 38.1388 71.8413 37.8995 71.8413Z" fill="black"/>
<path d="M69.1055 43.0126C69.0164 43.0126 68.9261 42.9858 68.8481 42.9299C68.6484 42.7878 68.6023 42.5106 68.745 42.3114C71.3814 38.6181 72.987 34.2765 73.3888 29.7556C73.4104 29.511 73.6288 29.3328 73.8699 29.3531C74.1139 29.3747 74.2938 29.5902 74.2723 29.8342C73.8565 34.5118 72.1944 39.0048 69.4666 42.8268C69.3798 42.948 69.2435 43.0126 69.1055 43.0126Z" fill="black"/>
<path d="M73.8501 45.3105C73.7768 45.3105 73.7022 45.2925 73.6341 45.254C73.4204 45.1347 73.3441 44.8644 73.464 44.6507L77.3863 37.6431C77.5057 37.4293 77.7765 37.353 77.9896 37.4724C78.2034 37.5918 78.2796 37.862 78.1603 38.0758L74.238 45.0834C74.1565 45.229 74.0056 45.3105 73.8501 45.3105Z" fill="black"/>
</svg>
