<svg width="91" height="28" viewBox="0 0 91 28" fill="none" xmlns="http://www.w3.org/2000/svg">
<g id="Layer_1" clip-path="url(#clip0_1562_45717)">
<g id="Group">
<path id="Vector" d="M0.921875 5.74117C0.921875 2.57597 3.31689 0.558594 5.98023 0.558594C8.10443 0.558594 9.43113 1.5648 10.1069 2.76479C10.4075 3.29895 10.1417 3.97472 9.55784 4.15857C9.12555 4.29521 8.65598 4.11136 8.43238 3.71634C8.03487 3.01572 7.27711 2.41945 5.98023 2.41945C4.49452 2.41945 2.92683 3.48528 2.92683 5.73868C2.92683 7.85295 4.41253 9.01568 6.01004 9.01568C7.30692 9.01568 8.0945 8.36972 8.51189 7.65171C8.733 7.27408 9.19014 7.10265 9.60753 7.22936C10.1939 7.40575 10.4696 8.08401 10.1665 8.61568C9.48828 9.81319 8.14915 10.9064 6.00755 10.9064C3.23242 10.9113 0.921875 8.90636 0.921875 5.74117Z" fill="#800020"/>
<path id="Vector_2" d="M16.151 5.16401C16.151 5.41246 15.9472 5.6137 15.6988 5.60625C15.6615 5.60625 15.6267 5.60625 15.5895 5.60625C14.6379 5.60625 13.8106 6.06836 13.8106 7.55406V9.77516C13.8106 10.2894 13.3932 10.7068 12.8789 10.7068C12.3647 10.7068 11.9473 10.2894 11.9473 9.77516V4.71681C11.9473 4.21744 12.3522 3.81247 12.8516 3.81247C13.351 3.81247 13.7559 4.21744 13.7559 4.71681V4.83607C14.1758 3.92427 15.1299 3.75781 15.7162 3.75781C15.7162 3.75781 15.7187 3.75781 15.7212 3.75781C15.9597 3.75781 16.151 3.96154 16.151 4.20005V5.16898V5.16401Z" fill="#800020"/>
<path id="Vector_3" d="M18.7427 12.1489L19.7912 9.8334L17.5129 5.14771C17.2123 4.52909 17.662 3.80859 18.3502 3.80859C18.7154 3.80859 19.0458 4.02226 19.1974 4.35517L20.7849 7.84335L22.2483 4.36014C22.3874 4.02723 22.7154 3.80859 23.0781 3.80859C23.7315 3.80859 24.1663 4.48188 23.898 5.07815L20.38 12.8893C20.2359 13.2123 19.9129 13.4185 19.5601 13.4185C18.9067 13.4185 18.4719 12.7427 18.7402 12.1489H18.7427Z" fill="#800020"/>
<path id="Vector_4" d="M25.829 8.58396C26.1669 8.50942 26.5047 8.66595 26.6911 8.95911C26.8774 9.25228 27.2451 9.48333 27.7793 9.48333C28.3954 9.48333 28.6911 9.16035 28.6911 8.79762C28.6911 8.48955 28.4799 8.23613 27.9482 8.12433L27.0364 7.91316C25.7048 7.61999 25.1035 6.81999 25.1035 5.85354C25.1035 4.62125 26.1967 3.59766 27.6824 3.59766C28.8178 3.59766 29.5184 4.01504 29.9209 4.51194C30.2935 4.97156 30.0575 5.65975 29.4811 5.79143C29.1681 5.861 28.8352 5.74423 28.6613 5.4759C28.4873 5.20758 28.1942 5.01131 27.6973 5.01131C27.2004 5.01131 26.8153 5.30448 26.8153 5.69702C26.8153 6.03242 27.0687 6.2436 27.4464 6.31317L28.4277 6.52434C29.7867 6.80509 30.4724 7.62993 30.4724 8.63862C30.4724 9.75911 29.6029 10.9069 27.7967 10.9069C26.5221 10.9069 25.7619 10.4001 25.3445 9.82619C25.0066 9.36159 25.27 8.70073 25.8315 8.57899L25.829 8.58396Z" fill="#800020"/>
<path id="Vector_5" d="M34.2661 3.80855H34.8276C35.2847 3.80855 35.6549 4.17873 35.6549 4.63587C35.6549 5.09301 35.2847 5.4632 34.8276 5.4632H34.2661V8.35014C34.2661 8.95137 34.5468 9.14764 35.0785 9.14764C35.0785 9.14764 35.0835 9.14764 35.086 9.14764C35.399 9.14764 35.6524 9.39361 35.6524 9.70665V10.206C35.6524 10.4793 35.4586 10.7129 35.1878 10.7576C35.0288 10.7824 34.8325 10.8023 34.6015 10.8023C33.2574 10.8023 32.4152 10.0048 32.4152 8.67311V5.46568H31.5183C31.3245 5.46568 31.168 5.30916 31.168 5.11537V4.16383C31.168 3.97004 31.3245 3.81352 31.5183 3.81352C32.2462 3.81352 32.5841 3.3365 32.5841 2.72036V2.59365C32.5841 2.12906 32.9593 1.75391 33.4239 1.75391C33.8884 1.75391 34.2636 2.12906 34.2636 2.59365V3.81352L34.2661 3.80855Z" fill="#800020"/>
<path id="Vector_6" d="M38.9156 6.73552L40.61 6.48211C41.0026 6.42497 41.1293 6.23118 41.1293 5.99267C41.1293 5.50323 40.7516 5.09578 39.9665 5.09578C39.4125 5.09578 39.0274 5.33677 38.8212 5.67963C38.6374 5.98522 38.2821 6.13925 37.9343 6.06472C37.3554 5.94298 37.0721 5.26473 37.4125 4.78026C37.8796 4.11691 38.7293 3.59766 39.9516 3.59766C42.138 3.59766 42.9504 4.82995 42.9504 6.21627V9.60755C42.9504 9.6796 42.9504 9.7591 42.9553 9.83861C42.9727 10.3082 42.6025 10.7007 42.1305 10.7007H42.0808C41.6286 10.7007 41.2535 10.3355 41.2535 9.88333V9.87587C40.9032 10.4225 40.2448 10.8995 39.2212 10.8995C37.7504 10.8995 36.8535 9.90569 36.8535 8.82495C36.8535 7.59266 37.7653 6.90447 38.9131 6.73801L38.9156 6.73552ZM41.1293 7.91315V7.60508L39.574 7.84359C39.097 7.91315 38.7193 8.17899 38.7193 8.71315C38.7193 9.1206 39.0125 9.51066 39.6162 9.51066C40.4013 9.51066 41.1293 9.13302 41.1293 7.91315Z" fill="#800020"/>
<path id="Vector_7" d="M44.8301 9.76847V1.49026C44.8301 0.975982 45.2475 0.558594 45.7617 0.558594C46.276 0.558594 46.6934 0.975982 46.6934 1.49026V9.77095C46.6934 10.2852 46.276 10.7026 45.7617 10.7026C45.2475 10.7026 44.8301 10.2852 44.8301 9.77095V9.76847Z" fill="#800020"/>
<path id="Vector_8" d="M49.6068 0.390625C50.2503 0.390625 50.7546 0.909876 50.7546 1.55335C50.7546 2.19682 50.2503 2.68875 49.6068 2.68875C48.9633 2.68875 48.459 2.16949 48.459 1.55335C48.459 0.937205 48.9782 0.390625 49.6068 0.390625ZM48.6826 9.76944V4.74091C48.6826 4.22662 49.1 3.80923 49.6143 3.80923C50.1285 3.80923 50.5459 4.22662 50.5459 4.74091V9.76944C50.5459 10.2837 50.1285 10.7011 49.6143 10.7011C49.1 10.7011 48.6826 10.2837 48.6826 9.76944Z" fill="#800020"/>
<path id="Vector_9" d="M52.0586 9.51485C52.0586 9.22169 52.1654 8.94095 52.3617 8.7248L55.3232 5.42047H52.948C52.5033 5.42047 52.1431 5.06023 52.1431 4.61551C52.1431 4.17079 52.5033 3.81055 52.948 3.81055H56.5828C57.2039 3.81055 57.7058 4.31241 57.7058 4.93352C57.7058 5.21178 57.6014 5.4801 57.4151 5.68631L54.3443 9.07759H56.9505C57.4002 9.07759 57.7629 9.44032 57.7629 9.89001C57.7629 10.3397 57.4002 10.7024 56.9505 10.7024H53.2462C52.5903 10.7024 52.0611 10.1708 52.0611 9.51734L52.0586 9.51485Z" fill="#800020"/>
<path id="Vector_10" d="M64.531 8.46417C65.0477 8.61821 65.2614 9.23932 64.9384 9.67162C64.3943 10.3996 63.4875 10.9114 62.2726 10.9114C60.3819 10.9114 58.7148 9.55236 58.7148 7.22691C58.7148 5.02817 60.3397 3.59961 62.1061 3.59961C64.2353 3.59961 65.5098 4.95861 65.5098 7.17226C65.5098 7.49027 65.2514 7.74617 64.9384 7.74617H60.5509C60.5931 8.65796 61.3633 9.31634 62.2875 9.31634C62.9086 9.31634 63.3285 9.09522 63.5993 8.74243C63.803 8.47659 64.1384 8.34989 64.4589 8.4443L64.531 8.46666V8.46417ZM63.6738 6.47164C63.6465 5.78593 63.1968 5.11264 62.1335 5.11264C61.167 5.11264 60.6353 5.84059 60.5931 6.47164H63.6763H63.6738Z" fill="#800020"/>
</g>
<g id="Group_2">
<g id="Group_3">
<path id="Vector_11" d="M0.921875 22.2412C0.921875 19.076 3.31689 17.0586 5.98023 17.0586C8.10443 17.0586 9.43113 18.0648 10.1069 19.2648C10.4075 19.7989 10.1417 20.4747 9.55784 20.6586C9.12555 20.7952 8.65598 20.6114 8.43238 20.2163C8.03487 19.5157 7.27711 18.9195 5.98023 18.9195C4.49452 18.9195 2.92683 19.9853 2.92683 22.2387C2.92683 24.353 4.41253 25.5157 6.01004 25.5157C7.30692 25.5157 8.0945 24.8697 8.51189 24.1517C8.733 23.7741 9.19014 23.6026 9.60753 23.7294C10.1939 23.9058 10.4696 24.584 10.1665 25.1157C9.48828 26.3132 8.14915 27.4064 6.00755 27.4064C3.2349 27.4064 0.921875 25.4039 0.921875 22.2362L0.921875 22.2412Z" fill="#800020"/>
<path id="Vector_12" d="M13.5172 23.2355L15.2116 22.9821C15.6041 22.925 15.7308 22.7312 15.7308 22.4927C15.7308 22.0032 15.3532 21.5958 14.5681 21.5958C14.0141 21.5958 13.629 21.8368 13.4228 22.1796C13.2389 22.4852 12.8836 22.6393 12.5358 22.5647C11.9569 22.443 11.6737 21.7647 12.0141 21.2803C12.4812 20.6169 13.3308 20.0977 14.5532 20.0977C16.7395 20.0977 17.5519 21.3299 17.5519 22.7163V26.1076C17.5519 26.1796 17.5519 26.2591 17.5569 26.3386C17.5743 26.8082 17.2041 27.2007 16.7321 27.2007H16.6824C16.2302 27.2007 15.855 26.8355 15.855 26.3833V26.3759C15.5047 26.9225 14.8464 27.3995 13.8228 27.3995C12.352 27.3995 11.4551 26.4057 11.4551 25.3249C11.4551 24.0927 12.3669 23.4045 13.5147 23.238L13.5172 23.2355ZM15.7308 24.4132V24.1051L14.1756 24.3436C13.6985 24.4132 13.3209 24.679 13.3209 25.2131C13.3209 25.6206 13.6141 26.0107 14.2178 26.0107C15.0029 26.0107 15.7308 25.633 15.7308 24.4132Z" fill="#800020"/>
<path id="Vector_13" d="M23.6314 21.6621C23.6314 21.9105 23.4277 22.1117 23.1793 22.1043C23.142 22.1043 23.1072 22.1043 23.0699 22.1043C22.1184 22.1043 21.2911 22.5664 21.2911 24.0521V26.2732C21.2911 26.7875 20.8737 27.2049 20.3594 27.2049C19.8451 27.2049 19.4277 26.7875 19.4277 26.2732V21.2149C19.4277 20.7155 19.8327 20.3105 20.3321 20.3105C20.8315 20.3105 21.2364 20.7155 21.2364 21.2149V21.3341C21.6563 20.4223 22.6103 20.2559 23.1967 20.2559C23.1967 20.2559 23.1991 20.2559 23.2016 20.2559C23.4401 20.2559 23.6314 20.4596 23.6314 20.6981V21.667V21.6621Z" fill="#800020"/>
<path id="Vector_14" d="M30.1755 24.9622C30.6923 25.1163 30.9059 25.7374 30.5829 26.1697C30.0388 26.8976 29.132 27.4094 27.9171 27.4094C26.0264 27.4094 24.3594 26.0504 24.3594 23.725C24.3594 21.5262 25.9842 20.0977 27.7507 20.0977C29.8798 20.0977 31.1544 21.4567 31.1544 23.6703C31.1544 23.6728 31.1544 23.6753 31.1544 23.6778C31.1544 23.9908 30.896 24.2442 30.5829 24.2442H26.1954C26.2376 25.156 27.0078 25.8144 27.932 25.8144C28.5531 25.8144 28.973 25.5933 29.2438 25.2405C29.4475 24.9746 29.7829 24.8479 30.1034 24.9423L30.1755 24.9647V24.9622ZM29.3183 22.9697C29.291 22.284 28.8413 21.6107 27.778 21.6107C26.8115 21.6107 26.2799 22.3386 26.2376 22.9697H29.3208H29.3183Z" fill="#800020"/>
</g>
<g id="Group_4">
<path id="Vector_15" d="M42.5785 20.0102C42.1834 20.1319 41.7561 19.9729 41.535 19.6226C41.2766 19.2176 40.7996 18.8524 39.9747 18.8524C39.0356 18.8524 38.4195 19.4537 38.4195 20.112C38.4195 20.6586 38.7698 21.0934 39.4977 21.2325L40.8841 21.4984C42.6903 21.8487 43.6592 23.0263 43.6592 24.4275C43.6592 25.9555 42.3847 27.4958 40.0716 27.4958C38.0692 27.4958 36.9189 26.517 36.412 25.4263C36.171 24.9045 36.4717 24.2934 37.0257 24.1468C37.4679 24.03 37.9176 24.2561 38.1164 24.6685C38.422 25.3045 39.063 25.7741 40.0841 25.7741C41.1052 25.7741 41.6965 25.2549 41.6965 24.5542C41.6965 23.9803 41.2617 23.5306 40.4915 23.3766L39.1052 23.0959C37.5226 22.7729 36.499 21.7518 36.499 20.2512C36.499 18.4847 38.0816 17.1406 39.9598 17.1406C41.6219 17.1406 42.5785 17.8338 43.0853 18.6313C43.4108 19.1456 43.1598 19.8288 42.5785 20.0052V20.0102Z" fill="#800020"/>
<path id="Vector_16" d="M50.402 25.0482C50.9188 25.2022 51.1325 25.8233 50.8095 26.2556C50.2654 26.9835 49.3586 27.4953 48.1437 27.4953C46.253 27.4953 44.5859 26.1363 44.5859 23.8109C44.5859 21.6122 46.2108 20.1836 47.9772 20.1836C50.1064 20.1836 51.3809 21.5426 51.3809 23.7562C51.3809 23.7587 51.3809 23.7612 51.3809 23.7637C51.3809 24.0767 51.1225 24.3301 50.8095 24.3301H46.4219C46.4642 25.2419 47.2344 25.9003 48.1586 25.9003C48.7797 25.9003 49.1996 25.6792 49.4704 25.3264C49.6741 25.0606 50.0095 24.9339 50.33 25.0283L50.402 25.0506V25.0482ZM49.5449 23.0556C49.5176 22.3699 49.0679 21.6966 48.0045 21.6966C47.0381 21.6966 46.5064 22.4246 46.4642 23.0556H49.5474H49.5449Z" fill="#800020"/>
<path id="Vector_17" d="M57.0533 21.746C57.0533 21.9945 56.8496 22.1957 56.6011 22.1883C56.5639 22.1883 56.5291 22.1883 56.4918 22.1883C55.5403 22.1883 54.713 22.6504 54.713 24.1361V26.3572C54.713 26.8715 54.2956 27.2889 53.7813 27.2889C53.267 27.2889 52.8496 26.8715 52.8496 26.3572V21.2988C52.8496 20.7995 53.2546 20.3945 53.754 20.3945C54.2533 20.3945 54.6583 20.7995 54.6583 21.2988V21.4181C55.0782 20.5063 56.0322 20.3398 56.6185 20.3398C56.6185 20.3398 56.621 20.3398 56.6235 20.3398C56.862 20.3398 57.0533 20.5436 57.0533 20.7821V21.751V21.746Z" fill="#800020"/>
<path id="Vector_18" d="M61.4662 27.2864C60.9072 27.2864 60.4054 26.9485 60.1942 26.4318L58.2538 21.684C58.0029 21.0678 58.4551 20.3945 59.1209 20.3945C59.5135 20.3945 59.8638 20.638 59.9979 21.0057L61.4811 25.0181L62.9072 20.9983C63.0364 20.638 63.3768 20.3945 63.7594 20.3945C64.3954 20.3945 64.8327 21.033 64.6041 21.6268L62.7482 26.4094C62.542 26.9386 62.0352 27.2864 61.4662 27.2864Z" fill="#800020"/>
<path id="Vector_19" d="M67.142 16.9766C67.7854 16.9766 68.2898 17.4958 68.2898 18.1393C68.2898 18.7828 67.7854 19.2747 67.142 19.2747C66.4985 19.2747 65.9941 18.7554 65.9941 18.1393C65.9941 17.5231 66.5134 16.9766 67.142 16.9766ZM66.2177 26.3554V21.3268C66.2177 20.8126 66.6351 20.3952 67.1494 20.3952C67.6637 20.3952 68.0811 20.8126 68.0811 21.3268V26.3554C68.0811 26.8697 67.6637 27.2871 67.1494 27.2871C66.6351 27.2871 66.2177 26.8697 66.2177 26.3554Z" fill="#800020"/>
<path id="Vector_20" d="M71.4155 23.8421C71.4155 25.0893 72.228 25.7899 73.182 25.7899C73.8081 25.7899 74.2304 25.5167 74.4888 25.1788C74.7199 24.8757 75.1099 24.7415 75.4727 24.8632C76.0441 25.0545 76.2503 25.7477 75.8876 26.2297C75.346 26.9477 74.4416 27.5017 73.1845 27.5017C71.1522 27.5017 69.5547 25.9614 69.5547 23.8446C69.5547 21.7279 71.1249 20.1875 73.1273 20.1875C74.4093 20.1875 75.3112 20.7291 75.8503 21.4422C76.218 21.9291 76.0068 22.6322 75.4279 22.8285C75.0528 22.9552 74.6528 22.8111 74.4168 22.4931C74.1683 22.1602 73.7733 21.9117 73.1721 21.9117C72.2205 21.9117 71.4205 22.5974 71.4205 23.8446L71.4155 23.8421Z" fill="#800020"/>
<path id="Vector_21" d="M83.0036 25.0482C83.5204 25.2022 83.734 25.8233 83.4111 26.2556C82.867 26.9835 81.9601 27.4953 80.7452 27.4953C78.8546 27.4953 77.1875 26.1363 77.1875 23.8109C77.1875 21.6122 78.8123 20.1836 80.5788 20.1836C82.708 20.1836 83.9825 21.5426 83.9825 23.7562C83.9825 24.0221 83.9552 24.3028 83.9552 24.3301H79.0235C79.0657 25.2419 79.8359 25.9003 80.7601 25.9003C81.3813 25.9003 81.8011 25.6792 82.0719 25.3264C82.2757 25.0606 82.6111 24.9339 82.9316 25.0283L83.0036 25.0506V25.0482ZM82.1465 23.0556C82.1191 22.3699 81.6695 21.6966 80.6061 21.6966C79.6397 21.6966 79.108 22.4246 79.0657 23.0556H82.149H82.1465Z" fill="#800020"/>
<path id="Vector_22" d="M85.7723 25.1679C86.1102 25.0934 86.4481 25.2499 86.6344 25.5431C86.8208 25.8363 87.1885 26.0673 87.7226 26.0673C88.3388 26.0673 88.6344 25.7443 88.6344 25.3816C88.6344 25.0735 88.4233 24.8201 87.8916 24.7083L86.9798 24.4971C85.6481 24.204 85.0469 23.404 85.0469 22.4375C85.0469 21.2052 86.14 20.1816 87.6257 20.1816C88.7611 20.1816 89.4618 20.599 89.8642 21.0959C90.2369 21.5555 90.0009 22.2437 89.4245 22.3754C89.1114 22.445 88.7785 22.3282 88.6046 22.0599C88.4307 21.7916 88.1375 21.5953 87.6406 21.5953C87.1438 21.5953 86.7587 21.8885 86.7587 22.281C86.7587 22.6164 87.0121 22.8276 87.3897 22.8971L88.3711 23.1083C89.7301 23.3891 90.4158 24.2139 90.4158 25.2226C90.4158 26.3431 89.5462 27.4909 87.74 27.4909C86.4655 27.4909 85.7053 26.9841 85.2879 26.4102C84.95 25.9456 85.2133 25.2847 85.7748 25.163L85.7723 25.1679Z" fill="#800020"/>
</g>
</g>
</g>
<defs>
<clipPath id="clip0_1562_45717">
<rect width="89.4901" height="27.1054" fill="white" transform="translate(0.921875 0.390625)"/>
</clipPath>
</defs>
</svg>
