<svg width="16" height="16" viewBox="0 0 16 16" fill="none" xmlns="http://www.w3.org/2000/svg">
<g id="Icon / Relume">
<path id="Vector" fill-rule="evenodd" clip-rule="evenodd" d="M13.82 4.74732L13.7267 4.58065C13.6063 4.37911 13.4365 4.2116 13.2333 4.09398L8.76 1.51398C8.55746 1.39648 8.32753 1.3344 8.09333 1.33398H7.9C7.6658 1.3344 7.43586 1.39648 7.23333 1.51398L2.76 4.10065C2.55798 4.21749 2.39017 4.3853 2.27333 4.58732L2.18 4.75398C2.0625 4.95654 2.00041 5.18648 2 5.42065V10.5873C2.00041 10.8215 2.0625 11.0514 2.18 11.254L2.27333 11.4206C2.39319 11.6203 2.56033 11.7874 2.76 11.9073L7.24 14.4873C7.44153 14.6072 7.67213 14.6695 7.90666 14.6673H8.09333C8.32753 14.6669 8.55746 14.6048 8.76 14.4873L13.2333 11.9007C13.4373 11.7864 13.6058 11.618 13.72 11.414L13.82 11.2473C13.9361 11.0442 13.9981 10.8146 14 10.5806V5.41398C13.9996 5.17981 13.9375 4.94988 13.82 4.74732ZM7.9 2.66732H8.09333L12 4.92065L8 7.22732L4 4.92065L7.9 2.66732ZM8.66666 13.0006L12.5667 10.7473L12.6667 10.5806V6.07398L8.66666 8.38732V13.0006Z" fill="#2970FF"/>
</g>
</svg>
