<svg width="100" height="100" viewBox="0 0 100 100" fill="none" xmlns="http://www.w3.org/2000/svg">
<path d="M89.9958 37.7715H74.2929C73.2426 37.7715 72.066 38.8932 71.7753 40.1721C71.7673 40.2065 71.7574 40.2407 71.745 40.2741L70.5717 43.4364C70.4542 43.7528 70.1522 43.9629 69.8147 43.9629H14.8993C13.4637 43.9629 12.2957 45.131 12.2957 46.5665V52.5285H13.7274V50.0016C13.7274 49.5557 14.089 49.1941 14.5346 49.1941H17.5089V46.5786C17.5089 46.1327 17.8704 45.7714 18.3164 45.7714H87.643C88.089 45.7714 88.4503 46.133 88.4503 46.5786V52.5285H89.2079C90.1873 52.5285 91.0872 52.8675 91.8032 53.4304V39.5794C91.8037 38.5823 90.9926 37.7715 89.9958 37.7715Z" fill="#8AADFB"/>
<path d="M19.1242 47.3848V49.1926H83.8617C84.3076 49.1926 84.6689 49.5542 84.6689 50.0002V52.5271H86.8359V47.3848H19.1242Z" fill="white"/>
<path d="M83.0542 50.8066H15.3425V52.5263H83.0542V50.8066Z" fill="white"/>
<path d="M89.208 54.1426H11.0465C9.61533 54.1426 8.45093 55.3067 8.45093 56.7381V77.3835C17.3833 91.0034 32.784 100.001 50.2883 100.001C67.5824 100.001 82.8249 91.2197 91.803 77.8736V56.7381C91.8036 55.307 90.6392 54.1426 89.208 54.1426ZM79.0632 71.2825H52.009V61.9911H79.0632V71.2825Z" fill="#8AADFB"/>
<path d="M52.009 71.2817H79.0632V61.9902H52.009V71.2817ZM55.7268 64.7209H75.3318C75.6107 64.7209 75.8366 64.9468 75.8366 65.2257C75.8366 65.5045 75.6107 65.7304 75.3318 65.7304H55.7268C55.4479 65.7304 55.222 65.5045 55.222 65.2257C55.222 64.9468 55.4479 64.7209 55.7268 64.7209ZM55.7268 67.926H75.3318C75.6107 67.926 75.8366 68.1519 75.8366 68.4307C75.8366 68.7096 75.6107 68.9355 75.3318 68.9355H55.7268C55.4479 68.9355 55.222 68.7096 55.222 68.4307C55.222 68.1519 55.4479 67.926 55.7268 67.926Z" fill="white"/>
<path d="M55.7269 65.7301H75.332C75.6108 65.7301 75.8367 65.5043 75.8367 65.2254C75.8367 64.9466 75.6108 64.7207 75.332 64.7207H55.7269C55.4481 64.7207 55.2222 64.9466 55.2222 65.2254C55.2222 65.5043 55.4481 65.7301 55.7269 65.7301Z" fill="#8AADFB"/>
<path d="M55.7269 68.9352H75.332C75.6108 68.9352 75.8367 68.7093 75.8367 68.4305C75.8367 68.1517 75.6108 67.9258 75.332 67.9258H55.7269C55.4481 67.9258 55.2222 68.1517 55.2222 68.4305C55.2222 68.7093 55.4481 68.9352 55.7269 68.9352Z" fill="#8AADFB"/>
<path d="M12.2958 52.5278V46.5658C12.2958 45.1303 13.4638 43.9623 14.8994 43.9623H69.8148C70.1524 43.9623 70.4543 43.7521 70.5718 43.4358L71.7451 40.2734C71.7575 40.24 71.7677 40.2061 71.7754 40.1714C72.0661 38.8925 73.2425 37.7708 74.293 37.7708H89.996C90.9927 37.7708 91.8039 38.5819 91.8039 39.5787V53.4297C92.7852 54.2011 93.4187 55.3959 93.4187 56.7382V39.5789C93.4187 37.6916 91.8833 36.1562 89.996 36.1562H74.293C72.4807 36.1562 70.699 37.7347 70.2136 39.7593L69.2535 42.3474H14.8996C12.5735 42.3474 10.6813 44.2397 10.6813 46.5658V52.5466C10.8021 52.5361 10.9234 52.5281 11.047 52.5281H12.2958V52.5278Z" fill="#1E2248"/>
<path d="M87.6431 45.7695H18.3166C17.8706 45.7695 17.509 46.1311 17.509 46.5768V49.1922H19.1239V47.3844H86.8355V52.5267H88.4504V46.5771C88.4506 46.1311 88.0891 45.7695 87.6431 45.7695Z" fill="#1E2248"/>
<path d="M83.8613 49.1934H19.1239H17.509H14.5347C14.0888 49.1934 13.7275 49.5549 13.7275 50.0009V52.5278H15.3423V50.8082H83.0541V52.5278H84.6689V50.0009C84.6689 49.5549 84.3073 49.1934 83.8613 49.1934Z" fill="#1E2248"/>
<path d="M91.8035 53.4292C91.0875 52.8663 90.1875 52.5273 89.2082 52.5273H88.4506H86.8357H84.6688H83.0539H15.3422H13.7274H12.2957H11.0466C10.923 52.5273 10.8017 52.5353 10.6809 52.5458C8.5302 52.732 6.83624 54.5393 6.83624 56.7377V74.7503C7.34758 75.6459 7.88704 76.5232 8.45106 77.3828V56.7375C8.45106 55.3063 9.61518 54.1419 11.0466 54.1419H89.2082C90.6393 54.1419 91.8035 55.306 91.8035 56.7375V77.873C92.3675 77.0345 92.9048 76.1768 93.4183 75.3033V56.7375C93.4183 55.3954 92.7848 54.2009 91.8035 53.4292Z" fill="#1E2248"/>
</svg>
