<svg width="100" height="101" viewBox="0 0 100 101" fill="none" xmlns="http://www.w3.org/2000/svg">
<g id="Container">
<g id="Group">
<g id="Group_2">
<path id="Vector" d="M68.3993 64.1493C76.3958 70.2038 82.1614 78.7379 89.2373 85.8742C90.8769 87.5273 92.8592 89.2207 95.1708 89.1199C97.2136 89.0325 99.075 87.3459 99.3841 85.2963C99.6327 83.65 98.9608 81.9768 97.9394 80.6731C96.918 79.3695 95.5672 78.3817 94.2502 77.3872C86.6703 71.7157 79.3995 65.6343 72.4715 59.1699C71.0738 60.7894 69.6761 62.4088 68.406 64.1493H68.3993Z" fill="white"/>
<path id="Vector_2" d="M94.9762 89.6978C92.5504 89.6978 90.5143 87.9775 88.8277 86.2774C86.2339 83.6567 83.7744 80.8143 81.4023 78.0592C77.31 73.315 73.0765 68.4096 68.0502 64.6062C67.8015 64.4181 67.7478 64.0619 67.9359 63.8133C69.2127 62.0594 70.644 60.4064 72.0216 58.8071C72.1224 58.6861 72.2702 58.6122 72.4247 58.6055C72.5793 58.6055 72.7338 58.6525 72.8481 58.7533C79.7358 65.1841 87.0469 71.2991 94.5798 76.9302L94.6873 77.0109C95.9909 77.9853 97.3349 78.9932 98.3764 80.317C99.6196 81.8961 100.191 83.7441 99.9421 85.3837C99.5927 87.702 97.5029 89.597 95.1845 89.6911C95.1106 89.6911 95.0367 89.6911 94.9695 89.6911L94.9762 89.6978ZM69.1925 64.035C74.1181 67.8586 78.2575 72.6632 82.2692 77.3133C84.6278 80.0482 87.0738 82.884 89.6407 85.4711C91.1997 87.0435 93.0745 88.6428 95.1442 88.5487C96.8981 88.4748 98.5444 86.9763 98.8132 85.2157C99.0148 83.8919 98.531 82.3665 97.4827 81.0293C96.5352 79.8197 95.2517 78.8588 94.0086 77.9315L93.9011 77.8509C86.4959 72.3071 79.299 66.3063 72.5121 59.9965C71.3832 61.3001 70.2408 62.6441 69.1993 64.035H69.1925Z" fill="black"/>
</g>
<g id="Group_3">
<path id="Vector_3" d="M54.6851 19.9472C54.1207 42.922 54.7187 65.9238 55.4176 89.1338C38.3024 88.9456 19.1309 88.8986 1.9552 89.9671C2.04256 66.3404 0.564209 45.2068 0.564209 19.9405C18.3447 19.3962 36.1386 19.1879 54.6784 19.9539L54.6851 19.9472Z" fill="white"/>
<path id="Vector_4" d="M1.96216 90.5387C1.81432 90.5387 1.6732 90.4849 1.5724 90.3841C1.45816 90.2766 1.39095 90.1221 1.39095 89.9675C1.43799 78.0265 1.08856 66.9322 0.718978 55.186C0.369551 44.0044 0 32.4397 0 19.9476C0 19.6385 0.248601 19.3832 0.55771 19.3765C21.8862 18.7179 38.5848 18.7246 54.719 19.3899C55.0348 19.4033 55.2767 19.6654 55.27 19.9745C54.7123 42.815 55.2969 65.7226 56.0024 89.1275C56.0024 89.2821 55.9487 89.4366 55.8412 89.5442C55.7336 89.6584 55.5791 89.7054 55.4245 89.7189C37.7314 89.524 19.0169 89.4904 2.00247 90.5521C1.98903 90.5521 1.98232 90.5521 1.96888 90.5521L1.96216 90.5387ZM1.14233 20.4919C1.15577 32.7555 1.51191 44.132 1.85462 55.139C2.21749 66.697 2.5602 77.6233 2.53332 89.3493C19.2252 88.3413 37.5029 88.3615 54.8332 88.5496C54.1411 65.5277 53.5699 42.983 54.1007 20.4919C38.316 19.8603 21.9265 19.8535 1.14233 20.4919Z" fill="black"/>
</g>
<g id="Group_4">
<path id="Vector_5" d="M64.2146 63.5044C64.4229 64.8282 65.2024 66.0512 66.3044 66.8105C66.6807 67.0659 67.1175 67.2809 67.5745 67.2608C68.0247 67.2406 68.4346 67.0121 68.8041 66.7635C71.2031 65.1844 72.9771 62.8325 74.6974 60.5276C75.1879 59.869 75.6986 59.1836 75.8801 58.3772C76.0212 57.759 75.9607 57.1072 75.7725 56.5092C75.2484 54.8359 73.4341 53.492 71.7541 53.996C70.8671 54.258 70.1884 54.9569 69.5702 55.6356C67.8768 57.497 66.3044 59.4659 64.8664 61.5355C64.3422 62.2882 63.8114 63.1617 64.2079 63.5112L64.2146 63.5044Z" fill="#ACD4F7"/>
<path id="Vector_6" d="M67.5207 67.8318C67.0301 67.8318 66.5261 67.6504 65.9818 67.2808C64.7992 66.4745 63.9524 65.1708 63.6769 63.7664C63.1394 63.0205 63.9457 61.858 64.396 61.2062C65.8407 59.123 67.44 57.1206 69.1468 55.2525C69.8255 54.5066 70.5714 53.754 71.5928 53.4448C73.6558 52.8266 75.7389 54.473 76.3235 56.3343C76.5587 57.0802 76.599 57.8261 76.4445 58.5048C76.2294 59.4389 75.665 60.1982 75.161 60.8702C73.508 63.081 71.6332 65.5874 69.12 67.2405C68.6765 67.5362 68.1792 67.8117 67.5946 67.8318C67.5677 67.8318 67.5408 67.8318 67.5207 67.8318ZM64.6446 63.128C64.7118 63.2087 64.7588 63.3094 64.779 63.4102C64.9671 64.5728 65.6593 65.6681 66.6269 66.3333C66.9898 66.582 67.2989 66.6962 67.5542 66.6828C67.8566 66.6693 68.1859 66.4812 68.495 66.2796C70.8402 64.734 72.5739 62.4157 74.2471 60.178C74.7041 59.5733 75.1677 58.9416 75.329 58.2427C75.4365 57.7656 75.4029 57.2213 75.2282 56.6703C74.8049 55.3196 73.2996 54.1235 71.9221 54.5334C71.1829 54.7552 70.5916 55.36 69.9935 56.0118C68.3203 57.8463 66.7546 59.8085 65.3367 61.8513C64.7656 62.6711 64.658 63.0003 64.6446 63.1213V63.128Z" fill="black"/>
</g>
<g id="Group_5">
<path id="Vector_7" d="M47.4224 10.7333C36.4423 11.3246 26.5844 19.6302 22.3174 29.7703C18.0503 39.9104 19.6026 52.2681 26.2485 61.0306C30.6096 66.7895 39.5804 71.7016 51.3803 70.3913C59.6255 69.4774 66.9097 64.0881 71.6404 57.2743C75.3699 51.9052 77.7486 45.508 77.8763 38.9764C78.004 32.4448 74.4089 9.28179 47.4224 10.7333ZM61.7422 60.9634C49.4249 69.8402 33.6671 64.6862 28.8356 53.7397C25.1867 45.4744 25.684 37.4712 26.5777 34.7026C28.0695 30.0929 32.2761 20.8129 41.2268 17.9301C52.0792 14.4358 60.1899 18.1384 64.168 21.3639C68.1461 24.5894 70.9281 29.2529 71.8823 34.286C73.6966 43.8885 69.6715 55.2516 61.7422 60.9634Z" fill="white"/>
<path id="Vector_8" d="M47.543 71.1853C37.0736 71.1853 29.5408 66.3269 25.7911 61.3812C18.9907 52.417 17.4183 39.9183 21.7862 29.5497C26.4295 18.5293 36.7175 10.7343 47.3884 10.1632C56.8163 9.65918 64.3559 12.0649 69.7921 17.3197C76.8277 24.1268 78.548 34.146 78.4472 38.9976C78.3195 45.3881 76.1289 51.8256 72.1105 57.6114C66.8153 65.2316 59.2824 70.1034 51.4405 70.9702C50.0965 71.1181 48.7996 71.192 47.5363 71.192L47.543 71.1853ZM47.4557 11.3055C37.208 11.8565 27.3233 19.3692 22.8479 29.9932C18.6346 39.9922 20.1533 52.0407 26.7118 60.689C30.7235 65.9775 39.2911 71.1584 51.3262 69.8279C58.8389 68.9946 66.0761 64.3042 71.1764 56.9528C75.0134 51.4292 77.1906 45.0454 77.3115 38.9708C77.4056 34.3072 75.7593 24.6711 69.0059 18.1395C63.8116 13.1199 56.5609 10.8217 47.4624 11.3055H47.4557ZM48.0134 66.0447C45.9907 66.0447 43.9681 65.7826 41.9858 65.2383C35.8036 63.5583 30.6898 59.3451 28.311 53.9625C24.7093 45.8048 24.9982 37.7007 26.0331 34.5156C27.3703 30.3829 31.5097 20.4444 41.0517 17.3735C53.7521 13.2879 62.2324 19.0467 64.5238 20.9081C68.5826 24.2007 71.4654 29.0322 72.4397 34.1661C74.3481 44.2525 69.987 55.7097 62.0711 61.4147C57.8579 64.4521 52.939 66.0379 48 66.0379L48.0134 66.0447ZM49.8143 17.0912C47.2944 17.0912 44.4788 17.481 41.4079 18.4688C32.3631 21.3784 28.4052 30.907 27.1284 34.8717C26.3019 37.4252 25.7575 45.3411 29.3661 53.5056C31.6037 58.5723 36.4353 62.5504 42.2882 64.1363C48.7862 65.9036 55.7545 64.573 61.4126 60.4941C68.9857 55.0377 73.152 44.0576 71.3242 34.3879C70.4036 29.5161 67.6687 24.9332 63.8115 21.8085C62.1786 20.4847 57.2598 17.098 49.8143 17.098V17.0912Z" fill="black"/>
</g>
<path id="Vector_9" d="M9.44133 37.2979C9.13222 37.2979 8.87685 37.0492 8.87013 36.7401C8.86341 36.4243 9.11205 36.1622 9.42788 36.1488L18.4592 35.88C18.7885 35.8598 19.0371 36.1219 19.0506 36.4377C19.0573 36.7536 18.8087 37.0157 18.4928 37.0291L9.46147 37.2979C9.46147 37.2979 9.44805 37.2979 9.44133 37.2979Z" fill="black"/>
<path id="Vector_10" d="M30.414 36.8686C30.2393 36.8686 30.0646 36.788 29.9504 36.6334C29.7622 36.3781 29.8227 36.0219 30.078 35.8338L32.2216 34.2815C32.3695 34.174 32.5912 34.0127 32.9071 33.9388C33.5723 33.7843 34.1905 34.0732 34.6005 34.3084L36.818 35.5717C37.584 34.8594 38.5584 34.2143 39.6806 33.7036C39.7814 33.6566 39.9897 33.5625 40.245 33.5625H40.2517C40.6684 33.5625 40.9372 33.8044 41.0514 33.9119C41.6965 34.4965 42.5566 35.0207 43.5377 35.4373C44.4314 34.8392 45.4394 34.3084 46.5414 33.8447C46.7229 33.7708 46.9312 33.791 47.0925 33.9052C47.9257 34.4898 48.6851 35.1215 49.3369 35.78C49.5586 36.0018 49.5586 36.3646 49.3369 36.5931C49.1151 36.8148 48.7522 36.8148 48.5238 36.5931C47.9862 36.0488 47.368 35.5247 46.6893 35.0341C45.6746 35.4776 44.7473 35.9883 43.9342 36.5595C43.7796 36.667 43.578 36.6939 43.3966 36.62C42.1669 36.1429 41.0917 35.4978 40.2787 34.7653C40.2518 34.7452 40.2383 34.7317 40.2249 34.7183C40.2114 34.7183 40.1846 34.7317 40.151 34.7519C39.0019 35.2828 38.0208 35.9547 37.3152 36.6872C37.1338 36.8753 36.8448 36.9224 36.6164 36.788L34.0225 35.3096C33.8814 35.229 33.4648 34.9871 33.1557 35.061C33.0683 35.0812 32.9944 35.1349 32.8802 35.2156L30.7366 36.7678C30.6358 36.8417 30.5148 36.8753 30.4006 36.8753L30.414 36.8686Z" fill="black"/>
<path id="Vector_11" d="M31.1325 48.8895C30.9444 48.8895 30.763 48.8021 30.6554 48.6341C30.4807 48.372 30.5546 48.0159 30.8167 47.8412L32.9603 46.4233C33.1081 46.3292 33.3232 46.1814 33.639 46.1142C34.2908 45.9731 34.9023 46.2419 35.2988 46.4502L37.5365 47.6127C38.3025 46.9609 39.2903 46.3695 40.4125 45.8992C40.567 45.832 40.7418 45.7715 40.9635 45.7715H40.977C41.3802 45.7715 41.6422 45.9933 41.7564 46.0806C42.4083 46.6182 43.2751 47.0953 44.2696 47.4783C45.1634 46.934 46.1781 46.4435 47.2868 46.0268C47.4548 45.9596 47.6429 45.9798 47.7975 46.0806C48.6307 46.6115 49.3901 47.1894 50.0486 47.7874C50.2838 48.0024 50.2973 48.3653 50.0822 48.5938C49.8672 48.829 49.5043 48.8424 49.2759 48.6274C48.7316 48.1301 48.1133 47.6463 47.4279 47.1961C46.3998 47.606 45.4658 48.0764 44.646 48.5938C44.4981 48.6879 44.3099 48.708 44.1487 48.6475C42.919 48.2108 41.8438 47.6262 41.0374 46.9609C40.9904 46.9206 40.9702 46.9138 40.9635 46.9071C40.9568 46.9071 40.8896 46.9407 40.8694 46.9474C39.7204 47.4313 38.7393 48.0428 38.0337 48.708C37.859 48.876 37.5902 48.9163 37.3752 48.8021L34.7813 47.4514C34.6402 47.3775 34.2102 47.149 33.8876 47.223C33.7936 47.2431 33.7196 47.2901 33.6054 47.3641L31.4618 48.7819C31.3677 48.8491 31.2535 48.876 31.146 48.876L31.1325 48.8895Z" fill="black"/>
<path id="Vector_12" d="M36.9044 61.4073C36.7431 61.4073 36.5818 61.3401 36.4676 61.2057C36.266 60.9638 36.2929 60.6009 36.5348 60.3993L38.6784 58.585C38.8262 58.4573 39.0547 58.2691 39.3772 58.1818C40.15 57.9668 40.8825 58.4573 41.1244 58.6186L43.2949 60.07C44.0542 59.2502 45.0218 58.5111 46.1306 57.913C46.2381 57.8592 46.4532 57.7383 46.7287 57.7383H46.7421C47.1856 57.7383 47.4678 58.034 47.5686 58.1482C48.2809 58.8941 49.2351 59.5526 50.3304 60.0566C50.6194 60.191 50.7471 60.527 50.6127 60.8159C50.4783 61.1049 50.1423 61.2326 49.8534 61.0982C48.6237 60.5404 47.5418 59.7878 46.7354 58.9344C46.722 58.921 46.7152 58.9075 46.7018 58.9008C46.6951 58.9008 46.6816 58.9142 46.6682 58.921C45.5191 59.5392 44.538 60.3187 43.8324 61.1855C43.6443 61.414 43.315 61.461 43.0731 61.2998L40.4793 59.5728C40.1232 59.3309 39.8476 59.2368 39.6662 59.2838C39.5856 59.304 39.5116 59.3645 39.4041 59.4585L37.2605 61.2729C37.153 61.367 37.0186 61.4073 36.8909 61.4073H36.9044Z" fill="black"/>
<path id="Vector_13" d="M9.91871 48.8889C9.6096 48.8889 9.35426 48.6402 9.34755 48.3311C9.34083 48.0153 9.58947 47.7532 9.9053 47.7465L18.231 47.5449C18.5469 47.5584 18.809 47.7868 18.8157 48.1027C18.8224 48.4185 18.5738 48.6805 18.2579 48.6873L9.93216 48.8889H9.91871Z" fill="black"/>
<path id="Vector_14" d="M10.5839 62.1399C10.2816 62.1399 10.0262 61.898 10.0127 61.5956C9.9993 61.2798 10.2412 61.011 10.557 60.9976C14.5351 60.8161 18.567 60.7288 22.5384 60.7489C22.8542 60.7489 23.1095 61.011 23.1095 61.3268C23.1095 61.6427 22.8542 61.898 22.5384 61.898C18.5804 61.8779 14.5687 61.9585 10.6108 62.1399C10.6041 62.1399 10.5907 62.1399 10.5839 62.1399Z" fill="black"/>
<path id="Vector_15" d="M10.5835 75.4193C10.2744 75.4193 10.0191 75.1774 10.0123 74.8616C10.0056 74.5458 10.2475 74.2837 10.5634 74.2703C23.6938 73.8469 37.8523 73.5781 46.635 73.5781C46.9508 73.5781 47.2062 73.8335 47.2062 74.1493C47.2062 74.4651 46.9508 74.7205 46.635 74.7205C37.859 74.7205 23.7206 74.996 10.597 75.4126C10.597 75.4126 10.5835 75.4126 10.5768 75.4126L10.5835 75.4193Z" fill="black"/>
<path id="Vector_16" d="M74.4418 67.5026C74.4418 67.5026 74.4217 67.5026 74.4082 67.5026C74.3074 67.4824 74.2335 67.3884 74.2537 67.2808L74.845 63.7597C74.8652 63.6522 74.966 63.585 75.0668 63.6051C75.1676 63.6253 75.2415 63.7194 75.2213 63.8269L74.63 67.348C74.6166 67.4421 74.5359 67.5093 74.4418 67.5093V67.5026Z" fill="black"/>
<path id="Vector_17" d="M76.8872 70.6142C76.8872 70.6142 76.8872 70.6142 76.8804 70.6142C76.7729 70.6142 76.6923 70.5201 76.699 70.4126C76.7796 68.773 76.9006 67.1132 77.0552 65.4735C77.0619 65.366 77.1694 65.2988 77.2635 65.2988C77.371 65.3123 77.4449 65.3996 77.4382 65.5071C77.2769 67.14 77.1559 68.7998 77.082 70.426C77.082 70.5268 76.9947 70.6075 76.8939 70.6075L76.8872 70.6142Z" fill="black"/>
<path id="Vector_18" d="M79.6154 73.8598C79.5146 73.8598 79.4272 73.7792 79.4272 73.6717C79.3668 71.77 79.4676 69.8481 79.7364 67.9599C79.7498 67.8524 79.8506 67.7851 79.9514 67.7986C80.0589 67.812 80.1261 67.9128 80.1127 68.0136C79.8506 69.8817 79.7498 71.7834 79.8103 73.6649C79.8103 73.7724 79.7297 73.8598 79.6221 73.8598H79.6154Z" fill="black"/>
<path id="Vector_19" d="M82.4582 76.6883C82.3506 76.6883 82.27 76.601 82.27 76.5002C82.27 74.4708 82.3507 72.4146 82.5186 70.3919C82.5254 70.2844 82.6194 70.2105 82.727 70.2172C82.8345 70.2239 82.9084 70.318 82.9017 70.4255C82.7337 72.4415 82.6531 74.4843 82.6531 76.5069C82.6531 76.6144 82.5657 76.6951 82.4649 76.6951L82.4582 76.6883Z" fill="black"/>
<path id="Vector_20" d="M85.5902 80.6611C85.4827 80.6611 85.402 80.5737 85.402 80.4729L85.3348 72.7183C85.3348 72.6108 85.4155 72.5234 85.523 72.5234C85.6305 72.5234 85.7111 72.6108 85.7111 72.7116L85.7783 80.4662C85.7783 80.5737 85.6977 80.6611 85.5902 80.6611Z" fill="black"/>
<path id="Vector_21" d="M89.0975 83.5974C88.9967 83.5974 88.9093 83.5168 88.9093 83.4092L88.7548 76.1519C88.7548 76.0444 88.8354 75.957 88.9429 75.957C89.0437 75.957 89.1378 76.0377 89.1378 76.1452L89.2923 83.4025C89.2923 83.51 89.2117 83.5974 89.1042 83.5974H89.0975Z" fill="black"/>
<path id="Vector_22" d="M92.9006 87.018C92.7998 87.018 92.7124 86.9374 92.7124 86.8366L92.2891 78.8871C92.2891 78.7796 92.363 78.6923 92.4705 78.6855C92.578 78.6855 92.6654 78.7595 92.6721 78.867L93.0954 86.8165C93.0954 86.924 93.0215 87.0113 92.914 87.018C92.914 87.018 92.914 87.018 92.9073 87.018H92.9006Z" fill="black"/>
<path id="Vector_23" d="M96.0059 86.1506C95.9051 86.1506 95.8177 86.0699 95.8177 85.9624L95.7169 81.9507C95.7169 81.8432 95.7975 81.7559 95.9051 81.7559C96.0058 81.7559 96.0932 81.8365 96.0932 81.944L96.194 85.9557C96.194 86.0632 96.1134 86.1506 96.0059 86.1506Z" fill="black"/>
</g>
</g>
</svg>
