<svg width="101" height="101" viewBox="0 0 101 101" fill="none" xmlns="http://www.w3.org/2000/svg">
<g id="Container">
<g id="Group">
<g id="Group_2">
<path id="Vector" d="M3.53916 94.2942C11.6364 88.8288 19.7336 83.357 27.8374 77.8917C28.9551 77.1379 30.1054 76.3646 31.4051 76.0071C32.4903 75.7017 33.6406 75.7017 34.7648 75.7017C46.7742 75.6822 58.7836 75.6627 70.7995 75.6367L98.2495 94.4826L98.4185 99.5775L3.46118 99.1616L3.54567 94.2942H3.53916Z" fill="white"/>
<path id="Vector_2" d="M91.2507 88.6797C91.2507 88.6797 79.1503 80.316 79.1633 80.043C79.4558 76.6768 79.8587 73.3105 80.697 70.0352C81.1714 68.1701 81.8473 66.253 83.2965 64.9923C84.7457 63.7251 87.1696 63.4002 88.5278 64.7649C89.3596 65.6032 89.6131 66.8379 89.808 68.0012C90.9518 74.8572 91.3937 81.8301 91.2572 88.6797H91.2507Z" fill="white"/>
<path id="Vector_3" d="M79.9812 60.0595C79.3249 57.5575 79.9682 54.7501 81.6514 52.7875C82.8211 51.4163 84.4977 50.4545 86.2914 50.2986C88.085 50.1426 89.9695 50.851 91.1003 52.2547C92.1725 53.5869 92.4845 55.3935 92.4065 57.1026C92.309 59.2926 91.5097 61.6061 89.6901 62.8408C88.7348 63.4907 87.578 63.7831 86.4278 63.8416C85.479 63.8871 84.5107 63.7766 83.6139 63.4517C81.9698 62.8603 80.3906 61.6061 79.9812 60.0595Z" fill="white"/>
<path id="Vector_4" d="M44.0383 53.0717C43.382 50.4398 44.0254 47.4829 45.7085 45.4164C46.8782 43.9737 48.5549 42.9599 50.3485 42.7974C52.1421 42.635 54.0267 43.3758 55.1509 44.8575C56.2232 46.2612 56.5351 48.1653 56.4571 49.9589C56.3596 52.2659 55.5603 54.7028 53.7407 55.996C52.7854 56.6784 51.6287 56.9903 50.4785 57.0488C49.5297 57.1008 48.5614 56.9838 47.6646 56.6394C46.0204 56.0155 44.4413 54.6963 44.0318 53.0717H44.0383Z" fill="white"/>
<path id="Vector_5" d="M10.7843 60.3591C10.141 57.8182 10.7713 54.9718 12.409 52.9768C13.5527 51.5861 15.1903 50.6048 16.9385 50.4488C18.6866 50.2928 20.5257 51.0077 21.624 52.4309C22.6702 53.7891 22.9757 55.6152 22.8977 57.3503C22.8002 59.5728 22.0204 61.9253 20.2528 63.173C19.3235 63.8294 18.1927 64.1283 17.0684 64.1868C16.1391 64.2323 15.1969 64.1218 14.3261 63.7904C12.7274 63.186 11.1807 61.9188 10.7843 60.3461V60.3591Z" fill="white"/>
<path id="Vector_6" d="M11.1873 89.1926C11.3562 83.8378 11.6032 78.4895 11.9151 73.1411C12.0191 71.3215 12.149 69.4694 12.8509 67.7928C13.5527 66.1162 14.9564 64.6215 16.75 64.303C17.2439 64.2186 17.7573 64.2186 18.2317 64.368C19.6874 64.8099 20.4477 66.3826 20.9546 67.8188C22.4428 72.0624 23.1901 76.5594 23.1511 81.0564C21.5785 82.2196 19.9993 83.3699 18.4007 84.5006C16.0677 86.1578 13.6957 87.7889 11.1873 89.1926Z" fill="white"/>
<g id="Group_3">
<path id="Vector_7" d="M13.3185 72.4184C13.3185 72.4184 13.2536 72.4119 13.2276 72.3924C13.1496 72.3405 13.1301 72.2365 13.1821 72.165C14.7288 69.91 16.4249 67.7265 18.238 65.6729C18.2965 65.6079 18.4005 65.5949 18.4719 65.6599C18.5434 65.7184 18.5499 65.8224 18.4849 65.8939C16.6848 67.9344 14.9952 70.1114 13.455 72.3535C13.4225 72.3989 13.3705 72.4249 13.3185 72.4249V72.4184Z" fill="black"/>
<path id="Vector_8" d="M13.0849 77.4605C13.0849 77.4605 13.0199 77.454 12.9939 77.4345C12.9159 77.3825 12.8965 77.2785 12.9485 77.207C15.0345 74.1072 17.2895 71.0659 19.6485 68.1675C19.707 68.096 19.811 68.0895 19.8824 68.1415C19.9539 68.2 19.9604 68.304 19.9084 68.3755C17.5494 71.2608 15.3009 74.2957 13.2214 77.389C13.1889 77.4345 13.1369 77.4605 13.0849 77.4605Z" fill="black"/>
<path id="Vector_9" d="M13.3453 81.3997C13.3128 81.3997 13.2738 81.3867 13.2478 81.3672C13.1763 81.3152 13.1568 81.2112 13.2153 81.1333L20.1753 71.8013C20.2273 71.7298 20.3313 71.7103 20.4028 71.7688C20.4742 71.8208 20.4937 71.9248 20.4352 72.0027L13.4753 81.3347C13.4428 81.3802 13.3908 81.3997 13.3453 81.3997Z" fill="black"/>
<path id="Vector_10" d="M13.1637 86.7805C13.1637 86.7805 13.0988 86.774 13.0728 86.7545C12.9948 86.7025 12.9753 86.605 13.0273 86.527C15.3928 82.8878 17.9142 79.2811 20.5201 75.8044C20.5721 75.7329 20.6761 75.7199 20.7541 75.7719C20.8256 75.8238 20.8386 75.9278 20.7866 76.0058C18.1872 79.476 15.6722 83.0763 13.3067 86.709C13.2742 86.7545 13.2222 86.7869 13.1703 86.7869L13.1637 86.7805Z" fill="black"/>
<path id="Vector_11" d="M18.2002 84.2776C18.1677 84.2776 18.1287 84.2646 18.1027 84.2452C18.0312 84.1932 18.0182 84.0892 18.0702 84.0112L21.144 79.9821C21.2025 79.9106 21.3065 79.8976 21.378 79.9496C21.4495 80.0016 21.4625 80.1056 21.4105 80.1835L18.3366 84.2127C18.3042 84.2582 18.2522 84.2776 18.2067 84.2776H18.2002Z" fill="black"/>
<path id="Vector_12" d="M16.7115 64.4577C15.7497 64.4577 14.7684 64.2953 13.8261 63.9638C13.2087 63.7494 12.7278 63.5025 12.3249 63.2035C11.4931 62.5862 10.8692 61.6374 10.4208 60.3116C10.1414 59.4928 9.99845 58.752 9.98545 58.0371C9.96596 57.1728 10.1284 56.263 10.4858 55.2492C11.0902 53.5401 12.0585 52.1104 13.2802 51.1097C14.6839 49.9659 16.4385 49.407 18.0892 49.5825C19.7008 49.7514 21.267 50.8692 22.3782 52.6368C23.249 54.021 23.7105 55.7496 23.7105 57.6277C23.7105 58.3751 23.639 59.0249 23.4895 59.6033C23.0021 61.4749 21.5139 63.1255 19.6033 63.9054C18.7065 64.2693 17.7187 64.4512 16.705 64.4512L16.7115 64.4577ZM17.4913 50.5443C16.2501 50.5443 14.9698 51.0187 13.9106 51.883C12.8253 52.7668 11.9675 54.047 11.4216 55.5807C11.1032 56.4775 10.9602 57.2703 10.9797 58.0111C10.9927 58.622 11.1227 59.2654 11.3631 59.9932C11.7466 61.1175 12.2534 61.9103 12.9163 62.4042C13.2412 62.6446 13.6311 62.8396 14.1575 63.0216C15.8667 63.6194 17.7188 63.6064 19.2394 62.9826C20.8641 62.3197 22.1313 60.9225 22.5407 59.3499C22.6706 58.856 22.7292 58.2906 22.7292 57.6277C22.7292 55.9316 22.3197 54.3914 21.5464 53.1632C21.098 52.4484 19.8503 50.7652 17.9917 50.5638C17.8292 50.5443 17.6603 50.5378 17.4978 50.5378L17.4913 50.5443Z" fill="black"/>
<path id="Vector_13" d="M11.0123 89.619C10.9278 89.619 10.8368 89.593 10.7588 89.5476C10.6029 89.4566 10.5119 89.2876 10.5184 89.1121C10.6809 82.7695 11.0318 77.0443 11.6037 71.618C11.8116 69.6684 12.0716 67.7903 13.0333 66.1916C13.9756 64.6255 15.9577 63.1568 18.0958 63.6377C20.2338 64.1186 21.6505 66.2501 22.3003 69.9738C22.8722 73.2296 23.3401 76.7388 23.769 81.0344C23.7885 81.2099 23.7105 81.3788 23.5741 81.4828C23.3206 81.6713 23.0737 81.8597 22.8267 82.0482C22.4888 82.3081 22.1574 82.5616 21.8194 82.8085C21.423 83.101 21.0266 83.3869 20.6302 83.6793C19.7464 84.2382 18.8886 84.7841 18.0308 85.3235C16.9455 85.9993 15.8667 86.6817 14.7815 87.3575C13.6897 88.0399 12.598 88.7222 11.5062 89.4046C11.4802 89.4241 11.4412 89.4566 11.4152 89.4696L11.2592 89.5606C11.1813 89.606 11.0968 89.6255 11.0123 89.6255V89.619ZM17.2834 64.5345C15.8992 64.5345 14.5735 65.5483 13.8847 66.6985C13.0269 68.1282 12.7929 69.8179 12.5914 71.7219C12.0521 76.8623 11.7076 82.2626 11.5322 88.2153C12.442 87.65 13.3518 87.0781 14.2551 86.5127C15.3403 85.8369 16.4191 85.161 17.5044 84.4852C18.3622 83.9458 19.22 83.4064 20.0713 82.8605C20.4417 82.5876 20.8382 82.3016 21.2346 82.0092C21.566 81.7622 21.8974 81.5153 22.2288 81.2619C22.4043 81.1254 22.5863 80.9889 22.7617 80.8524C22.3393 76.7128 21.8844 73.3011 21.332 70.1428C20.7537 66.848 19.5969 64.9829 17.8878 64.5995C17.6863 64.554 17.4914 64.5345 17.2899 64.5345H17.2834Z" fill="black"/>
</g>
<g id="Group_4">
<path id="Vector_14" d="M85.9791 64.328C84.8548 64.328 83.7046 64.1006 82.6258 63.6457C82.0215 63.3922 81.5601 63.1193 81.1702 62.7943C80.3773 62.125 79.8119 61.1437 79.448 59.792C79.2206 58.9602 79.1231 58.2063 79.1491 57.498C79.1816 56.6337 79.4025 55.7369 79.8185 54.7491C80.5268 53.079 81.5796 51.7143 82.8598 50.7915C84.335 49.7322 86.1156 49.2838 87.7467 49.5567C89.3454 49.8232 90.84 51.0319 91.8408 52.8645C92.6272 54.3007 92.9781 56.0488 92.8676 57.9269C92.8221 58.6742 92.7116 59.3176 92.5297 59.883C91.9318 61.7221 90.3462 63.2817 88.3901 63.9446C87.6297 64.2045 86.8109 64.328 85.9726 64.328H85.9791ZM86.7979 50.4665C85.6542 50.4665 84.4649 50.8565 83.4447 51.5908C82.3074 52.4096 81.3716 53.6313 80.7348 55.1325C80.3644 56.0098 80.1694 56.7962 80.1434 57.537C80.1174 58.1479 80.2084 58.7977 80.4033 59.5386C80.7153 60.6888 81.1767 61.5076 81.807 62.0405C82.1124 62.3005 82.4959 62.5214 83.0093 62.7359C84.6794 63.4377 86.525 63.5352 88.0847 63.0088C89.7483 62.4434 91.0935 61.1307 91.6004 59.584C91.7563 59.0967 91.8538 58.5378 91.8928 57.8749C91.9903 56.1853 91.6784 54.6191 90.983 53.3454C90.5801 52.6046 89.4364 50.8435 87.5908 50.538C87.3308 50.4925 87.0644 50.473 86.7979 50.473V50.4665Z" fill="black"/>
<path id="Vector_15" d="M91.2372 89.7181C91.1332 89.7181 91.0292 89.6856 90.9447 89.6206C90.4053 89.2177 89.8595 88.8148 89.3136 88.4183C88.0204 87.4761 86.7012 86.5338 85.395 85.6175C84.7451 85.1626 84.0952 84.7012 83.4519 84.2398C81.9637 83.1805 80.4236 82.0822 78.8704 81.0815C78.7144 80.9775 78.6234 80.7955 78.6494 80.6071C79.0198 77.4682 79.4033 74.3814 79.9426 71.1451C80.2676 69.215 80.6445 67.3499 81.6973 65.8163C82.7305 64.3086 84.8036 62.9699 86.9091 63.5743C89.0147 64.1851 90.2949 66.3947 90.7173 70.1508C91.4451 76.6104 91.6206 83.109 91.7311 89.2112C91.7311 89.3996 91.6336 89.5751 91.4646 89.6596C91.3931 89.6986 91.3152 89.7116 91.2372 89.7116V89.7181ZM79.6632 80.4186C81.1449 81.3869 82.6071 82.4267 84.0238 83.4339C84.6671 83.8953 85.3105 84.3502 85.9603 84.8051C87.273 85.7214 88.5922 86.6702 89.892 87.619C90.1714 87.8205 90.4444 88.0219 90.7173 88.2299C90.6003 82.4462 90.4119 76.331 89.7295 70.2678C89.3526 66.947 88.3128 65.017 86.6297 64.5296C85.07 64.0812 83.3739 65.1209 82.5096 66.3817C81.5673 67.7529 81.2293 69.4295 80.9109 71.3141C80.391 74.4269 80.0206 77.4033 79.6632 80.4251V80.4186Z" fill="black"/>
</g>
<g id="Group_5">
<path id="Vector_16" d="M48.3013 75.6036C49.666 75.6166 51.0243 75.6036 52.3825 75.5451C53.7732 75.4866 55.1573 75.4151 56.548 75.3696C56.652 75.3696 56.756 75.3631 56.86 75.3566C56.652 73.1991 56.4441 71.0481 56.2361 68.8905C55.9177 65.5957 55.5798 62.223 54.1306 59.2466C53.7667 58.4993 53.3118 57.765 52.6229 57.3036C51.0502 56.2443 48.7692 57.0631 47.6125 58.5643C46.4557 60.0654 46.1373 62.0345 45.8904 63.9126C45.377 67.7858 45.0195 71.6784 44.7986 75.5776C45.9618 75.5971 47.1316 75.5906 48.2948 75.5971L48.3013 75.6036Z" fill="#ACD4F7"/>
<path id="Vector_17" d="M50.2569 57.3562C49.2951 57.3562 48.3138 57.1937 47.3715 56.8623C46.7476 56.6478 46.2732 56.4009 45.8703 56.1019C45.0385 55.4846 44.4147 54.5358 43.9663 53.2101C43.6868 52.3913 43.5439 51.6504 43.5309 50.9356C43.5114 50.0713 43.6738 49.1615 44.0312 48.1477C44.6356 46.4386 45.6039 45.0089 46.8256 44.0081C48.2293 42.8643 49.9839 42.3055 51.6346 42.4809C53.2462 42.6499 54.8124 43.7676 55.9236 45.5353C56.7944 46.9195 57.2559 48.6481 57.2559 50.5262C57.2559 51.2735 57.1844 51.9234 57.0349 52.5017C56.5475 54.3733 55.0593 56.024 53.1488 56.8038C52.2584 57.1677 51.2642 57.3497 50.2504 57.3497L50.2569 57.3562ZM51.0367 43.4427C49.7955 43.4427 48.5153 43.9171 47.456 44.7814C46.3707 45.6652 45.5129 46.9454 44.967 48.4791C44.6486 49.3759 44.5056 50.1687 44.5251 50.9096C44.5381 51.5204 44.6681 52.1638 44.9086 52.8917C45.292 54.0159 45.7988 54.8087 46.4617 55.3026C46.7866 55.5431 47.1766 55.738 47.7029 55.92C49.4121 56.5179 51.2642 56.5049 52.7848 55.881C54.4095 55.2181 55.6767 53.8209 56.0861 52.2483C56.2161 51.7544 56.2746 51.189 56.2746 50.5262C56.2746 48.83 55.8652 47.2899 55.0918 46.0616C54.6434 45.3468 53.3957 43.6637 51.5371 43.4622C51.3746 43.4427 51.2057 43.4362 51.0432 43.4362L51.0367 43.4427Z" fill="black"/>
<path id="Vector_18" d="M49.3339 76.1047C48.9959 76.1047 48.6515 76.1047 48.2941 76.1047C47.7937 76.1047 47.2933 76.0982 46.7929 76.0982C46.1235 76.0982 45.4542 76.0982 44.7914 76.0852C44.6549 76.0852 44.5314 76.0267 44.4404 75.9292C44.3494 75.8318 44.3039 75.7018 44.3104 75.5653C44.5119 71.6402 44.7849 68.027 45.1553 64.5242C45.3567 62.5746 45.6231 60.6966 46.5849 59.0979C47.5272 57.5317 49.5158 56.0631 51.6473 56.544C53.7854 57.0249 55.1956 59.1564 55.8519 62.8801C56.4888 66.4998 56.9957 70.4509 57.4636 75.3249C57.4766 75.4613 57.4311 75.5978 57.3401 75.7018C57.2491 75.8058 57.1191 75.8642 56.9827 75.8707L56.5668 75.8837C55.553 75.9162 54.5392 75.9617 53.5254 76.0072L52.4077 76.0592C51.4459 76.0982 50.4386 76.1242 49.3339 76.1242V76.1047ZM45.3242 75.0909C45.8181 75.0909 46.3055 75.0909 46.7994 75.0974C47.2998 75.0974 47.8067 75.0974 48.3071 75.1039C49.8017 75.1169 51.1274 75.1039 52.3622 75.0454L53.48 74.9934C54.4612 74.9479 55.4425 74.9025 56.4238 74.87C55.9754 70.269 55.4815 66.4933 54.8771 63.0295C54.2988 59.7348 53.142 57.8762 51.4329 57.4928C49.8472 57.1353 48.2226 58.2791 47.4362 59.5918C46.5784 61.0215 46.3445 62.7111 46.143 64.6152C45.7921 67.949 45.5257 71.3802 45.3307 75.0909H45.3242Z" fill="black"/>
</g>
<path id="Vector_19" d="M3.16889 95.1965C2.95444 95.1965 2.7595 95.0536 2.69451 94.8521C2.62952 94.6442 2.7075 94.4167 2.88946 94.2932C9.34255 89.9912 14.9378 86.209 19.8703 82.8752C23.7889 80.2303 27.4866 77.7348 30.8789 75.4668C30.9568 75.4148 31.0543 75.3824 31.1453 75.3824C38.1248 75.2979 45.2992 75.1744 52.2332 75.0639C58.2899 74.96 64.561 74.856 70.7541 74.7715C70.8386 74.7715 70.9361 74.791 71.0141 74.843C77.0448 78.3912 83.108 82.8297 88.9697 87.1188C92.4334 89.6532 95.7087 92.0512 98.997 94.2932C99.179 94.4167 99.2569 94.6376 99.1919 94.8456C99.127 95.0536 98.9385 95.1965 98.7176 95.1965C97.5868 95.1965 94.5195 95.177 90.2824 95.1445C71.4625 95.0081 27.3826 94.6831 3.1754 95.1965H3.16243H3.16889ZM39.8209 93.9228C59.2582 93.9228 79.1763 94.0723 90.2954 94.1503C93.2067 94.1698 95.5657 94.1892 97.1254 94.1957C94.24 92.1877 91.2767 90.0237 88.3978 87.9116C82.5946 83.6615 76.5964 79.2685 70.6437 75.7593C64.496 75.8438 58.2769 75.9477 52.2657 76.0452C45.3772 76.1622 38.2547 76.2792 31.3208 76.3636C27.961 78.6057 24.3088 81.0751 20.4421 83.6875C15.8671 86.7744 10.7333 90.2446 4.86505 94.1633C14.5739 93.9813 27.0967 93.9163 39.8274 93.9163L39.8209 93.9228Z" fill="black"/>
<path id="Vector_20" d="M84.4722 100.194C72.1379 100.194 49.6592 100.122 9.17957 99.9141C5.63134 99.8946 3.44135 99.8816 3.16191 99.8816C3.02544 99.8816 2.89544 99.8231 2.80446 99.7256C2.71348 99.6282 2.66152 99.4917 2.66801 99.3617C2.75899 97.6786 2.75899 96.2424 2.66801 94.9817C2.64852 94.7087 2.85645 94.4748 3.12939 94.4553C3.39583 94.4293 3.63628 94.6437 3.65577 94.9167C3.74025 96.0929 3.74678 97.3991 3.68179 98.9003C4.5656 98.9003 6.48266 98.9133 9.18607 98.9263C64.619 99.2123 94.5449 99.2837 98.2556 99.1343C98.3011 98.3089 98.2751 97.3277 98.2556 96.3724C98.2361 95.7745 98.2232 95.2091 98.2297 94.7087C98.2297 94.4358 98.4506 94.2148 98.7236 94.2148C98.9965 94.2148 99.2175 94.4423 99.2175 94.7152C99.2175 95.1961 99.2304 95.755 99.2434 96.3464C99.2759 97.4966 99.3084 98.6859 99.2109 99.6477C99.1915 99.8426 99.0615 100.005 98.8795 100.07C98.6586 100.148 95.9811 100.207 84.4722 100.207V100.194Z" fill="black"/>
</g>
<g id="Group_6">
<path id="Vector_21" d="M19.1088 42.3439C20.9739 39.2506 21.2208 35.2345 19.7521 31.9332C18.7903 29.7692 17.1722 27.9691 15.8789 25.987C14.5857 24.0049 13.5785 21.6265 14.0854 19.1115C14.4103 17.3504 14.8587 15.5958 15.5995 13.9646C17.5361 9.68207 21.3703 6.44577 25.6528 4.5027C29.9354 2.55962 34.6599 1.80578 39.4038 1.37688C43.8618 1.05195 48.3329 0.830996 52.8039 0.785506C58.1977 0.733517 63.7475 0.967466 68.7124 3.06001C71.1559 4.08029 73.3914 5.63995 75.081 7.6805C76.7707 9.72106 77.8949 12.2555 78.0704 14.9069C79.1037 15.3878 79.9745 16.1677 80.7153 17.0385C83.1328 19.8523 84.2895 23.7125 83.8216 27.3907C83.3538 31.0689 81.2742 34.5196 78.2328 36.6447C78.0119 36.8006 77.778 36.9631 77.674 37.2101C77.5895 37.4245 77.622 37.6715 77.6545 37.8989C77.9599 39.9525 78.2654 42.006 78.4148 44.0986C77.2451 43.3252 76.2638 42.3049 75.1785 41.4211C72.1697 38.9842 68.303 37.626 64.3454 37.6585C61.2066 37.7234 58.1003 38.2888 54.9744 38.5943C51.8486 38.8997 48.6253 38.9322 45.6425 37.9509C42.6596 36.9696 39.9172 34.8576 38.6955 31.9397C34.9263 31.3418 31.0466 32.5961 27.8168 34.6301C24.587 36.6642 21.8966 39.4326 19.1023 42.3439H19.1088Z" fill="white"/>
<path id="Vector_22" d="M18.6089 43.3704C18.4984 43.3704 18.3879 43.3315 18.2969 43.26C18.102 43.104 18.0565 42.8246 18.1929 42.6101C20.357 39.1659 20.5194 34.6169 18.6089 31.0231C18.0955 30.0614 17.4326 29.1451 16.7828 28.2612C16.0614 27.2735 15.3206 26.2532 14.7552 25.1224C11.2785 18.1949 15.7235 9.72729 21.8322 5.85413C28.2398 1.78602 36.4345 1.19465 43.0175 0.720254C49.7176 0.23286 56.6515 -0.267532 63.4816 1.05168C68.1735 1.95498 71.7023 3.57963 74.2627 6.0101C77.2326 8.83048 78.7728 13.2235 78.3828 17.7725C77.9929 22.315 75.7249 26.3897 72.3131 28.6577C67.5367 31.8355 61.35 31.9004 56.3721 31.9459L42.0492 32.0889C38.1696 32.1279 33.77 32.1734 30.0139 33.863C26.6346 35.3837 23.9572 38.1391 21.3643 40.8035C20.5779 41.6093 19.7656 42.4476 18.9468 43.234C18.8493 43.325 18.7258 43.3704 18.6024 43.3704H18.6089ZM53.6752 1.20115C50.1205 1.20115 46.5722 1.46109 43.089 1.70804C36.2785 2.20193 28.5647 2.76081 22.3651 6.69245C16.6203 10.3382 12.4092 18.2534 15.639 24.6805C16.1654 25.7333 16.8867 26.7211 17.5821 27.6764C18.2449 28.5862 18.9338 29.5285 19.4797 30.5552C21.1043 33.5966 21.3513 37.2683 20.266 40.5176C20.396 40.3811 20.5325 40.2446 20.6624 40.1147C23.3204 37.3853 26.0692 34.5584 29.6175 32.9597C33.5621 31.1791 38.0721 31.1401 42.0492 31.1011L56.3721 30.9582C61.2136 30.9127 67.2377 30.8542 71.7672 27.8323C74.9256 25.7268 77.0311 21.9316 77.395 17.6881C77.759 13.438 76.3358 9.34387 73.5804 6.73144C71.1564 4.43094 67.7901 2.89728 63.2866 2.02647C60.1023 1.4156 56.8855 1.20115 53.6687 1.20115H53.6752Z" fill="black"/>
<path id="Vector_23" d="M78.7526 45.2031C78.6161 45.2031 78.4861 45.1447 78.3887 45.0407C76.5496 43.0326 74.652 40.9531 72.215 39.6988C68.5433 37.8013 64.0593 38.0482 60.5565 38.4771C59.7507 38.5746 58.9449 38.6916 58.1326 38.802C54.9158 39.2504 51.582 39.7183 48.2937 39.2764C44.6805 38.7955 39.9301 36.6705 38.4289 32.271C38.3379 32.011 38.4809 31.7316 38.7343 31.6406C38.9943 31.5496 39.2737 31.6926 39.3647 31.946C40.7229 35.9167 45.0964 37.8468 48.4237 38.2887C51.582 38.7111 54.8443 38.2562 57.9961 37.8143C58.8084 37.6973 59.6208 37.5868 60.4331 37.4893C64.0723 37.0409 68.7578 36.794 72.6699 38.815C74.7365 39.8873 76.4651 41.5314 77.9923 43.1561L77.2449 38.5811C77.167 38.1067 77.063 37.4503 77.3619 36.8655C77.5764 36.4496 77.9338 36.1896 78.2457 35.9622L78.3042 35.9167C81.5015 33.5642 83.4771 29.6455 83.4771 25.6749C83.4771 21.7108 81.482 17.7921 78.2782 15.4461C78.0572 15.2837 78.0118 14.9782 78.1677 14.7573C78.3302 14.5363 78.6356 14.4909 78.8566 14.6468C82.3073 17.1683 84.4519 21.3923 84.4584 25.6684C84.4584 29.9445 82.3268 34.1751 78.8826 36.7095L78.8241 36.755C78.5771 36.937 78.3432 37.1124 78.2327 37.3204C78.0897 37.5933 78.1417 37.9832 78.2132 38.4186L79.2335 44.6183C79.266 44.8327 79.1555 45.0472 78.9605 45.1447C78.8891 45.1772 78.8176 45.1966 78.7461 45.1966L78.7526 45.2031Z" fill="black"/>
<path id="Vector_24" d="M34.9272 20.1773C33.3806 20.1773 32.1199 18.9165 32.1199 17.3699C32.1199 15.8232 33.3806 14.5625 34.9272 14.5625C36.4739 14.5625 37.7346 15.8232 37.7346 17.3699C37.7346 18.9165 36.4739 20.1773 34.9272 20.1773ZM34.9272 15.5568C33.9264 15.5568 33.1141 16.3691 33.1141 17.3699C33.1141 18.3707 33.9264 19.183 34.9272 19.183C35.928 19.183 36.7404 18.3707 36.7404 17.3699C36.7404 16.3691 35.928 15.5568 34.9272 15.5568Z" fill="black"/>
<path id="Vector_25" d="M45.9419 20.1773C44.3953 20.1773 43.1345 18.9165 43.1345 17.3699C43.1345 15.8232 44.3953 14.5625 45.9419 14.5625C47.4886 14.5625 48.7493 15.8232 48.7493 17.3699C48.7493 18.9165 47.4886 20.1773 45.9419 20.1773ZM45.9419 15.5568C44.9411 15.5568 44.1288 16.3691 44.1288 17.3699C44.1288 18.3707 44.9411 19.183 45.9419 19.183C46.9427 19.183 47.755 18.3707 47.755 17.3699C47.755 16.3691 46.9427 15.5568 45.9419 15.5568Z" fill="black"/>
<path id="Vector_26" d="M57.0605 20.1773C55.5139 20.1773 54.2532 18.9165 54.2532 17.3699C54.2532 15.8232 55.5139 14.5625 57.0605 14.5625C58.6072 14.5625 59.8679 15.8232 59.8679 17.3699C59.8679 18.9165 58.6072 20.1773 57.0605 20.1773ZM57.0605 15.5568C56.0597 15.5568 55.2474 16.3691 55.2474 17.3699C55.2474 18.3707 56.0597 19.183 57.0605 19.183C58.0613 19.183 58.8737 18.3707 58.8737 17.3699C58.8737 16.3691 58.0613 15.5568 57.0605 15.5568Z" fill="black"/>
</g>
</g>
</g>
</svg>
