<svg width="100" height="100" viewBox="0 0 100 100" fill="none" xmlns="http://www.w3.org/2000/svg">
<g id="Container">
<g id="Group">
<path id="Vector" d="M0.898438 81.7296C7.90931 71.4905 14.3961 60.8945 20.3284 49.8199C20.7614 49.949 21.1791 50.1085 21.5893 50.2984C21.5589 50.1769 21.5589 50.0477 21.5893 49.8123C21.9159 48.7109 22.3564 47.6475 22.9185 46.6524C23.1844 46.1815 23.7009 45.6498 24.1794 45.9081C25.577 42.8394 26.0556 39.3605 25.4859 36.0944C25.3947 33.6865 25.4707 31.271 25.8657 28.9999C26.3822 25.24 27.2937 21.5257 28.5774 17.9481C29.0863 16.5353 29.6711 15.1073 30.6965 14.0211C31.1447 13.5426 31.6916 13.1324 32.3297 12.9729C32.9677 12.8134 33.6969 12.9349 34.1603 13.3907C34.8135 14.0363 34.768 15.0921 34.6768 16.0036C34.5325 17.4164 34.3957 18.8368 34.2742 20.2724C34.9578 20.7661 35.6186 21.2902 36.2567 21.8447C36.6593 22.1941 37.0618 22.5663 37.3808 23.0145C37.7834 22.4068 38.186 21.7916 38.4898 21.1307C37.2441 18.8368 36.1959 16.4365 35.3603 13.9603C35.1553 13.3527 34.9654 12.7374 34.9274 12.0994C34.9046 11.7424 34.935 11.3778 35.0717 11.0512C35.2084 10.7245 35.4591 10.4359 35.7858 10.3068C36.1883 10.1473 36.6517 10.246 37.0543 10.4207C38.4215 11.0132 39.295 12.35 40.085 13.6185C40.6091 14.4617 41.1407 15.3124 41.6344 16.1327C41.8547 15.8745 41.9839 15.5554 42.1434 15.2516C42.3713 14.8111 42.6523 14.4009 42.9941 13.9679C42.4624 12.8817 41.9687 11.7804 41.513 10.6562C41.1484 9.76748 40.8141 8.85599 40.685 7.89893C40.6014 7.26848 40.6546 6.53169 41.1635 6.14431C41.5205 5.87086 42.0295 5.84808 42.4548 5.9924C42.8802 6.13672 43.2524 6.41776 43.5942 6.71399C44.5513 7.53433 45.3943 8.4914 46.1083 9.48644C46.5565 8.40784 47.1945 7.4128 47.9921 6.55448C48.1592 6.37978 48.3339 6.20508 48.5542 6.08354C48.9263 5.88605 49.4049 5.89365 49.7847 6.18229C49.929 5.96961 50.0962 5.74174 50.3468 5.67337C50.6583 5.58222 50.9772 5.75693 51.2355 5.93922C52.4432 6.79754 53.3243 8.03565 54.1978 9.22818C54.7903 8.53697 55.3904 7.84576 55.9828 7.15454C56.3018 6.78235 56.6285 6.40256 57.0538 6.1595C57.4792 5.91644 58.0261 5.83289 58.459 6.06076C58.8616 6.28103 59.0819 6.73678 59.1351 7.19252C59.1882 7.64827 59.0743 8.10401 58.9528 8.54457C58.4667 10.322 57.7375 12.0234 56.7576 13.7097C57.3121 14.4844 57.859 15.2668 58.3148 16.1631C59.2187 14.8414 60.1301 13.5198 61.034 12.2057C61.5961 11.3854 62.2646 10.4967 63.2444 10.3296C63.5862 10.2688 63.9584 10.3144 64.2622 10.4967C64.7028 10.7625 64.9307 11.2942 64.9611 11.8107C64.9914 12.3273 64.847 12.8362 64.6951 13.3299C63.89 15.9428 62.7886 18.457 61.4138 20.8193C61.3834 20.8649 61.3606 20.9256 61.3986 20.9712C61.4366 21.0168 61.505 20.918 61.4366 20.9408C61.9151 21.6396 62.3481 22.3688 62.7355 23.1208C63.4115 21.9359 64.5661 21.0396 65.9865 20.713C65.713 19.1558 65.5535 17.5835 65.5079 16.0036C65.4699 14.9098 65.6294 13.5881 66.6169 13.1172C67.2169 12.8362 67.9537 12.9957 68.5006 13.3603C69.0475 13.7249 69.4501 14.287 69.8071 14.8414C71.8884 18.0696 73.096 21.8067 73.7265 25.597C74.3569 29.3873 74.4177 33.2535 74.3494 37.097C74.2962 40.0517 74.2126 43.1736 75.8077 45.7334C75.9596 45.5359 76.2635 45.4979 76.4913 45.5966C76.7192 45.6954 76.894 45.9005 77.0231 46.1131C77.1674 46.3486 77.2813 46.6145 77.3877 46.8651C77.8434 47.9437 78.2992 49.0147 78.6106 50.2224C71.7516 53.5798 65.2041 57.5599 59.0515 62.087C59.3174 60.8337 58.9755 59.4665 58.1476 58.4866C57.8134 58.0916 57.4033 57.7498 57.1754 57.2789C56.9475 56.8156 56.9855 56.1547 57.5248 55.8737C55.7778 52.2049 52.8154 49.273 49.6859 46.6297C46.8451 49.2122 44.5361 52.372 42.9258 55.8585C42.8194 57.5068 42.1662 59.1095 41.0876 60.3628C40.8521 60.6362 40.5862 61.0084 40.7761 61.3122C40.8749 61.4717 41.08 61.5553 41.1332 61.73C41.1788 61.8743 41.1104 62.0186 41.042 62.1478C37.4493 69.2878 32.5499 75.7138 28.9192 82.8386C27.6963 85.2464 26.6177 87.7227 25.3568 90.1153C24.4149 91.9003 23.3819 93.6321 22.1286 95.3184C17.3433 93.86 13.0137 91.2319 8.77523 88.5734C5.91163 86.7808 2.99489 84.8894 0.92885 81.7144L0.898438 81.7296Z" fill="white"/>
<path id="Vector_2" d="M24.2008 46.1971C24.0869 46.1971 23.9729 46.1667 23.8742 46.0983C23.6083 45.916 23.54 45.559 23.7223 45.2932C25.1807 43.1512 25.0971 40.318 25.0135 37.5683L24.9908 36.8087C24.8617 31.8867 25.3933 26.9646 26.5707 22.1793C27.3379 19.0651 28.2341 16.7028 29.4039 14.7279C30.4825 12.9049 31.9256 12.0542 33.2701 12.4416C34.7665 12.8745 35.4653 14.6139 35.1387 17.0902C35.0476 17.7814 34.9412 18.4802 34.8349 19.1714C34.7817 19.5436 34.721 19.9082 34.6678 20.2804C34.6222 20.5994 34.326 20.8197 34.0146 20.7665C33.6955 20.7209 33.4828 20.4247 33.5284 20.1133C33.5816 19.7411 33.6423 19.3689 33.6955 18.9967C33.8018 18.3055 33.9082 17.6219 33.9994 16.9382C34.0677 16.4445 34.326 13.9531 32.9511 13.5581C32.0093 13.2847 31.0142 14.2873 30.4066 15.3203C29.2976 17.1965 28.4392 19.46 27.7024 22.4604C26.5479 27.1393 26.0314 31.9626 26.1529 36.7783L26.1757 37.5303C26.2668 40.4623 26.358 43.493 24.687 45.9388C24.573 46.1059 24.3907 46.1895 24.2084 46.1895L24.2008 46.1971Z" fill="black"/>
<path id="Vector_3" d="M50.0351 15.6538C49.9135 15.6538 49.7995 15.6158 49.6932 15.5398C49.4349 15.3499 49.3742 14.9929 49.5641 14.7347L50.468 13.4966C50.6579 13.2383 51.0149 13.1852 51.2732 13.3674C51.5314 13.5573 51.5845 13.9219 51.4022 14.1726L50.4984 15.4107C50.3844 15.5626 50.2097 15.6462 50.0274 15.6462L50.0351 15.6538Z" fill="black"/>
<path id="Vector_4" d="M56.8626 14.4238C56.779 14.4238 56.6955 14.4086 56.612 14.363C56.3233 14.2263 56.2017 13.8769 56.346 13.5882C57.2651 11.6893 57.9336 10.1246 58.4501 8.66619C58.7463 7.83825 58.8831 6.75965 58.3134 6.45582C57.7513 6.15959 56.9309 6.84321 56.3537 7.58759C55.7764 8.32438 55.2143 9.06117 54.6446 9.80555C54.4547 10.0638 54.0902 10.1094 53.8319 9.91949C53.5736 9.72959 53.5281 9.365 53.718 9.10674C54.2876 8.35476 54.8573 7.61038 55.4346 6.87359C56.5816 5.40761 57.8273 4.8835 58.8527 5.4304C59.8857 5.98489 60.144 7.33693 59.5363 9.04597C59.0046 10.5423 58.3209 12.1374 57.3867 14.082C57.2879 14.287 57.0829 14.4086 56.8626 14.4086V14.4238Z" fill="black"/>
<path id="Vector_5" d="M63.0306 23.366C62.8939 23.366 62.7572 23.3204 62.6509 23.2217C62.4078 23.009 62.3849 22.6444 62.5976 22.4089C63.4787 21.3987 64.4358 20.3657 65.6663 19.8568C65.9626 19.7352 66.2968 19.872 66.4259 20.1682C66.5474 20.4644 66.4107 20.7986 66.1145 20.9278C65.1194 21.3455 64.2687 22.2646 63.4788 23.1761C63.3648 23.3052 63.2053 23.3736 63.0382 23.3736L63.0306 23.366Z" fill="black"/>
<path id="Vector_6" d="M46.0154 9.98142C45.9091 9.98142 45.8027 9.95104 45.704 9.89027C45.4306 9.71557 45.3546 9.35857 45.5217 9.09272L46.8206 7.04186C47.8309 5.44676 49.069 4.81631 50.14 5.3632C50.421 5.50752 50.5349 5.85693 50.3906 6.14557C50.2463 6.42661 49.8969 6.54055 49.6082 6.39623C49.0082 6.0848 48.1878 7.04946 47.8004 7.66472L46.5016 9.72317C46.3952 9.89787 46.2053 9.98902 46.0154 9.98902V9.98142Z" fill="black"/>
<path id="Vector_7" d="M49.0847 14.2577C49.0239 14.2577 48.9556 14.2501 48.8948 14.2273C48.591 14.121 48.4315 13.7944 48.5378 13.4905C48.8645 12.5259 49.1606 11.5384 49.4189 10.5586C49.4948 10.2472 49.8139 10.0573 50.1253 10.1408C50.4367 10.2168 50.619 10.5358 50.543 10.8472C50.2848 11.8651 49.981 12.8829 49.6392 13.8703C49.5556 14.1134 49.3354 14.2577 49.0923 14.2577H49.0847Z" fill="black"/>
<path id="Vector_8" d="M37.3944 23.5789C37.288 23.5789 37.1816 23.5485 37.0829 23.4877C36.8095 23.313 36.7335 22.956 36.9006 22.6902C37.1285 22.3256 37.3108 22.0293 37.4931 21.7331C37.6754 21.4369 37.8653 21.1331 38.0932 20.7685C38.2679 20.495 38.6248 20.4191 38.8907 20.5862C39.1641 20.7609 39.2401 21.1179 39.073 21.3837C38.8451 21.7483 38.6628 22.0445 38.4805 22.3408C38.2982 22.637 38.1084 22.9408 37.8805 23.3054C37.7742 23.4801 37.5842 23.5713 37.3944 23.5713V23.5789Z" fill="black"/>
<path id="Vector_9" d="M41.7156 16.764C41.6092 16.764 41.5029 16.7336 41.4042 16.6729C41.1307 16.4982 41.0548 16.1412 41.2219 15.8753C41.4802 15.4651 41.6928 15.1233 41.9054 14.7891C42.1105 14.4625 42.3156 14.1283 42.5739 13.7333C42.7486 13.4599 43.1056 13.3839 43.3715 13.551C43.6449 13.7257 43.7209 14.0827 43.5538 14.3486C43.3031 14.7435 43.098 15.0777 42.8929 15.4044C42.6802 15.7462 42.4675 16.0804 42.2017 16.4982C42.0954 16.6729 41.9054 16.764 41.7156 16.764Z" fill="black"/>
<path id="Vector_10" d="M61.4112 21.6639C61.3277 21.6639 61.2442 21.6487 61.1606 21.6031C60.872 21.4664 60.7504 21.117 60.8871 20.8284C62.1024 18.299 63.2114 15.686 64.1761 13.0503C64.404 12.4275 64.7078 11.3261 64.1761 10.9159C63.8723 10.6805 63.3633 10.7716 63.0215 10.9767C62.5658 11.2501 62.2164 11.7363 61.8822 12.1996C60.8795 13.5896 59.8617 15.0024 58.8667 16.4076C58.6844 16.6659 58.3197 16.7343 58.0615 16.5444C57.8032 16.3621 57.7349 15.9975 57.9248 15.7392C58.9199 14.3264 59.9377 12.906 60.9479 11.516C61.3125 11.0071 61.7682 10.3766 62.429 9.98164C63.1051 9.57147 64.1305 9.41955 64.8825 9.99683C65.4749 10.4526 66.0142 11.4172 65.2698 13.4529C64.29 16.119 63.1658 18.7699 61.9353 21.3297C61.8366 21.5348 61.6315 21.6563 61.4112 21.6563V21.6639Z" fill="black"/>
<path id="Vector_11" d="M42.7407 56.2378C42.642 56.2378 42.5356 56.2074 42.4445 56.1542C42.171 55.9871 42.0798 55.6377 42.247 55.3566C44.0396 52.3791 46.2802 49.432 49.5084 45.8012C49.7211 45.5657 50.0858 45.5429 50.3288 45.7556C50.5643 45.9683 50.587 46.3329 50.3744 46.576C47.1918 50.1536 44.9966 53.0475 43.2419 55.9567C43.1356 56.139 42.9458 56.2378 42.7483 56.2378H42.7407Z" fill="black"/>
<path id="Vector_12" d="M77.6833 95.1535C71.6523 84.0029 65.4313 72.9587 59.0205 62.0208C65.5301 57.4178 72.4878 53.4528 79.6354 50.3613C85.7576 61.4435 92.3735 72.2447 99.5135 82.5977C96.2321 85.6512 91.6671 86.7829 87.6489 88.7502C84.1473 90.4669 81.0255 92.8443 77.6909 95.1459L77.6833 95.1535Z" fill="#ACD4F7"/>
<path id="Vector_13" d="M57.2583 56.239C57.0608 56.239 56.8709 56.1402 56.7646 55.9579C53.6883 50.8384 49.4651 46.3265 45.3862 41.959C39.9856 36.1786 34.4027 30.2084 31.4024 22.7569C30.8707 21.4505 30.9922 20.425 31.729 19.8781C32.0784 19.6199 32.5417 19.506 33.1038 19.5515C34.904 19.6882 36.2181 21.0403 37.4106 22.4151C38.3905 23.5469 39.3855 24.6863 40.3881 25.8256C38.2005 21.8606 36.3016 17.721 34.7369 13.4673C33.9849 11.4317 34.5318 10.467 35.1243 10.0189C35.8763 9.44159 36.9017 9.5935 37.5777 10.0037C38.2385 10.3986 38.6943 11.0291 39.0589 11.538C41.5351 14.9561 44.0569 18.5489 46.5863 22.2556C45.8115 20.4782 44.938 18.7464 44.0797 17.0373C42.7884 14.4776 41.4516 11.8342 40.4717 9.07699C39.8641 7.36794 40.1223 6.0159 41.1553 5.46141C42.1807 4.90692 43.434 5.43862 44.5734 6.9046C46.7458 9.69224 48.8726 12.5938 50.9386 15.4346C50.0575 13.1863 49.3891 10.862 48.9333 8.47692C48.6371 6.93499 48.9714 5.8412 49.8601 5.37786C50.9235 4.83097 52.1616 5.45382 53.1794 7.05652L65.6516 26.7295C65.9478 24.2609 65.5528 21.6859 65.173 19.1793C65.0667 18.4881 64.9604 17.7969 64.8693 17.1057C64.5427 14.6295 65.2414 12.8976 66.7378 12.4571C68.0823 12.0697 69.5254 12.9204 70.604 14.7434C72.1384 17.3336 72.9587 20.2427 73.4372 22.1948C74.6146 26.9802 75.1463 31.8946 75.0172 36.8243L74.9944 37.5838C74.9108 40.3259 74.8196 43.1667 76.2856 45.3011C76.4679 45.567 76.3996 45.924 76.1337 46.1063C75.8679 46.2886 75.5108 46.2202 75.3286 45.9543C73.6575 43.5009 73.7487 40.4778 73.8398 37.5459L73.8626 36.7939C73.9842 31.9706 73.4676 27.1549 72.3131 22.4759C71.5763 19.4756 70.718 17.2044 69.609 15.3359C69.0014 14.3029 68.0138 13.3002 67.0644 13.5737C65.6971 13.9687 65.9554 16.4601 66.0162 16.9538C66.1073 17.6374 66.2137 18.321 66.3124 19.0046C66.7833 22.1037 67.2771 25.3091 66.5175 28.4234C66.4643 28.6512 66.282 28.8183 66.0466 28.8563C65.8187 28.8943 65.5908 28.788 65.4617 28.5981L52.1919 7.67178C51.8045 7.05652 50.9842 6.09945 50.3841 6.40328C49.8372 6.68433 49.9815 7.79331 50.0651 8.25665C50.931 12.7913 52.5869 17.0905 55.0023 21.0251C55.1618 21.291 55.0859 21.6328 54.8352 21.8075C54.577 21.9822 54.2276 21.9214 54.0453 21.6707C53.0123 20.2655 51.9945 18.8603 50.9766 17.4627C48.6068 14.2041 46.1609 10.8316 43.6543 7.61861C43.0694 6.87422 42.2567 6.18301 41.6946 6.48684C41.125 6.79067 41.2617 7.86926 41.5579 8.6972C42.5149 11.3861 43.8366 13.999 45.1051 16.5284C46.685 19.6579 48.3181 22.9013 49.3055 26.3497C49.3815 26.6232 49.2524 26.9118 48.9942 27.0333C48.7359 27.1549 48.432 27.0637 48.2725 26.8283C44.862 21.7391 41.4515 16.8247 38.117 12.2292C37.7828 11.7659 37.4334 11.2798 36.9776 11.0063C36.6358 10.8012 36.1269 10.7177 35.8231 10.9455C35.2838 11.3557 35.5876 12.4571 35.8231 13.0799C38.0258 19.0654 40.8895 24.8306 44.3304 30.2008C44.4899 30.4514 44.4367 30.7856 44.2012 30.9679C43.9657 31.1502 43.6315 31.1274 43.4264 30.9072C41.1325 28.4613 38.793 25.78 36.5371 23.1823C35.5041 21.9898 34.3799 20.82 33.0127 20.7137C32.7392 20.6909 32.5417 20.7289 32.4202 20.82C32.1012 21.0555 32.2455 21.7619 32.481 22.3392C35.4054 29.5931 40.9123 35.4874 46.2369 41.1842C50.3538 45.5898 54.6149 50.1548 57.7596 55.3731C57.9267 55.6465 57.8356 56.0035 57.5622 56.1706C57.471 56.2238 57.3647 56.2542 57.2659 56.2542L57.2583 56.239Z" fill="black"/>
<path id="Vector_14" d="M77.8657 95.7898C77.6606 95.7898 77.4631 95.6834 77.3568 95.486C71.3257 84.305 64.9453 73.1241 58.3902 62.2546C58.2459 62.0115 58.2915 61.7077 58.5041 61.5178C62.1653 58.2972 66.3277 56.1324 70.3535 54.036C73.3766 52.4636 76.3921 50.8913 79.3849 49.3342C79.5292 49.2582 79.6887 49.2506 79.8406 49.3038C79.9925 49.357 80.114 49.4709 80.1747 49.6152C82.5598 54.9702 85.7653 59.991 88.8643 64.8523L99.9086 82.1478C100.083 82.4137 99.9996 82.7783 99.7338 82.9454C99.4604 83.1125 99.1034 83.0365 98.9363 82.7707L87.8997 65.4752C84.8841 60.7506 81.7623 55.8665 79.3772 50.6483C76.5668 52.1142 73.726 53.5954 70.8852 55.069C67.0569 57.0591 63.0996 59.1175 59.6283 62.0799C66.0999 72.8354 72.4043 83.8873 78.367 94.9467C78.5189 95.2277 78.4126 95.5771 78.1315 95.729C78.048 95.7746 77.9492 95.7974 77.8581 95.7974L77.8657 95.7898Z" fill="black"/>
<path id="Vector_15" d="M59.4967 61.7997C59.2916 61.7997 59.0941 61.6934 58.9878 61.5035L56.4053 56.8321C56.261 56.5663 56.3445 56.2321 56.6028 56.065C62.9149 52.0316 69.5535 48.3553 76.3213 45.1347C76.5948 45.0055 76.9214 45.1043 77.0657 45.3625C77.8784 46.7526 78.6076 48.2185 79.2305 49.7073C79.352 50.0035 79.2153 50.3378 78.9191 50.4669C78.6229 50.5884 78.2887 50.4517 78.1595 50.1555C77.6202 48.8794 77.005 47.6185 76.3289 46.4108C69.9333 49.4794 63.6592 52.9507 57.6737 56.7486L59.9905 60.949C60.1424 61.2301 60.0436 61.5795 59.7626 61.7314C59.6714 61.777 59.5803 61.7997 59.4815 61.7997H59.4967Z" fill="black"/>
<path id="Vector_16" d="M22.1423 95.7892C22.0512 95.7892 21.9523 95.7664 21.8688 95.7209C21.5877 95.5689 21.4814 95.2195 21.6334 94.9385C27.596 83.8867 33.9005 72.8273 40.3721 62.0717C36.9084 59.1169 32.951 57.0585 29.1151 55.0608C26.2743 53.5872 23.4412 52.1061 20.6232 50.6401C18.2381 55.8584 15.1238 60.7424 12.1007 65.467L1.0641 82.7625C0.889399 83.0284 0.532362 83.1119 0.266511 82.9372C0.000659396 82.7625 -0.082879 82.4055 0.0918232 82.1397L11.136 64.8441C14.2426 59.9829 17.4481 54.9545 19.8256 49.6071C19.8939 49.4628 20.0154 49.3488 20.1597 49.2956C20.3116 49.2425 20.4788 49.2577 20.6156 49.326C23.6083 50.8832 26.6238 52.4555 29.6469 54.0278C33.6727 56.1242 37.8427 58.289 41.4963 61.5096C41.7089 61.6919 41.7545 62.0033 41.6102 62.2464C35.0551 73.1159 28.6746 84.2969 22.6436 95.4778C22.5372 95.6753 22.3398 95.7816 22.1347 95.7816L22.1423 95.7892Z" fill="black"/>
<path id="Vector_17" d="M40.51 61.7997C40.4189 61.7997 40.3201 61.777 40.229 61.7314C39.9479 61.5795 39.8491 61.2225 40.0011 60.949L42.3178 56.7486C36.3324 52.9507 30.0583 49.4718 23.6627 46.4108C22.9791 47.6185 22.3638 48.8794 21.8321 50.1555C21.7106 50.4517 21.3688 50.5884 21.0725 50.4669C20.7763 50.3454 20.6395 50.0035 20.7611 49.7073C21.3839 48.2185 22.1131 46.7602 22.9258 45.3625C23.0778 45.1043 23.4044 45.0055 23.6778 45.1347C30.4456 48.3553 37.0844 52.0316 43.3964 56.065C43.6547 56.2321 43.7383 56.5663 43.5939 56.8321L41.0114 61.5035C40.905 61.6934 40.7075 61.7997 40.5024 61.7997H40.51Z" fill="black"/>
<path id="Vector_18" d="M77.424 20.0983C77.424 20.0983 77.3556 20.0983 77.3253 20.0907C77.0138 20.0375 76.8012 19.7337 76.8543 19.4222C77.743 14.3939 76.3075 9.05404 73.0109 5.14983C72.8058 4.90676 72.8362 4.54217 73.0793 4.33708C73.3223 4.132 73.687 4.16238 73.8921 4.40544C77.4089 8.56791 78.9356 14.2571 77.9937 19.6273C77.9405 19.9084 77.6975 20.1059 77.424 20.1059V20.0983Z" fill="black"/>
<path id="Vector_19" d="M83.5315 19.3455C83.5315 19.3455 83.4783 19.3455 83.4555 19.3455C83.1365 19.2999 82.9162 19.0113 82.9618 18.6923C83.4631 14.9627 83.2809 11.218 82.4225 7.55688C82.3466 7.24546 82.544 6.93403 82.8554 6.85808C83.1669 6.78212 83.4783 6.97961 83.5543 7.29103C84.4506 11.0889 84.6405 14.9779 84.1164 18.8442C84.0784 19.1328 83.8277 19.3455 83.5467 19.3455H83.5315Z" fill="black"/>
<path id="Vector_20" d="M17.578 40.1744C17.3273 40.1744 17.0918 40.0073 17.0234 39.749C15.5878 34.6447 15.7929 29.0846 17.6007 24.0942C17.7071 23.7903 18.0414 23.6384 18.3452 23.7448C18.649 23.8511 18.8009 24.1853 18.6946 24.4892C16.9703 29.2517 16.7729 34.5611 18.1477 39.4376C18.2312 39.7414 18.0565 40.068 17.7451 40.1516C17.6919 40.1668 17.6388 40.1744 17.5856 40.1744H17.578Z" fill="black"/>
<path id="Vector_21" d="M24.2008 46.1971C24.0869 46.1971 23.9729 46.1667 23.8742 46.0983C23.6083 45.916 23.54 45.559 23.7223 45.2932C25.1807 43.1512 25.0971 40.318 25.0135 37.5683L24.9908 36.8087C24.8617 31.8867 25.3933 26.9646 26.5707 22.1793C27.3379 19.0651 28.2341 16.7028 29.4039 14.7279C30.4825 12.9049 31.9256 12.0542 33.2701 12.4416C34.7665 12.8745 35.4653 14.6139 35.1387 17.0902C35.0476 17.7814 34.9412 18.4802 34.8349 19.1714C34.7817 19.5436 34.721 19.9082 34.6678 20.2804C34.6222 20.5994 34.326 20.8197 34.0146 20.7665C33.6955 20.7209 33.4828 20.4247 33.5284 20.1133C33.5816 19.7411 33.6423 19.3689 33.6955 18.9967C33.8018 18.3055 33.9082 17.6219 33.9994 16.9382C34.0677 16.4445 34.326 13.9531 32.9511 13.5581C32.0093 13.2847 31.0142 14.2873 30.4066 15.3203C29.2976 17.1965 28.4392 19.46 27.7024 22.4604C26.5479 27.1393 26.0314 31.9626 26.1529 36.7783L26.1757 37.5303C26.2668 40.4623 26.358 43.493 24.687 45.9388C24.573 46.1059 24.3907 46.1895 24.2084 46.1895L24.2008 46.1971Z" fill="black"/>
<path id="Vector_22" d="M50.0351 15.6538C49.9135 15.6538 49.7995 15.6158 49.6932 15.5398C49.4349 15.3499 49.3742 14.9929 49.5641 14.7347L50.468 13.4966C50.6579 13.2383 51.0149 13.1852 51.2732 13.3674C51.5314 13.5573 51.5845 13.9219 51.4022 14.1726L50.4984 15.4107C50.3844 15.5626 50.2097 15.6462 50.0274 15.6462L50.0351 15.6538Z" fill="black"/>
<path id="Vector_23" d="M56.8626 14.4238C56.779 14.4238 56.6955 14.4086 56.612 14.363C56.3233 14.2263 56.2017 13.8769 56.346 13.5882C57.2651 11.6893 57.9336 10.1246 58.4501 8.66619C58.7463 7.83825 58.8831 6.75965 58.3134 6.45582C57.7513 6.15959 56.9309 6.84321 56.3537 7.58759C55.7764 8.32438 55.2143 9.06117 54.6446 9.80555C54.4547 10.0638 54.0902 10.1094 53.8319 9.91949C53.5736 9.72959 53.5281 9.365 53.718 9.10674C54.2876 8.35476 54.8573 7.61038 55.4346 6.87359C56.5816 5.40761 57.8273 4.8835 58.8527 5.4304C59.8857 5.98489 60.144 7.33693 59.5363 9.04597C59.0046 10.5423 58.3209 12.1374 57.3867 14.082C57.2879 14.287 57.0829 14.4086 56.8626 14.4086V14.4238Z" fill="black"/>
<path id="Vector_24" d="M63.0306 23.366C62.8939 23.366 62.7572 23.3204 62.6509 23.2217C62.4078 23.009 62.3849 22.6444 62.5976 22.4089C63.4787 21.3987 64.4358 20.3657 65.6663 19.8568C65.9626 19.7352 66.2968 19.872 66.4259 20.1682C66.5474 20.4644 66.4107 20.7986 66.1145 20.9278C65.1194 21.3455 64.2687 22.2646 63.4788 23.1761C63.3648 23.3052 63.2053 23.3736 63.0382 23.3736L63.0306 23.366Z" fill="black"/>
<path id="Vector_25" d="M46.0154 9.98142C45.9091 9.98142 45.8027 9.95104 45.704 9.89027C45.4306 9.71557 45.3546 9.35857 45.5217 9.09272L46.8206 7.04186C47.8309 5.44676 49.069 4.81631 50.14 5.3632C50.421 5.50752 50.5349 5.85693 50.3906 6.14557C50.2463 6.42661 49.8969 6.54055 49.6082 6.39623C49.0082 6.0848 48.1878 7.04946 47.8004 7.66472L46.5016 9.72317C46.3952 9.89787 46.2053 9.98902 46.0154 9.98902V9.98142Z" fill="black"/>
<path id="Vector_26" d="M49.0847 14.2577C49.0239 14.2577 48.9556 14.2501 48.8948 14.2273C48.591 14.121 48.4315 13.7944 48.5378 13.4905C48.8645 12.5259 49.1606 11.5384 49.4189 10.5586C49.4948 10.2472 49.8139 10.0573 50.1253 10.1408C50.4367 10.2168 50.619 10.5358 50.543 10.8472C50.2848 11.8651 49.981 12.8829 49.6392 13.8703C49.5556 14.1134 49.3354 14.2577 49.0923 14.2577H49.0847Z" fill="black"/>
<path id="Vector_27" d="M37.3944 23.5789C37.288 23.5789 37.1816 23.5485 37.0829 23.4877C36.8095 23.313 36.7335 22.956 36.9006 22.6902C37.1285 22.3256 37.3108 22.0293 37.4931 21.7331C37.6754 21.4369 37.8653 21.1331 38.0932 20.7685C38.2679 20.495 38.6248 20.4191 38.8907 20.5862C39.1641 20.7609 39.2401 21.1179 39.073 21.3837C38.8451 21.7483 38.6628 22.0445 38.4805 22.3408C38.2982 22.637 38.1084 22.9408 37.8805 23.3054C37.7742 23.4801 37.5842 23.5713 37.3944 23.5713V23.5789Z" fill="black"/>
<path id="Vector_28" d="M41.7156 16.764C41.6092 16.764 41.5029 16.7336 41.4042 16.6729C41.1307 16.4982 41.0548 16.1412 41.2219 15.8753C41.4802 15.4651 41.6928 15.1233 41.9054 14.7891C42.1105 14.4625 42.3156 14.1283 42.5739 13.7333C42.7486 13.4599 43.1056 13.3839 43.3715 13.551C43.6449 13.7257 43.7209 14.0827 43.5538 14.3486C43.3031 14.7435 43.098 15.0777 42.8929 15.4044C42.6802 15.7462 42.4675 16.0804 42.2017 16.4982C42.0954 16.6729 41.9054 16.764 41.7156 16.764Z" fill="black"/>
<path id="Vector_29" d="M61.4112 21.6639C61.3277 21.6639 61.2442 21.6487 61.1606 21.6031C60.872 21.4664 60.7504 21.117 60.8871 20.8284C62.1024 18.299 63.2114 15.686 64.1761 13.0503C64.404 12.4275 64.7078 11.3261 64.1761 10.9159C63.8723 10.6805 63.3633 10.7716 63.0215 10.9767C62.5658 11.2501 62.2164 11.7363 61.8822 12.1996C60.8795 13.5896 59.8617 15.0024 58.8667 16.4076C58.6844 16.6659 58.3197 16.7343 58.0615 16.5444C57.8032 16.3621 57.7349 15.9975 57.9248 15.7392C58.9199 14.3264 59.9377 12.906 60.9479 11.516C61.3125 11.0071 61.7682 10.3766 62.429 9.98164C63.1051 9.57147 64.1305 9.41955 64.8825 9.99683C65.4749 10.4526 66.0142 11.4172 65.2698 13.4529C64.29 16.119 63.1658 18.7699 61.9353 21.3297C61.8366 21.5348 61.6315 21.6563 61.4112 21.6563V21.6639Z" fill="black"/>
<path id="Vector_30" d="M42.7407 56.2378C42.642 56.2378 42.5356 56.2074 42.4445 56.1542C42.171 55.9871 42.0798 55.6377 42.247 55.3566C44.0396 52.3791 46.2802 49.432 49.5084 45.8012C49.7211 45.5657 50.0858 45.5429 50.3288 45.7556C50.5643 45.9683 50.587 46.3329 50.3744 46.576C47.1918 50.1536 44.9966 53.0475 43.2419 55.9567C43.1356 56.139 42.9458 56.2378 42.7483 56.2378H42.7407Z" fill="black"/>
<path id="Vector_31" d="M77.6833 95.1535C71.6523 84.0029 65.4313 72.9587 59.0205 62.0208C65.5301 57.4178 72.4878 53.4528 79.6354 50.3613C85.7576 61.4435 92.3735 72.2447 99.5135 82.5977C96.2321 85.6512 91.6671 86.7829 87.6489 88.7502C84.1473 90.4669 81.0255 92.8443 77.6909 95.1459L77.6833 95.1535Z" fill="#2E90FA"/>
<path id="Vector_32" d="M57.2583 56.239C57.0608 56.239 56.8709 56.1402 56.7646 55.9579C53.6883 50.8384 49.4651 46.3265 45.3862 41.959C39.9856 36.1786 34.4027 30.2084 31.4024 22.7569C30.8707 21.4505 30.9922 20.425 31.729 19.8781C32.0784 19.6199 32.5417 19.506 33.1038 19.5515C34.904 19.6882 36.2181 21.0403 37.4106 22.4151C38.3905 23.5469 39.3855 24.6863 40.3881 25.8256C38.2005 21.8606 36.3016 17.721 34.7369 13.4673C33.9849 11.4317 34.5318 10.467 35.1243 10.0189C35.8763 9.44159 36.9017 9.5935 37.5777 10.0037C38.2385 10.3986 38.6943 11.0291 39.0589 11.538C41.5351 14.9561 44.0569 18.5489 46.5863 22.2556C45.8115 20.4782 44.938 18.7464 44.0797 17.0373C42.7884 14.4776 41.4516 11.8342 40.4717 9.07699C39.8641 7.36794 40.1223 6.0159 41.1553 5.46141C42.1807 4.90692 43.434 5.43862 44.5734 6.9046C46.7458 9.69224 48.8726 12.5938 50.9386 15.4346C50.0575 13.1863 49.3891 10.862 48.9333 8.47692C48.6371 6.93499 48.9714 5.8412 49.8601 5.37786C50.9235 4.83097 52.1616 5.45382 53.1794 7.05652L65.6516 26.7295C65.9478 24.2609 65.5528 21.6859 65.173 19.1793C65.0667 18.4881 64.9604 17.7969 64.8693 17.1057C64.5427 14.6295 65.2414 12.8976 66.7378 12.4571C68.0823 12.0697 69.5254 12.9204 70.604 14.7434C72.1384 17.3336 72.9587 20.2427 73.4372 22.1948C74.6146 26.9802 75.1463 31.8946 75.0172 36.8243L74.9944 37.5838C74.9108 40.3259 74.8196 43.1667 76.2856 45.3011C76.4679 45.567 76.3996 45.924 76.1337 46.1063C75.8679 46.2886 75.5108 46.2202 75.3286 45.9543C73.6575 43.5009 73.7487 40.4778 73.8398 37.5459L73.8626 36.7939C73.9842 31.9706 73.4676 27.1549 72.3131 22.4759C71.5763 19.4756 70.718 17.2044 69.609 15.3359C69.0014 14.3029 68.0138 13.3002 67.0644 13.5737C65.6971 13.9687 65.9554 16.4601 66.0162 16.9538C66.1073 17.6374 66.2137 18.321 66.3124 19.0046C66.7833 22.1037 67.2771 25.3091 66.5175 28.4234C66.4643 28.6512 66.282 28.8183 66.0466 28.8563C65.8187 28.8943 65.5908 28.788 65.4617 28.5981L52.1919 7.67178C51.8045 7.05652 50.9842 6.09945 50.3841 6.40328C49.8372 6.68433 49.9815 7.79331 50.0651 8.25665C50.931 12.7913 52.5869 17.0905 55.0023 21.0251C55.1618 21.291 55.0859 21.6328 54.8352 21.8075C54.577 21.9822 54.2276 21.9214 54.0453 21.6707C53.0123 20.2655 51.9945 18.8603 50.9766 17.4627C48.6068 14.2041 46.1609 10.8316 43.6543 7.61861C43.0694 6.87422 42.2567 6.18301 41.6946 6.48684C41.125 6.79067 41.2617 7.86926 41.5579 8.6972C42.5149 11.3861 43.8366 13.999 45.1051 16.5284C46.685 19.6579 48.3181 22.9013 49.3055 26.3497C49.3815 26.6232 49.2524 26.9118 48.9942 27.0333C48.7359 27.1549 48.432 27.0637 48.2725 26.8283C44.862 21.7391 41.4515 16.8247 38.117 12.2292C37.7828 11.7659 37.4334 11.2798 36.9776 11.0063C36.6358 10.8012 36.1269 10.7177 35.8231 10.9455C35.2838 11.3557 35.5876 12.4571 35.8231 13.0799C38.0258 19.0654 40.8895 24.8306 44.3304 30.2008C44.4899 30.4514 44.4367 30.7856 44.2012 30.9679C43.9657 31.1502 43.6315 31.1274 43.4264 30.9072C41.1325 28.4613 38.793 25.78 36.5371 23.1823C35.5041 21.9898 34.3799 20.82 33.0127 20.7137C32.7392 20.6909 32.5417 20.7289 32.4202 20.82C32.1012 21.0555 32.2455 21.7619 32.481 22.3392C35.4054 29.5931 40.9123 35.4874 46.2369 41.1842C50.3538 45.5898 54.6149 50.1548 57.7596 55.3731C57.9267 55.6465 57.8356 56.0035 57.5622 56.1706C57.471 56.2238 57.3647 56.2542 57.2659 56.2542L57.2583 56.239Z" fill="black"/>
<path id="Vector_33" d="M77.8657 95.7898C77.6606 95.7898 77.4631 95.6834 77.3568 95.486C71.3257 84.305 64.9453 73.1241 58.3902 62.2546C58.2459 62.0115 58.2915 61.7077 58.5041 61.5178C62.1653 58.2972 66.3277 56.1324 70.3535 54.036C73.3766 52.4636 76.3921 50.8913 79.3849 49.3342C79.5292 49.2582 79.6887 49.2506 79.8406 49.3038C79.9925 49.357 80.114 49.4709 80.1747 49.6152C82.5598 54.9702 85.7653 59.991 88.8643 64.8523L99.9086 82.1478C100.083 82.4137 99.9996 82.7783 99.7338 82.9454C99.4604 83.1125 99.1034 83.0365 98.9363 82.7707L87.8997 65.4752C84.8841 60.7506 81.7623 55.8665 79.3772 50.6483C76.5668 52.1142 73.726 53.5954 70.8852 55.069C67.0569 57.0591 63.0996 59.1175 59.6283 62.0799C66.0999 72.8354 72.4043 83.8873 78.367 94.9467C78.5189 95.2277 78.4126 95.5771 78.1315 95.729C78.048 95.7746 77.9492 95.7974 77.8581 95.7974L77.8657 95.7898Z" fill="black"/>
<path id="Vector_34" d="M59.4967 61.7997C59.2916 61.7997 59.0941 61.6934 58.9878 61.5035L56.4053 56.8321C56.261 56.5663 56.3445 56.2321 56.6028 56.065C62.9149 52.0316 69.5535 48.3553 76.3213 45.1347C76.5948 45.0055 76.9214 45.1043 77.0657 45.3625C77.8784 46.7526 78.6076 48.2185 79.2305 49.7073C79.352 50.0035 79.2153 50.3378 78.9191 50.4669C78.6229 50.5884 78.2887 50.4517 78.1595 50.1555C77.6202 48.8794 77.005 47.6185 76.3289 46.4108C69.9333 49.4794 63.6592 52.9507 57.6737 56.7486L59.9905 60.949C60.1424 61.2301 60.0436 61.5795 59.7626 61.7314C59.6714 61.777 59.5803 61.7997 59.4815 61.7997H59.4967Z" fill="black"/>
<path id="Vector_35" d="M22.1423 95.7892C22.0512 95.7892 21.9523 95.7664 21.8688 95.7209C21.5877 95.5689 21.4814 95.2195 21.6334 94.9385C27.596 83.8867 33.9005 72.8273 40.3721 62.0717C36.9084 59.1169 32.951 57.0585 29.1151 55.0608C26.2743 53.5872 23.4412 52.1061 20.6232 50.6401C18.2381 55.8584 15.1238 60.7424 12.1007 65.467L1.0641 82.7625C0.889399 83.0284 0.532362 83.1119 0.266511 82.9372C0.000659396 82.7625 -0.082879 82.4055 0.0918232 82.1397L11.136 64.8441C14.2426 59.9829 17.4481 54.9545 19.8256 49.6071C19.8939 49.4628 20.0154 49.3488 20.1597 49.2956C20.3116 49.2425 20.4788 49.2577 20.6156 49.326C23.6083 50.8832 26.6238 52.4555 29.6469 54.0278C33.6727 56.1242 37.8427 58.289 41.4963 61.5096C41.7089 61.6919 41.7545 62.0033 41.6102 62.2464C35.0551 73.1159 28.6746 84.2969 22.6436 95.4778C22.5372 95.6753 22.3398 95.7816 22.1347 95.7816L22.1423 95.7892Z" fill="black"/>
<path id="Vector_36" d="M40.51 61.7997C40.4189 61.7997 40.3201 61.777 40.229 61.7314C39.9479 61.5795 39.8491 61.2225 40.0011 60.949L42.3178 56.7486C36.3324 52.9507 30.0583 49.4718 23.6627 46.4108C22.9791 47.6185 22.3638 48.8794 21.8321 50.1555C21.7106 50.4517 21.3688 50.5884 21.0725 50.4669C20.7763 50.3454 20.6395 50.0035 20.7611 49.7073C21.3839 48.2185 22.1131 46.7602 22.9258 45.3625C23.0778 45.1043 23.4044 45.0055 23.6778 45.1347C30.4456 48.3553 37.0844 52.0316 43.3964 56.065C43.6547 56.2321 43.7383 56.5663 43.5939 56.8321L41.0114 61.5035C40.905 61.6934 40.7075 61.7997 40.5024 61.7997H40.51Z" fill="black"/>
<path id="Vector_37" d="M77.424 20.0983C77.424 20.0983 77.3556 20.0983 77.3253 20.0907C77.0138 20.0375 76.8012 19.7337 76.8543 19.4222C77.743 14.3939 76.3075 9.05404 73.0109 5.14983C72.8058 4.90676 72.8362 4.54217 73.0793 4.33708C73.3223 4.132 73.687 4.16238 73.8921 4.40544C77.4089 8.56791 78.9356 14.2571 77.9937 19.6273C77.9405 19.9084 77.6975 20.1059 77.424 20.1059V20.0983Z" fill="black"/>
<path id="Vector_38" d="M83.5315 19.3455C83.5315 19.3455 83.4783 19.3455 83.4555 19.3455C83.1365 19.2999 82.9162 19.0113 82.9618 18.6923C83.4631 14.9627 83.2809 11.218 82.4225 7.55688C82.3466 7.24546 82.544 6.93403 82.8554 6.85808C83.1669 6.78212 83.4783 6.97961 83.5543 7.29103C84.4506 11.0889 84.6405 14.9779 84.1164 18.8442C84.0784 19.1328 83.8277 19.3455 83.5467 19.3455H83.5315Z" fill="black"/>
<path id="Vector_39" d="M17.578 40.1744C17.3273 40.1744 17.0918 40.0073 17.0234 39.749C15.5878 34.6447 15.7929 29.0846 17.6007 24.0942C17.7071 23.7903 18.0414 23.6384 18.3452 23.7448C18.649 23.8511 18.8009 24.1853 18.6946 24.4892C16.9703 29.2517 16.7729 34.5611 18.1477 39.4376C18.2312 39.7414 18.0565 40.068 17.7451 40.1516C17.6919 40.1668 17.6388 40.1744 17.5856 40.1744H17.578Z" fill="black"/>
</g>
</g>
</svg>
