<svg width="64" height="44" viewBox="0 0 64 44" fill="none" xmlns="http://www.w3.org/2000/svg">
<g id="logo.svg" clip-path="url(#clip0_1562_45814)">
<g id="Container">
<g id="HSCT">
<path d="M10.7142 21.2902H3.41833V28.0844H0.5V11.532H3.41833V18.3718H10.7142V11.532H13.6325V28.0844H10.7142V21.2902Z" fill="black"/>
<path d="M24.0415 28.2668C19.9604 28.2668 16.9965 26.2149 16.1301 21.997H19.2536C19.6184 24.1401 21.4652 25.3941 24.0415 25.3941C25.5007 25.3941 28.0542 25.0065 28.0542 23.3877C28.0542 22.4073 26.8458 21.8602 23.8591 21.4042C18.5696 20.6062 16.8825 19.2382 16.8825 16.3655C16.8825 13.7208 19.5044 11.3496 23.6995 11.3496C27.3474 11.3496 29.8782 13.2648 31.1777 17.1407H28.077C27.393 15.1571 25.9111 14.2223 23.6995 14.2223C21.4196 14.2223 19.778 15.1799 19.778 16.3655C19.778 17.4599 20.8724 18.0299 24.4063 18.5542C29.217 19.3522 30.9042 20.629 30.927 23.3877V23.4333C30.927 26.3061 27.9858 28.2668 24.0415 28.2668Z" fill="black"/>
<path d="M41.4852 28.2896C36.6746 28.2896 33.1406 24.7557 33.1406 19.831C33.1406 14.9063 36.6746 11.3496 41.4852 11.3496C45.4979 11.3496 48.5987 13.7892 49.5563 17.4143H46.4783C45.6347 15.4763 43.8108 14.2451 41.4852 14.2451C38.2021 14.2451 36.0362 16.6847 36.0362 19.831C36.0362 23.0685 38.2933 25.4169 41.4852 25.4169C44.1528 25.4169 46.2047 23.7753 46.7747 21.3358H49.7386C49.1003 25.4625 45.8399 28.2896 41.4852 28.2896Z" fill="black"/>
<path d="M64.2968 14.3819H58.9617V28.0844H56.0434V14.3819H50.6855V11.532H64.2968V14.3819Z" fill="black"/>
</g>
</g>
<path id="Vector" d="M12.5132 33.5762H51.3812C47.1689 39.8195 40.0389 43.9253 31.9472 43.9253C23.8556 43.9253 16.7208 39.8195 12.5132 33.5762Z" fill="#0A0A0A"/>
</g>
<defs>
<clipPath id="clip0_1562_45814">
<rect width="63" height="44" fill="white" transform="translate(0.5)"/>
</clipPath>
</defs>
</svg>
