<svg width="24" height="25" viewBox="0 0 24 25" fill="none" xmlns="http://www.w3.org/2000/svg">
<g id="Frame">
<path id="Vector" d="M13.0281 2.50195C14.1535 2.50381 14.7238 2.50976 15.2166 2.52443L15.4107 2.53078C15.6349 2.53875 15.8561 2.54875 16.1228 2.56125C17.1869 2.61041 17.9128 2.77875 18.5503 3.02625C19.2094 3.28041 19.7661 3.62375 20.3219 4.17958C20.8769 4.73541 21.2203 5.29375 21.4753 5.95125C21.7219 6.58791 21.8903 7.31458 21.9403 8.37875C21.9522 8.64541 21.9618 8.86661 21.9697 9.09086L21.976 9.28494C21.9906 9.77769 21.9973 10.3481 21.9994 11.4735L22.0002 12.2192C22.0003 12.3103 22.0003 12.4043 22.0003 12.5013L22.0002 12.7834L21.9996 13.5291C21.9977 14.6545 21.9918 15.2248 21.9771 15.7176L21.9707 15.9117C21.9628 16.1359 21.9528 16.3571 21.9403 16.6238C21.8911 17.6879 21.7219 18.4138 21.4753 19.0513C21.2211 19.7104 20.8769 20.2671 20.3219 20.8229C19.7661 21.3779 19.2069 21.7213 18.5503 21.9763C17.9128 22.2229 17.1869 22.3913 16.1228 22.4413C15.8561 22.4532 15.6349 22.4628 15.4107 22.4707L15.2166 22.477C14.7238 22.4916 14.1535 22.4983 13.0281 22.5004L12.2824 22.5012C12.1913 22.5013 12.0973 22.5013 12.0003 22.5013L11.7182 22.5012L10.9725 22.5006C9.8471 22.4987 9.27672 22.4928 8.78397 22.4781L8.58989 22.4717C8.36564 22.4638 8.14444 22.4538 7.87778 22.4413C6.81361 22.3921 6.08861 22.2229 5.45028 21.9763C4.79194 21.7221 4.23444 21.3779 3.67861 20.8229C3.12278 20.2671 2.78028 19.7079 2.52528 19.0513C2.27778 18.4138 2.11028 17.6879 2.06028 16.6238C2.0484 16.3571 2.03871 16.1359 2.03086 15.9117L2.02457 15.7176C2.00994 15.2248 2.00327 14.6545 2.00111 13.5291L2.00098 11.4735C2.00284 10.3481 2.00879 9.77769 2.02346 9.28494L2.02981 9.09086C2.03778 8.86661 2.04778 8.64541 2.06028 8.37875C2.10944 7.31375 2.27778 6.58875 2.52528 5.95125C2.77944 5.29291 3.12278 4.73541 3.67861 4.17958C4.23444 3.62375 4.79278 3.28125 5.45028 3.02625C6.08778 2.77875 6.81278 2.61125 7.87778 2.56125C8.14444 2.54937 8.36564 2.53968 8.58989 2.53183L8.78397 2.52554C9.27672 2.51091 9.8471 2.50424 10.9725 2.50208L13.0281 2.50195ZM12.0003 7.50125C9.23738 7.50125 7.00028 9.74078 7.00028 12.5013C7.00028 15.2642 9.23981 17.5013 12.0003 17.5013C14.7632 17.5013 17.0003 15.2617 17.0003 12.5013C17.0003 9.73835 14.7607 7.50125 12.0003 7.50125ZM12.0003 9.50125C13.6572 9.50125 15.0003 10.8439 15.0003 12.5013C15.0003 14.1582 13.6576 15.5013 12.0003 15.5013C10.3434 15.5013 9.00028 14.1586 9.00028 12.5013C9.00028 10.8444 10.3429 9.50125 12.0003 9.50125ZM17.2503 6.00125C16.561 6.00125 16.0003 6.56115 16.0003 7.2504C16.0003 7.93964 16.5602 8.50041 17.2503 8.50041C17.9395 8.50041 18.5003 7.94051 18.5003 7.2504C18.5003 6.56115 17.9386 6.00038 17.2503 6.00125Z" fill="#FAFFFF"/>
</g>
</svg>
