<svg width="24" height="25" viewBox="0 0 24 25" fill="none" xmlns="http://www.w3.org/2000/svg">
<g id="Frame">
<path id="Vector" d="M6.94048 5.50091C6.94011 6.31522 6.44608 7.048 5.69134 7.35371C4.9366 7.65943 4.07187 7.47703 3.5049 6.89253C2.93793 6.30802 2.78195 5.43813 3.1105 4.69305C3.43906 3.94797 4.18654 3.47648 5.00048 3.50091C6.08155 3.53336 6.94097 4.41935 6.94048 5.50091ZM7.00048 8.98091H3.00048V21.5009H7.00048V8.98091ZM13.3205 8.98091H9.34048V21.5009H13.2805V14.9309C13.2805 11.2709 18.0505 10.9309 18.0505 14.9309V21.5009H22.0005V13.5709C22.0005 7.40091 14.9405 7.63091 13.2805 10.6609L13.3205 8.98091Z" fill="#FAFFFF"/>
</g>
</svg>
