<svg width="63" height="27" viewBox="0 0 63 27" fill="none" xmlns="http://www.w3.org/2000/svg">
<g id="logo" clip-path="url(#clip0_1562_36147)">
<g id="Group">
<g id="Group_2">
<path id="Vector" d="M59.1524 18.629C56.9807 22.9976 52.4716 26.0005 47.2601 26.0005C39.992 26.0005 34.0878 20.1568 33.9883 12.9121H39.2115C39.2369 14.0945 39.5198 15.3335 40.1071 16.5764C40.792 18.0222 41.9568 19.1968 43.4026 19.8797C46.9537 21.5577 50.458 20.746 52.737 18.629H59.1524Z" fill="white"/>
<path id="Vector_2" d="M59.1524 6.37208H52.737C51.299 5.03749 49.3751 4.22191 47.2601 4.22191C42.9851 4.22191 39.4886 7.55449 39.2252 11.7631H33.998C34.0566 10.1925 34.3883 8.56323 35.038 6.92036C36.2731 3.79265 38.753 1.30493 41.8768 0.0639926C49.2054 -2.84909 56.2569 0.549831 59.1524 6.37404V6.37208Z" fill="white"/>
</g>
<g id="Group_3">
<path id="Vector_3" d="M28.3203 12.9102C28.2247 17.2729 24.658 20.7792 20.2718 20.7792C15.8856 20.7792 12.3189 17.2729 12.2233 12.9102H7C7.09756 20.1568 13.0018 26.0005 20.2698 26.0005C27.5379 26.0005 33.444 20.1568 33.5416 12.9102H28.3183H28.3203Z" fill="white"/>
<path id="Vector_4" d="M33.5026 11.7606H7.00977C7.33561 7.31974 9.29847 -1 20.2601 -1V-0.980488L31.3719 7.7646C32.6031 8.73237 33.3797 10.1704 33.5006 11.7333V11.7606H33.5026Z" fill="white"/>
<path id="Vector_5" d="M20.2617 -0.989471L20.9641 5.10399C21.0246 5.62105 21.2685 6.07957 21.6295 6.41127C22.0782 6.82491 22.7007 7.00052 23.3075 6.92637C24.1074 6.82882 26.2459 6.59078 27.9298 6.59078C30.0429 6.59078 30.6692 7.21515 30.6692 7.21515C30.6731 7.21515 30.675 7.21124 30.6731 7.20929C30.3355 6.94003 20.57 -0.755332 20.2695 -0.991422C20.2676 -0.993373 20.2637 -0.991422 20.2637 -0.98752L20.2617 -0.989471Z" fill="#82BBFF"/>
</g>
</g>
</g>
<defs>
<clipPath id="clip0_1562_36147">
<rect width="63" height="27" fill="white"/>
</clipPath>
</defs>
</svg>
