<svg width="63" height="28" viewBox="0 0 63 28" fill="none" xmlns="http://www.w3.org/2000/svg">
<g id="logo" clip-path="url(#clip0_1450_39840)">
<g id="Group">
<g id="Group_2">
<path id="Vector" d="M59.5809 19.627C57.4093 23.9956 52.9002 26.9985 47.6887 26.9985C40.4207 26.9985 34.5165 21.1548 34.417 13.9102H39.6402C39.6656 15.0926 39.9485 16.3315 40.5358 17.5744C41.2206 19.0202 42.3855 20.1948 43.8313 20.8777C47.3824 22.5557 50.8866 21.744 53.1656 19.627H59.5809Z" fill="#0073FF"/>
<path id="Vector_2" d="M59.581 7.37205H53.1656C51.7276 6.03746 49.8038 5.22188 47.6887 5.22188C43.4137 5.22188 39.9173 8.55444 39.6539 12.7631H34.4268C34.4853 11.1924 34.817 9.56318 35.4667 7.92032C36.7018 4.79263 39.1817 2.30492 42.3055 1.06399C49.634 -1.84908 56.6855 1.54982 59.581 7.374V7.37205Z" fill="#0073FF"/>
</g>
<g id="Group_3">
<path id="Vector_3" d="M28.7489 13.9082C28.6533 18.271 25.0866 21.7772 20.7004 21.7772C16.3142 21.7772 12.7475 18.271 12.6519 13.9082H7.42871C7.52627 21.1548 13.4304 26.9984 20.6985 26.9984C27.9665 26.9984 33.8726 21.1548 33.9702 13.9082H28.7469H28.7489Z" fill="#0073FF"/>
<path id="Vector_4" d="M33.9311 12.7605H7.43848C7.76432 8.31969 9.72717 0 20.6887 0V0.0195115L31.8005 8.76455C33.0317 9.73232 33.8082 11.1703 33.9292 12.7332V12.7605H33.9311Z" fill="#0073FF"/>
<path id="Vector_5" d="M20.6904 0.0105291L21.3928 6.10396C21.4533 6.62102 21.6972 7.07954 22.0582 7.41123C22.5069 7.82487 23.1294 8.00048 23.7362 7.92633C24.5361 7.82878 26.6746 7.59074 28.3584 7.59074C30.4715 7.59074 31.0978 8.2151 31.0978 8.2151C31.1017 8.2151 31.1037 8.2112 31.1017 8.20925C30.7642 7.93999 20.9987 0.244667 20.6982 0.00857794C20.6963 0.0066268 20.6924 0.00857794 20.6924 0.0124802L20.6904 0.0105291Z" fill="#82BBFF"/>
</g>
</g>
</g>
<defs>
<clipPath id="clip0_1450_39840">
<rect width="63" height="27" fill="white" transform="translate(0 0.5)"/>
</clipPath>
</defs>
</svg>
