<svg width="100" height="100" viewBox="0 0 100 100" fill="none" xmlns="http://www.w3.org/2000/svg">
<g id="Container">
<g id="Group">
<g id="Group_2">
<path id="Vector" d="M82.1419 69.6555C81.7252 69.1392 82.0544 68.3578 82.5025 67.8688C82.9514 67.3797 83.5368 66.9461 83.6813 66.2988C83.9094 65.283 82.957 64.4237 82.1106 63.8182C82.2319 62.7044 82.37 61.5433 82.99 60.6101C83.1979 60.2969 83.4605 60.0079 83.5721 59.6489C83.7689 59.0137 83.4461 58.3456 83.4196 57.4952C88.0025 52.7163 90.2245 46.2101 92.2819 40.0468C90.5618 39.9721 88.8834 39.2703 87.1689 39.4245C86.7369 39.463 86.3097 39.5562 85.8761 39.561C84.8257 39.573 83.8066 39.0695 82.684 39.0663C81.8528 32.3602 82.4519 25.5159 81.3196 18.8539C81.2482 18.4315 81.1582 17.9883 80.8764 17.6655C80.6603 17.4189 80.3503 17.2696 80.0323 17.1885C78.8414 16.8833 77.4771 17.5731 77.0169 18.7134C76.1561 18.5801 75.288 18.491 74.4184 18.446C74.2465 17.2005 73.2612 16.0393 72.0117 15.9052C70.7621 15.7711 69.4612 16.9098 69.6844 18.0774C68.8822 17.9883 68.08 17.8999 67.2777 17.8108C67.3468 17.3868 67.1332 16.9483 66.8008 16.6777C66.4675 16.4063 66.0331 16.285 65.6042 16.2609C64.7289 16.2104 63.7588 16.6328 63.4681 17.4599C62.5784 17.3266 61.675 17.2824 60.7764 17.329C60.0368 16.4826 58.7696 16.1413 57.5072 16.236C52.1044 12.4522 46.1299 9.48494 39.8172 7.58496C39.6686 5.5043 39.7513 3.40677 40.0629 1.34378C35.2174 0.682076 30.3551 0.0187663 25.4646 0.000296549C22.8788 -0.00933986 20.1501 0.206684 17.9176 2.00548C17.4993 7.44845 17.59 12.9308 18.1585 18.503C17.3908 19.0178 16.8319 19.8891 16.8384 20.8133C16.844 21.7376 17.4977 22.6595 18.4051 22.8386C18.267 23.6545 18.23 24.488 18.2959 25.3136C17.1837 25.3914 16.3027 26.327 15.8442 27.3428C15.5085 28.0864 15.38 29.0685 15.9695 29.6323C16.5091 30.1486 17.3716 30.0603 18.0228 30.3414C17.9642 30.9974 17.9056 31.6535 17.8478 32.3104C17.0046 32.6292 16.3838 33.47 16.3284 34.3702C16.2722 35.2704 16.7838 36.181 17.5812 36.6018C17.4182 37.5165 17.3371 38.4456 17.3419 39.3739C16.5356 40.2195 16.2048 41.4915 16.3806 42.8631C12.4666 48.0972 9.47132 54.0156 7.57054 60.268C5.56777 60.3861 3.56579 60.5041 1.51082 60.7539C0.654786 62.2443 0.374538 63.9901 0.207507 65.6998C-0.327314 71.1829 0.163323 76.764 1.77662 82.2945C7.328 82.1595 12.8786 82.0254 18.43 81.8905C18.8652 82.7128 19.7815 83.2557 20.7114 83.2428C21.6413 83.23 22.5423 82.6606 22.9535 81.8271C23.6505 82.1146 24.4294 82.2005 25.1723 82.0704C25.2999 83.3986 26.4732 84.5478 27.803 84.6481C29.1336 84.7485 30.4659 83.7889 30.7807 82.5177C31.2689 82.5049 31.7563 82.4928 32.2446 82.48C32.5626 83.4316 33.4772 84.1535 34.477 84.241C35.4768 84.3286 36.5031 83.7761 36.9809 82.8943C38.1268 82.9859 39.2566 83.2806 40.3014 83.7608C40.8691 84.0218 41.6313 84.3037 41.975 83.7407C47.7576 87.3713 53.6237 91.0403 60.0552 93.1547C59.9894 95.1374 59.8063 97.1153 59.3743 99.1791C61.7368 99.8793 64.2383 99.913 66.7028 99.9411C68.0326 99.9564 69.3624 99.9717 70.6923 99.9869C74.5235 100.031 78.4648 100.057 82.117 98.4154C82.117 98.4154 81.3292 81.8673 81.5212 81.5846C82.1893 80.8691 82.9096 79.9504 82.6229 79.0141C82.3395 78.0882 81.1566 77.5758 81.0755 76.6106C81.0129 75.8606 81.6641 75.2503 82.313 74.8696C82.9618 74.489 83.7079 74.171 84.0861 73.5205C84.4884 72.8283 84.3446 71.9201 83.9158 71.2439C83.4878 70.5669 82.8189 70.0827 82.1419 69.6555ZM59.5309 56.3677C58.4388 56.6536 57.337 56.9218 56.2424 57.2085C55.176 57.4879 54.1321 57.8814 53.0825 58.2219C50.9191 58.9229 48.7558 59.6208 46.5691 60.2488C46.2222 60.3484 45.9259 60.2873 45.6978 60.1347C45.1285 60.6117 44.0877 60.5587 43.8332 59.6272C42.4961 54.7319 41.0233 49.8623 39.0655 45.1742C38.8744 44.7165 39.1924 44.1198 39.5891 43.8877C39.8052 43.7617 40.0364 43.7223 40.2621 43.748C40.336 43.6814 40.4283 43.6268 40.5439 43.5922C42.8366 42.9129 45.1084 42.1668 47.4075 41.5075C48.5638 41.1759 49.7194 40.8378 50.8798 40.5214C51.3046 40.4058 51.7415 40.2813 52.1847 40.1697C52.62 39.9681 53.056 39.7658 53.4928 39.5674C53.635 39.4638 53.8077 39.3819 54.0245 39.3345C54.4613 39.239 54.8484 39.414 55.1045 39.7015C55.2033 39.6887 55.3053 39.6951 55.4017 39.7168C55.5711 39.7553 55.7405 39.8959 55.8265 40.0436C55.8618 40.1038 55.8891 40.1849 55.9068 40.2685C55.9116 40.2749 55.918 40.2805 55.9228 40.2869C56.191 40.299 56.4376 40.4564 56.5067 40.8057C57.3956 45.3228 58.7287 49.7659 60.3147 54.0847C60.4175 54.3649 60.3275 54.585 60.1572 54.7207C60.4809 55.2948 60.3122 56.1629 59.5309 56.3677Z" fill="white"/>
</g>
<g id="Group_3">
<path id="Vector_2" d="M62.7444 90.9527C62.6906 90.9527 62.6384 90.9318 62.5983 90.8908C62.5204 90.8097 62.522 90.6812 62.6031 90.6025C64.7407 88.5299 67.0149 86.5504 69.363 84.7187C69.4521 84.6496 69.5798 84.6657 69.6497 84.754C69.7188 84.8432 69.7027 84.9709 69.6144 85.0407C67.2783 86.8628 65.0146 88.8327 62.8873 90.8957C62.8464 90.9334 62.795 90.9527 62.7444 90.9527Z" fill="black"/>
</g>
<g id="Group_4">
<path id="Vector_3" d="M62.603 96.5756C62.554 96.5756 62.5051 96.5579 62.4665 96.5234C62.383 96.4479 62.3766 96.3186 62.4521 96.2351C66.2046 92.0915 70.2648 88.147 74.5201 84.5116C74.606 84.4385 74.7345 84.449 74.8075 84.5341C74.8806 84.62 74.871 84.7485 74.7851 84.8216C70.5427 88.4457 66.4946 92.3781 62.7548 96.509C62.7139 96.5531 62.6584 96.5756 62.603 96.5756Z" fill="black"/>
</g>
<g id="Group_5">
<path id="Vector_4" d="M66.5495 98.3453C66.5029 98.3453 66.4563 98.3301 66.4178 98.2979C66.3318 98.2257 66.3206 98.0972 66.3929 98.0104C70.2257 93.454 74.4352 89.149 78.9049 85.2149C78.9893 85.1402 79.1178 85.149 79.1925 85.2334C79.2671 85.3177 79.2591 85.4462 79.174 85.5208C74.7195 89.4421 70.5237 93.7319 66.7044 98.2738C66.6651 98.3204 66.6081 98.3453 66.5495 98.3453Z" fill="black"/>
</g>
<g id="Group_6">
<path id="Vector_5" d="M71.4194 98.0281C71.3689 98.0281 71.3183 98.0096 71.2789 97.9718C71.197 97.894 71.1938 97.7647 71.2717 97.6835L79.249 89.3192C79.3269 89.2372 79.4562 89.2348 79.5373 89.3119C79.6192 89.3898 79.6225 89.5191 79.5446 89.6002L71.5672 97.9654C71.5271 98.0064 71.4732 98.0281 71.4194 98.0281Z" fill="black"/>
</g>
<g id="Group_7">
<path id="Vector_6" d="M76.8246 98.5066C76.7764 98.5066 76.7282 98.4897 76.6889 98.4544C76.6046 98.3797 76.5973 98.2504 76.6728 98.1669L80.4407 93.9413C80.5153 93.857 80.6438 93.8498 80.729 93.9253C80.8133 93.9999 80.8205 94.1292 80.745 94.2135L76.9772 98.4391C76.937 98.4833 76.8808 98.5066 76.8246 98.5066Z" fill="black"/>
</g>
<g id="Group_8">
<path id="Vector_7" d="M62.1316 87.0657C62.0858 87.0657 62.0392 87.0505 62.0015 87.0183C61.9148 86.9461 61.9027 86.8176 61.975 86.7309C62.7001 85.8572 63.5015 85.034 64.3568 84.2848C64.4411 84.2109 64.5696 84.219 64.6443 84.3041C64.7182 84.3884 64.7101 84.5177 64.625 84.5916C63.7866 85.3263 62.9997 86.1342 62.2882 86.991C62.248 87.04 62.1902 87.0657 62.1316 87.0657Z" fill="black"/>
</g>
<g id="Group_9">
<path id="Vector_8" d="M20.5946 15.9643H20.593C20.4806 15.9635 20.3898 15.872 20.3906 15.7596L20.4661 2.36253C20.4669 2.25011 20.5584 2.16016 20.6701 2.16016H20.6717C20.7841 2.16096 20.8749 2.25251 20.874 2.36493L20.7986 15.762C20.7978 15.8736 20.707 15.9643 20.5946 15.9643Z" fill="black"/>
</g>
<g id="Group_10">
<path id="Vector_9" d="M24.0144 15.4953C23.9036 15.4953 23.8129 15.4062 23.8104 15.2954L23.5791 2.33999C23.5767 2.22757 23.6667 2.13442 23.7791 2.13281C23.7807 2.13281 23.7815 2.13281 23.7831 2.13281C23.894 2.13281 23.9847 2.22196 23.9871 2.33277L24.2184 15.2881C24.22 15.4006 24.1308 15.4937 24.0184 15.4953C24.0168 15.4953 24.0144 15.4953 24.0144 15.4953Z" fill="black"/>
</g>
<g id="Group_11">
<path id="Vector_10" d="M27.6814 16.2694C27.569 16.2694 27.4783 16.1787 27.4775 16.0663L27.4229 2.10712C27.4229 1.9947 27.5136 1.90315 27.626 1.90234C27.7384 1.90234 27.83 1.99309 27.8308 2.10552L27.8854 16.0647C27.8854 16.1771 27.7947 16.2686 27.6814 16.2694Z" fill="black"/>
</g>
<g id="Group_12">
<path id="Vector_11" d="M31.355 15.0423C31.2458 15.0423 31.1559 14.9564 31.1511 14.8464C30.9977 10.8722 30.9985 6.84413 31.1535 2.87393C31.1575 2.7615 31.2458 2.67237 31.3654 2.67799C31.4779 2.682 31.5654 2.77757 31.5614 2.88999C31.4064 6.84976 31.4056 10.8673 31.559 14.8311C31.563 14.9435 31.4755 15.0383 31.363 15.0431C31.3606 15.0423 31.3574 15.0423 31.355 15.0423Z" fill="black"/>
</g>
<g id="Group_13">
<path id="Vector_12" d="M34.6988 15.753H34.6964C34.584 15.7514 34.494 15.6591 34.4956 15.5466L34.6795 2.65393C34.6811 2.54151 34.7574 2.45076 34.8859 2.45317C34.9983 2.45478 35.0883 2.54792 35.0867 2.65954L34.9019 15.5523C34.9011 15.6639 34.8104 15.753 34.6988 15.753Z" fill="black"/>
</g>
<g id="Group_14">
<path id="Vector_13" d="M37.2812 15.7792C37.1688 15.7792 37.0773 15.6885 37.0773 15.5761L37.0645 4.11998C37.0645 4.00756 37.156 3.91602 37.2676 3.91602C37.38 3.91602 37.4716 4.00755 37.4716 4.11918L37.4844 15.5753C37.4853 15.6877 37.3937 15.7792 37.2812 15.7792Z" fill="black"/>
</g>
<g id="Group_15">
<path id="Vector_14" d="M98.2654 17.9355C92.6337 18.5177 86.9619 18.7105 81.3037 18.5097C81.971 25.3957 82.4585 32.2994 82.7652 39.2111C88.091 39.5452 93.4167 39.8801 98.7432 40.2141C99.1552 32.9451 99.0829 25.6495 98.2654 17.9355Z" fill="#2E90FA"/>
</g>
<g id="Group_16" opacity="0.1294">
<path id="Vector_15" d="M85.3354 37.7805C85.5466 35.7191 85.2912 33.6312 85.125 31.5706C84.9411 29.3591 84.8535 27.1411 84.758 24.9247C84.6696 23.0552 84.652 21.1272 84.0578 19.3356C83.4948 17.4798 80.7516 18.2298 81.2126 20.1202C82.4147 23.7675 82.0461 29.4217 82.2902 35.1546C82.3505 35.7689 82.385 36.3792 82.4959 36.9879C82.5175 37.2955 82.5473 37.6014 82.638 37.8921C82.6846 38.4374 82.585 38.1603 82.7705 38.6317C83.2796 39.9632 85.3346 39.5416 85.3177 38.1186C85.239 38.7032 85.3161 38.1692 85.3354 37.7805Z" fill="black"/>
</g>
<g id="Group_17" opacity="0.1294">
<path id="Vector_16" d="M92.5054 39.9617C92.3737 38.6383 90.4215 38.513 90.0826 39.7963C89.7574 41.0169 89.1094 42.9682 88.9182 43.2863C87.9257 45.3982 86.6585 47.3641 85.5993 49.4415C84.5546 51.2813 83.2199 52.9524 82.3317 54.8772C82.0226 55.559 81.8692 55.506 81.7118 55.91C81.4862 55.7702 81.2388 55.6626 80.9706 55.604C80.8228 55.5775 80.6871 55.5871 80.5634 55.6208C81.1119 56.2569 81.4074 57.1289 81.1906 57.9223C81.1336 58.0075 81.0902 58.1103 81.0726 58.2371C81.0083 58.4034 80.7843 58.9639 80.4534 59.4039C80.4077 59.461 80.3491 59.534 80.3169 59.5678C80.268 59.6087 80.2286 59.6569 80.1941 59.7083C80.1892 59.7107 80.1828 59.7147 80.1796 59.7163C80.064 59.7958 79.6247 60.0062 79.4681 60.0833C78.2748 60.525 77.1803 60.7675 77.0213 61.1883C76.7755 61.5786 77.0036 62.0668 77.3786 62.2347C77.4838 62.7976 77.9287 63.3019 78.6225 63.2939C79.0457 63.2987 79.4697 63.2963 79.8929 63.2939C79.8777 63.395 79.8801 63.4986 79.8993 63.599C79.9082 63.6014 79.9194 63.6014 79.9274 63.6054C80.1017 63.6785 80.2639 63.766 80.4141 63.8728C80.3723 64.0969 80.4478 64.341 80.6839 64.4679C80.8188 64.5538 80.9393 64.6534 81.0501 64.757C81.0726 64.8469 81.0966 64.9585 81.1256 65.0991C81.1794 65.7343 81.1368 65.8033 80.9088 66.4747C80.7201 66.8971 80.6759 67.089 80.2543 67.4825C80.1997 67.5226 80.1459 67.562 80.0897 67.6005C79.9548 67.7105 79.766 67.7587 79.6689 67.9089C79.4127 68.1964 79.5918 68.6999 79.9596 68.789C80.0873 68.8139 80.2101 68.7954 80.3298 68.7553C80.398 68.8541 80.4896 68.9376 80.5972 68.989C80.5121 69.1696 80.5241 69.3841 80.6076 69.5648C80.6044 69.5712 80.6036 69.5792 80.6004 69.5856C80.5731 69.5921 80.5458 69.5969 80.5193 69.6049C79.8335 69.8482 79.9114 70.9243 80.6132 71.0897C80.7088 71.1122 80.8052 71.1347 80.8991 71.1652C80.9039 71.1692 80.9047 71.1708 80.9112 71.1764C80.9923 71.2367 81.1216 71.3804 81.1665 71.4286C81.2035 71.4864 81.2364 71.5458 81.2581 71.5876C81.2966 71.7072 81.3352 71.8646 81.3609 71.9674C81.3625 72.0236 81.3625 72.079 81.3576 72.1353C81.3528 72.1577 81.348 72.1826 81.3416 72.2107C81.283 72.5352 81.2838 72.6524 81.1416 72.9785C80.8702 73.3832 80.3297 73.9324 79.5114 74.3195C79.0473 74.5042 78.5567 74.6239 78.0636 74.6961C78.0202 74.7058 78.1584 74.6809 78.1889 74.6793C77.6701 74.7411 77.1578 74.8463 76.6486 74.9595C76.3892 74.99 76.1098 75.149 76.0938 75.4365C76.1002 76.197 76.7161 76.0131 77.1538 75.9714C77.5167 75.936 77.8821 75.9248 78.2427 75.8766C78.2547 76.2155 78.4137 76.5463 78.7687 76.7431C79.0465 76.87 79.3477 77.0185 79.6584 77.1398C79.3838 77.4835 79.3621 78.036 79.8616 78.3419C79.8712 78.3491 79.8809 78.3572 79.8913 78.3644C79.8937 78.3676 79.9098 78.3821 79.9515 78.4182C79.9997 78.4624 80.0423 78.5122 80.0856 78.562C80.1346 78.6374 80.186 78.729 80.2181 78.7876C80.2727 78.9402 80.3153 79.0968 80.345 79.2558C80.3763 79.9833 80.4141 79.6862 80.2463 80.3696C80.0768 80.7133 80.0953 80.7012 80.0118 80.845C79.9371 80.9261 79.8608 81.0064 79.7773 81.0779C79.3951 81.3902 79.5573 81.3123 79.1919 81.538C78.853 81.6585 78.7044 82.0511 78.8626 82.3193C78.698 82.5081 78.6145 82.7658 78.6996 83.0549C78.8321 83.7993 78.9574 84.5478 79.1276 85.2849C79.1365 85.4038 79.1637 85.5082 79.2039 85.6014C79.33 87.152 79.4552 89.5563 79.4737 91.0829C79.5612 93.4976 79.2674 95.9942 79.8592 98.3543C80.0881 99.3003 81.393 99.6456 82.0595 98.9349C82.5309 98.4419 82.5052 97.6983 82.4698 97.0606C82.2683 93.3699 82.4016 89.6623 81.886 85.9924C81.8395 85.5869 81.7897 85.1822 81.7351 84.7774C81.8965 84.1993 81.776 84.2619 81.886 83.7399C81.8459 83.2685 81.9945 82.7538 81.8234 82.3065C81.809 82.2688 81.7905 82.2358 81.7728 82.2021C82.0105 81.9716 82.1687 81.6424 82.3534 81.3734C83.0464 80.1094 82.9372 78.37 81.9093 77.3164C81.7961 77.2144 81.6789 77.1052 81.5536 77.0121C81.9222 76.5985 81.9431 75.8838 81.5183 75.4855C81.299 75.2904 81.0356 75.1531 80.7353 75.1611C80.7265 75.1603 80.7224 75.1603 80.7152 75.1603C80.6285 75.1418 80.5578 75.125 80.4968 75.1089C80.663 75.0198 80.8293 74.9234 80.9931 74.8214C81.0878 75.0487 81.2741 75.2366 81.5407 75.3016C82.0539 75.4181 82.5212 75.0567 82.9597 74.8367C84.2991 73.9517 84.7906 71.9666 83.8559 70.6216C83.3877 69.9334 82.6545 69.3343 81.8266 69.164C81.8025 69.046 81.7528 68.932 81.6741 68.8412C81.7801 68.7938 81.8853 68.7457 81.988 68.7023C83.4447 67.9619 84.0735 65.9937 83.2681 64.5586C83.0488 64.0897 82.7043 63.697 82.2956 63.3846C82.9613 63.0818 83.3484 62.209 82.8529 61.4517C82.6409 61.0775 82.2755 60.8848 81.87 60.7948C81.9447 60.7482 82.021 60.7041 82.0948 60.6559C82.7437 60.1275 82.6811 60.2496 83.0191 59.3646C83.2054 58.7061 83.1388 57.9697 82.8721 57.3217C82.942 57.3 83.0103 57.2719 83.0754 57.2309C83.3243 57.0848 83.4712 56.8487 83.5845 56.5933C83.7427 56.6407 83.9113 56.6487 84.0735 56.6014C84.2502 56.5403 84.4116 56.4456 84.5296 56.3051C84.5762 56.2521 84.8749 55.8658 84.948 55.7389C85.4885 54.8845 86.0192 54.0236 86.538 53.1547C87.3828 51.7414 88.2694 50.3489 89.0122 48.8778C89.2001 48.4265 89.5992 47.9824 89.4554 47.4677C89.4072 47.2693 89.2948 47.1143 89.1487 47.0043C90.1621 45.383 91.2374 43.797 91.891 41.9845C92.091 41.322 92.5776 40.6675 92.5054 39.9617Z" fill="black"/>
</g>
<g id="Group_18" opacity="0.1294">
<path id="Vector_17" d="M56.2012 91.6573C56.5048 91.6389 56.7297 91.3939 56.7963 91.1129C57.0011 91.1932 57.1994 91.2687 57.397 91.3434C57.1986 91.6517 57.1448 92.0436 57.2323 92.3985C57.3231 92.4371 57.4122 92.4764 57.4981 92.515C57.8499 92.6716 58.1912 92.882 58.51 93.0972C58.6055 93.1622 58.6971 93.2321 58.7894 93.3003C59.4817 93.1245 59.7844 92.4708 59.7001 91.8734C59.7225 91.8356 59.7443 91.7963 59.7595 91.7465C59.8527 91.3634 59.57 91.1964 59.2841 91.0912C59.1138 90.9443 58.893 90.8423 58.6216 90.8053C57.8041 90.3428 56.9625 89.498 56.4157 89.1776C55.5356 88.5608 54.5149 88.2083 53.597 87.659C53.3152 87.48 53.0477 87.3065 52.7883 87.1363C52.5643 86.9491 52.2937 86.7243 51.9781 86.4039C49.6975 84.0647 48.4166 82.7742 47.7879 79.8969C47.8778 79.5275 47.7309 79.089 47.7389 78.7116C47.7325 78.6353 47.7285 78.559 47.722 78.4836C47.5887 77.2726 47.551 76.056 47.5686 74.837C47.5357 74.788 47.502 74.7406 47.461 74.7013C47.404 73.8043 47.3438 72.9073 47.2771 72.0111C47.2723 68.6665 47.3687 65.2873 46.3689 62.0647C46.0646 61.0601 45.1057 60.8401 44.3886 61.1565C44.1959 60.4016 43.9983 59.6484 43.7791 58.9008C42.8468 55.9167 42.1192 54.6479 41.1331 52.1071C40.3903 49.9477 39.6973 47.7627 38.6108 45.7439C38.2125 45.107 37.8888 44.1779 37.1211 43.9346C36.1214 43.6254 35.1979 44.8203 35.756 45.7101C37.3388 47.8823 38.3185 50.4247 39.5479 52.8017C40.2209 54.2745 41.007 55.6942 41.6551 57.1782C42.0863 58.1515 42.9873 60.8449 43.5631 62.6212C43.5711 62.6903 43.5759 62.7569 43.5936 62.8292C44.5998 66.7801 44.758 70.1649 44.5532 75.6264C44.5115 77.7078 43.9566 80.5369 43.5157 82.1727C43.5029 82.1727 43.4908 82.1695 43.478 82.1703C42.6251 82.1422 42.1514 83.2793 42.7761 83.8647C43.9654 84.8058 45.1242 85.7856 46.3279 86.7074C47.5317 87.5651 48.8214 88.2886 50.0998 89.0266C51.4361 89.7541 52.8205 90.3918 54.2202 90.9868C54.7694 91.2221 55.3308 91.4269 55.8913 91.6324C55.9917 91.6734 56.0985 91.6806 56.2012 91.6573Z" fill="black"/>
</g>
<g id="Group_19" opacity="0.1294">
<path id="Vector_18" d="M39.3304 81.4966C39.275 81.234 39.1176 80.9747 38.8871 80.8285C38.8357 80.7876 38.7827 80.7498 38.7265 80.7177C38.7923 80.2736 38.6991 79.7926 38.7377 79.3477C38.7361 79.0209 38.7867 78.645 38.5209 78.4009C38.0865 77.9352 37.236 78.2869 37.2569 78.9245C37.2938 79.4915 37.2047 80.0881 37.2673 80.6526C37.0754 80.9032 37.0433 81.275 37.3444 81.65C37.3669 81.6749 37.3894 81.6998 37.4111 81.7247C37.4111 81.7263 37.4119 81.7287 37.4119 81.7303C37.4119 81.7456 37.4119 81.7624 37.4119 81.7881C37.4906 83.2705 39.6765 82.9461 39.3304 81.4966Z" fill="black"/>
</g>
<g id="Group_20" opacity="0.1294">
<path id="Vector_19" d="M31.669 80.043C29.981 80.0847 29.9858 82.5581 31.669 82.6038C33.3569 82.5621 33.3521 80.0895 31.669 80.043Z" fill="black"/>
</g>
<g id="Group_21" opacity="0.1294">
<path id="Vector_20" d="M24.0322 78.2988C22.3443 78.3406 22.3491 80.8139 24.0322 80.8597C25.7202 80.8187 25.7154 78.3454 24.0322 78.2988Z" fill="black"/>
</g>
<g id="Group_22" opacity="0.1294">
<path id="Vector_21" d="M41.6966 7.78066C41.3119 6.74554 39.6906 7.0796 39.7147 8.17976C39.5179 10.7214 39.2834 13.23 38.9944 15.0594C38.9422 15.5179 38.6796 15.9226 38.6868 16.3892C38.637 18.1245 41.0605 18.0161 40.965 16.2792C40.9594 15.8632 40.8871 16.1451 40.9256 15.4882C41.2011 13.8717 41.3737 12.2399 41.5512 10.6106C41.6202 9.95528 41.6949 9.3 41.7479 8.64231C41.7616 8.35643 41.8459 8.04485 41.6966 7.78066Z" fill="black"/>
</g>
<g id="Group_23">
<g id="Group_24">
<path id="Vector_22" d="M60.9107 56.5619C60.6497 56.5619 60.4088 56.3941 60.3269 56.1331C59.7897 54.413 59.2685 52.7949 58.7707 51.2507C55.1859 40.1222 52.817 32.7696 54.8125 19.3686C54.9498 18.4475 56.8402 15.8569 57.7195 15.8569L57.966 15.8561C59.3424 15.8553 60.9115 15.8449 61.3243 18.0588C61.554 19.2915 61.7138 20.3828 61.8511 21.4155C62.1057 19.1229 62.6083 17.0719 63.5085 16.342C64.2915 15.7068 66.2437 15.0756 67.4201 16.4126C67.9534 17.0189 68.3589 17.895 68.6656 18.9093C68.7668 18.3833 68.9001 17.8653 69.0744 17.3273C69.329 16.5435 69.8477 14.9262 71.7605 14.9881C73.2493 15.0475 74.6129 16.2127 74.9333 17.6991L75.0353 18.1689C75.1991 18.9205 75.4071 19.8761 75.6103 20.9682C75.8062 20.0753 76.0672 19.1799 76.4101 18.1849C76.8662 16.8607 78.8361 16.1789 80.1266 16.5475C82.2297 17.1506 82.314 19.6633 82.3494 20.7362C82.5076 25.4259 82.5999 27.794 82.6923 30.1622C82.7846 32.5319 82.8778 34.9017 83.0352 39.5946C83.0464 39.9327 82.7822 40.2154 82.4449 40.2266C82.1133 40.2499 81.825 39.9737 81.8129 39.6364C81.6547 34.9467 81.5624 32.5785 81.47 30.2104C81.3777 27.8406 81.2845 25.4709 81.1271 20.7779C81.0805 19.3766 80.8854 18.038 79.7893 17.724C79.0176 17.5015 77.7721 17.9858 77.5665 18.5832C76.6326 21.2943 76.3322 23.2408 76.3322 26.5927C76.3322 26.9227 76.0696 27.1942 75.7396 27.2038C75.4087 27.2303 75.1309 26.9597 75.1108 26.6296C74.91 23.342 74.2403 20.2656 73.8396 18.4282L73.7368 17.9553C73.5344 17.0133 72.6447 16.2464 71.7116 16.2095C71.0715 16.1846 70.658 16.4078 70.238 17.7039C69.5586 19.7966 69.5658 21.6299 69.5795 25.2829C69.5819 25.8531 69.5835 26.4666 69.5835 27.1323C69.5835 27.4696 69.3097 27.7443 68.9716 27.7443C68.6335 27.7443 68.3597 27.4704 68.3597 27.1323C68.3597 22.2483 67.6651 18.5423 66.5007 17.2197C65.8767 16.5098 64.6577 16.982 64.2778 17.2903C63.1616 18.1946 62.634 23.9146 62.9247 28.2325C62.9456 28.5513 62.7192 28.8324 62.4028 28.8789C62.0824 28.9263 61.7885 28.7199 61.7178 28.4092C61.2424 26.3165 61.0272 24.6196 60.7991 22.8241C60.6217 21.43 60.4394 19.9893 60.1214 18.2813C59.9054 17.1217 59.454 17.0783 57.9708 17.0783H57.8335C57.3678 17.3955 56.1062 18.9815 56.0218 19.5469C54.0689 32.666 56.4025 39.9094 59.9342 50.8741C60.4329 52.4215 60.9557 54.0436 61.4937 55.7669C61.5941 56.0898 61.415 56.4327 61.0922 56.533C61.032 56.5531 60.971 56.5619 60.9107 56.5619ZM57.7219 17.08H57.7195H57.7219Z" fill="black"/>
</g>
<g id="Group_25">
<path id="Vector_23" d="M59.7935 99.1295C59.7751 99.1295 59.7557 99.1287 59.7365 99.1271C59.4 99.0958 59.1527 98.7979 59.1832 98.4614C59.2611 97.6142 59.3863 95.7303 59.5317 93.5484C59.7646 90.052 60.0545 85.7004 60.3412 82.6223C60.3725 82.2867 60.6777 82.0337 61.0061 82.0698C61.3426 82.1012 61.5899 82.3991 61.5586 82.7356C61.2743 85.7983 60.9852 90.1403 60.7523 93.6303C60.6005 95.9109 60.4809 97.7122 60.4014 98.5746C60.3725 98.891 60.1059 99.1295 59.7935 99.1295Z" fill="black"/>
</g>
<g id="Group_26">
<path id="Vector_24" d="M83.6694 58.3275C83.5778 58.3275 83.4847 58.3066 83.3971 58.2633C83.0952 58.1131 82.9715 57.7453 83.1225 57.4425C83.7441 56.193 84.5246 54.9564 85.2787 53.7606C85.4561 53.4788 85.6336 53.1985 85.8071 52.9199C88.2644 48.9778 90.2759 44.7482 91.7848 40.3491C91.894 40.0295 92.2402 39.8585 92.5622 39.9693C92.8818 40.0793 93.0512 40.4271 92.942 40.7467C91.4018 45.2332 89.3508 49.5463 86.8454 53.5671C86.6703 53.8482 86.4921 54.1308 86.313 54.4143C85.575 55.5843 84.8113 56.7937 84.217 57.9886C84.1102 58.203 83.8934 58.3275 83.6694 58.3275Z" fill="black"/>
</g>
<g id="Group_27">
<path id="Vector_25" d="M82.0291 99.1307C81.7007 99.1307 81.4301 98.8705 81.418 98.5404C81.3418 96.3506 81.2566 93.2011 81.1755 90.1552C81.0936 87.1117 81.0085 83.9637 80.933 81.7795C80.921 81.4414 81.1852 81.1579 81.5224 81.1467C81.8726 81.1379 82.144 81.3989 82.1553 81.7361C82.2315 83.926 82.3167 87.0763 82.3978 90.1214C82.4797 93.1649 82.5648 96.3128 82.6402 98.4971C82.6523 98.8352 82.3881 99.1178 82.0509 99.1299C82.0436 99.1307 82.0364 99.1307 82.0291 99.1307Z" fill="black"/>
</g>
<g id="Group_28">
<path id="Vector_26" d="M81.5483 77.237C81.2279 77.237 80.9588 76.9881 80.938 76.6636C80.9018 76.0887 80.9404 75.5121 81.0504 74.9492C81.1154 74.6175 81.4358 74.3999 81.7683 74.4673C82.1 74.5324 82.3152 74.8544 82.2501 75.1861C82.1594 75.6462 82.1289 76.1176 82.1578 76.5882C82.1787 76.9254 81.9225 77.2153 81.5852 77.237C81.5732 77.2362 81.5603 77.237 81.5483 77.237Z" fill="black"/>
</g>
<g id="Group_29">
<path id="Vector_27" d="M82.0274 69.5472C82.0178 69.5472 82.0081 69.5464 81.9977 69.5464C81.6604 69.5303 81.3994 69.2436 81.4163 68.9064L81.4509 68.1788C81.4669 67.8415 81.7375 67.5781 82.0909 67.5966C82.4281 67.6127 82.6891 67.8994 82.6723 68.2366L82.6377 68.9642C82.6225 69.2918 82.3519 69.5472 82.0274 69.5472Z" fill="black"/>
</g>
<g id="Group_30">
<path id="Vector_28" d="M82.4491 63.7601C82.4459 63.7601 82.4427 63.7601 82.4403 63.7601C82.103 63.7553 81.8324 63.4766 81.838 63.1393C81.8492 62.3684 81.9191 61.5919 82.0452 60.8306C82.0998 60.4974 82.4129 60.2701 82.7478 60.3271C83.0811 60.3825 83.3067 60.6965 83.2513 61.0298C83.1357 61.7308 83.0714 62.4471 83.061 63.1578C83.0554 63.4927 82.7823 63.7601 82.4491 63.7601Z" fill="black"/>
</g>
</g>
<g id="Group_31">
<g id="Group_32">
<path id="Vector_29" d="M28.5253 45.7785C25.7644 45.7785 22.7772 45.552 19.4077 45.0509C18.4866 44.9136 15.8968 43.0233 15.8968 42.1447L15.8959 41.8982C15.8911 40.517 15.8847 38.9519 18.0987 38.5399C19.3314 38.3102 20.4227 38.1504 21.4545 38.0131C19.1611 37.7585 17.111 37.2567 16.3818 36.3557C15.7474 35.5719 15.1162 33.6205 16.4524 32.4441C17.0587 31.9109 17.9349 31.5053 18.9491 31.1994C18.4231 31.0982 17.906 30.9649 17.3671 30.7906C16.5834 30.5361 14.9532 30.0061 15.0279 28.1045C15.0873 26.6157 16.2525 25.2521 17.7389 24.9317L18.2047 24.8305C18.9579 24.6667 19.9143 24.4579 21.0089 24.2539C20.1159 24.0588 19.2197 23.797 18.2256 23.4541C16.9013 22.998 16.2188 21.0297 16.589 19.7385C17.1913 17.6361 19.7048 17.551 20.7776 17.5149C25.4762 17.3567 27.8443 17.2643 30.2173 17.1712C32.5822 17.0788 34.952 16.9857 39.6361 16.8283C39.9822 16.821 40.2568 17.0812 40.2681 17.4185C40.2793 17.7566 40.0151 18.0392 39.6778 18.0505C34.9977 18.2079 32.6296 18.301 30.2655 18.3934C27.8909 18.4857 25.5212 18.5789 20.8194 18.7371C19.2005 18.7917 18.0617 19.0406 17.7654 20.0749C17.5446 20.8451 18.0264 22.0914 18.6247 22.2977C21.3357 23.2317 23.2815 23.532 26.6341 23.532C26.965 23.532 27.2356 23.7946 27.2452 24.1246C27.2557 24.4547 27.0011 24.7341 26.6711 24.7534C23.3803 24.9542 20.3038 25.6247 18.4657 26.0254L17.9967 26.1274C17.0547 26.3298 16.2878 27.2195 16.2509 28.1519C16.2252 28.7991 16.4493 29.2046 17.7454 29.6262C19.8373 30.3056 21.6706 30.2984 25.3276 30.2847C25.8969 30.2823 26.5097 30.2807 27.1738 30.2807C27.5118 30.2807 27.7857 30.5545 27.7857 30.8926C27.7857 31.2307 27.5118 31.5045 27.1738 31.5045C22.2889 31.5045 18.5837 32.1992 17.2611 33.3628C16.5512 33.9867 17.025 35.2065 17.3326 35.5863C18.2376 36.7026 23.9584 37.2334 28.2748 36.9395C28.6048 36.921 28.8746 37.1458 28.9212 37.4614C28.9678 37.777 28.763 38.0758 28.4514 38.1464C26.3587 38.6218 24.6619 38.837 22.8663 39.0651C21.4722 39.2426 20.0316 39.4249 18.3235 39.7429C17.1647 39.9589 17.115 40.3989 17.1206 41.8942V42.0315C17.4378 42.4973 19.023 43.7588 19.5891 43.8431C32.7091 45.7961 39.9517 43.4625 50.9163 39.9308C52.4638 39.4321 54.0859 38.9093 55.8092 38.3713C56.1344 38.2685 56.4749 38.4508 56.5753 38.7728C56.6757 39.0956 56.4966 39.4385 56.1738 39.5389C54.4537 40.0761 52.8356 40.5973 51.2913 41.0952C42.9598 43.7757 36.7451 45.7785 28.5253 45.7785ZM17.1198 42.1415V42.1439V42.1415Z" fill="black"/>
</g>
<g id="Group_33">
<path id="Vector_30" d="M98.5574 40.683C98.5389 40.683 98.5196 40.6822 98.5004 40.6806C97.6523 40.6019 95.766 40.4766 93.5818 40.3312C90.087 40.0984 85.7385 39.8084 82.6621 39.5226C82.3256 39.4913 82.0783 39.1933 82.1096 38.8569C82.1409 38.5204 82.4461 38.2674 82.7753 38.3044C85.8365 38.5886 90.1761 38.8777 93.6637 39.1098C95.9467 39.2616 97.7503 39.382 98.6136 39.4615C98.95 39.4929 99.1974 39.7908 99.1669 40.1273C99.1364 40.4445 98.8697 40.683 98.5574 40.683Z" fill="black"/>
</g>
<g id="Group_34">
<path id="Vector_31" d="M57.755 16.807C57.6634 16.807 57.5703 16.7861 57.4828 16.7428C56.2316 16.1196 54.9941 15.339 53.7976 14.5834C53.5173 14.4067 53.2379 14.2301 52.9592 14.0566C49.0171 11.6001 44.7884 9.58931 40.3885 8.07961C40.0689 7.96959 39.8995 7.62189 40.0087 7.30228C40.1187 6.98267 40.464 6.81162 40.786 6.92244C45.2726 8.46186 49.5857 10.5136 53.6065 13.0191C53.8868 13.1941 54.1678 13.3716 54.4505 13.5491C55.6213 14.2879 56.8323 15.0524 58.0272 15.6474C58.33 15.7976 58.4528 16.1654 58.3027 16.4673C58.1959 16.6825 57.9798 16.807 57.755 16.807Z" fill="black"/>
</g>
<g id="Group_35">
<path id="Vector_32" d="M81.7946 18.9318C81.4662 18.9318 81.1955 18.6716 81.1835 18.3415C81.1715 18.0034 81.4357 17.7208 81.7729 17.7087C83.9564 17.6324 87.0962 17.5481 90.1317 17.467C93.1849 17.3851 96.3424 17.3 98.5339 17.2237C98.8864 17.2036 99.1546 17.4759 99.1667 17.8131C99.1787 18.1512 98.9145 18.4339 98.5773 18.4459C96.381 18.523 93.221 18.6073 90.1654 18.69C87.1316 18.7712 83.9949 18.8555 81.8163 18.9318C81.8091 18.9318 81.8019 18.9318 81.7946 18.9318Z" fill="black"/>
</g>
<g id="Group_36">
<path id="Vector_33" d="M76.2824 18.94C75.8479 18.94 75.4143 18.8974 74.987 18.8139C74.6554 18.7489 74.4402 18.4269 74.5052 18.0952C74.5703 17.7636 74.8939 17.5475 75.2231 17.6134C75.6849 17.7041 76.1555 17.7346 76.6253 17.7057C76.9754 17.6873 77.2524 17.941 77.2741 18.2783C77.2958 18.6156 77.0388 18.9063 76.7015 18.9271C76.5618 18.936 76.4221 18.94 76.2824 18.94Z" fill="black"/>
</g>
<g id="Group_37">
<path id="Vector_34" d="M68.9752 18.4457C68.9656 18.4457 68.9559 18.4449 68.9455 18.4449L68.2179 18.4103C67.8806 18.3943 67.6197 18.1076 67.6365 17.7703C67.6526 17.4339 67.932 17.1729 68.2765 17.1881L69.0041 17.2227C69.3414 17.2387 69.6023 17.5254 69.5855 17.8627C69.5702 18.1911 69.3004 18.4457 68.9752 18.4457Z" fill="black"/>
</g>
<g id="Group_38">
<path id="Vector_35" d="M63.1888 18.026C63.1864 18.026 63.1832 18.026 63.18 18.026C62.4083 18.0148 61.6317 17.9449 60.8713 17.8188C60.538 17.7642 60.3123 17.4486 60.3677 17.1154C60.4223 16.7821 60.738 16.5565 61.0712 16.6119C61.7715 16.7275 62.487 16.7918 63.1985 16.803C63.5365 16.8086 63.8064 17.0865 63.8007 17.4238C63.7951 17.7578 63.5221 18.026 63.1888 18.026Z" fill="black"/>
</g>
</g>
<g id="Group_39">
<g id="Group_40">
<path id="Vector_36" d="M28.2673 85.2892C28.2255 85.2892 28.1846 85.2884 28.1412 85.2868C26.6524 85.2273 25.2888 84.0621 24.9692 82.5757L24.8664 82.1035C24.7026 81.3519 24.4946 80.3979 24.2914 79.3058C24.0963 80.1987 23.8345 81.0949 23.4916 82.0891C23.0355 83.4133 21.0672 84.0951 19.7759 83.7265C17.6728 83.1234 17.5885 80.6107 17.5532 79.5378C17.3958 74.8577 17.3026 72.4896 17.2103 70.1255C17.1171 67.7509 17.0248 65.3811 16.8666 60.6794C16.8553 60.3413 17.1195 60.0586 17.4568 60.0474C17.7973 60.0329 18.0776 60.3003 18.0888 60.6376C18.247 65.337 18.3393 67.7051 18.4325 70.0773C18.5248 72.4422 18.618 74.8128 18.7754 79.4961C18.822 80.8966 19.0171 82.236 20.1132 82.55C20.8842 82.7724 22.1297 82.289 22.3361 81.6908C23.27 78.9797 23.5703 77.0332 23.5703 73.6813C23.5703 73.3513 23.8329 73.0798 24.1629 73.0702C24.4849 73.0533 24.7716 73.3143 24.7925 73.6436C24.9933 76.9296 25.663 80.0052 26.0637 81.8425L26.1665 82.3179C26.3689 83.2599 27.2586 84.0268 28.1909 84.0637C28.8294 84.0862 29.2445 83.8654 29.6653 82.5693C30.3447 80.4774 30.3375 78.6432 30.3238 74.9902C30.3214 74.4201 30.3198 73.8066 30.3198 73.1409C30.3198 72.8028 30.5936 72.529 30.9317 72.529C31.269 72.529 31.5437 72.8028 31.5437 73.1409C31.5437 78.0249 32.2382 81.7309 33.4018 83.0535C34.0282 83.765 35.2456 83.2904 35.6254 82.9828C36.7416 82.0786 37.2692 76.3578 36.9785 72.0407C36.9577 71.7219 37.1841 71.4408 37.5005 71.3942C37.8185 71.3453 38.1149 71.5533 38.1855 71.864C38.6601 73.9567 38.8761 75.6535 39.1042 77.4491C39.2817 78.8432 39.464 80.2839 39.782 81.9919C39.998 83.1507 40.4405 83.1989 41.9333 83.1948L42.0706 83.194C42.5363 82.8768 43.7979 81.2909 43.8823 80.7255C45.8361 67.6063 43.5024 60.363 39.9699 49.3983C39.472 47.8509 38.9492 46.2288 38.4112 44.5055C38.3108 44.1826 38.4899 43.8397 38.8127 43.7394C39.1363 43.6374 39.4784 43.8189 39.5788 44.1409C40.116 45.8602 40.6372 47.4791 41.1343 49.0233C44.7198 60.1518 47.0879 67.5044 45.0924 80.9054C44.9551 81.8265 43.0656 84.4171 42.1863 84.4171L41.9397 84.4179C40.5585 84.4147 38.9942 84.4291 38.5814 82.2151C38.3518 80.9825 38.1919 79.8912 38.0546 78.8593C37.8001 81.1519 37.2982 83.2029 36.3971 83.932C35.6134 84.5672 33.662 85.1976 32.4856 83.8614C31.9524 83.2551 31.5469 82.379 31.2409 81.3647C31.1397 81.8907 31.0064 82.4079 30.8321 82.9467C30.5792 83.7136 30.0677 85.2892 28.2673 85.2892ZM42.183 83.1948H42.1806H42.183Z" fill="black"/>
</g>
<g id="Group_41">
<path id="Vector_37" d="M38.9535 18.2093C38.9342 18.2093 38.9149 18.2085 38.8965 18.206C38.56 18.1747 38.3127 17.8768 38.344 17.5411C38.6291 14.4784 38.9174 10.1356 39.1503 6.64638C39.302 4.36576 39.4217 2.56534 39.5012 1.70208C39.5325 1.36561 39.828 1.11989 40.1669 1.14879C40.5034 1.18011 40.7507 1.47803 40.7202 1.81451C40.6423 2.66171 40.517 4.54564 40.3717 6.72748C40.1388 10.2239 39.8489 14.5755 39.5622 17.6536C39.5325 17.9716 39.2659 18.2093 38.9535 18.2093Z" fill="black"/>
</g>
<g id="Group_42">
<path id="Vector_38" d="M7.54001 60.34C7.47416 60.34 7.40755 60.3295 7.3417 60.307C7.0221 60.197 6.85264 59.8493 6.96185 59.5297C8.50127 55.0431 10.553 50.73 13.0585 46.7092C13.2327 46.429 13.4102 46.1479 13.5885 45.8661C14.3273 44.6952 15.0918 43.4843 15.6868 42.2885C15.8378 41.9866 16.2064 41.8629 16.5067 42.0131C16.8095 42.1633 16.9323 42.5311 16.7822 42.833C16.159 44.0841 15.3784 45.3224 14.6228 46.5189C14.4461 46.8 14.2695 47.0786 14.0968 47.3565C11.6395 51.2986 9.62791 55.5282 8.11901 59.9272C8.03148 60.1802 7.79377 60.34 7.54001 60.34Z" fill="black"/>
</g>
<g id="Group_43">
<path id="Vector_39" d="M18.3604 19.1313C18.0327 19.1313 17.7613 18.8711 17.7493 18.541C17.673 16.3511 17.5878 13.2016 17.5059 10.1557C17.424 7.11224 17.3397 3.96435 17.2626 1.78009C17.2506 1.44201 17.5148 1.15935 17.852 1.14731C18.2014 1.12964 18.4728 1.39945 18.4848 1.73673C18.5611 3.9266 18.6462 7.0761 18.7282 10.122C18.8101 13.1655 18.8944 16.3134 18.9707 18.4977C18.9827 18.8349 18.7185 19.1184 18.3812 19.1305C18.374 19.1313 18.3668 19.1313 18.3604 19.1313Z" fill="black"/>
</g>
<g id="Group_44">
<path id="Vector_40" d="M18.2528 25.8211C18.2135 25.8211 18.1742 25.8179 18.1348 25.8098C17.8032 25.7448 17.5871 25.4236 17.6522 25.0919C17.7421 24.6302 17.7734 24.158 17.7445 23.689C17.7236 23.3517 17.9798 23.0619 18.3171 23.0402C18.6624 23.0201 18.9443 23.2755 18.9659 23.6119C19.0021 24.1853 18.9636 24.7619 18.8536 25.3264C18.7949 25.6187 18.5395 25.8211 18.2528 25.8211Z" fill="black"/>
</g>
<g id="Group_45">
<path id="Vector_41" d="M17.8384 32.6807C17.8288 32.6807 17.8192 32.6807 17.8087 32.6799C17.4715 32.6638 17.2105 32.3771 17.2273 32.0399L17.2618 31.3123C17.2779 30.9743 17.555 30.7181 17.9019 30.7309C18.2392 30.747 18.5002 31.0337 18.4833 31.3709L18.4487 32.0985C18.4335 32.4253 18.1629 32.6807 17.8384 32.6807Z" fill="black"/>
</g>
<g id="Group_46">
<path id="Vector_42" d="M17.2558 39.9566C17.2229 39.9566 17.1892 39.9534 17.1554 39.9486C16.8222 39.8932 16.5965 39.5792 16.6519 39.2459C16.7676 38.5449 16.8318 37.8286 16.8422 37.1179C16.8471 36.7838 17.1201 36.5156 17.4542 36.5156C17.4566 36.5156 17.4606 36.5156 17.463 36.5156C17.8003 36.5204 18.0709 36.7991 18.0653 37.1364C18.054 37.9073 17.9842 38.6838 17.8581 39.4451C17.8091 39.7438 17.5497 39.9566 17.2558 39.9566Z" fill="black"/>
</g>
</g>
<g id="Group_47">
<g id="Group_48">
<path id="Vector_43" d="M60.2459 83.4504C59.9174 83.4504 59.646 83.1902 59.6348 82.8594C59.6235 82.5213 59.8877 82.2386 60.225 82.2274C64.9139 82.0692 67.282 81.9768 69.6502 81.8845C72.02 81.7921 74.3905 81.699 79.0835 81.5408C80.4839 81.4934 81.8234 81.2991 82.1374 80.2029C82.3582 79.4328 81.8764 78.1865 81.2781 77.9801C78.5671 77.0462 76.6213 76.7459 73.2687 76.7459C72.9378 76.7459 72.6672 76.4833 72.6576 76.1532C72.6471 75.8232 72.9017 75.5437 73.2318 75.5245C76.5178 75.3237 79.5934 74.6532 81.4307 74.2532L81.9061 74.1505C82.848 73.9481 83.6149 73.0583 83.6519 72.1252C83.6776 71.478 83.4536 71.0724 82.1575 70.6508C80.0648 69.9723 78.233 69.9779 74.5752 69.9923C74.0059 69.9948 73.3931 69.9964 72.729 69.9964C72.3917 69.9964 72.1171 69.7225 72.1171 69.3845C72.1171 69.0464 72.3909 68.7725 72.729 68.7725C77.6131 68.7725 81.3191 68.0779 82.6417 66.9143C83.3516 66.2895 82.8786 65.0706 82.571 64.6907C81.6668 63.5745 75.9476 63.0453 71.6289 63.3376C71.3093 63.3577 71.029 63.132 70.9824 62.8156C70.9359 62.5 71.1406 62.2013 71.4522 62.1306C73.5449 61.6552 75.2417 61.44 77.0373 61.212C78.4306 61.0345 79.872 60.8522 81.5801 60.5342C82.7389 60.3182 82.7886 59.8773 82.7838 58.3829L82.783 58.2456C82.4658 57.7798 80.8798 56.5182 80.3145 56.4339C67.1945 54.4801 59.9519 56.8146 48.9873 60.3463C47.4399 60.845 45.8185 61.3669 44.0952 61.905C43.77 62.0062 43.4295 61.8255 43.3292 61.5035C43.2288 61.1806 43.4079 60.8378 43.7307 60.7374C45.45 60.2001 47.0681 59.679 48.6123 59.1819C59.7408 55.5963 67.0933 53.2282 80.4944 55.2237C81.4154 55.3611 84.0061 57.2506 84.0061 58.1299L84.0068 58.3765C84.0117 59.7569 84.0181 61.322 81.8041 61.7347C80.5715 61.9644 79.4809 62.1242 78.4482 62.2615C80.7409 62.5161 82.7919 63.018 83.521 63.919C84.1562 64.7028 84.7874 66.6541 83.4503 67.8306C82.8441 68.3638 81.968 68.7693 80.9529 69.0753C81.4789 69.1765 81.9968 69.3098 82.5349 69.484C83.3186 69.7386 84.9496 70.2678 84.8741 72.1702C84.8147 73.659 83.6495 75.0225 82.1631 75.343L81.6909 75.445C80.9393 75.6088 79.9853 75.8168 78.8931 76.0199C79.7869 76.2159 80.6823 76.4776 81.6765 76.8205C83.0007 77.2767 83.6832 79.2449 83.3138 80.5362C82.7108 82.6393 80.1981 82.7237 79.1252 82.759C74.4355 82.9172 72.0673 83.0095 69.6984 83.1019C67.3286 83.1942 64.9589 83.2874 60.2667 83.4456C60.2603 83.4504 60.2531 83.4504 60.2459 83.4504ZM82.783 58.1331C82.783 58.1339 82.783 58.1347 82.783 58.1355V58.1331Z" fill="black"/>
</g>
<g id="Group_49">
<path id="Vector_44" d="M17.1845 61.9744C17.1653 61.9744 17.1459 61.9736 17.1275 61.972C14.0647 61.6877 9.72271 61.3979 6.23352 61.1658C3.95291 61.014 2.15171 60.8943 1.28926 60.8148C0.952784 60.7835 0.705429 60.4856 0.735944 60.1491C0.767262 59.8127 1.05794 59.5685 1.40164 59.5958C2.24884 59.6737 4.1328 59.799 6.31464 59.9444C9.81105 60.1772 14.1619 60.4671 17.2407 60.7538C17.5772 60.7851 17.8245 61.0831 17.7932 61.4195C17.7635 61.7367 17.4969 61.9744 17.1845 61.9744Z" fill="black"/>
</g>
<g id="Group_50">
<path id="Vector_45" d="M59.314 93.3857C59.2482 93.3857 59.1815 93.3752 59.1157 93.3528C54.6275 91.8125 50.3144 89.7608 46.2952 87.2553C46.0142 87.0802 45.7323 86.902 45.448 86.7229C44.278 85.9849 43.0687 85.2212 41.8737 84.627C41.5718 84.4768 41.4481 84.109 41.5991 83.8071C41.75 83.5051 42.1179 83.3831 42.4198 83.5325C43.6693 84.1548 44.906 84.9346 46.1017 85.6894C46.3835 85.8669 46.6638 86.0443 46.9425 86.2178C50.883 88.6743 55.1126 90.6859 59.5132 92.1956C59.8328 92.3056 60.0022 92.6533 59.893 92.9729C59.8055 93.2267 59.5686 93.3857 59.314 93.3857Z" fill="black"/>
</g>
<g id="Group_51">
<path id="Vector_46" d="M1.34489 83.0534C1.01725 83.0534 0.74584 82.7932 0.733794 82.4632C0.721749 82.1251 0.985954 81.8424 1.32323 81.8304C3.5131 81.7541 6.66262 81.669 9.70853 81.5871C12.752 81.5052 15.8991 81.4208 18.0833 81.3446C18.0906 81.3438 18.0978 81.3438 18.1051 81.3438C18.4327 81.3438 18.7041 81.6039 18.7162 81.934C18.7282 82.2721 18.464 82.5547 18.1267 82.5668C15.9368 82.6431 12.7873 82.7282 9.74142 82.8101C6.69792 82.892 3.55086 82.9763 1.36661 83.0526C1.35938 83.0534 1.35212 83.0534 1.34489 83.0534Z" fill="black"/>
</g>
<g id="Group_52">
<path id="Vector_47" d="M24.796 82.6742C24.7567 82.6742 24.7173 82.6702 24.6779 82.663C24.2154 82.5722 23.7432 82.5417 23.275 82.5706C22.9313 82.5955 22.6479 82.3353 22.6262 81.998C22.6053 81.6608 22.8615 81.3709 23.1988 81.3492C23.7705 81.3131 24.3487 81.3508 24.9133 81.4616C25.2449 81.5267 25.4609 81.8479 25.3958 82.1787C25.338 82.4718 25.0827 82.6742 24.796 82.6742Z" fill="black"/>
</g>
<g id="Group_53">
<path id="Vector_48" d="M31.6563 83.0873C31.6467 83.0873 31.637 83.0873 31.6266 83.0865L30.8991 83.052C30.5618 83.0359 30.3008 82.7492 30.3177 82.4119C30.3337 82.0747 30.6116 81.8177 30.9577 81.8305L31.6852 81.8651C32.0225 81.8811 32.2835 82.1678 32.2666 82.5051C32.2506 82.8319 31.9807 83.0873 31.6563 83.0873Z" fill="black"/>
</g>
<g id="Group_54">
<path id="Vector_49" d="M38.9335 83.6714C38.9006 83.6714 38.8668 83.669 38.8331 83.6633C38.1321 83.5477 37.4158 83.4835 36.7059 83.473C36.3678 83.4674 36.098 83.1896 36.1036 82.8523C36.1084 82.5174 36.3815 82.25 36.7155 82.25C36.7179 82.25 36.7211 82.25 36.7244 82.25C37.4953 82.2612 38.2718 82.3311 39.0331 82.4572C39.3663 82.5118 39.592 82.8266 39.5366 83.1598C39.4868 83.4586 39.2274 83.6714 38.9335 83.6714Z" fill="black"/>
</g>
</g>
<g id="Group_55">
<path id="Vector_50" d="M68.5967 13.6151C68.4819 13.6151 68.3662 13.583 68.2626 13.5156L55.3563 5.09815C55.0736 4.91345 54.9933 4.53442 55.178 4.25175C55.3635 3.96828 55.7425 3.89039 56.0244 4.07348L68.9308 12.4909C69.2142 12.6756 69.2937 13.0546 69.109 13.3373C68.9926 13.518 68.7967 13.6151 68.5967 13.6151Z" fill="black"/>
</g>
<g id="Group_56">
<path id="Vector_51" d="M76.6378 11.9078C76.5182 11.9078 76.3977 11.8725 76.2917 11.8002L64.1008 3.41009C63.8222 3.21816 63.7523 2.83752 63.9442 2.55967C64.1362 2.28022 64.5168 2.21196 64.7946 2.40309L76.9855 10.7932C77.2642 10.9843 77.334 11.365 77.1421 11.6436C77.0233 11.8155 76.8321 11.9078 76.6378 11.9078Z" fill="black"/>
</g>
<g id="Group_57">
<path id="Vector_52" d="M43.2798 94.2496C43.2621 94.2496 43.2437 94.2488 43.2252 94.2472C37.0973 93.71 31.0295 92.4564 25.1922 90.5219C24.8718 90.4159 24.6976 90.0698 24.8044 89.7494C24.9104 89.429 25.2573 89.2547 25.5769 89.3615C31.325 91.2655 37.2988 92.4998 43.332 93.029C43.6685 93.0587 43.9174 93.355 43.8877 93.6915C43.8604 94.0095 43.593 94.2496 43.2798 94.2496Z" fill="black"/>
</g>
</g>
</g>
</svg>
