<svg width="100" height="101" viewBox="0 0 100 101" fill="none" xmlns="http://www.w3.org/2000/svg">
<g id="Container">
<g id="Group">
<g id="Group_2">
<path id="Vector" d="M28.4666 3.13108C51.7111 2.08975 74.9998 2.0015 98.0678 2.96341C99.5945 28.7053 100.406 54.8091 95.1292 80.0392C94.3085 83.9486 93.3024 87.9197 91.0521 91.1937C87.3016 96.6298 80.0917 99.3125 73.2525 97.3005C55.3558 97.0004 40.7772 95.2531 22.5099 94.3265C31.1935 64.3046 27.8577 33.9384 28.4666 3.13108Z" fill="white"/>
<path id="Vector_2" d="M77.8408 98.7225C76.27 98.7225 74.6903 98.5107 73.1371 98.0607C62.3091 97.8754 52.8137 97.1694 42.7622 96.4281C36.3201 95.9516 29.6662 95.4574 22.474 95.0956C22.2446 95.0867 22.0239 94.9632 21.8916 94.7779C21.7592 94.5837 21.7151 94.3454 21.7769 94.1248C28.2808 71.6392 28.016 49.4449 27.7336 25.9533C27.6454 18.4875 27.5483 10.7658 27.7071 3.13235C27.7071 2.72641 28.0336 2.3999 28.4396 2.38225C51.94 1.32327 75.3699 1.27032 98.1025 2.21457C98.4908 2.23222 98.8085 2.54109 98.8349 2.92938C100.309 27.833 101.306 54.3074 95.8875 80.2081C95.1109 83.9234 94.0784 88.1681 91.6957 91.6362C88.5894 96.1369 83.3033 98.7314 77.8496 98.7314L77.8408 98.7225ZM23.5153 93.613C30.3546 93.9748 36.7172 94.4425 42.8769 94.9014C52.9372 95.6515 62.4415 96.3575 73.2695 96.534C73.3401 96.534 73.4019 96.5428 73.4725 96.5605C79.8175 98.4225 86.7891 96.0398 90.4337 90.7538C92.6576 87.5239 93.6459 83.4468 94.396 79.8816C99.7262 54.4132 98.8085 28.2918 97.3524 3.69714C75.114 2.78819 52.1959 2.84114 29.225 3.85599C29.0926 11.2335 29.1809 18.6905 29.2691 25.918C29.5339 48.1829 29.8074 71.198 23.5153 93.613Z" fill="black"/>
</g>
<g id="Group_3">
<path id="Vector_3" d="M1.86871 77.8333C24.3366 77.4361 46.8134 77.595 68.8666 77.9392C68.0812 83.737 69.2549 89.7909 72.1582 94.8386C73.0672 96.4271 74.4791 98.0862 76.2 97.9714C55.2058 97.7773 34.6705 99.7011 13.4557 97.9714C9.50217 97.442 4.29558 95.6946 2.1335 90.1262C0.668586 86.3404 0.0684565 81.928 1.86871 77.8333Z" fill="white"/>
<path id="Vector_4" d="M33.3644 99.4547C26.7547 99.4547 20.0832 99.2693 13.394 98.731C7.34899 97.9191 3.21894 95.0423 1.4275 90.4004C0.165559 87.1352 -0.911038 82.2551 1.18044 77.525C1.30399 77.2515 1.5687 77.075 1.86874 77.0661C21.1421 76.722 41.8098 76.7573 68.8931 77.172C69.1138 77.172 69.3167 77.2691 69.4579 77.4368C69.5991 77.6045 69.6609 77.8251 69.6344 78.0369C68.8666 83.6936 69.9962 89.5268 72.8378 94.451C73.4114 95.4482 74.5409 97.072 75.8823 97.1955C75.997 97.1955 76.1118 97.1955 76.2265 97.1955C76.6413 97.1955 76.9678 97.5309 76.9854 97.9368C76.9942 98.3427 76.6854 98.6957 76.2707 98.7222C76.1118 98.731 75.9529 98.731 75.8029 98.7222C68.2401 98.6604 60.6066 98.8722 53.2291 99.084C46.7075 99.2693 40.0801 99.4547 33.3821 99.4547H33.3644ZM2.38943 78.584C0.765669 82.7052 1.72759 86.9587 2.84834 89.8445C4.85157 95.007 9.77576 96.7013 13.5616 97.2043C26.8959 98.2898 40.2478 97.9103 53.1673 97.5485C59.6359 97.3632 66.2986 97.1779 72.9437 97.1779C72.3701 96.5689 71.8847 95.863 71.5052 95.2011C68.646 90.2327 67.4194 84.3907 68.0107 78.6723C41.598 78.2751 21.301 78.2398 2.3806 78.5752L2.38943 78.584Z" fill="black"/>
</g>
<g id="Group_4">
<path id="Vector_5" d="M22.7208 36.4885C22.3237 45.5604 22.2355 54.3675 22.5091 63.5012C28.81 63.5188 35.2521 64.2336 41.5971 63.3335C41.2882 54.5528 41.05 45.7633 40.9617 36.7885C44.121 36.7885 47.2891 36.7885 50.4748 36.7267C44.421 29.6669 38.3584 22.6159 31.8634 15.459C25.5272 22.1835 19.438 29.1727 13.5784 36.4002C16.6406 36.4002 19.7557 36.4796 22.7208 36.4796V36.4885Z" fill="#2E90FA"/>
<path id="Vector_6" d="M34.219 64.5515C32.1893 64.5515 30.1685 64.4809 28.174 64.4103C26.312 64.3397 24.3793 64.278 22.5085 64.2691C22.0937 64.2691 21.7584 63.9426 21.7496 63.5279C21.4937 54.8884 21.5466 46.2842 21.9261 37.2564C20.6818 37.2564 19.411 37.2388 18.1314 37.2211C16.6224 37.2035 15.0957 37.177 13.5778 37.177C13.2866 37.177 13.013 37.0094 12.8895 36.7446C12.7659 36.4799 12.8012 36.1622 12.9866 35.9327C18.9433 28.5905 25.103 21.5307 31.3068 14.9474C31.448 14.7885 31.6421 14.6914 31.8716 14.7091C32.0834 14.7091 32.2864 14.7973 32.4276 14.9562C38.9226 22.1043 45.0735 29.2788 51.0214 36.2063C51.2155 36.4269 51.2685 36.7623 51.1538 37.027C51.0302 37.3006 50.7831 37.4859 50.4831 37.4947C47.5444 37.5477 44.5882 37.5565 41.7289 37.5565C41.8083 45.1811 42.0025 53.1676 42.3554 63.3161C42.3731 63.7044 42.0907 64.0397 41.7024 64.1015C39.2227 64.4545 36.7076 64.5604 34.219 64.5604V64.5515ZM23.2498 62.7425C24.9089 62.7601 26.5944 62.8219 28.227 62.8837C32.3658 63.0337 36.6458 63.1837 40.8023 62.6719C40.4493 52.5057 40.264 44.5016 40.1934 36.7976C40.1934 36.5946 40.2728 36.4004 40.414 36.2504C40.5552 36.1092 40.7494 36.021 40.9523 36.021C43.538 36.021 46.1766 36.021 48.824 35.9857C43.3615 29.623 37.7401 23.0927 31.8451 16.58C26.2061 22.5896 20.6023 28.9964 15.1663 35.6415C16.1546 35.6415 17.1518 35.6592 18.1402 35.6768C19.6845 35.6945 21.2201 35.7209 22.7115 35.7209C22.9233 35.7209 23.1174 35.8092 23.2586 35.9592C23.3998 36.1092 23.4792 36.3122 23.4704 36.524C23.0733 45.5518 23.0027 54.1383 23.241 62.7425H23.2498Z" fill="black"/>
</g>
<path id="Vector_7" d="M86.3928 21.5854H86.3751C74.0822 21.25 61.6128 21.2059 49.3286 21.4354C48.8874 21.4442 48.5609 21.1089 48.5521 20.6853C48.5432 20.2617 48.8785 19.9175 49.3021 19.9087C61.6127 19.6792 74.1087 19.7234 86.4193 20.0587C86.8429 20.0675 87.1694 20.4205 87.1605 20.8441C87.1517 21.2589 86.8076 21.5854 86.4016 21.5854H86.3928Z" fill="black"/>
<path id="Vector_8" d="M85.3509 35.3949L57.4646 35.1478C57.041 35.1478 56.7057 34.8036 56.7057 34.38C56.7057 33.9653 57.0498 33.6211 57.4646 33.6211L85.3509 33.8682C85.7745 33.8682 86.11 34.2124 86.11 34.6359C86.11 35.0507 85.7657 35.3949 85.3509 35.3949Z" fill="black"/>
<path id="Vector_9" d="M48.5875 49.5328C48.1815 49.5328 47.8374 49.2063 47.8285 48.8004C47.8109 48.3768 48.1463 48.0238 48.561 48.0061C60.5716 47.5649 72.7498 47.3796 84.778 47.4502C85.2016 47.4502 85.5369 47.7943 85.5369 48.2179C85.5369 48.6415 85.1928 48.9768 84.778 48.9768C72.7675 48.9062 60.6069 49.0916 48.6228 49.5328C48.614 49.5328 48.6051 49.5328 48.5963 49.5328H48.5875Z" fill="black"/>
<path id="Vector_10" d="M48.216 62.461C47.8012 62.461 47.457 62.1257 47.457 61.7109C47.457 61.2873 47.7835 60.9431 48.2071 60.9343L84.8477 60.3166C85.2448 60.3078 85.6154 60.6431 85.6243 61.0667C85.6243 61.4903 85.2978 61.8344 84.8742 61.8433L48.2336 62.461H48.216Z" fill="black"/>
<path id="Vector_11" d="M5.68831 85.5024C5.64419 85.5024 5.59127 85.4935 5.55597 85.4582C5.44125 85.3788 5.40593 85.2288 5.47653 85.1052C6.47373 83.5344 7.6298 82.0519 8.91822 80.7017C9.01529 80.5958 9.17411 80.5958 9.28001 80.6928C9.38591 80.7899 9.38592 80.9487 9.28884 81.0546C8.0269 82.3784 6.88848 83.8345 5.90893 85.3876C5.86481 85.467 5.77657 85.5024 5.69715 85.5024H5.68831Z" fill="black"/>
<path id="Vector_12" d="M6.22739 92.2538C6.17445 92.2538 6.13035 92.2361 6.08622 92.2096C5.9715 92.1302 5.93618 91.9714 6.01561 91.8566C8.6101 87.9473 11.5664 84.2408 14.8051 80.8345C14.9022 80.7286 15.061 80.7286 15.1669 80.8256C15.2728 80.9227 15.2728 81.0816 15.1758 81.1875C11.9635 84.5673 9.02485 88.2561 6.44801 92.139C6.39507 92.2096 6.31565 92.2538 6.23623 92.2538H6.22739Z" fill="black"/>
<path id="Vector_13" d="M10.5257 94.9091C10.4815 94.9091 10.4285 94.9003 10.3844 94.865C10.2697 94.7855 10.2344 94.6355 10.305 94.512C13.3496 89.7466 16.7648 85.1577 20.4535 80.8777C20.5418 80.7718 20.7094 80.7629 20.8153 80.8512C20.9212 80.9394 20.93 81.1071 20.8418 81.213C17.1707 85.4754 13.7643 90.0466 10.7374 94.7944C10.6933 94.8738 10.6051 94.9091 10.5257 94.9091Z" fill="black"/>
<path id="Vector_14" d="M17.0827 95.4578C17.0386 95.4578 16.9945 95.449 16.9503 95.4225C16.8268 95.3519 16.7915 95.1931 16.8709 95.0695C19.8448 90.2688 23.11 85.574 26.587 81.1175C26.6752 81.0028 26.8341 80.9851 26.94 81.0734C27.0547 81.1616 27.0724 81.3205 26.9841 81.4264C23.516 85.8652 20.2597 90.5424 17.2945 95.3343C17.2504 95.4137 17.1622 95.4578 17.0827 95.4578Z" fill="black"/>
<path id="Vector_15" d="M23.0746 95.9952C23.0304 95.9952 22.9775 95.9776 22.9334 95.9511C22.8187 95.8717 22.7834 95.7128 22.8628 95.5981L32.6318 80.8166C32.7113 80.7018 32.8701 80.6665 32.9848 80.746C33.0995 80.8254 33.1348 80.9842 33.0554 81.099L23.2863 95.8805C23.2334 95.9511 23.154 95.9952 23.0746 95.9952Z" fill="black"/>
<path id="Vector_16" d="M29.8159 95.5365C29.7718 95.5365 29.7188 95.5189 29.6747 95.4924C29.56 95.413 29.5247 95.2542 29.6041 95.1394C32.7193 90.374 35.7462 85.4586 38.5966 80.5344C38.6672 80.4108 38.826 80.3755 38.9407 80.4461C39.0643 80.5167 39.0996 80.6756 39.029 80.7903C36.1698 85.7234 33.134 90.6476 30.0189 95.413C29.9659 95.4836 29.8865 95.5277 29.8071 95.5277L29.8159 95.5365Z" fill="black"/>
<path id="Vector_17" d="M35.6407 95.6524C35.5878 95.6524 35.5437 95.6348 35.4996 95.6083C35.3848 95.5289 35.3495 95.37 35.4289 95.2553C38.597 90.5517 41.7299 85.7069 44.7126 80.8621C44.7832 80.7385 44.9421 80.7032 45.0656 80.7826C45.1891 80.8532 45.2245 81.0121 45.145 81.1356C42.1534 85.9893 39.0206 90.8429 35.8437 95.5465C35.7907 95.6171 35.7113 95.6613 35.6319 95.6613L35.6407 95.6524Z" fill="black"/>
<path id="Vector_18" d="M42.3642 95.4579C42.3113 95.4579 42.2672 95.4403 42.2231 95.4138C42.1083 95.3344 42.073 95.1755 42.1524 95.0608C45.2323 90.4984 48.1709 85.7595 50.9066 80.9765C50.9772 80.8529 51.1361 80.8176 51.2508 80.8794C51.3744 80.95 51.4185 81.1 51.3479 81.2235C48.6122 86.0242 45.6559 90.772 42.576 95.3344C42.5231 95.405 42.4437 95.4491 42.3642 95.4491V95.4579Z" fill="black"/>
<path id="Vector_19" d="M48.7539 95.0252C48.7539 95.0252 48.6657 95.0164 48.6304 94.99C48.5069 94.9194 48.4627 94.7693 48.5333 94.6458L56.3962 80.8085C56.4668 80.685 56.6169 80.6408 56.7404 80.7114C56.864 80.782 56.9081 80.932 56.8375 81.0556L48.9746 94.8929C48.9304 94.9723 48.8422 95.0252 48.7539 95.0252Z" fill="black"/>
<path id="Vector_20" d="M54.2345 95.6082C54.2345 95.6082 54.1463 95.5994 54.111 95.5729C53.9874 95.5023 53.9433 95.3523 54.0139 95.2287C56.8643 90.2074 59.9 85.195 63.0417 80.3501C63.1211 80.2354 63.28 80.2001 63.3947 80.2707C63.5094 80.3501 63.5447 80.509 63.4741 80.6237C60.3325 85.4597 57.3056 90.4634 54.464 95.4758C54.4199 95.5553 54.3316 95.6082 54.2434 95.6082H54.2345Z" fill="black"/>
<path id="Vector_21" d="M60.9422 94.5737C60.9422 94.5737 60.8628 94.5649 60.8275 94.5473C60.704 94.4855 60.6598 94.3266 60.7216 94.2031C62.1776 91.4409 63.8456 88.7759 65.6811 86.252C65.7606 86.1372 65.9282 86.1108 66.0341 86.199C66.1488 86.2784 66.1753 86.4373 66.087 86.552C64.2603 89.0494 62.6101 91.7057 61.1628 94.4414C61.1187 94.5296 61.0304 94.5737 60.9422 94.5737Z" fill="black"/>
<path id="Vector_22" d="M65.848 95.6348C65.7951 95.6348 65.751 95.6172 65.7068 95.5907C65.5921 95.5113 65.5568 95.3525 65.6362 95.2377L67.3041 92.758C67.3835 92.6432 67.5424 92.6079 67.6571 92.6874C67.7718 92.7668 67.8071 92.9256 67.7277 93.0404L66.0598 95.5201C66.0069 95.5907 65.9274 95.6348 65.848 95.6348Z" fill="black"/>
</g>
</g>
</svg>
