<svg width="408" height="285" viewBox="0 0 408 285" fill="none" xmlns="http://www.w3.org/2000/svg">
<g clip-path="url(#clip0_1613_102277)">
<path d="M66.1488 137.879H18.8997V181.88H0V74.6832H18.8997V118.979H66.1488V74.6832H85.0485V181.88H66.1488V137.879Z" fill="white"/>
<path d="M152.459 183.061C126.029 183.061 106.834 169.772 101.223 142.456H121.452C123.815 156.336 135.774 164.457 152.459 164.457C161.909 164.457 178.446 161.946 178.446 151.463C178.446 145.114 170.621 141.57 151.278 138.617C117.022 133.449 106.096 124.59 106.096 105.986C106.096 88.8579 123.076 73.502 150.245 73.502C173.869 73.502 190.259 85.9049 198.675 111.006H178.594C174.164 98.1601 164.567 92.1063 150.245 92.1063C135.479 92.1063 124.848 98.3078 124.848 105.986C124.848 113.073 131.935 116.764 154.822 120.161C185.977 125.328 196.903 133.597 197.051 151.463V151.758C197.051 170.363 178.003 183.061 152.459 183.061Z" fill="white"/>
<path d="M265.428 183.209C234.273 183.209 211.387 160.322 211.387 128.429C211.387 96.5359 234.273 73.502 265.428 73.502C291.415 73.502 311.496 89.3009 317.698 112.778H297.764C292.301 100.227 280.489 92.254 265.428 92.254C244.166 92.254 230.139 108.053 230.139 128.429C230.139 149.396 244.757 164.604 265.428 164.604C282.704 164.604 295.993 153.973 299.684 138.174H318.879C314.745 164.9 293.63 183.209 265.428 183.209Z" fill="white"/>
<path d="M413.16 93.1399H378.609V181.88H359.71V93.1399H325.011V74.6832H413.16V93.1399Z" fill="white"/>
<path d="M77.7996 217.447H329.516C302.236 257.88 256.061 284.47 203.658 284.47C151.255 284.47 105.049 257.88 77.7996 217.447Z" fill="white"/>
</g>
<defs>
<clipPath id="clip0_1613_102277">
<rect width="408" height="284.952" fill="white"/>
</clipPath>
</defs>
</svg>
