<svg width="100" height="101" viewBox="0 0 100 101" fill="none" xmlns="http://www.w3.org/2000/svg">
<g id="Container">
<g id="Group">
<g id="Group_2">
<g id="Group_3">
<path id="Vector" d="M19.8511 75.0576C19.7347 75.0576 19.6175 75.019 19.5204 74.9398C14.1973 70.6138 11.0358 63.9367 11.0634 57.0777C11.0641 56.789 11.2991 56.5547 11.5885 56.5547H11.5906C11.88 56.5561 12.1142 56.7917 12.1135 57.0818C12.0874 63.6259 15.1041 69.9971 20.1833 74.1246C20.4079 74.3072 20.4424 74.638 20.2598 74.8633C20.155 74.9915 20.0041 75.0576 19.8511 75.0576Z" fill="black"/>
</g>
<g id="Group_4">
<path id="Vector_2" d="M19.8668 75.3509C19.8302 75.3509 19.793 75.3474 19.7565 75.3392C17.8023 74.9202 15.8667 74.3393 14.0028 73.6116C13.7327 73.5062 13.5997 73.2016 13.7051 72.9315C13.8105 72.6621 14.1144 72.5298 14.3852 72.6339C15.9783 73.2561 17.6259 73.7681 19.2921 74.1595C19.1515 72.6077 18.8242 71.0786 18.3164 69.604C18.222 69.3298 18.3673 69.0314 18.6416 68.937C18.9152 68.8426 19.2142 68.988 19.3086 69.2622C19.924 71.0476 20.2878 72.9102 20.3904 74.7975C20.3994 74.9608 20.3319 75.1186 20.2071 75.2248C20.1121 75.3074 19.9908 75.3509 19.8668 75.3509Z" fill="black"/>
</g>
</g>
<g id="Group_5">
<g id="Group_6">
<path id="Vector_3" d="M73.0693 85.6231C72.8681 85.6231 72.6766 85.5073 72.5898 85.3123C72.4719 85.0477 72.5905 84.737 72.8551 84.6191C79.1215 81.8236 83.9415 75.9265 85.434 69.2294C85.4967 68.9462 85.7772 68.7678 86.0604 68.8311C86.3429 68.8939 86.5214 69.1743 86.4587 69.4575C84.8952 76.4723 79.8463 82.6498 73.2829 85.5776C73.2134 85.6086 73.1403 85.6231 73.0693 85.6231Z" fill="black"/>
</g>
<g id="Group_7">
<path id="Vector_4" d="M86.8875 74.3418C86.5974 74.3411 86.3624 74.1055 86.3631 73.8161C86.3659 72.5475 86.1888 71.2948 85.8367 70.0813C84.8334 70.9199 83.7584 71.6751 82.6304 72.3318C82.381 72.4779 82.0585 72.3932 81.9131 72.1423C81.767 71.8922 81.8518 71.5711 82.1026 71.425C83.3994 70.6698 84.6239 69.7774 85.7423 68.7748C85.8732 68.6577 86.0544 68.6136 86.2226 68.657C86.3928 68.7004 86.5292 68.8251 86.5877 68.9898C87.139 70.5451 87.4167 72.1692 87.4132 73.8182C87.4119 74.1076 87.1776 74.3418 86.8875 74.3418Z" fill="black"/>
</g>
</g>
<g id="Group_8">
<g id="Group_9">
<path id="Vector_5" d="M49.5013 11.4665C49.3324 11.4665 49.1677 11.3859 49.0658 11.2357C48.9031 10.9952 48.9665 10.6693 49.207 10.5066C54.6093 6.85938 61.8873 6.34258 67.7499 9.19464C68.0104 9.32143 68.1186 9.63565 67.9925 9.89612C67.8657 10.1566 67.5515 10.2655 67.291 10.1387C61.7605 7.44923 54.8926 7.93434 49.7955 11.3769C49.7045 11.4369 49.6026 11.4665 49.5013 11.4665Z" fill="black"/>
</g>
<g id="Group_10">
<path id="Vector_6" d="M53.9898 11.7595C53.9733 11.7595 53.9567 11.7588 53.9408 11.7574C52.3863 11.6134 50.807 11.5631 49.2435 11.6086C49.0471 11.6148 48.8548 11.5052 48.7625 11.3261C48.6695 11.1476 48.6874 10.9312 48.808 10.77L51.6497 6.97045C51.8234 6.73823 52.152 6.69068 52.3842 6.86433C52.6165 7.03797 52.664 7.36666 52.4904 7.59887L50.2881 10.5433C51.5381 10.5295 52.7963 10.597 54.038 10.7128C54.3267 10.7397 54.539 10.9953 54.5121 11.284C54.4859 11.5555 54.2578 11.7595 53.9898 11.7595Z" fill="black"/>
</g>
</g>
<g id="Group_11">
<path id="Vector_7" d="M71.3274 4.88789C71.233 4.88789 71.1379 4.86239 71.0525 4.80933C67.3363 2.51817 62.8856 1.25649 58.5189 1.25649C58.5141 1.25649 58.5093 1.25649 58.5038 1.25649H58.5031C58.2137 1.25649 57.9787 1.02152 57.978 0.732109C57.978 0.44201 58.213 0.207031 58.5024 0.207031C58.5079 0.207031 58.5134 0.207031 58.5196 0.207031C63.1433 0.207031 67.6671 1.48939 71.603 3.91629C71.8497 4.06858 71.9262 4.39176 71.7739 4.63844C71.6754 4.79969 71.5038 4.88789 71.3274 4.88789Z" fill="black"/>
</g>
<g id="Group_12">
<path id="Vector_8" d="M76.5112 93.1274C76.3245 93.1274 76.1439 93.0275 76.0495 92.8518C75.9117 92.5968 76.0068 92.2784 76.2618 92.1406C80.0613 90.0879 83.3399 86.8954 85.4919 83.1517C85.6366 82.9002 85.9577 82.8148 86.2085 82.9581C86.46 83.1028 86.5461 83.4232 86.4021 83.6747C84.1213 87.6424 80.7869 90.8893 76.7607 93.064C76.6814 93.1074 76.596 93.1274 76.5112 93.1274Z" fill="black"/>
</g>
<g id="Group_13">
<path id="Vector_9" d="M8.72049 69.339C8.56338 69.339 8.40763 69.2688 8.30496 69.1351C5.48253 65.4761 3.95419 60.9159 4.00105 56.2949C4.00449 56.0069 4.23879 55.7754 4.52613 55.7754C4.52751 55.7754 4.52958 55.7754 4.53164 55.7754C4.82174 55.7781 5.05394 56.0152 5.05118 56.306C5.00639 60.6926 6.45691 65.0207 9.13602 68.4943C9.31311 68.7237 9.27039 69.0531 9.04093 69.2302C8.94515 69.3032 8.83212 69.339 8.72049 69.339Z" fill="black"/>
</g>
<g id="Group_14">
<g id="Group_15">
<path id="Vector_10" d="M9.57739 11.8281C10.3237 23.1647 10.5 34.5392 10.1831 45.9468C13.4189 45.0379 16.8147 44.7016 20.1656 44.9593C20.6073 44.9931 21.0849 45.0537 21.4032 45.3617C21.776 45.7228 21.807 46.3271 21.6375 46.8177C21.468 47.3084 21.1351 47.7218 20.8457 48.1525C20.4158 48.7913 20.063 49.5106 20.0202 50.2797C19.9265 51.952 21.3598 53.4011 22.9577 53.9021C24.5564 54.4024 26.2798 54.1777 28.0672 53.6375C29.3923 53.1544 30.1813 51.5393 29.7472 50.197C29.5529 49.5968 29.1594 49.0793 28.932 48.4908C28.5544 47.5144 28.7218 46.2817 29.5246 45.6098C30.2674 44.989 31.3258 44.9717 32.2933 44.9848C35.5319 45.0282 38.7706 45.0716 41.9044 45.0661C41.7439 40.5899 41.8218 36.1055 42.1146 31.4735C41.4124 32.0875 40.454 32.3679 39.5216 32.3349C38.5893 32.3011 37.6839 31.971 36.8866 31.4873C36.3409 31.1559 35.8255 30.7355 35.5257 30.1712C35.1633 29.4869 35.157 28.6697 35.2501 27.9014C35.3679 26.9277 35.6663 25.912 36.407 25.2691C36.755 24.9666 37.1795 24.7668 37.6033 24.5863C38.3819 24.2541 39.204 23.9675 40.0508 23.9847C40.8977 24.0013 41.7783 24.3733 42.2896 25.2044C42.1084 22.0367 41.9272 18.8511 42.2855 15.6986C42.4219 14.5017 42.6355 13.3041 42.2696 12.2064C41.4565 11.9253 40.5725 11.9625 39.7125 12.0004C30.8042 12.398 21.8745 12.6268 12.9745 12.0755C11.8031 12.0018 10.622 11.9156 9.57739 11.8281Z" fill="white"/>
</g>
<g id="Group_16" opacity="0.1294">
<path id="Vector_11" d="M42.4181 12.9372C42.4133 12.5562 42.5276 12.1055 42.2182 11.812C42.1204 11.7072 42.0005 11.648 41.8744 11.6211C41.594 13.2501 41.3059 14.8776 41.0055 16.5032C40.5473 18.9817 40.0711 21.4569 39.5908 23.9313C39.772 24.1828 40.0904 24.3331 40.4101 24.2814C40.6837 24.9532 41.6987 25.1041 42.0963 24.4054C42.1755 24.2497 42.2224 24.0816 42.2217 23.9114C42.2224 23.9148 42.2231 23.9203 42.2231 23.9238C42.2231 23.9162 42.2224 23.9086 42.2217 23.9003C42.2217 23.8817 42.221 23.8638 42.2196 23.8452C42.2182 23.8245 42.2162 23.8039 42.2169 23.7839C42.2183 23.7212 42.2252 23.6585 42.2279 23.5958C42.252 23.3842 42.283 23.0314 42.252 22.9074C42.0887 20.4074 42.0536 17.2081 42.2548 15.3552C42.3685 14.5531 42.3795 13.7434 42.4181 12.9372Z" fill="black"/>
</g>
<g id="Group_17" opacity="0.1294">
<path id="Vector_12" d="M41.6007 43.833C41.5979 43.8082 41.5945 43.7834 41.5931 43.7586C41.4532 42.0883 41.4863 40.418 41.5428 38.7449C41.5083 36.7583 41.733 34.7848 41.8646 32.8051C41.8412 31.8218 40.7827 31.5565 40.1957 32.0085C39.7767 31.8342 39.2165 32.1415 39.233 32.6439C39.3922 34.9557 39.5156 37.2758 39.5004 39.5931C39.4584 40.675 39.5024 41.7541 39.5252 42.8352C38.9615 43.135 39.1428 43.0571 38.668 43.2335C35.479 43.9494 33.9899 43.8013 29.9712 44.6826C29.1609 44.9203 29.4903 46.1379 30.3151 45.9291C32.5222 45.4847 34.8402 45.4833 37.3491 45.1505C38.0961 45.0733 38.8547 44.9892 39.5541 44.7026C39.5651 44.7591 39.5783 44.8149 39.5955 44.8694C39.7113 45.2029 40.0599 45.3469 40.3789 45.3007C40.8034 45.4372 41.3278 45.2979 41.56 44.8714C41.7047 44.6371 41.715 44.3622 41.6585 44.099C41.6282 43.9791 41.6083 43.873 41.6007 43.833Z" fill="black"/>
</g>
<g id="Group_18" opacity="0.1294">
<path id="Vector_13" d="M29.8606 49.1327C29.7848 48.8067 29.7945 48.4229 29.5898 48.148C29.3314 47.7607 28.6913 47.8152 28.4728 48.2169C28.3619 48.4133 28.364 48.6296 28.426 48.8412C28.5273 49.4069 28.4935 49.1568 28.5355 49.5978C28.5597 49.7018 28.5369 50.0484 28.5293 50.1849C28.3267 51.2846 27.5501 51.6271 25.8847 51.9771C24.8862 52.1963 23.5825 52.0812 21.7192 51.3673C20.2901 51.0111 19.7133 53.0934 21.1239 53.5262C22.655 54.0574 24.2998 54.5832 25.9343 54.3158C27.0313 54.1277 28.0794 53.5551 28.8932 52.8027C29.8089 51.8428 30.0763 50.4123 29.8606 49.1327Z" fill="black"/>
</g>
<g id="Group_19">
<path id="Vector_14" d="M25.6188 54.8595C25.4135 54.8595 25.2019 54.8526 24.9842 54.8395C23.0555 54.7224 21.4975 54.118 20.479 53.092C20.0773 52.6875 19.5819 52.0288 19.5033 51.1888C19.422 50.3247 19.8024 49.5426 20.1076 48.9135L21.0551 46.9613C21.2287 46.603 21.3693 46.2854 21.3293 46.0208C21.3169 45.9402 21.2556 45.8499 21.1729 45.7906C21.1137 45.7486 21.0193 45.7024 20.8987 45.7252C20.8491 45.7334 20.7981 45.7355 20.7485 45.73C17.3024 45.3496 13.7255 45.5715 10.1134 46.3867C9.95694 46.4232 9.79085 46.3839 9.66544 46.2812C9.54072 46.1793 9.46908 46.0256 9.47253 45.8637C9.70336 35.0143 9.51731 23.9299 8.90403 11.9779C8.89645 11.8325 8.94951 11.6906 9.05149 11.5858C9.15278 11.4811 9.28165 11.4218 9.43875 11.426C20.4081 11.6451 31.5304 11.6699 42.4942 11.5004C42.7257 11.5101 42.9345 11.6479 43.0034 11.8697C43.0971 12.1716 43.1005 12.4286 43.0185 12.6236C42.7608 16.3976 42.6864 20.417 42.7849 25.257C42.7891 25.4644 42.6705 25.6553 42.4824 25.7435C42.2943 25.831 42.0724 25.8 41.9153 25.6629C40.9417 24.8139 39.518 24.5163 38.2853 24.9049C37.0532 25.2935 36.0575 26.3547 35.7475 27.6088C35.4842 28.6741 35.7537 29.7994 36.4331 30.4781C36.8155 30.8592 37.3585 31.1527 38.1413 31.4014C38.8503 31.6268 40.6295 32.0499 41.8312 31.1196C41.9952 30.9935 42.2172 30.9742 42.4005 31.0721C42.5824 31.1692 42.6905 31.3649 42.6761 31.5716C42.3715 35.9004 42.2964 40.3346 42.448 45.1284C42.4528 45.2752 42.3956 45.4165 42.2909 45.5198C42.1861 45.6225 42.0469 45.6755 41.896 45.6693C38.4968 45.4929 35.0508 45.4819 31.6558 45.6363C30.7634 45.6769 29.8848 45.7941 29.4996 46.3701C29.0979 46.9717 29.406 47.8902 29.6258 48.3836C29.7023 48.5552 29.7849 48.7261 29.8676 48.8976C30.1887 49.5612 30.5202 50.2468 30.5457 51.042C30.5863 52.2941 29.8001 53.5399 28.5439 54.2166C27.7412 54.6465 26.7799 54.8595 25.6188 54.8595ZM20.9614 44.6695C21.2522 44.6695 21.5374 44.7612 21.7834 44.9369C22.099 45.1622 22.312 45.4998 22.3671 45.863C22.4594 46.4721 22.1941 47.0199 21.9998 47.4196L21.0524 49.3717C20.7368 50.0222 20.499 50.5617 20.5486 51.091C20.5982 51.6215 20.9435 52.0701 21.2239 52.3526C22.2782 53.4145 23.8858 53.7218 25.0483 53.7921C26.2989 53.8686 27.2795 53.7046 28.0478 53.2905C28.9429 52.8088 29.5252 51.9185 29.4983 51.0737C29.4797 50.5011 29.2103 49.9437 28.9243 49.3531C28.8361 49.1712 28.7493 48.99 28.668 48.8081C28.1298 47.598 28.1167 46.5527 28.6287 45.7858C29.2743 44.819 30.4981 44.6371 31.6096 44.5868C34.8496 44.4394 38.1351 44.4414 41.3834 44.5916C41.2642 40.3325 41.3241 36.349 41.5667 32.4626C40.2085 32.9925 38.7001 32.6797 37.8257 32.4013C37.2283 32.2118 36.3573 31.8824 35.6937 31.2209C34.7586 30.2879 34.3803 28.772 34.7304 27.3573C35.1259 25.7559 36.3979 24.4005 37.9711 23.9037C39.2018 23.5157 40.5813 23.6639 41.719 24.2647C41.6494 19.8423 41.7313 16.0951 41.9725 12.5581C31.3581 12.7159 20.6017 12.6911 9.98243 12.4865C10.5619 24.0057 10.7438 34.729 10.5371 45.2215C14.0176 44.5021 17.4657 44.3201 20.7974 44.6798C20.8511 44.6729 20.9063 44.6695 20.9614 44.6695ZM42.2151 12.0193L42.2137 12.02L42.2151 12.0193Z" fill="black"/>
</g>
<g id="Group_20" opacity="0.1294">
<path id="Vector_15" d="M42.4181 12.9372C42.4133 12.5562 42.5276 12.1055 42.2182 11.812C42.1204 11.7072 42.0005 11.648 41.8744 11.6211C41.594 13.2501 41.3059 14.8776 41.0055 16.5032C40.5473 18.9817 40.0711 21.4569 39.5908 23.9313C39.772 24.1828 40.0904 24.3331 40.4101 24.2814C40.6837 24.9532 41.6987 25.1041 42.0963 24.4054C42.1755 24.2497 42.2224 24.0816 42.2217 23.9114C42.2224 23.9148 42.2231 23.9203 42.2231 23.9238C42.2231 23.9162 42.2224 23.9086 42.2217 23.9003C42.2217 23.8817 42.221 23.8638 42.2196 23.8452C42.2182 23.8245 42.2162 23.8039 42.2169 23.7839C42.2183 23.7212 42.2252 23.6585 42.2279 23.5958C42.252 23.3842 42.283 23.0314 42.252 22.9074C42.0887 20.4074 42.0536 17.2081 42.2548 15.3552C42.3685 14.5531 42.3795 13.7434 42.4181 12.9372Z" fill="black"/>
</g>
<g id="Group_21" opacity="0.1294">
<path id="Vector_16" d="M41.6007 43.833C41.5979 43.8082 41.5945 43.7834 41.5931 43.7586C41.4532 42.0883 41.4863 40.418 41.5428 38.7449C41.5083 36.7583 41.733 34.7848 41.8646 32.8051C41.8412 31.8218 40.7827 31.5565 40.1957 32.0085C39.7767 31.8342 39.2165 32.1415 39.233 32.6439C39.3922 34.9557 39.5156 37.2758 39.5004 39.5931C39.4584 40.675 39.5024 41.7541 39.5252 42.8352C38.9615 43.135 39.1428 43.0571 38.668 43.2335C35.479 43.9494 33.9899 43.8013 29.9712 44.6826C29.1609 44.9203 29.4903 46.1379 30.3151 45.9291C32.5222 45.4847 34.8402 45.4833 37.3491 45.1505C38.0961 45.0733 38.8547 44.9892 39.5541 44.7026C39.5651 44.7591 39.5783 44.8149 39.5955 44.8694C39.7113 45.2029 40.0599 45.3469 40.3789 45.3007C40.8034 45.4372 41.3278 45.2979 41.56 44.8714C41.7047 44.6371 41.715 44.3622 41.6585 44.099C41.6282 43.9791 41.6083 43.873 41.6007 43.833Z" fill="black"/>
</g>
<g id="Group_22" opacity="0.1294">
<path id="Vector_17" d="M29.8606 49.1327C29.7848 48.8067 29.7945 48.4229 29.5898 48.148C29.3314 47.7607 28.6913 47.8152 28.4728 48.2169C28.3619 48.4133 28.364 48.6296 28.426 48.8412C28.5273 49.4069 28.4935 49.1568 28.5355 49.5978C28.5597 49.7018 28.5369 50.0484 28.5293 50.1849C28.3267 51.2846 27.5501 51.6271 25.8847 51.9771C24.8862 52.1963 23.5825 52.0812 21.7192 51.3673C20.2901 51.0111 19.7133 53.0934 21.1239 53.5262C22.655 54.0574 24.2998 54.5832 25.9343 54.3158C27.0313 54.1277 28.0794 53.5551 28.8932 52.8027C29.8089 51.8428 30.0763 50.4123 29.8606 49.1327Z" fill="black"/>
</g>
<g id="Group_23">
<path id="Vector_18" d="M25.6188 54.8595C25.4135 54.8595 25.2019 54.8526 24.9842 54.8395C23.0555 54.7224 21.4975 54.118 20.479 53.092C20.0773 52.6875 19.5819 52.0288 19.5033 51.1888C19.422 50.3247 19.8024 49.5426 20.1076 48.9135L21.0551 46.9613C21.2287 46.603 21.3693 46.2854 21.3293 46.0208C21.3169 45.9402 21.2556 45.8499 21.1729 45.7906C21.1137 45.7486 21.0193 45.7024 20.8987 45.7252C20.8491 45.7334 20.7981 45.7355 20.7485 45.73C17.3024 45.3496 13.7255 45.5715 10.1134 46.3867C9.95694 46.4232 9.79085 46.3839 9.66544 46.2812C9.54072 46.1793 9.46908 46.0256 9.47253 45.8637C9.70336 35.0143 9.51731 23.9299 8.90403 11.9779C8.89645 11.8325 8.94951 11.6906 9.05149 11.5858C9.15278 11.4811 9.28165 11.4218 9.43875 11.426C20.4081 11.6451 31.5304 11.6699 42.4942 11.5004C42.7257 11.5101 42.9345 11.6479 43.0034 11.8697C43.0971 12.1716 43.1005 12.4286 43.0185 12.6236C42.7608 16.3976 42.6864 20.417 42.7849 25.257C42.7891 25.4644 42.6705 25.6553 42.4824 25.7435C42.2943 25.831 42.0724 25.8 41.9153 25.6629C40.9417 24.8139 39.518 24.5163 38.2853 24.9049C37.0532 25.2935 36.0575 26.3547 35.7475 27.6088C35.4842 28.6741 35.7537 29.7994 36.4331 30.4781C36.8155 30.8592 37.3585 31.1527 38.1413 31.4014C38.8503 31.6268 40.6295 32.0499 41.8312 31.1196C41.9952 30.9935 42.2172 30.9742 42.4005 31.0721C42.5824 31.1692 42.6905 31.3649 42.6761 31.5716C42.3715 35.9004 42.2964 40.3346 42.448 45.1284C42.4528 45.2752 42.3956 45.4165 42.2909 45.5198C42.1861 45.6225 42.0469 45.6755 41.896 45.6693C38.4968 45.4929 35.0508 45.4819 31.6558 45.6363C30.7634 45.6769 29.8848 45.7941 29.4996 46.3701C29.0979 46.9717 29.406 47.8902 29.6258 48.3836C29.7023 48.5552 29.7849 48.7261 29.8676 48.8976C30.1887 49.5612 30.5202 50.2468 30.5457 51.042C30.5863 52.2941 29.8001 53.5399 28.5439 54.2166C27.7412 54.6465 26.7799 54.8595 25.6188 54.8595ZM20.9614 44.6695C21.2522 44.6695 21.5374 44.7612 21.7834 44.9369C22.099 45.1622 22.312 45.4998 22.3671 45.863C22.4594 46.4721 22.1941 47.0199 21.9998 47.4196L21.0524 49.3717C20.7368 50.0222 20.499 50.5617 20.5486 51.091C20.5982 51.6215 20.9435 52.0701 21.2239 52.3526C22.2782 53.4145 23.8858 53.7218 25.0483 53.7921C26.2989 53.8686 27.2795 53.7046 28.0478 53.2905C28.9429 52.8088 29.5252 51.9185 29.4983 51.0737C29.4797 50.5011 29.2103 49.9437 28.9243 49.3531C28.8361 49.1712 28.7493 48.99 28.668 48.8081C28.1298 47.598 28.1167 46.5527 28.6287 45.7858C29.2743 44.819 30.4981 44.6371 31.6096 44.5868C34.8496 44.4394 38.1351 44.4414 41.3834 44.5916C41.2642 40.3325 41.3241 36.349 41.5667 32.4626C40.2085 32.9925 38.7001 32.6797 37.8257 32.4013C37.2283 32.2118 36.3573 31.8824 35.6937 31.2209C34.7586 30.2879 34.3803 28.772 34.7304 27.3573C35.1259 25.7559 36.3979 24.4005 37.9711 23.9037C39.2018 23.5157 40.5813 23.6639 41.719 24.2647C41.6494 19.8423 41.7313 16.0951 41.9725 12.5581C31.3581 12.7159 20.6017 12.6911 9.98243 12.4865C10.5619 24.0057 10.7438 34.729 10.5371 45.2215C14.0176 44.5021 17.4657 44.3201 20.7974 44.6798C20.8511 44.6729 20.9063 44.6695 20.9614 44.6695ZM42.2151 12.0193L42.2137 12.02L42.2151 12.0193Z" fill="black"/>
</g>
</g>
<g id="Group_24">
<g id="Group_25">
<path id="Vector_19" d="M58.4629 46.8842C57.4479 43.002 54.9107 39.6862 53.74 35.7185C56.8325 34.0992 60.0023 32.6267 63.2347 31.3092C63.9024 31.037 64.5722 30.7717 65.2426 30.5057C65.7202 30.3162 66.2405 30.0888 66.4596 29.6237C66.6491 29.222 66.5546 28.7327 66.3279 28.3503C66.1012 27.9685 65.7581 27.6722 65.3612 27.3263C64.0381 26.2548 63.6157 24.2903 64.1732 22.6813C64.7307 21.0723 66.1433 19.8437 67.7481 19.2752C68.7866 18.9079 70.0482 18.8294 70.8924 19.5364C71.1073 19.7162 71.2831 19.9381 71.4381 20.171C72.1223 21.2026 72.4014 22.4959 72.2037 23.7177C72.1031 24.3413 71.8825 24.9511 71.8894 25.5823C71.8963 26.2142 72.2126 26.9081 72.8934 27.2085C76.6047 25.4631 80.4312 23.9616 84.4939 22.8315C85.5875 24.4949 86.2111 26.414 86.8884 28.2855C88.7848 33.5266 91.1903 38.5657 93.591 43.596C94.3283 45.1402 95.065 46.6844 95.6844 48.2954C95.7278 48.6551 95.4123 48.9473 95.1208 49.1623C91.8642 51.5651 87.9186 52.8171 84.3692 54.761C84.0591 54.9305 83.7435 55.1131 83.5258 55.3915C83.308 55.6699 83.2095 56.0709 83.4899 56.3272C83.401 56.8585 83.7656 57.3643 84.1907 57.6943C84.6159 58.0244 85.1203 58.2518 85.5062 58.6267C86.1567 59.2592 86.3765 60.2646 86.156 61.1452C85.9361 62.0258 85.3181 62.7769 84.5552 63.2689C83.7924 63.7609 82.8932 64.0111 81.9912 64.1117C81.2877 64.1902 80.5083 64.1578 79.9715 63.6962C79.3383 63.1518 79.2611 62.2167 79.2274 61.3823C79.1936 60.5485 79.1081 59.6113 78.468 59.0759C77.9277 58.6246 77.0616 58.628 76.5772 59.1028C72.8093 60.2832 69.096 61.6372 65.4584 63.1428C65.0298 62.7342 64.8451 62.1402 64.6611 61.5773C63.6157 58.3758 62.1025 55.3453 60.4908 52.3947C61.6078 52.6497 62.822 52.5153 63.8239 51.9592C64.8258 51.4031 65.5934 50.415 65.8187 49.2918C65.8566 49.103 65.8794 48.9087 65.8518 48.7185C65.818 48.4856 65.7099 48.2699 65.5948 48.0646C65.2068 47.3735 64.71 46.7347 64.0823 46.2516C63.4545 45.7686 62.6883 45.4468 61.8965 45.4172C61.4011 45.3986 60.9063 45.493 60.4343 45.6432C59.6956 45.8795 59.0017 46.253 58.4629 46.8842Z" fill="white"/>
</g>
<g id="Group_26">
<path id="Vector_20" d="M57.8772 44.2106C57.8697 44.2106 57.8621 44.2106 57.8545 44.2092C57.7587 44.1968 57.6905 44.1093 57.7029 44.0136C58.1163 40.8011 58.4499 37.5363 58.6938 34.3101C58.7007 34.2143 58.7778 34.1426 58.8819 34.1488C58.9783 34.1564 59.0507 34.2405 59.0431 34.3369C58.7985 37.5694 58.4643 40.8404 58.0502 44.0583C58.0392 44.1465 57.9634 44.2106 57.8772 44.2106Z" fill="black"/>
</g>
<g id="Group_27">
<path id="Vector_21" d="M61.8667 44.3424C61.8633 44.3424 61.8605 44.3424 61.8578 44.3417C61.7613 44.3369 61.6875 44.2548 61.6924 44.1577L62.2609 33.2594C62.2657 33.1629 62.3532 33.0892 62.4449 33.094C62.5413 33.0988 62.615 33.1808 62.6102 33.278L62.0417 44.1763C62.0362 44.27 61.9591 44.3424 61.8667 44.3424Z" fill="black"/>
</g>
<g id="Group_28">
<path id="Vector_22" d="M65.1172 45.0862C65.1117 45.0862 65.1076 45.0862 65.1021 45.0855C65.0063 45.078 64.9346 44.9932 64.9422 44.8967L66.0468 31.6514C66.0543 31.5549 66.1432 31.4902 66.2356 31.4922C66.3313 31.4998 66.4037 31.5846 66.3954 31.681L65.2909 44.9263C65.2833 45.0173 65.2068 45.0862 65.1172 45.0862Z" fill="black"/>
</g>
<g id="Group_29">
<path id="Vector_23" d="M66.567 26.2012C66.5642 26.2012 66.5614 26.2012 66.558 26.2005C66.4615 26.1957 66.3871 26.1137 66.3926 26.0172L66.6111 21.7243C66.6159 21.6279 66.6869 21.5528 66.7944 21.559C66.8908 21.5638 66.9652 21.6458 66.9604 21.7422L66.742 26.0352C66.7372 26.1282 66.66 26.2012 66.567 26.2012Z" fill="black"/>
</g>
<g id="Group_30">
<path id="Vector_24" d="M68.3865 60.208C68.3831 60.208 68.3803 60.2081 68.3769 60.2074C68.2804 60.2019 68.2067 60.1199 68.2122 60.0234L70.3221 22.2127C70.3277 22.1169 70.3993 22.0363 70.5068 22.048C70.6033 22.0535 70.677 22.1355 70.6715 22.2327L68.5615 60.0434C68.556 60.1357 68.4789 60.208 68.3865 60.208Z" fill="black"/>
</g>
<g id="Group_31">
<path id="Vector_25" d="M71.86 58.7851C71.8586 58.7851 71.8572 58.7851 71.8558 58.7851C71.7594 58.7823 71.6829 58.7024 71.6856 58.6059C71.9447 48.7488 72.3713 38.7628 72.9529 28.9249C72.9584 28.8284 73.039 28.7533 73.1375 28.7602C73.234 28.7657 73.3077 28.8484 73.3022 28.9449C72.7206 38.7793 72.2941 48.7612 72.0357 58.6142C72.0329 58.71 71.9551 58.7851 71.86 58.7851Z" fill="black"/>
</g>
<g id="Group_32">
<path id="Vector_26" d="M75.0382 57.3307C75.0361 57.3307 75.034 57.3307 75.0319 57.3307C74.9355 57.3272 74.8604 57.2459 74.8631 57.1494C75.229 47.2661 75.5295 37.2325 75.7562 27.3271C75.7589 27.2307 75.8457 27.1569 75.9353 27.1562C76.0318 27.1583 76.1083 27.2383 76.1062 27.3354C75.8788 37.2422 75.5784 47.2778 75.2132 57.1625C75.209 57.2562 75.1319 57.3307 75.0382 57.3307Z" fill="black"/>
</g>
<g id="Group_33">
<path id="Vector_27" d="M78.2496 56.0979C78.2482 56.0979 78.2461 56.0979 78.2448 56.0979C78.1483 56.0952 78.0725 56.0139 78.0753 55.9181L78.9559 26.2047C78.9587 26.1082 79.0434 26.0393 79.1357 26.0352C79.2322 26.0386 79.308 26.1185 79.3052 26.215L78.4246 55.9284C78.4219 56.0228 78.344 56.0979 78.2496 56.0979Z" fill="black"/>
</g>
<g id="Group_34">
<path id="Vector_28" d="M81.0976 63.4511C81.0053 63.4511 80.9281 63.3787 80.9233 63.2857C80.4851 55.3752 80.9846 47.3337 81.467 39.5576C81.7585 34.8643 82.0596 30.0119 82.1519 25.238C82.154 25.1415 82.2381 25.0499 82.3304 25.0664C82.4269 25.0685 82.5033 25.1477 82.5019 25.2449C82.4096 30.0263 82.1078 34.8829 81.8163 39.5796C81.334 47.3461 80.8351 55.3765 81.2726 63.2671C81.2782 63.3636 81.2044 63.4463 81.1073 63.4511C81.1045 63.4511 81.1011 63.4511 81.0976 63.4511Z" fill="black"/>
</g>
<g id="Group_35">
<path id="Vector_29" d="M84.1703 52.5154C84.1689 52.5154 84.1661 52.5154 84.1661 52.5154C84.0697 52.5127 83.9932 52.4327 83.9959 52.3362C84.182 45.0066 84.7836 37.6046 85.7841 30.3363C85.7972 30.2405 85.8902 30.1757 85.9812 30.1868C86.0769 30.1999 86.1438 30.2881 86.1307 30.3838C85.1322 37.6391 84.5313 45.0273 84.346 52.3445C84.3425 52.4403 84.2647 52.5154 84.1703 52.5154Z" fill="black"/>
</g>
<g id="Group_36">
<path id="Vector_30" d="M87.084 51.0336C87.0813 51.0336 87.0785 51.0336 87.0757 51.0329C86.9793 51.0281 86.9048 50.9461 86.9096 50.8497C87.1419 46.1371 87.5629 41.3784 88.1617 36.7058C88.1741 36.61 88.263 36.5418 88.3574 36.5542C88.4532 36.5666 88.5207 36.6541 88.509 36.7499C87.9109 41.4135 87.4905 46.1633 87.259 50.8662C87.2542 50.9606 87.1764 51.0336 87.084 51.0336Z" fill="black"/>
</g>
<g id="Group_37">
<path id="Vector_31" d="M90.3646 49.9321C90.3597 49.9321 90.3556 49.9321 90.3515 49.9314C90.255 49.9245 90.1827 49.8404 90.1902 49.744C90.3625 47.4328 90.6112 45.0983 90.9303 42.8051C90.9434 42.7093 91.0392 42.6445 91.1274 42.6555C91.2231 42.6686 91.29 42.7568 91.2769 42.8526C90.9592 45.1396 90.7112 47.4666 90.5396 49.7702C90.532 49.8618 90.4548 49.9321 90.3646 49.9321Z" fill="black"/>
</g>
<g id="Group_38">
<g id="Group_39" opacity="0.1294">
<path id="Vector_32" d="M78.2192 56.334C78.2241 56.334 78.2282 56.3354 78.2324 56.3361C78.2737 56.3416 78.3157 56.343 78.3571 56.3519C78.3123 56.3437 78.2496 56.3333 78.2192 56.334Z" fill="black"/>
</g>
<g id="Group_40" opacity="0.1294">
<path id="Vector_33" d="M79.7581 57.8688C79.7457 57.598 79.6623 57.3217 79.51 57.0977C79.4445 57.013 79.4418 57.0095 79.5031 57.0881C79.6568 57.2748 79.1724 56.6719 79.313 56.8696C79.3729 56.9496 79.3701 56.9454 79.3026 56.8579C79.0869 56.5726 78.7541 56.4114 78.4054 56.357C78.402 56.3563 78.3972 56.3549 78.3875 56.3528C78.3779 56.3508 78.3682 56.3515 78.3579 56.3494C78.3703 56.3515 78.382 56.3535 78.391 56.3549C78.3386 56.3473 78.2862 56.3363 78.2332 56.3335C77.8411 56.2825 77.4504 56.3542 77.0638 56.4334C76.1074 56.6147 75.1937 56.9537 74.3144 57.3651C73.573 57.6497 72.1776 58.3325 70.1593 59.0223C68.8501 59.4089 67.5781 59.9002 66.3054 60.3887C65.803 60.612 65.147 60.663 64.8507 61.1818C64.3532 61.9743 65.1739 63.0499 66.0724 62.7715C68.6475 61.8736 71.277 61.1122 73.7604 59.9746C74.2855 59.823 76.7289 58.5723 77.6116 58.1678C77.6171 58.1658 77.6199 58.1651 77.6282 58.1623C77.87 58.0665 78.1367 58.0431 78.3668 57.9191C78.3965 57.9046 78.4275 57.8915 78.4578 57.8777C78.6239 58.0369 78.8182 58.1665 79.0311 58.2547C79.0173 58.2491 79.0042 58.2436 78.9946 58.2395C79.0242 58.2519 79.0745 58.2767 79.1041 58.2905C79.1358 58.3346 79.1675 58.378 79.1972 58.4228C79.2895 58.5882 79.519 58.6488 79.6809 58.5496C80.0358 58.3057 79.734 57.9363 79.7581 57.8688Z" fill="black"/>
</g>
</g>
<g id="Group_41" opacity="0.1294">
<path id="Vector_34" d="M95.288 47.275C95.1716 46.9553 95.0751 46.6307 94.989 46.3027C94.8443 46.3213 94.7044 46.3792 94.5983 46.4895C94.4067 46.6617 94.4122 46.925 94.3316 47.1524C94.0546 47.6809 94.1387 47.5334 93.6501 48.0178C91.9164 49.5779 88.5007 50.9078 86.3494 51.8815C86.1248 51.9738 85.6314 52.1764 85.4832 52.2329C84.8831 52.5485 84.0458 52.5705 83.6489 53.1693C83.1824 53.9114 83.9521 54.9196 84.7935 54.6584C87.392 53.7185 89.863 52.4802 92.2106 51.0277C93.4289 50.249 94.8002 49.4945 95.4748 48.1543C95.5023 48.0895 95.5299 48.0213 95.5575 47.9524C95.461 47.7291 95.3707 47.5031 95.288 47.275Z" fill="black"/>
</g>
<g id="Group_42">
<path id="Vector_35" d="M81.7861 64.9218C80.7463 64.9218 79.7093 64.5614 79.1257 63.6443C78.675 62.9366 78.6433 62.1442 78.613 61.3779C78.5992 61.0244 78.5854 60.6909 78.5324 60.3767C78.4483 59.8813 78.0528 59.3397 77.651 59.1688C77.4168 59.0696 77.2762 59.135 77.19 59.1936C77.1528 59.2191 77.1122 59.2398 77.0688 59.2549C74.6549 60.1052 72.1915 61.0651 69.8094 61.9933C68.381 62.5494 66.9036 63.1247 65.4414 63.6753C65.3036 63.7277 65.1506 63.7187 65.019 63.6526C64.8881 63.5857 64.7902 63.4665 64.7509 63.3246C63.656 59.3817 62.0525 55.7985 59.9846 52.6743C59.8703 52.5013 59.8682 52.2767 59.9805 52.1017C60.0922 51.9266 60.2961 51.835 60.5021 51.866C61.5598 52.0286 62.5328 51.9776 63.4789 51.7089C64.21 51.5008 64.7075 51.2093 64.999 50.8193C65.2484 50.4865 65.3828 50.0131 65.3787 49.4873C65.3677 48.0548 64.2803 46.6394 62.8505 46.195C61.4489 45.7588 59.7779 46.2081 58.694 47.3119C58.5721 47.436 58.3984 47.4932 58.2254 47.4608C58.0545 47.4298 57.9098 47.3161 57.8395 47.1569C57.3717 46.0992 56.9176 45.0545 56.4697 44.023C55.3052 41.3439 54.2054 38.8129 52.9734 36.3137C52.8493 36.0622 52.9451 35.7569 53.1911 35.6219C57.3331 33.3459 61.6736 31.3317 66.0891 29.6366C66.1546 29.6118 66.1656 29.5884 66.1766 29.5532C66.2462 29.3231 66.074 28.8035 65.8004 28.419C65.6095 28.1503 65.3656 27.9084 65.1072 27.6528C64.8715 27.4192 64.6269 27.1773 64.4092 26.8989C63.2591 25.4319 63.1592 23.22 64.1666 21.5187C65.0762 19.9834 66.8374 18.9085 68.762 18.7148C69.6571 18.6239 70.4213 18.7451 71.0311 19.0738C71.9001 19.5431 72.5326 20.5009 72.7228 21.6351C72.8944 22.6577 72.7152 23.6651 72.5175 24.5161L72.4851 24.6525C72.3817 25.0922 72.2839 25.507 72.3245 25.8936C72.3514 26.1465 72.4706 26.4441 72.6773 26.5916C75.9435 25.3189 80.2033 23.6796 84.5589 22.1299C84.6906 22.0837 84.836 22.0906 84.9621 22.1512C85.0882 22.2119 85.1853 22.32 85.2308 22.4523C88.4302 31.6666 92.1594 40.4591 96.3152 48.5874C96.4441 48.8396 96.3504 49.1476 96.103 49.2855C92.3792 51.3547 88.4336 53.2635 84.6175 55.1095C84.1979 55.3127 83.8106 55.5201 83.6887 55.8233C83.5343 56.2078 83.8479 56.7212 84.2041 57.0354C84.3915 57.2008 84.6031 57.3483 84.827 57.5047C85.1778 57.75 85.5409 58.0036 85.8489 58.3515C86.7275 59.3445 86.8956 60.9418 86.2575 62.2358C85.7159 63.3342 84.6375 64.2231 83.298 64.6751C82.8308 64.8309 82.3085 64.9218 81.7861 64.9218ZM77.4236 58.067C77.6331 58.067 77.8481 58.1117 78.061 58.2027C78.7894 58.5121 79.4226 59.3528 79.5666 60.2003C79.6314 60.5814 79.6473 60.9652 79.6617 61.3359C79.6879 61.9919 79.7127 62.6121 80.0111 63.0813C80.5589 63.942 81.9102 64.0329 82.9617 63.6794C84.038 63.3163 84.8959 62.621 85.3149 61.7714C85.7697 60.8487 85.6656 59.7283 85.0627 59.0468C84.8367 58.7919 84.5397 58.5845 84.2255 58.3646C83.9871 58.1986 83.741 58.027 83.5102 57.8223C82.9121 57.2952 82.3443 56.3532 82.7136 55.4319C82.9968 54.7257 83.6969 54.3873 84.16 54.1634C87.8114 52.3973 91.582 50.5726 95.1493 48.6115C91.1389 40.7148 87.5289 32.2034 84.4129 23.2958C80.151 24.8214 76.011 26.418 72.8482 27.6507C72.7366 27.6948 72.6139 27.6982 72.4995 27.6617C71.8429 27.4543 71.3646 26.8024 71.2799 26.0024C71.2206 25.4381 71.344 24.9158 71.4639 24.41L71.4949 24.277C71.6685 23.5273 71.8284 22.6474 71.6871 21.8067C71.55 20.9895 71.1179 20.3121 70.5315 19.9958C70.1105 19.7684 69.5517 19.6878 68.8668 19.7567C67.2674 19.9179 65.8121 20.7972 65.0693 22.0513C64.2892 23.3674 64.3589 25.1328 65.2347 26.2491C65.4118 26.4758 65.6226 26.6839 65.8452 26.9051C66.1236 27.1808 66.4116 27.466 66.6555 27.8092C67.0255 28.3294 67.3852 29.1777 67.1813 29.8543C67.0745 30.2085 66.8202 30.4786 66.4653 30.6151C62.2496 32.233 58.1035 34.1452 54.1358 36.3006C55.2907 38.6744 56.3326 41.0731 57.4323 43.6041C57.7872 44.4213 58.1455 45.2454 58.5121 46.0778C59.8406 45.0718 61.626 44.7148 63.1626 45.1917C65.0404 45.7753 66.4144 47.5779 66.4288 49.4777C66.433 50.011 66.3344 50.7855 65.8404 51.4464C65.4056 52.0286 64.7275 52.4441 63.7662 52.7177C63.011 52.9327 62.2441 53.0292 61.4427 53.005C63.1984 55.8495 64.5959 59.033 65.6054 62.4915C66.8877 62.005 68.1763 61.5027 69.4284 61.0148C71.7995 60.0915 74.2505 59.1364 76.6622 58.2854C76.8972 58.14 77.1563 58.067 77.4236 58.067Z" fill="black"/>
</g>
<g id="Group_43">
<path id="Vector_36" d="M57.8772 44.2106C57.8697 44.2106 57.8621 44.2106 57.8545 44.2092C57.7587 44.1968 57.6905 44.1093 57.7029 44.0136C58.1163 40.8011 58.4499 37.5363 58.6938 34.3101C58.7007 34.2143 58.7778 34.1426 58.8819 34.1488C58.9783 34.1564 59.0507 34.2405 59.0431 34.3369C58.7985 37.5694 58.4643 40.8404 58.0502 44.0583C58.0392 44.1465 57.9634 44.2106 57.8772 44.2106Z" fill="black"/>
</g>
<g id="Group_44">
<path id="Vector_37" d="M61.8667 44.3424C61.8633 44.3424 61.8605 44.3424 61.8578 44.3417C61.7613 44.3369 61.6875 44.2548 61.6924 44.1577L62.2609 33.2594C62.2657 33.1629 62.3532 33.0892 62.4449 33.094C62.5413 33.0988 62.615 33.1808 62.6102 33.278L62.0417 44.1763C62.0362 44.27 61.9591 44.3424 61.8667 44.3424Z" fill="black"/>
</g>
<g id="Group_45">
<path id="Vector_38" d="M65.1172 45.0862C65.1117 45.0862 65.1076 45.0862 65.1021 45.0855C65.0063 45.078 64.9346 44.9932 64.9422 44.8967L66.0468 31.6514C66.0543 31.5549 66.1432 31.4902 66.2356 31.4922C66.3313 31.4998 66.4037 31.5846 66.3954 31.681L65.2909 44.9263C65.2833 45.0173 65.2068 45.0862 65.1172 45.0862Z" fill="black"/>
</g>
<g id="Group_46">
<path id="Vector_39" d="M66.567 26.2012C66.5642 26.2012 66.5614 26.2012 66.558 26.2005C66.4615 26.1957 66.3871 26.1137 66.3926 26.0172L66.6111 21.7243C66.6159 21.6279 66.6869 21.5528 66.7944 21.559C66.8908 21.5638 66.9652 21.6458 66.9604 21.7422L66.742 26.0352C66.7372 26.1282 66.66 26.2012 66.567 26.2012Z" fill="black"/>
</g>
<g id="Group_47">
<path id="Vector_40" d="M68.3865 60.208C68.3831 60.208 68.3803 60.2081 68.3769 60.2074C68.2804 60.2019 68.2067 60.1199 68.2122 60.0234L70.3221 22.2127C70.3277 22.1169 70.3993 22.0363 70.5068 22.048C70.6033 22.0535 70.677 22.1355 70.6715 22.2327L68.5615 60.0434C68.556 60.1357 68.4789 60.208 68.3865 60.208Z" fill="black"/>
</g>
<g id="Group_48">
<path id="Vector_41" d="M71.86 58.7851C71.8586 58.7851 71.8572 58.7851 71.8558 58.7851C71.7594 58.7823 71.6829 58.7024 71.6856 58.6059C71.9447 48.7488 72.3713 38.7628 72.9529 28.9249C72.9584 28.8284 73.039 28.7533 73.1375 28.7602C73.234 28.7657 73.3077 28.8484 73.3022 28.9449C72.7206 38.7793 72.2941 48.7612 72.0357 58.6142C72.0329 58.71 71.9551 58.7851 71.86 58.7851Z" fill="black"/>
</g>
<g id="Group_49">
<path id="Vector_42" d="M75.0382 57.3307C75.0361 57.3307 75.034 57.3307 75.0319 57.3307C74.9355 57.3272 74.8604 57.2459 74.8631 57.1494C75.229 47.2661 75.5295 37.2325 75.7562 27.3271C75.7589 27.2307 75.8457 27.1569 75.9353 27.1562C76.0318 27.1583 76.1083 27.2383 76.1062 27.3354C75.8788 37.2422 75.5784 47.2778 75.2132 57.1625C75.209 57.2562 75.1319 57.3307 75.0382 57.3307Z" fill="black"/>
</g>
<g id="Group_50">
<path id="Vector_43" d="M78.2496 56.0979C78.2482 56.0979 78.2461 56.0979 78.2448 56.0979C78.1483 56.0952 78.0725 56.0139 78.0753 55.9181L78.9559 26.2047C78.9587 26.1082 79.0434 26.0393 79.1357 26.0352C79.2322 26.0386 79.308 26.1185 79.3052 26.215L78.4246 55.9284C78.4219 56.0228 78.344 56.0979 78.2496 56.0979Z" fill="black"/>
</g>
<g id="Group_51">
<path id="Vector_44" d="M81.0976 63.4511C81.0053 63.4511 80.9281 63.3787 80.9233 63.2857C80.4851 55.3752 80.9846 47.3337 81.467 39.5576C81.7585 34.8643 82.0596 30.0119 82.1519 25.238C82.154 25.1415 82.2381 25.0499 82.3304 25.0664C82.4269 25.0685 82.5033 25.1477 82.5019 25.2449C82.4096 30.0263 82.1078 34.8829 81.8163 39.5796C81.334 47.3461 80.8351 55.3765 81.2726 63.2671C81.2782 63.3636 81.2044 63.4463 81.1073 63.4511C81.1045 63.4511 81.1011 63.4511 81.0976 63.4511Z" fill="black"/>
</g>
<g id="Group_52">
<path id="Vector_45" d="M84.1703 52.5154C84.1689 52.5154 84.1661 52.5154 84.1661 52.5154C84.0697 52.5127 83.9932 52.4327 83.9959 52.3362C84.182 45.0066 84.7836 37.6046 85.7841 30.3363C85.7972 30.2405 85.8902 30.1757 85.9812 30.1868C86.0769 30.1999 86.1438 30.2881 86.1307 30.3838C85.1322 37.6391 84.5313 45.0273 84.346 52.3445C84.3425 52.4403 84.2647 52.5154 84.1703 52.5154Z" fill="black"/>
</g>
<g id="Group_53">
<path id="Vector_46" d="M87.084 51.0336C87.0813 51.0336 87.0785 51.0336 87.0757 51.0329C86.9793 51.0281 86.9048 50.9461 86.9096 50.8497C87.1419 46.1371 87.5629 41.3784 88.1617 36.7058C88.1741 36.61 88.263 36.5418 88.3574 36.5542C88.4532 36.5666 88.5207 36.6541 88.509 36.7499C87.9109 41.4135 87.4905 46.1633 87.259 50.8662C87.2542 50.9606 87.1764 51.0336 87.084 51.0336Z" fill="black"/>
</g>
<g id="Group_54">
<path id="Vector_47" d="M90.3646 49.9321C90.3597 49.9321 90.3556 49.9321 90.3515 49.9314C90.255 49.9245 90.1827 49.8404 90.1902 49.744C90.3625 47.4328 90.6112 45.0983 90.9303 42.8051C90.9434 42.7093 91.0392 42.6445 91.1274 42.6555C91.2231 42.6686 91.29 42.7568 91.2769 42.8526C90.9592 45.1396 90.7112 47.4666 90.5396 49.7702C90.532 49.8618 90.4548 49.9321 90.3646 49.9321Z" fill="black"/>
</g>
<g id="Group_55">
<g id="Group_56" opacity="0.1294">
<path id="Vector_48" d="M78.2192 56.334C78.2241 56.334 78.2282 56.3354 78.2324 56.3361C78.2737 56.3416 78.3157 56.343 78.3571 56.3519C78.3123 56.3437 78.2496 56.3333 78.2192 56.334Z" fill="black"/>
</g>
<g id="Group_57" opacity="0.1294">
<path id="Vector_49" d="M79.7581 57.8688C79.7457 57.598 79.6623 57.3217 79.51 57.0977C79.4445 57.013 79.4418 57.0095 79.5031 57.0881C79.6568 57.2748 79.1724 56.6719 79.313 56.8696C79.3729 56.9496 79.3701 56.9454 79.3026 56.8579C79.0869 56.5726 78.7541 56.4114 78.4054 56.357C78.402 56.3563 78.3972 56.3549 78.3875 56.3528C78.3779 56.3508 78.3682 56.3515 78.3579 56.3494C78.3703 56.3515 78.382 56.3535 78.391 56.3549C78.3386 56.3473 78.2862 56.3363 78.2332 56.3335C77.8411 56.2825 77.4504 56.3542 77.0638 56.4334C76.1074 56.6147 75.1937 56.9537 74.3144 57.3651C73.573 57.6497 72.1776 58.3325 70.1593 59.0223C68.8501 59.4089 67.5781 59.9002 66.3054 60.3887C65.803 60.612 65.147 60.663 64.8507 61.1818C64.3532 61.9743 65.1739 63.0499 66.0724 62.7715C68.6475 61.8736 71.277 61.1122 73.7604 59.9746C74.2855 59.823 76.7289 58.5723 77.6116 58.1678C77.6171 58.1658 77.6199 58.1651 77.6282 58.1623C77.87 58.0665 78.1367 58.0431 78.3668 57.9191C78.3965 57.9046 78.4275 57.8915 78.4578 57.8777C78.6239 58.0369 78.8182 58.1665 79.0311 58.2547C79.0173 58.2491 79.0042 58.2436 78.9946 58.2395C79.0242 58.2519 79.0745 58.2767 79.1041 58.2905C79.1358 58.3346 79.1675 58.378 79.1972 58.4228C79.2895 58.5882 79.519 58.6488 79.6809 58.5496C80.0358 58.3057 79.734 57.9363 79.7581 57.8688Z" fill="black"/>
</g>
</g>
<g id="Group_58" opacity="0.1294">
<path id="Vector_50" d="M95.288 47.275C95.1716 46.9553 95.0751 46.6307 94.989 46.3027C94.8443 46.3213 94.7044 46.3792 94.5983 46.4895C94.4067 46.6617 94.4122 46.925 94.3316 47.1524C94.0546 47.6809 94.1387 47.5334 93.6501 48.0178C91.9164 49.5779 88.5007 50.9078 86.3494 51.8815C86.1248 51.9738 85.6314 52.1764 85.4832 52.2329C84.8831 52.5485 84.0458 52.5705 83.6489 53.1693C83.1824 53.9114 83.9521 54.9196 84.7935 54.6584C87.392 53.7185 89.863 52.4802 92.2106 51.0277C93.4289 50.249 94.8002 49.4945 95.4748 48.1543C95.5023 48.0895 95.5299 48.0213 95.5575 47.9524C95.461 47.7291 95.3707 47.5031 95.288 47.275Z" fill="black"/>
</g>
<g id="Group_59">
<path id="Vector_51" d="M81.7861 64.9218C80.7463 64.9218 79.7093 64.5614 79.1257 63.6443C78.675 62.9366 78.6433 62.1442 78.613 61.3779C78.5992 61.0244 78.5854 60.6909 78.5324 60.3767C78.4483 59.8813 78.0528 59.3397 77.651 59.1688C77.4168 59.0696 77.2762 59.135 77.19 59.1936C77.1528 59.2191 77.1122 59.2398 77.0688 59.2549C74.6549 60.1052 72.1915 61.0651 69.8094 61.9933C68.381 62.5494 66.9036 63.1247 65.4414 63.6753C65.3036 63.7277 65.1506 63.7187 65.019 63.6526C64.8881 63.5857 64.7902 63.4665 64.7509 63.3246C63.656 59.3817 62.0525 55.7985 59.9846 52.6743C59.8703 52.5013 59.8682 52.2767 59.9805 52.1017C60.0922 51.9266 60.2961 51.835 60.5021 51.866C61.5598 52.0286 62.5328 51.9776 63.4789 51.7089C64.21 51.5008 64.7075 51.2093 64.999 50.8193C65.2484 50.4865 65.3828 50.0131 65.3787 49.4873C65.3677 48.0548 64.2803 46.6394 62.8505 46.195C61.4489 45.7588 59.7779 46.2081 58.694 47.3119C58.5721 47.436 58.3984 47.4932 58.2254 47.4608C58.0545 47.4298 57.9098 47.3161 57.8395 47.1569C57.3717 46.0992 56.9176 45.0545 56.4697 44.023C55.3052 41.3439 54.2054 38.8129 52.9734 36.3137C52.8493 36.0622 52.9451 35.7569 53.1911 35.6219C57.3331 33.3459 61.6736 31.3317 66.0891 29.6366C66.1546 29.6118 66.1656 29.5884 66.1766 29.5532C66.2462 29.3231 66.074 28.8035 65.8004 28.419C65.6095 28.1503 65.3656 27.9084 65.1072 27.6528C64.8715 27.4192 64.6269 27.1773 64.4092 26.8989C63.2591 25.4319 63.1592 23.22 64.1666 21.5187C65.0762 19.9834 66.8374 18.9085 68.762 18.7148C69.6571 18.6239 70.4213 18.7451 71.0311 19.0738C71.9001 19.5431 72.5326 20.5009 72.7228 21.6351C72.8944 22.6577 72.7152 23.6651 72.5175 24.5161L72.4851 24.6525C72.3817 25.0922 72.2839 25.507 72.3245 25.8936C72.3514 26.1465 72.4706 26.4441 72.6773 26.5916C75.9435 25.3189 80.2033 23.6796 84.5589 22.1299C84.6906 22.0837 84.836 22.0906 84.9621 22.1512C85.0882 22.2119 85.1853 22.32 85.2308 22.4523C88.4302 31.6666 92.1594 40.4591 96.3152 48.5874C96.4441 48.8396 96.3504 49.1476 96.103 49.2855C92.3792 51.3547 88.4336 53.2635 84.6175 55.1095C84.1979 55.3127 83.8106 55.5201 83.6887 55.8233C83.5343 56.2078 83.8479 56.7212 84.2041 57.0354C84.3915 57.2008 84.6031 57.3483 84.827 57.5047C85.1778 57.75 85.5409 58.0036 85.8489 58.3515C86.7275 59.3445 86.8956 60.9418 86.2575 62.2358C85.7159 63.3342 84.6375 64.2231 83.298 64.6751C82.8308 64.8309 82.3085 64.9218 81.7861 64.9218ZM77.4236 58.067C77.6331 58.067 77.8481 58.1117 78.061 58.2027C78.7894 58.5121 79.4226 59.3528 79.5666 60.2003C79.6314 60.5814 79.6473 60.9652 79.6617 61.3359C79.6879 61.9919 79.7127 62.6121 80.0111 63.0813C80.5589 63.942 81.9102 64.0329 82.9617 63.6794C84.038 63.3163 84.8959 62.621 85.3149 61.7714C85.7697 60.8487 85.6656 59.7283 85.0627 59.0468C84.8367 58.7919 84.5397 58.5845 84.2255 58.3646C83.9871 58.1986 83.741 58.027 83.5102 57.8223C82.9121 57.2952 82.3443 56.3532 82.7136 55.4319C82.9968 54.7257 83.6969 54.3873 84.16 54.1634C87.8114 52.3973 91.582 50.5726 95.1493 48.6115C91.1389 40.7148 87.5289 32.2034 84.4129 23.2958C80.151 24.8214 76.011 26.418 72.8482 27.6507C72.7366 27.6948 72.6139 27.6982 72.4995 27.6617C71.8429 27.4543 71.3646 26.8024 71.2799 26.0024C71.2206 25.4381 71.344 24.9158 71.4639 24.41L71.4949 24.277C71.6685 23.5273 71.8284 22.6474 71.6871 21.8067C71.55 20.9895 71.1179 20.3121 70.5315 19.9958C70.1105 19.7684 69.5517 19.6878 68.8668 19.7567C67.2674 19.9179 65.8121 20.7972 65.0693 22.0513C64.2892 23.3674 64.3589 25.1328 65.2347 26.2491C65.4118 26.4758 65.6226 26.6839 65.8452 26.9051C66.1236 27.1808 66.4116 27.466 66.6555 27.8092C67.0255 28.3294 67.3852 29.1777 67.1813 29.8543C67.0745 30.2085 66.8202 30.4786 66.4653 30.6151C62.2496 32.233 58.1035 34.1452 54.1358 36.3006C55.2907 38.6744 56.3326 41.0731 57.4323 43.6041C57.7872 44.4213 58.1455 45.2454 58.5121 46.0778C59.8406 45.0718 61.626 44.7148 63.1626 45.1917C65.0404 45.7753 66.4144 47.5779 66.4288 49.4777C66.433 50.011 66.3344 50.7855 65.8404 51.4464C65.4056 52.0286 64.7275 52.4441 63.7662 52.7177C63.011 52.9327 62.2441 53.0292 61.4427 53.005C63.1984 55.8495 64.5959 59.033 65.6054 62.4915C66.8877 62.005 68.1763 61.5027 69.4284 61.0148C71.7995 60.0915 74.2505 59.1364 76.6622 58.2854C76.8972 58.14 77.1563 58.067 77.4236 58.067Z" fill="black"/>
</g>
</g>
<g id="Group_60">
<g id="Group_61">
<path id="Vector_52" d="M43.5931 66.3778C44.4662 65.3931 43.9411 63.8717 43.9955 62.5569C44.1154 59.6745 47.7951 57.7224 50.366 59.0296C52.9376 60.3367 53.6604 64.1466 51.9522 66.4715C51.5939 66.9594 51.1343 67.5975 51.4782 68.0957C51.6325 68.3189 51.9054 68.4209 52.1617 68.5105C56.2114 69.9252 60.2611 71.3391 64.3107 72.7538C63.0849 76.339 61.673 79.8616 60.0833 83.3014C58.4792 81.6786 55.789 80.9737 53.8451 82.1686C51.9013 83.3634 51.5402 86.6764 53.4806 87.8768C54.8009 88.694 56.516 88.3282 58.0788 88.446C57.6275 92.5177 56.3354 96.4943 54.0195 99.6833C50.5651 98.1991 47.1108 96.7148 43.6565 95.2306C43.4408 95.1382 43.219 95.0411 43.055 94.8736C42.6415 94.4519 42.7414 93.7325 43.057 93.2337C43.3726 92.7348 43.8557 92.3647 44.2168 91.8982C45.3985 90.3719 44.9368 87.9106 43.3781 86.7722C41.8188 85.6339 39.4794 85.8537 38.0289 87.1278C36.5784 88.4019 36.0388 90.5504 36.5219 92.4199C32.8023 90.3134 28.7664 88.7685 23.9285 87.9802C26.6214 79.5397 29.3135 71.1 31.9279 62.61C35.8576 63.8992 39.7874 65.1892 43.5931 66.3778Z" fill="#ACD4F7"/>
</g>
<g id="Group_62" opacity="0.1294">
<path id="Vector_53" d="M63.6224 72.2674C63.18 72.0717 62.7418 71.865 62.3111 71.6445C61.8425 71.8402 61.4746 72.2695 61.4828 72.8828C61.4298 73.6042 61.181 75.021 60.72 76.5817C60.1302 78.3154 59.9669 78.5015 59.3688 79.9788C59.2378 80.3854 59.1049 80.7906 58.9595 81.1916C58.8782 81.4321 58.7713 81.6836 58.8402 81.9392C58.8843 82.5994 59.6299 83.0693 60.2529 82.8805C61.1859 82.4809 60.9839 82.0026 61.241 81.6622C61.9762 80.3165 62.4847 78.857 62.9636 77.4031C63.2999 76.2241 63.9063 75.1278 64.0903 73.9047C64.1364 73.4478 64.299 72.9613 64.1716 72.5127C63.9855 72.4314 63.8029 72.3474 63.6224 72.2674Z" fill="black"/>
</g>
<g id="Group_63" opacity="0.1294">
<path id="Vector_54" d="M57.4774 87.8817C57.117 87.8906 56.7559 87.8865 56.4024 87.8892C56.3514 87.8892 56.3039 87.8803 56.2577 87.8672C56.0034 88.0381 55.8215 88.3171 55.8257 88.6886C55.7692 89.82 55.7278 89.8917 55.3785 91.2326C54.6591 94.1115 54.4269 94.5174 53.2051 96.7955C53.1769 96.852 53.1465 96.9105 53.1162 96.9705C52.2783 96.5701 51.3522 96.3641 50.4564 96.1174C48.4271 95.5255 46.3606 95.068 44.3326 94.4781C44.13 94.4147 43.9061 94.3086 43.7063 94.4361C43.3672 94.6208 43.4362 95.1727 43.8145 95.2643C44.5601 95.5538 45.6081 95.7674 45.9988 95.9844C48.5959 97.1386 50.2166 97.8725 52.1577 98.5822C52.2108 98.6008 52.2625 98.6229 52.3149 98.6443C52.6277 98.8007 52.9681 98.8841 53.2968 98.9998C53.3002 99.0012 53.3023 99.0026 53.3057 99.0039C53.6337 99.2182 54.0954 99.3402 54.4165 99.0481C54.6777 98.8703 54.7769 98.5333 54.7128 98.2322C54.9733 97.9152 55.1648 97.5218 55.3729 97.1848C56.5843 95.2823 56.9874 93.0325 57.5711 90.8881C57.7123 90.3416 57.7882 89.7807 57.8309 89.2185C57.8378 88.9118 57.9315 88.5776 57.7778 88.2951C57.7096 88.1166 57.6035 87.9816 57.4774 87.8817Z" fill="black"/>
</g>
<g id="Group_64">
<path id="Vector_55" d="M54.0198 100.207C53.9502 100.207 53.8799 100.193 53.813 100.164L43.4501 95.7123C43.2138 95.611 42.9195 95.4849 42.6804 95.2403C42.0485 94.596 42.2029 93.6023 42.6136 92.9526C42.8244 92.619 43.0849 92.3503 43.3371 92.0905C43.5066 91.9162 43.6665 91.7508 43.8022 91.5758C44.2563 90.9894 44.4417 90.2087 44.3239 89.3777C44.1964 88.4805 43.7388 87.6853 43.0684 87.1954C41.7453 86.2286 39.6843 86.3719 38.3751 87.5213C37.1189 88.6252 36.578 90.5401 37.03 92.2876C37.0824 92.4916 37.0087 92.7073 36.8412 92.8354C36.6738 92.9636 36.4457 92.9787 36.2631 92.8761C32.2803 90.6207 28.334 89.2295 23.844 88.4977C23.6931 88.4729 23.5608 88.384 23.4809 88.2538C23.4009 88.1235 23.3816 87.9651 23.4285 87.8197C26.071 79.537 28.8032 70.9726 31.4258 62.4543C31.4672 62.3199 31.5609 62.2076 31.6863 62.1428C31.8117 62.0781 31.9578 62.0657 32.0915 62.1104C35.82 63.3342 39.6719 64.5987 43.3819 65.7611C43.6465 65.2416 43.5865 64.5339 43.5245 63.7918C43.4901 63.379 43.4542 62.9532 43.4715 62.5342C43.5328 61.0637 44.4265 59.6842 45.8639 58.8436C47.3826 57.9547 49.199 57.8458 50.6047 58.561C51.9043 59.2219 52.8642 60.5035 53.2384 62.0781C53.6353 63.7484 53.3135 65.5076 52.377 66.7816C52.182 67.0469 51.7761 67.5996 51.9119 67.7967C51.9746 67.8876 52.193 67.9634 52.337 68.0144L64.4861 72.2577C64.7589 72.3528 64.9029 72.6498 64.8092 72.9227C63.582 76.5113 62.1528 80.0773 60.5611 83.5206C60.4887 83.677 60.3447 83.7879 60.1752 83.8176C60.0064 83.8458 59.8328 83.7914 59.7115 83.6694C58.3726 82.3147 55.9588 81.4857 54.121 82.6144C53.2714 83.1367 52.7215 84.2014 52.7195 85.3273C52.7174 86.2541 53.0964 87.0204 53.7572 87.4297C54.5641 87.9292 55.597 87.9141 56.6865 87.8989C57.1564 87.892 57.6415 87.8851 58.1183 87.921C58.2603 87.932 58.3919 87.9995 58.4829 88.1091C58.5738 88.2186 58.6165 88.3606 58.6007 88.5019C58.1073 92.9526 56.6699 96.9251 54.4442 99.99C54.3443 100.13 54.1844 100.207 54.0198 100.207ZM41.0011 85.5147C41.97 85.5147 42.9229 85.7883 43.6878 86.3464C44.5864 87.0024 45.1969 88.0533 45.3636 89.2295C45.5214 90.3437 45.2617 91.4049 44.6326 92.2173C44.461 92.4385 44.2729 92.6321 44.0909 92.8203C43.8663 93.0518 43.6534 93.2709 43.5011 93.5128C43.2999 93.8311 43.2186 94.2887 43.4308 94.505C43.5252 94.6015 43.6975 94.6752 43.8642 94.7476L53.8371 99.0322C55.7279 96.2932 56.9841 92.8244 57.4899 88.9449C57.2343 88.9401 56.9724 88.9449 56.7009 88.9484C55.5075 88.9663 54.272 88.9828 53.2046 88.322C52.2268 87.717 51.6673 86.6248 51.6693 85.3252C51.6714 83.8437 52.4177 82.4284 53.5705 81.72C55.626 80.4563 58.2162 81.1088 59.9017 82.4367C61.2881 79.3848 62.5449 76.2412 63.6447 73.0756L51.989 69.0046C51.7162 68.9095 51.3048 68.7648 51.0471 68.3927C50.4862 67.5803 51.1394 66.6914 51.5294 66.1601C52.286 65.13 52.5424 63.6946 52.2158 62.3206C51.9133 61.0465 51.1518 60.017 50.1279 59.4968C49.0371 58.9421 47.6073 59.0393 46.3931 59.7497C45.2665 60.4091 44.5657 61.4669 44.5195 62.5783C44.5051 62.9311 44.5361 63.3067 44.5698 63.7043C44.6546 64.7151 44.7511 65.861 43.9855 66.7251C43.8484 66.8795 43.6341 66.9395 43.4363 66.8781C39.7739 65.7343 35.9689 64.4877 32.2713 63.2743C29.7562 71.4315 27.1453 79.6232 24.6116 87.5633C28.582 88.2717 32.2699 89.5458 35.8366 91.4435C35.7208 89.6547 36.4009 87.8576 37.6819 86.7323C38.599 85.9275 39.8118 85.5147 41.0011 85.5147Z" fill="black"/>
</g>
<g id="Group_65">
<path id="Vector_56" d="M43.5931 66.3778C44.4662 65.3931 43.9411 63.8717 43.9955 62.5569C44.1154 59.6745 47.7951 57.7224 50.366 59.0296C52.9376 60.3367 53.6604 64.1466 51.9522 66.4715C51.5939 66.9594 51.1343 67.5975 51.4782 68.0957C51.6325 68.3189 51.9054 68.4209 52.1617 68.5105C56.2114 69.9252 60.2611 71.3391 64.3107 72.7538C63.0849 76.339 61.673 79.8616 60.0833 83.3014C58.4792 81.6786 55.789 80.9737 53.8451 82.1686C51.9013 83.3634 51.5402 86.6764 53.4806 87.8768C54.8009 88.694 56.516 88.3282 58.0788 88.446C57.6275 92.5177 56.3354 96.4943 54.0195 99.6833C50.5651 98.1991 47.1108 96.7148 43.6565 95.2306C43.4408 95.1382 43.219 95.0411 43.055 94.8736C42.6415 94.4519 42.7414 93.7325 43.057 93.2337C43.3726 92.7348 43.8557 92.3647 44.2168 91.8982C45.3985 90.3719 44.9368 87.9106 43.3781 86.7722C41.8188 85.6339 39.4794 85.8537 38.0289 87.1278C36.5784 88.4019 36.0388 90.5504 36.5219 92.4199C32.8023 90.3134 28.7664 88.7685 23.9285 87.9802C26.6214 79.5397 29.3135 71.1 31.9279 62.61C35.8576 63.8992 39.7874 65.1892 43.5931 66.3778Z" fill="#ACD4F7"/>
</g>
<g id="Group_66" opacity="0.1294">
<path id="Vector_57" d="M63.6224 72.2674C63.18 72.0717 62.7418 71.865 62.3111 71.6445C61.8425 71.8402 61.4746 72.2695 61.4828 72.8828C61.4298 73.6042 61.181 75.021 60.72 76.5817C60.1302 78.3154 59.9669 78.5015 59.3688 79.9788C59.2378 80.3854 59.1049 80.7906 58.9595 81.1916C58.8782 81.4321 58.7713 81.6836 58.8402 81.9392C58.8843 82.5994 59.6299 83.0693 60.2529 82.8805C61.1859 82.4809 60.9839 82.0026 61.241 81.6622C61.9762 80.3165 62.4847 78.857 62.9636 77.4031C63.2999 76.2241 63.9063 75.1278 64.0903 73.9047C64.1364 73.4478 64.299 72.9613 64.1716 72.5127C63.9855 72.4314 63.8029 72.3474 63.6224 72.2674Z" fill="black"/>
</g>
<g id="Group_67" opacity="0.1294">
<path id="Vector_58" d="M57.4774 87.8817C57.117 87.8906 56.7559 87.8865 56.4024 87.8892C56.3514 87.8892 56.3039 87.8803 56.2577 87.8672C56.0034 88.0381 55.8215 88.3171 55.8257 88.6886C55.7692 89.82 55.7278 89.8917 55.3785 91.2326C54.6591 94.1115 54.4269 94.5174 53.2051 96.7955C53.1769 96.852 53.1465 96.9105 53.1162 96.9705C52.2783 96.5701 51.3522 96.3641 50.4564 96.1174C48.4271 95.5255 46.3606 95.068 44.3326 94.4781C44.13 94.4147 43.9061 94.3086 43.7063 94.4361C43.3672 94.6208 43.4362 95.1727 43.8145 95.2643C44.5601 95.5538 45.6081 95.7674 45.9988 95.9844C48.5959 97.1386 50.2166 97.8725 52.1577 98.5822C52.2108 98.6008 52.2625 98.6229 52.3149 98.6443C52.6277 98.8007 52.9681 98.8841 53.2968 98.9998C53.3002 99.0012 53.3023 99.0026 53.3057 99.0039C53.6337 99.2182 54.0954 99.3402 54.4165 99.0481C54.6777 98.8703 54.7769 98.5333 54.7128 98.2322C54.9733 97.9152 55.1648 97.5218 55.3729 97.1848C56.5843 95.2823 56.9874 93.0325 57.5711 90.8881C57.7123 90.3416 57.7882 89.7807 57.8309 89.2185C57.8378 88.9118 57.9315 88.5776 57.7778 88.2951C57.7096 88.1166 57.6035 87.9816 57.4774 87.8817Z" fill="black"/>
</g>
<g id="Group_68">
<path id="Vector_59" d="M54.0198 100.207C53.9502 100.207 53.8799 100.193 53.813 100.164L43.4501 95.7123C43.2138 95.611 42.9195 95.4849 42.6804 95.2403C42.0485 94.596 42.2029 93.6023 42.6136 92.9526C42.8244 92.619 43.0849 92.3503 43.3371 92.0905C43.5066 91.9162 43.6665 91.7508 43.8022 91.5758C44.2563 90.9894 44.4417 90.2087 44.3239 89.3777C44.1964 88.4805 43.7388 87.6853 43.0684 87.1954C41.7453 86.2286 39.6843 86.3719 38.3751 87.5213C37.1189 88.6252 36.578 90.5401 37.03 92.2876C37.0824 92.4916 37.0087 92.7073 36.8412 92.8354C36.6738 92.9636 36.4457 92.9787 36.2631 92.8761C32.2803 90.6207 28.334 89.2295 23.844 88.4977C23.6931 88.4729 23.5608 88.384 23.4809 88.2538C23.4009 88.1235 23.3816 87.9651 23.4285 87.8197C26.071 79.537 28.8032 70.9726 31.4258 62.4543C31.4672 62.3199 31.5609 62.2076 31.6863 62.1428C31.8117 62.0781 31.9578 62.0657 32.0915 62.1104C35.82 63.3342 39.6719 64.5987 43.3819 65.7611C43.6465 65.2416 43.5865 64.5339 43.5245 63.7918C43.4901 63.379 43.4542 62.9532 43.4715 62.5342C43.5328 61.0637 44.4265 59.6842 45.8639 58.8436C47.3826 57.9547 49.199 57.8458 50.6047 58.561C51.9043 59.2219 52.8642 60.5035 53.2384 62.0781C53.6353 63.7484 53.3135 65.5076 52.377 66.7816C52.182 67.0469 51.7761 67.5996 51.9119 67.7967C51.9746 67.8876 52.193 67.9634 52.337 68.0144L64.4861 72.2577C64.7589 72.3528 64.9029 72.6498 64.8092 72.9227C63.582 76.5113 62.1528 80.0773 60.5611 83.5206C60.4887 83.677 60.3447 83.7879 60.1752 83.8176C60.0064 83.8458 59.8328 83.7914 59.7115 83.6694C58.3726 82.3147 55.9588 81.4857 54.121 82.6144C53.2714 83.1367 52.7215 84.2014 52.7195 85.3273C52.7174 86.2541 53.0964 87.0204 53.7572 87.4297C54.5641 87.9292 55.597 87.9141 56.6865 87.8989C57.1564 87.892 57.6415 87.8851 58.1183 87.921C58.2603 87.932 58.3919 87.9995 58.4829 88.1091C58.5738 88.2186 58.6165 88.3606 58.6007 88.5019C58.1073 92.9526 56.6699 96.9251 54.4442 99.99C54.3443 100.13 54.1844 100.207 54.0198 100.207ZM41.0011 85.5147C41.97 85.5147 42.9229 85.7883 43.6878 86.3464C44.5864 87.0024 45.1969 88.0533 45.3636 89.2295C45.5214 90.3437 45.2617 91.4049 44.6326 92.2173C44.461 92.4385 44.2729 92.6321 44.0909 92.8203C43.8663 93.0518 43.6534 93.2709 43.5011 93.5128C43.2999 93.8311 43.2186 94.2887 43.4308 94.505C43.5252 94.6015 43.6975 94.6752 43.8642 94.7476L53.8371 99.0322C55.7279 96.2932 56.9841 92.8244 57.4899 88.9449C57.2343 88.9401 56.9724 88.9449 56.7009 88.9484C55.5075 88.9663 54.272 88.9828 53.2046 88.322C52.2268 87.717 51.6673 86.6248 51.6693 85.3252C51.6714 83.8437 52.4177 82.4284 53.5705 81.72C55.626 80.4563 58.2162 81.1088 59.9017 82.4367C61.2881 79.3848 62.5449 76.2412 63.6447 73.0756L51.989 69.0046C51.7162 68.9095 51.3048 68.7648 51.0471 68.3927C50.4862 67.5803 51.1394 66.6914 51.5294 66.1601C52.286 65.13 52.5424 63.6946 52.2158 62.3206C51.9133 61.0465 51.1518 60.017 50.1279 59.4968C49.0371 58.9421 47.6073 59.0393 46.3931 59.7497C45.2665 60.4091 44.5657 61.4669 44.5195 62.5783C44.5051 62.9311 44.5361 63.3067 44.5698 63.7043C44.6546 64.7151 44.7511 65.861 43.9855 66.7251C43.8484 66.8795 43.6341 66.9395 43.4363 66.8781C39.7739 65.7343 35.9689 64.4877 32.2713 63.2743C29.7562 71.4315 27.1453 79.6232 24.6116 87.5633C28.582 88.2717 32.2699 89.5458 35.8366 91.4435C35.7208 89.6547 36.4009 87.8576 37.6819 86.7323C38.599 85.9275 39.8118 85.5147 41.0011 85.5147Z" fill="black"/>
</g>
</g>
<g id="Group_69">
<g id="Group_70">
<path id="Vector_60" d="M19.8511 75.0576C19.7347 75.0576 19.6175 75.019 19.5204 74.9398C14.1973 70.6138 11.0358 63.9367 11.0634 57.0777C11.0641 56.789 11.2991 56.5547 11.5885 56.5547H11.5906C11.88 56.5561 12.1142 56.7917 12.1135 57.0818C12.0874 63.6259 15.1041 69.9971 20.1833 74.1246C20.4079 74.3072 20.4424 74.638 20.2598 74.8633C20.155 74.9915 20.0041 75.0576 19.8511 75.0576Z" fill="black"/>
</g>
<g id="Group_71">
<path id="Vector_61" d="M19.8668 75.3509C19.8302 75.3509 19.793 75.3474 19.7565 75.3392C17.8023 74.9202 15.8667 74.3393 14.0028 73.6116C13.7327 73.5062 13.5997 73.2016 13.7051 72.9315C13.8105 72.6621 14.1144 72.5298 14.3852 72.6339C15.9783 73.2561 17.6259 73.7681 19.2921 74.1595C19.1515 72.6077 18.8242 71.0786 18.3164 69.604C18.222 69.3298 18.3673 69.0314 18.6416 68.937C18.9152 68.8426 19.2142 68.988 19.3086 69.2622C19.924 71.0476 20.2878 72.9102 20.3904 74.7975C20.3994 74.9608 20.3319 75.1186 20.2071 75.2248C20.1121 75.3074 19.9908 75.3509 19.8668 75.3509Z" fill="black"/>
</g>
</g>
<g id="Group_72">
<g id="Group_73">
<path id="Vector_62" d="M73.0693 85.6231C72.8681 85.6231 72.6766 85.5073 72.5898 85.3123C72.4719 85.0477 72.5905 84.737 72.8551 84.6191C79.1215 81.8236 83.9415 75.9265 85.434 69.2294C85.4967 68.9462 85.7772 68.7678 86.0604 68.8311C86.3429 68.8939 86.5214 69.1743 86.4587 69.4575C84.8952 76.4723 79.8463 82.6498 73.2829 85.5776C73.2134 85.6086 73.1403 85.6231 73.0693 85.6231Z" fill="black"/>
</g>
<g id="Group_74">
<path id="Vector_63" d="M86.8875 74.3418C86.5974 74.3411 86.3624 74.1055 86.3631 73.8161C86.3659 72.5475 86.1888 71.2948 85.8367 70.0813C84.8334 70.9199 83.7584 71.6751 82.6304 72.3318C82.381 72.4779 82.0585 72.3932 81.9131 72.1423C81.767 71.8922 81.8518 71.5711 82.1026 71.425C83.3994 70.6698 84.6239 69.7774 85.7423 68.7748C85.8732 68.6577 86.0544 68.6136 86.2226 68.657C86.3928 68.7004 86.5292 68.8251 86.5877 68.9898C87.139 70.5451 87.4167 72.1692 87.4132 73.8182C87.4119 74.1076 87.1776 74.3418 86.8875 74.3418Z" fill="black"/>
</g>
</g>
<g id="Group_75">
<g id="Group_76">
<path id="Vector_64" d="M49.5013 11.4665C49.3324 11.4665 49.1677 11.3859 49.0658 11.2357C48.9031 10.9952 48.9665 10.6693 49.207 10.5066C54.6093 6.85938 61.8873 6.34258 67.7499 9.19464C68.0104 9.32143 68.1186 9.63565 67.9925 9.89612C67.8657 10.1566 67.5515 10.2655 67.291 10.1387C61.7605 7.44923 54.8926 7.93434 49.7955 11.3769C49.7045 11.4369 49.6026 11.4665 49.5013 11.4665Z" fill="black"/>
</g>
<g id="Group_77">
<path id="Vector_65" d="M53.9898 11.7595C53.9733 11.7595 53.9567 11.7588 53.9408 11.7574C52.3863 11.6134 50.807 11.5631 49.2435 11.6086C49.0471 11.6148 48.8548 11.5052 48.7625 11.3261C48.6695 11.1476 48.6874 10.9312 48.808 10.77L51.6497 6.97045C51.8234 6.73823 52.152 6.69068 52.3842 6.86433C52.6165 7.03797 52.664 7.36666 52.4904 7.59887L50.2881 10.5433C51.5381 10.5295 52.7963 10.597 54.038 10.7128C54.3267 10.7397 54.539 10.9953 54.5121 11.284C54.4859 11.5555 54.2578 11.7595 53.9898 11.7595Z" fill="black"/>
</g>
</g>
<g id="Group_78">
<path id="Vector_66" d="M71.3274 4.88789C71.233 4.88789 71.1379 4.86239 71.0525 4.80933C67.3363 2.51817 62.8856 1.25649 58.5189 1.25649C58.5141 1.25649 58.5093 1.25649 58.5038 1.25649H58.5031C58.2137 1.25649 57.9787 1.02152 57.978 0.732109C57.978 0.44201 58.213 0.207031 58.5024 0.207031C58.5079 0.207031 58.5134 0.207031 58.5196 0.207031C63.1433 0.207031 67.6671 1.48939 71.603 3.91629C71.8497 4.06858 71.9262 4.39176 71.7739 4.63844C71.6754 4.79969 71.5038 4.88789 71.3274 4.88789Z" fill="black"/>
</g>
<g id="Group_79">
<path id="Vector_67" d="M76.5112 93.1274C76.3245 93.1274 76.1439 93.0275 76.0495 92.8518C75.9117 92.5968 76.0068 92.2784 76.2618 92.1406C80.0613 90.0879 83.3399 86.8954 85.4919 83.1517C85.6366 82.9002 85.9577 82.8148 86.2085 82.9581C86.46 83.1028 86.5461 83.4232 86.4021 83.6747C84.1213 87.6424 80.7869 90.8893 76.7607 93.064C76.6814 93.1074 76.596 93.1274 76.5112 93.1274Z" fill="black"/>
</g>
<g id="Group_80">
<path id="Vector_68" d="M8.72049 69.339C8.56338 69.339 8.40763 69.2688 8.30496 69.1351C5.48253 65.4761 3.95419 60.9159 4.00105 56.2949C4.00449 56.0069 4.23879 55.7754 4.52613 55.7754C4.52751 55.7754 4.52958 55.7754 4.53164 55.7754C4.82174 55.7781 5.05394 56.0152 5.05118 56.306C5.00639 60.6926 6.45691 65.0207 9.13602 68.4943C9.31311 68.7237 9.27039 69.0531 9.04093 69.2302C8.94515 69.3032 8.83212 69.339 8.72049 69.339Z" fill="black"/>
</g>
</g>
</g>
</svg>
