<svg width="100" height="100" viewBox="0 0 100 100" fill="none" xmlns="http://www.w3.org/2000/svg">
<g id="Container">
<g id="Group">
<g id="Group_2">
<path id="Vector" d="M36.8311 99.0448C36.2494 90.3564 37.8485 81.6249 37.1846 72.9418C37.159 72.6105 37.1328 72.2651 37.2557 71.9565C37.3786 71.6478 37.7029 71.391 38.1368 71.1732C38.0588 70.0795 38.0331 68.9817 38.0611 67.8857C38.0646 67.7506 38.0733 67.6033 38.163 67.5013C38.2498 67.4029 38.3896 67.3738 38.5188 67.3511C38.8933 67.2841 39.2684 67.2171 39.6428 67.1502C39.6568 64.7933 39.7634 62.4365 40.0062 59.9375C40.1064 58.364 40.2066 56.791 40.3067 55.2174C40.3929 53.8652 40.4791 52.5112 40.4739 51.156C40.4663 49.1113 40.2526 47.0427 40.6509 45.0365C40.8012 44.2811 41.0504 43.5182 41.5891 42.7594C43.183 42.5888 44.7112 41.8602 45.848 40.7298C48.3778 38.2134 48.6713 34.2504 50.4027 31.1301C51.0165 30.0241 51.8161 29.0225 52.7583 28.1786C53.1014 27.8717 53.4764 27.5782 53.9196 27.4547C54.3628 27.3307 54.891 27.4122 55.1915 27.7605C55.5683 28.1973 55.471 28.8536 55.3621 29.4197C54.7937 32.3717 54.4897 35.375 54.6575 38.4638C58.4266 36.6993 62.3284 35.2189 66.2984 33.6378C65.7527 31.8837 65.1057 30.1604 64.3621 28.4809C63.7785 27.163 63.128 25.8457 62.9242 24.4188C62.9102 24.3187 62.8986 24.2133 62.937 24.1201C62.9964 23.9751 63.1589 23.9005 63.3132 23.8726C63.7966 23.7858 64.2904 24.0391 64.6212 24.402C64.952 24.7648 65.15 25.226 65.3428 25.6779C66.1534 27.5817 66.9635 29.4855 67.7741 31.3886C68.0455 32.0263 68.321 32.6798 68.3606 33.3716C68.4101 34.2306 68.0921 35.0634 67.695 35.9655C65.9647 38.6374 63.3307 40.5656 60.8335 42.5398C58.3363 44.5141 55.8403 46.6985 54.5771 49.6203C54.1426 50.6255 53.8672 51.6912 53.6313 52.7604C52.5539 57.6459 52.275 62.7061 52.9395 67.7948C53.3291 67.7972 53.7187 67.7989 54.1089 67.8013C54.1263 69.0732 54.0535 70.3462 53.8928 71.6076C54.1257 71.628 54.3587 71.6484 54.5916 71.6688C53.0565 80.7753 55.2427 90.0926 54.9376 99.7582C50.3025 100.025 45.6546 100.072 41.0155 99.8985C39.6195 99.8479 38.1939 99.7687 36.8311 99.0448Z" fill="white"/>
</g>
<g id="Group_3">
<path id="Vector_2" d="M39.2134 78.7515C39.1872 78.7515 39.161 78.7445 39.1371 78.7305C39.0673 78.6886 39.0445 78.5978 39.0865 78.5273L42.763 72.4054C42.8049 72.3355 42.8963 72.3134 42.9662 72.3548C43.0361 72.3967 43.0588 72.4875 43.0169 72.558L39.3404 78.6799C39.3124 78.7259 39.2635 78.7515 39.2134 78.7515Z" fill="black"/>
</g>
<g id="Group_4">
<path id="Vector_3" d="M38.2568 84.7799C38.2295 84.7799 38.2027 84.7729 38.1782 84.7572C38.1095 84.7135 38.0885 84.6221 38.1322 84.5533L45.4939 72.8914C45.5376 72.8215 45.6296 72.8017 45.6978 72.8454C45.7665 72.8891 45.7875 72.9805 45.7438 73.0492L38.3821 84.7112C38.3541 84.7554 38.3058 84.7799 38.2568 84.7799Z" fill="black"/>
</g>
<g id="Group_5">
<path id="Vector_4" d="M38.7722 89.9155C38.7448 89.9155 38.7175 89.908 38.693 89.8928C38.6237 89.8492 38.6033 89.7577 38.647 89.6884L49.0557 73.2382C49.0999 73.1695 49.1914 73.1497 49.2601 73.1922C49.3288 73.2359 49.3498 73.3274 49.3061 73.3967L38.8974 89.8468C38.8689 89.8911 38.8211 89.9155 38.7722 89.9155Z" fill="black"/>
</g>
<g id="Group_6">
<path id="Vector_5" d="M38.8374 75.2028C38.8112 75.2028 38.7844 75.1958 38.7606 75.1813C38.6907 75.1387 38.6686 75.0479 38.7111 74.978L39.8298 73.1395C39.8723 73.0696 39.9631 73.0475 40.0325 73.09C40.1023 73.1325 40.1245 73.2233 40.082 73.2932L38.9632 75.1318C38.9359 75.1778 38.8869 75.2028 38.8374 75.2028Z" fill="black"/>
</g>
<g id="Group_7">
<path id="Vector_6" d="M38.8601 96.2064C38.831 96.2064 38.8019 96.1982 38.7762 96.1802C38.7087 96.1341 38.6918 96.0421 38.7378 95.9746C43.6431 88.8248 48.1139 81.275 52.0257 73.5359C52.0624 73.4631 52.1515 73.4346 52.2243 73.4707C52.2971 73.5074 52.3268 73.5965 52.2895 73.6693C48.3719 81.42 43.8941 88.9809 38.9812 96.1417C38.9533 96.1837 38.9072 96.2064 38.8601 96.2064Z" fill="black"/>
</g>
<g id="Group_8">
<path id="Vector_7" d="M40.6671 99.5177C40.638 99.5177 40.6089 99.5096 40.5833 99.4915C40.5163 99.4449 40.4994 99.3529 40.5454 99.2854C44.8427 93.0534 48.836 86.5111 52.4147 79.8401C52.4531 79.7679 52.5434 79.7405 52.615 79.7795C52.6872 79.8179 52.714 79.9076 52.6756 79.9798C49.0917 86.6608 45.0926 93.2124 40.7894 99.4537C40.7597 99.4956 40.7137 99.5177 40.6671 99.5177Z" fill="black"/>
</g>
<g id="Group_9">
<path id="Vector_8" d="M44.2599 98.7398C44.2326 98.7398 44.2052 98.7322 44.1807 98.7165C44.112 98.6728 44.0916 98.5814 44.1353 98.5121L52.3321 85.6231C52.3764 85.5544 52.4684 85.534 52.5366 85.5777C52.6053 85.6214 52.6257 85.7128 52.582 85.7821L44.3851 98.6711C44.3566 98.7159 44.3088 98.7398 44.2599 98.7398Z" fill="black"/>
</g>
<g id="Group_10">
<path id="Vector_9" d="M47.25 99.2182C47.2208 99.2182 47.1917 99.21 47.1667 99.1925C47.0997 99.1465 47.0823 99.0545 47.1283 98.987L52.3579 91.3393C52.4045 91.2723 52.4965 91.2554 52.5635 91.3009C52.6305 91.3469 52.6479 91.4389 52.6019 91.5064L47.3723 99.1541C47.3437 99.196 47.2971 99.2182 47.25 99.2182Z" fill="black"/>
</g>
<g id="Group_11">
<path id="Vector_10" d="M50.4427 99.2699C50.4142 99.2699 50.3851 99.2618 50.36 99.2443C50.2925 99.1989 50.2744 99.1069 50.3204 99.0387L52.3814 95.9906C52.4274 95.9231 52.5195 95.9056 52.5864 95.951C52.654 95.9964 52.672 96.0891 52.626 96.1566L50.5644 99.2047C50.5365 99.2472 50.4899 99.2699 50.4427 99.2699Z" fill="black"/>
</g>
<g id="Group_12">
<path id="Vector_11" d="M23.8962 25.6504C23.5118 20.8657 22.6907 16.1165 21.583 11.4732C26.2781 9.73078 31.0319 8.1479 35.893 6.75138C35.7899 8.56895 35.9582 10.475 36.8923 12.0375C37.8264 13.6006 39.6807 14.7176 41.4616 14.3385C43.3456 13.9372 44.6104 11.9356 44.5703 10.0097C44.5301 8.08384 43.4119 6.30703 41.8896 4.92914C46.7606 3.91466 51.5383 2.45291 56.1146 0.601562C56.9421 5.37408 58.1459 10.0814 59.6117 14.6565C61.463 14.7065 62.8974 13.0654 63.8042 11.4505C64.0237 11.0592 64.2357 10.6533 64.5636 10.3469C65.5222 9.45182 67.1371 9.74825 68.1655 10.5624C69.9511 11.9764 70.4548 14.7083 69.4427 16.7489C68.4305 18.7895 66.0865 20.0282 63.8129 19.8978C63.5846 19.885 63.3499 19.8599 63.1327 19.9327C62.965 19.9886 62.82 20.0999 62.7006 20.2309C61.9854 21.0159 62.2632 22.25 62.5841 23.2627C62.9539 24.4286 63.3231 25.5945 63.6236 26.6474C64.5473 29.0899 65.4709 31.5323 66.1558 34.0523C62.12 35.3463 58.154 36.8599 54.2335 38.4864C54.5695 35.2816 54.9056 32.0774 55.2422 28.8727C55.2818 28.4959 55.3185 28.0987 55.1647 27.7522C54.877 27.1046 54 26.8961 53.3332 27.1378C52.667 27.3795 52.1766 27.9467 51.7585 28.5192C50.3014 30.5138 49.3434 32.824 48.4879 35.1413C47.6242 37.4807 46.7833 39.9592 44.8539 41.6696C40.0214 43.0813 35.1895 44.493 30.4333 45.9093C29.615 42.0307 27.543 38.1498 26.9379 34.3067C27.1988 33.5514 28.3443 33.5951 29.0437 33.209C30.5381 32.3844 31.7552 31.0525 32.4395 29.4882C33.1232 27.9246 32.9491 25.9084 31.7017 24.7437C30.6173 23.7309 28.968 23.5434 27.5144 23.8416C26.1488 24.1199 24.8664 24.7833 23.8962 25.6504Z" fill="#ACD4F7"/>
</g>
<g id="Group_13" opacity="0.1294">
<path id="Vector_12" d="M54.7472 97.6341C54.6931 95.3192 54.8451 92.995 54.6092 90.6853C54.4846 88.6848 54.4392 88.0122 54.2446 86.5528C54.1852 85.7328 54.2359 84.9047 54.1526 84.0847C53.9645 81.8991 53.8265 79.6936 54.0711 77.5063C54.4293 75.2059 54.1713 75.0324 54.7024 72.9294C54.8986 72.5899 55.0599 72.2172 54.9301 71.8183C54.8218 71.3698 54.4636 71.0857 54.0589 70.9901C54.1456 70.4322 54.0088 70.5242 54.0233 70.0246C54.0035 69.4323 54.1771 68.8022 54.0443 68.2268C53.9272 67.9112 53.6186 67.8087 53.3455 67.8692C53.3216 67.8587 53.2954 67.8547 53.2703 67.8483C53.0589 67.5245 52.5296 67.5076 52.3636 67.9356C52.1446 68.3625 52.2092 68.8453 52.1388 69.3059C52.1003 69.9605 51.9414 70.6564 52.0776 71.3C52.1149 71.4007 52.1743 71.4764 52.2454 71.5323C52.3321 71.6814 52.4527 71.788 52.5913 71.8538C52.3834 72.3826 52.3403 72.965 52.3053 73.5298C52.2657 74.4669 52.2803 75.4132 52.3828 76.3456C52.3694 76.2594 52.3426 76.0026 52.3502 76.175C52.3712 76.8721 52.3601 77.5697 52.3979 78.2663C52.4207 79.707 52.3811 81.1472 52.4003 82.5869C52.4119 83.8331 52.4981 85.0747 52.582 86.3175C52.5395 87.5352 52.4975 88.7541 52.5936 89.9707C52.8108 93.1551 52.7334 97.3429 53.0729 98.51C53.0758 98.5327 53.0793 98.5566 53.0828 98.581C52.7788 99.3381 53.5598 100.321 54.4945 99.8168C55.0384 99.5169 55.0984 98.7866 54.7653 98.3399C54.7461 98.1052 54.7466 97.8705 54.7472 97.6341Z" fill="black"/>
</g>
<g id="Group_14" opacity="0.1294">
<path id="Vector_13" d="M68.511 32.8047C68.511 33.3475 68.4132 33.8733 68.2402 34.3777C68.3992 34.0469 68.5314 33.7283 68.5611 33.2112C68.5454 32.9887 68.5809 32.9381 68.511 32.8047Z" fill="black"/>
</g>
<g id="Group_15" opacity="0.1294">
<path id="Vector_14" d="M53.0137 49.2645C52.6387 49.7577 52.2957 50.2702 51.9765 50.7944C51.8898 51.0413 51.8036 51.2888 51.715 51.5357C51.3505 52.5601 51.1857 53.6707 50.8252 55.2116C50.5771 57.0869 50.5206 58.9825 50.5136 60.8717C50.4961 62.0515 50.509 63.2565 50.4915 64.8743C50.5142 65.7548 50.3983 66.6785 50.5922 67.5363C50.8951 68.3353 52.1547 68.0907 52.1384 67.2247C52.0109 65.7484 52.0808 64.2634 51.9602 62.7865C51.9958 61.5653 52.072 60.8029 52.1262 59.2853C52.1268 59.2585 52.1279 59.2346 52.1285 59.2084C52.3656 59.1385 52.5624 58.9394 52.5711 58.6039C52.6573 56.5697 53.3742 54.603 53.6019 52.2334C53.6159 52.0045 53.6468 51.75 53.5454 51.5444C54.0445 50.2056 54.5774 49.1381 55.5406 47.596C55.7229 47.3071 55.8784 47.0025 56.0479 46.7055C56.5074 46.1727 57.0088 45.6777 57.5073 45.1809C57.5399 45.1518 57.5714 45.1215 57.6034 45.0918C55.858 46.2239 54.2879 47.5878 53.0137 49.2645Z" fill="black"/>
</g>
<g id="Group_16" opacity="0.1294">
<path id="Vector_15" d="M64.8438 39.1981C65.0604 39.0047 65.2724 38.8027 65.4768 38.5907C65.7395 38.2873 65.994 37.9547 66.217 37.6426C65.8367 38.0834 65.4314 38.5027 64.9946 38.9011C64.8025 39.0764 64.6056 39.2458 64.4082 39.4153C64.5532 39.3431 64.6982 39.2703 64.8438 39.1981Z" fill="black"/>
</g>
<g id="Group_17" opacity="0.1294">
<path id="Vector_16" d="M65.3045 34.3068C65.3167 34.2946 65.3336 34.2824 65.3441 34.2696C65.3924 34.191 65.4111 34.103 65.4087 34.0157C65.3878 34.032 65.3651 34.0465 65.3388 34.0582C64.6977 34.3406 63.9982 34.495 63.3279 34.6959C62.671 34.8927 62.0153 35.0948 61.3618 35.3027C60.0335 35.7261 58.7214 36.1873 57.4157 36.6765C57.3721 36.6928 57.3307 36.7015 57.2905 36.7056C57.2899 36.7138 57.2888 36.7219 57.2882 36.7301C57.2888 36.7353 57.2911 36.7388 57.2911 36.7435C57.2928 36.7773 57.2864 36.8087 57.2777 36.8384C57.28 36.8588 57.2818 36.8792 57.2841 36.899C57.2847 36.903 57.2853 36.9065 57.2853 36.91C57.2858 36.9129 57.2859 36.9135 57.2864 36.917C57.287 36.9199 57.287 36.9223 57.287 36.9246C57.2882 36.9322 57.2888 36.9403 57.2899 36.9479C57.2894 36.9415 57.2888 36.938 57.2876 36.9333C57.301 37.0352 57.2963 37.1232 57.2468 37.2164C57.2334 37.242 57.2101 37.2595 57.1909 37.2798C57.1962 37.4353 57.1135 37.5815 56.9656 37.6438C56.7804 37.7219 56.6045 37.6432 56.4927 37.4889C56.269 37.1808 56.3197 36.7307 56.3238 36.3696C56.3255 36.1768 56.3389 35.9852 56.357 35.7936C56.3494 35.7465 56.3418 35.6999 56.3325 35.6527C56.3255 35.6183 56.329 35.5863 56.329 35.5537C56.2399 35.2538 56.106 34.6941 56.092 34.3569C56.0908 34.2655 56.0722 34.1863 56.0442 34.1158C56.046 33.94 56.0472 33.7641 56.0501 33.5882C56.1316 32.3274 56.3459 31.0665 56.2114 29.8005C56.1689 29.3387 56.1095 28.878 56.0914 28.4139C56.0437 28.1652 56.0809 27.867 55.919 27.6603C55.5917 27.1979 54.8335 27.5793 54.9942 28.1209C55.1317 29.1127 55.0076 31.0968 54.7799 32.0793C54.6221 33.1689 54.2086 34.2218 54.1574 35.3225C54.1527 35.8431 54.1166 36.3649 54.1486 36.885C54.1568 37.1715 54.2092 37.4703 54.4282 37.6753C54.8649 38.1423 55.6436 37.9368 55.8952 37.4161C56.0734 37.4505 56.2609 37.4534 56.4496 37.4423C55.6727 37.7737 54.8609 38.1528 54.0543 38.6269C54.0508 39.1766 54.0467 39.7264 54.0321 40.2761C54.0298 40.367 54.024 40.4578 54.0205 40.5493C54.3105 40.7164 54.6838 40.7478 55.0775 40.533C57.3895 38.96 59.9752 37.8471 62.4625 36.5886C63.1783 36.2042 63.9167 35.8594 64.3069 35.7115C64.6546 35.5304 65.1117 35.4722 65.372 35.167C65.612 34.8811 65.5264 34.5247 65.3045 34.3068Z" fill="black"/>
</g>
<g id="Group_18" opacity="0.1294">
<path id="Vector_17" d="M69.8956 11.8648C69.5595 11.6587 69.0913 11.8538 68.9911 12.2329C68.9376 12.4029 68.9958 12.5695 69.0243 12.7384C69.054 13.0208 69.0325 13.3056 69.0045 13.5875C68.9812 13.7936 68.9556 14.0941 68.7902 14.6287C68.7774 14.6631 68.764 14.6963 68.7506 14.7301C68.7495 14.733 68.7489 14.7347 68.7471 14.7382C68.587 15.0888 68.3878 15.4213 68.1613 15.7335C68.0396 15.8983 67.9825 15.9699 68.1421 15.7638C67.4106 16.7818 66.6611 17.5464 65.1149 18.2423C64.4265 18.5295 63.6281 18.5743 62.977 18.9307C62.3416 19.3785 62.8658 20.4239 63.6101 20.2014C64.5599 19.9481 65.5429 19.7926 66.4182 19.3209C68.0844 18.4508 69.5671 17.0118 70.0336 15.1447C70.2164 14.401 70.6031 12.347 69.8956 11.8648Z" fill="black"/>
</g>
<g id="Group_19">
<path id="Vector_18" d="M39.5258 67.8018C39.2806 67.8018 39.082 67.6032 39.082 67.358C39.082 65.0839 39.2946 62.7591 39.52 60.298C39.7774 57.4886 40.0429 54.5832 40.0587 51.2567C40.0604 50.8438 40.0383 50.2323 40.0121 49.5236C39.9463 47.7421 39.8653 45.5262 40.0942 44.4651C40.4762 42.697 41.5291 42.4321 42.5465 42.1752C43.2116 42.0075 43.9 41.834 44.6122 41.2691C46.2504 39.971 47.3354 37.1546 48.3842 34.4315C49.3853 31.8324 50.3311 29.3777 51.7771 27.9159C52.4381 27.2479 53.3291 26.5113 54.3605 26.7576C54.8508 26.8735 55.2171 27.128 55.4483 27.5118C55.9026 28.2653 55.7122 29.32 55.4961 30.154C55.0145 32.0123 54.9429 34.0052 54.8741 35.9322C54.8206 37.4301 54.7705 38.8447 54.534 40.1387C54.4903 40.3798 54.2562 40.5382 54.0181 40.4951C53.7769 40.4514 53.6174 40.2202 53.6616 39.9791C53.8859 38.7492 53.9359 37.3654 53.9878 35.9008C54.0582 33.926 54.1316 31.8836 54.6371 29.9315C54.8869 28.9683 54.9038 28.3265 54.6884 27.9695C54.5818 27.7925 54.4123 27.6812 54.1555 27.6207C53.5545 27.4757 52.9051 28.0371 52.4084 28.5396C51.0928 29.8698 50.1371 32.3507 49.2123 34.75C48.1204 37.5838 46.9912 40.5149 45.1637 41.9638C44.3018 42.6469 43.4492 42.8624 42.7638 43.0348C41.7726 43.2846 41.2269 43.4221 40.9613 44.6515C40.7558 45.6036 40.8384 47.8498 40.8984 49.4898C40.9246 50.2078 40.9474 50.8281 40.9456 51.2596C40.9299 54.6251 40.662 57.5498 40.4028 60.3778C40.1798 62.8179 39.9684 65.1229 39.9684 67.3569C39.9696 67.6026 39.771 67.8018 39.5258 67.8018Z" fill="black"/>
</g>
<g id="Group_20">
<path id="Vector_19" d="M30.6355 46.2339C30.4532 46.2339 30.2861 46.1215 30.2203 45.9456C28.599 41.6052 27.4284 37.9514 26.425 34.0985C26.365 33.8696 26.496 33.6343 26.7214 33.5638C28.2321 33.0898 30.112 32.4993 31.2132 31.1557C31.5883 30.698 31.8835 30.1418 32.0914 29.503C32.5981 27.9457 32.3611 25.8725 30.9285 24.9232C30.5208 24.653 29.9972 24.4655 29.3718 24.3659C27.5303 24.0701 25.4676 24.7305 24.2388 26.007C24.1182 26.1317 23.9365 26.1747 23.7735 26.1183C23.6098 26.0612 23.4939 25.9138 23.4776 25.7415C23.0164 20.9439 22.1877 16.218 21.0142 11.6953C20.9571 11.4746 21.0765 11.2463 21.2908 11.1677C26.5951 9.21791 31.2156 7.69443 35.8303 6.3742C35.9828 6.33111 36.1459 6.37129 36.2595 6.48077C36.373 6.59026 36.4208 6.75216 36.3835 6.90532C35.765 9.45377 37.1196 12.3656 39.4677 13.5338C40.3873 13.9916 41.2905 14.0778 41.9457 13.7709C42.3068 13.6014 42.6498 13.291 42.9637 12.8484C43.7505 11.7396 44.0492 10.2522 43.7633 8.86907C43.4307 7.2629 42.3906 5.9945 41.5765 5.21296C41.4588 5.09998 41.4128 4.93167 41.4565 4.77443C41.5002 4.61719 41.6266 4.49664 41.7856 4.45995C46.4923 3.3884 51.3603 2.28015 55.9895 0.0438493C56.1142 -0.0161347 56.2603 -0.0143876 56.3832 0.0479258C56.5067 0.110822 56.594 0.227295 56.6185 0.36357C56.9982 2.44787 58.3423 9.54054 59.8512 14.1657C60.0725 14.2601 60.3113 14.27 60.5769 14.1972C61.2035 14.0254 61.9047 13.3912 62.321 12.6189C62.4305 12.4163 62.5359 12.2055 62.6425 11.9935C63.1742 10.933 63.777 9.73039 64.9994 9.29303C65.5777 9.08629 66.2672 9.08047 66.994 9.27615C69.5762 9.97091 71.2866 12.9387 70.6542 15.6275C70.0479 18.2039 67.517 20.1437 64.7647 20.1437C64.6616 20.1426 64.5608 20.1414 64.4584 20.1391C64.0128 20.1286 63.5941 20.1193 63.2919 20.3021C62.639 20.6964 62.7508 21.8116 62.9593 22.6776C63.5493 25.1282 64.2778 26.9644 65.0483 28.9078C65.6196 30.348 66.2101 31.8365 66.8129 33.7188C66.8828 33.9371 66.7744 34.1736 66.563 34.2627C65.276 34.8066 63.6139 35.4158 61.8546 36.0616C59.3178 36.9917 56.6954 37.9532 54.8586 38.8395C54.6379 38.9461 54.3729 38.8535 54.2663 38.6334C54.1597 38.4126 54.2523 38.1477 54.4725 38.0411C56.3483 37.1355 58.9917 36.1665 61.5488 35.2288C63.13 34.6494 64.6325 34.0985 65.8421 33.6023C65.2911 31.928 64.749 30.5606 64.2231 29.2351C63.4404 27.2614 62.7008 25.3973 62.0963 22.8855C61.5931 20.7948 62.2186 19.9137 62.8324 19.5427C63.3554 19.2271 63.9517 19.2405 64.4776 19.2521C64.5737 19.2545 64.6604 19.2603 64.7635 19.2568C67.0773 19.2568 69.2839 17.5755 69.7899 15.4248C70.3082 13.2211 68.8651 10.6989 66.7622 10.1334C66.3778 10.0303 65.8106 9.94529 65.2964 10.1293C64.4088 10.4467 63.9354 11.3919 63.434 12.3924C63.3233 12.6125 63.2138 12.8315 63.1003 13.0417C62.6955 13.7918 61.8528 14.769 60.8092 15.0544C60.2571 15.2052 59.7202 15.1371 59.256 14.8576C59.1652 14.8028 59.0971 14.7172 59.0639 14.6171C57.6318 10.297 56.3419 3.7384 55.8492 1.09211C51.5437 3.08847 47.0863 4.16003 42.7476 5.15123C43.521 6.01779 44.327 7.22155 44.631 8.68912C44.9665 10.3093 44.613 12.0564 43.6864 13.362C43.2823 13.931 42.8233 14.3387 42.3213 14.5745C41.0861 15.1534 39.7548 14.6689 39.0717 14.3288C36.5897 13.0936 35.0714 10.1672 35.3906 7.42479C31.1317 8.66175 26.8385 10.0821 21.9722 11.8636C23.0356 16.0415 23.8084 20.386 24.2732 24.7969C25.7034 23.7177 27.7016 23.2018 29.511 23.4906C30.2622 23.6106 30.9034 23.8441 31.4176 24.1848C33.2195 25.3781 33.5439 27.9021 32.9341 29.7779C32.6919 30.5221 32.343 31.1755 31.8981 31.7183C30.7328 33.141 28.9333 33.7921 27.3894 34.2837C28.334 37.8547 29.4341 41.2826 30.9215 45.2898C33.58 44.8024 36.2601 43.9533 38.8551 43.1304C39.5464 42.9114 40.7338 42.4927 41.8817 42.088C43.04 41.6797 44.2385 41.2575 44.9414 41.0351C45.1749 40.9599 45.4242 41.0904 45.4982 41.3239C45.5727 41.5574 45.4428 41.8067 45.2093 41.8807C44.5198 42.099 43.3282 42.5189 42.1763 42.9248C41.0221 43.3319 39.8282 43.7524 39.127 43.9749C36.3812 44.8449 33.5468 45.7441 30.7095 46.2286C30.685 46.2315 30.66 46.2339 30.6355 46.2339Z" fill="black"/>
</g>
<g id="Group_21">
<path id="Vector_20" d="M52.5727 68.0506C52.3491 68.0506 52.1569 67.8823 52.1324 67.6552C51.5285 62.0918 52.3269 54.461 53.9902 49.9057C55.3535 46.171 58.7901 43.548 61.8225 41.2342C64.3866 39.2775 66.8081 37.4291 67.4551 35.2964C68.1534 32.9943 68.1103 32.9052 67.0096 30.6223C66.4902 29.5444 65.7051 27.9155 64.6848 25.36C64.4921 24.8773 64.3057 24.4376 64.142 24.3601C63.9807 24.2832 63.5131 24.4096 63.007 24.5569C62.7717 24.6251 62.5254 24.4911 62.4567 24.2559C62.3879 24.0206 62.5225 23.7742 62.7577 23.7055C64.4676 23.2053 64.8537 23.391 65.5077 25.0304C66.5169 27.5573 67.263 29.1064 67.8086 30.2368C68.9547 32.6152 69.1021 32.9204 68.3036 35.5538C67.5739 37.9602 65.0412 39.8931 62.36 41.9395C59.4249 44.1799 56.0978 46.719 54.8236 50.2103C53.2005 54.6549 52.4224 62.1139 53.0141 67.5597C53.0409 67.8037 52.8645 68.022 52.621 68.0483C52.6047 68.05 52.5884 68.0506 52.5727 68.0506Z" fill="black"/>
</g>
<g id="Group_22">
<path id="Vector_21" d="M36.9025 99.5496C36.8972 99.5496 36.8914 99.5496 36.8862 99.549C36.641 99.5403 36.45 99.3341 36.4593 99.0895C36.7936 89.9848 36.9106 80.7473 36.8093 71.6326C36.807 71.4183 36.9584 71.2331 37.1686 71.1923C40.6058 70.5278 43.973 70.7026 47.2285 70.8709C49.6686 70.9972 52.1087 71.123 54.5256 71.2447C54.6479 71.2506 54.762 71.3076 54.8412 71.4008C54.9204 71.494 54.9577 71.6157 54.9437 71.738C54.4714 75.9118 54.6292 80.187 54.7818 84.3218L55.3246 99.036C55.3333 99.2811 55.1423 99.4867 54.8977 99.4955C54.642 99.5048 54.4475 99.3132 54.4382 99.0686L53.8954 84.3545C53.7475 80.3408 53.5943 76.1955 54.0119 72.1072C51.7482 71.9937 49.4648 71.8754 47.1825 71.7572C44.0959 71.5982 40.908 71.4334 37.6998 71.9972C37.7941 81.0047 37.6747 90.1281 37.3451 99.1227C37.3369 99.3615 37.1401 99.5496 36.9025 99.5496Z" fill="black"/>
</g>
<g id="Group_23">
<path id="Vector_22" d="M37.9 71.8413C37.8959 71.8413 37.8918 71.8413 37.8877 71.8407C37.6426 71.8343 37.4498 71.6305 37.4562 71.3859L37.5593 67.5551C37.5651 67.321 37.7526 67.1323 37.9862 67.1235C43.362 66.9249 48.8048 67.0612 54.1656 67.5306C54.395 67.5504 54.5709 67.7432 54.5703 67.9738C54.5674 69.1333 54.4864 70.3039 54.3309 71.4517C54.2983 71.6945 54.0753 71.8663 53.8318 71.832C53.589 71.7988 53.4189 71.5757 53.4516 71.3329C53.5838 70.3574 53.6595 69.3662 53.6781 68.3791C48.6243 67.9534 43.4995 67.8241 38.434 67.9953L38.3414 71.4092C38.3367 71.6503 38.1393 71.8413 37.9 71.8413Z" fill="black"/>
</g>
<g id="Group_24">
<path id="Vector_23" d="M69.1055 43.0126C69.0164 43.0126 68.9261 42.9858 68.8481 42.9299C68.6484 42.7878 68.6023 42.5106 68.745 42.3114C71.3814 38.6181 72.987 34.2765 73.3888 29.7556C73.4104 29.511 73.6288 29.3328 73.8699 29.3531C74.1139 29.3747 74.2938 29.5902 74.2723 29.8342C73.8565 34.5118 72.1944 39.0048 69.4666 42.8268C69.3798 42.948 69.2435 43.0126 69.1055 43.0126Z" fill="black"/>
</g>
<g id="Group_25">
<path id="Vector_24" d="M73.8501 45.3105C73.7768 45.3105 73.7022 45.2925 73.6341 45.254C73.4204 45.1347 73.3441 44.8644 73.464 44.6507L77.3863 37.6431C77.5057 37.4293 77.7765 37.353 77.9896 37.4724C78.2034 37.5918 78.2796 37.862 78.1603 38.0758L74.238 45.0834C74.1565 45.229 74.0056 45.3105 73.8501 45.3105Z" fill="black"/>
</g>
<g id="Group_26">
<path id="Vector_25" d="M39.2134 78.7515C39.1872 78.7515 39.161 78.7445 39.1371 78.7305C39.0673 78.6886 39.0445 78.5978 39.0865 78.5273L42.763 72.4054C42.8049 72.3355 42.8963 72.3134 42.9662 72.3548C43.0361 72.3967 43.0588 72.4875 43.0169 72.558L39.3404 78.6799C39.3124 78.7259 39.2635 78.7515 39.2134 78.7515Z" fill="black"/>
</g>
<g id="Group_27">
<path id="Vector_26" d="M38.2568 84.7799C38.2295 84.7799 38.2027 84.7729 38.1782 84.7572C38.1095 84.7135 38.0885 84.6221 38.1322 84.5533L45.4939 72.8914C45.5376 72.8215 45.6296 72.8017 45.6978 72.8454C45.7665 72.8891 45.7875 72.9805 45.7438 73.0492L38.3821 84.7112C38.3541 84.7554 38.3058 84.7799 38.2568 84.7799Z" fill="black"/>
</g>
<g id="Group_28">
<path id="Vector_27" d="M38.7722 89.9155C38.7448 89.9155 38.7175 89.908 38.693 89.8928C38.6237 89.8492 38.6033 89.7577 38.647 89.6884L49.0557 73.2382C49.0999 73.1695 49.1914 73.1497 49.2601 73.1922C49.3288 73.2359 49.3498 73.3274 49.3061 73.3967L38.8974 89.8468C38.8689 89.8911 38.8211 89.9155 38.7722 89.9155Z" fill="black"/>
</g>
<g id="Group_29">
<path id="Vector_28" d="M38.8374 75.2028C38.8112 75.2028 38.7844 75.1958 38.7606 75.1813C38.6907 75.1387 38.6686 75.0479 38.7111 74.978L39.8298 73.1395C39.8723 73.0696 39.9631 73.0475 40.0325 73.09C40.1023 73.1325 40.1245 73.2233 40.082 73.2932L38.9632 75.1318C38.9359 75.1778 38.8869 75.2028 38.8374 75.2028Z" fill="black"/>
</g>
<g id="Group_30">
<path id="Vector_29" d="M38.8601 96.2064C38.831 96.2064 38.8019 96.1982 38.7762 96.1802C38.7087 96.1341 38.6918 96.0421 38.7378 95.9746C43.6431 88.8248 48.1139 81.275 52.0257 73.5359C52.0624 73.4631 52.1515 73.4346 52.2243 73.4707C52.2971 73.5074 52.3268 73.5965 52.2895 73.6693C48.3719 81.42 43.8941 88.9809 38.9812 96.1417C38.9533 96.1837 38.9072 96.2064 38.8601 96.2064Z" fill="black"/>
</g>
<g id="Group_31">
<path id="Vector_30" d="M40.6671 99.5177C40.638 99.5177 40.6089 99.5096 40.5833 99.4915C40.5163 99.4449 40.4994 99.3529 40.5454 99.2854C44.8427 93.0534 48.836 86.5111 52.4147 79.8401C52.4531 79.7679 52.5434 79.7405 52.615 79.7795C52.6872 79.8179 52.714 79.9076 52.6756 79.9798C49.0917 86.6608 45.0926 93.2124 40.7894 99.4537C40.7597 99.4956 40.7137 99.5177 40.6671 99.5177Z" fill="black"/>
</g>
<g id="Group_32">
<path id="Vector_31" d="M44.2599 98.7398C44.2326 98.7398 44.2052 98.7322 44.1807 98.7165C44.112 98.6728 44.0916 98.5814 44.1353 98.5121L52.3321 85.6231C52.3764 85.5544 52.4684 85.534 52.5366 85.5777C52.6053 85.6214 52.6257 85.7128 52.582 85.7821L44.3851 98.6711C44.3566 98.7159 44.3088 98.7398 44.2599 98.7398Z" fill="black"/>
</g>
<g id="Group_33">
<path id="Vector_32" d="M47.25 99.2182C47.2208 99.2182 47.1917 99.21 47.1667 99.1925C47.0997 99.1465 47.0823 99.0545 47.1283 98.987L52.3579 91.3393C52.4045 91.2723 52.4965 91.2554 52.5635 91.3009C52.6305 91.3469 52.6479 91.4389 52.6019 91.5064L47.3723 99.1541C47.3437 99.196 47.2971 99.2182 47.25 99.2182Z" fill="black"/>
</g>
<g id="Group_34">
<path id="Vector_33" d="M50.4427 99.2699C50.4142 99.2699 50.3851 99.2618 50.36 99.2443C50.2925 99.1989 50.2744 99.1069 50.3204 99.0387L52.3814 95.9906C52.4274 95.9231 52.5195 95.9056 52.5864 95.951C52.654 95.9964 52.672 96.0891 52.626 96.1566L50.5644 99.2047C50.5365 99.2472 50.4899 99.2699 50.4427 99.2699Z" fill="black"/>
</g>
<g id="Group_35">
<path id="Vector_34" d="M23.8962 25.6504C23.5118 20.8657 22.6907 16.1165 21.583 11.4732C26.2781 9.73078 31.0319 8.1479 35.893 6.75138C35.7899 8.56895 35.9582 10.475 36.8923 12.0375C37.8264 13.6006 39.6807 14.7176 41.4616 14.3385C43.3456 13.9372 44.6104 11.9356 44.5703 10.0097C44.5301 8.08384 43.4119 6.30703 41.8896 4.92914C46.7606 3.91466 51.5383 2.45291 56.1146 0.601562C56.9421 5.37408 58.1459 10.0814 59.6117 14.6565C61.463 14.7065 62.8974 13.0654 63.8042 11.4505C64.0237 11.0592 64.2357 10.6533 64.5636 10.3469C65.5222 9.45182 67.1371 9.74825 68.1655 10.5624C69.9511 11.9764 70.4548 14.7083 69.4427 16.7489C68.4305 18.7895 66.0865 20.0282 63.8129 19.8978C63.5846 19.885 63.3499 19.8599 63.1327 19.9327C62.965 19.9886 62.82 20.0999 62.7006 20.2309C61.9854 21.0159 62.2632 22.25 62.5841 23.2627C62.9539 24.4286 63.3231 25.5945 63.6236 26.6474C64.5473 29.0899 65.4709 31.5323 66.1558 34.0523C62.12 35.3463 58.154 36.8599 54.2335 38.4864C54.5695 35.2816 54.9056 32.0774 55.2422 28.8727C55.2818 28.4959 55.3185 28.0987 55.1647 27.7522C54.877 27.1046 54 26.8961 53.3332 27.1378C52.667 27.3795 52.1766 27.9467 51.7585 28.5192C50.3014 30.5138 49.3434 32.824 48.4879 35.1413C47.6242 37.4807 46.7833 39.9592 44.8539 41.6696C40.0214 43.0813 35.1895 44.493 30.4333 45.9093C29.615 42.0307 27.543 38.1498 26.9379 34.3067C27.1988 33.5514 28.3443 33.5951 29.0437 33.209C30.5381 32.3844 31.7552 31.0525 32.4395 29.4882C33.1232 27.9246 32.9491 25.9084 31.7017 24.7437C30.6173 23.7309 28.968 23.5434 27.5144 23.8416C26.1488 24.1199 24.8664 24.7833 23.8962 25.6504Z" fill="#2E90FA"/>
</g>
<g id="Group_36" opacity="0.1294">
<path id="Vector_35" d="M54.7472 97.6341C54.6931 95.3192 54.8451 92.995 54.6092 90.6853C54.4846 88.6848 54.4392 88.0122 54.2446 86.5528C54.1852 85.7328 54.2359 84.9047 54.1526 84.0847C53.9645 81.8991 53.8265 79.6936 54.0711 77.5063C54.4293 75.2059 54.1713 75.0324 54.7024 72.9294C54.8986 72.5899 55.0599 72.2172 54.9301 71.8183C54.8218 71.3698 54.4636 71.0857 54.0589 70.9901C54.1456 70.4322 54.0088 70.5242 54.0233 70.0246C54.0035 69.4323 54.1771 68.8022 54.0443 68.2268C53.9272 67.9112 53.6186 67.8087 53.3455 67.8692C53.3216 67.8587 53.2954 67.8547 53.2703 67.8483C53.0589 67.5245 52.5296 67.5076 52.3636 67.9356C52.1446 68.3625 52.2092 68.8453 52.1388 69.3059C52.1003 69.9605 51.9414 70.6564 52.0776 71.3C52.1149 71.4007 52.1743 71.4764 52.2454 71.5323C52.3321 71.6814 52.4527 71.788 52.5913 71.8538C52.3834 72.3826 52.3403 72.965 52.3053 73.5298C52.2657 74.4669 52.2803 75.4132 52.3828 76.3456C52.3694 76.2594 52.3426 76.0026 52.3502 76.175C52.3712 76.8721 52.3601 77.5697 52.3979 78.2663C52.4207 79.707 52.3811 81.1472 52.4003 82.5869C52.4119 83.8331 52.4981 85.0747 52.582 86.3175C52.5395 87.5352 52.4975 88.7541 52.5936 89.9707C52.8108 93.1551 52.7334 97.3429 53.0729 98.51C53.0758 98.5327 53.0793 98.5566 53.0828 98.581C52.7788 99.3381 53.5598 100.321 54.4945 99.8168C55.0384 99.5169 55.0984 98.7866 54.7653 98.3399C54.7461 98.1052 54.7466 97.8705 54.7472 97.6341Z" fill="black"/>
</g>
<g id="Group_37" opacity="0.1294">
<path id="Vector_36" d="M68.511 32.8047C68.511 33.3475 68.4132 33.8733 68.2402 34.3777C68.3992 34.0469 68.5314 33.7283 68.5611 33.2112C68.5454 32.9887 68.5809 32.9381 68.511 32.8047Z" fill="black"/>
</g>
<g id="Group_38" opacity="0.1294">
<path id="Vector_37" d="M53.0137 49.2645C52.6387 49.7577 52.2957 50.2702 51.9765 50.7944C51.8898 51.0413 51.8036 51.2888 51.715 51.5357C51.3505 52.5601 51.1857 53.6707 50.8252 55.2116C50.5771 57.0869 50.5206 58.9825 50.5136 60.8717C50.4961 62.0515 50.509 63.2565 50.4915 64.8743C50.5142 65.7548 50.3983 66.6785 50.5922 67.5363C50.8951 68.3353 52.1547 68.0907 52.1384 67.2247C52.0109 65.7484 52.0808 64.2634 51.9602 62.7865C51.9958 61.5653 52.072 60.8029 52.1262 59.2853C52.1268 59.2585 52.1279 59.2346 52.1285 59.2084C52.3656 59.1385 52.5624 58.9394 52.5711 58.6039C52.6573 56.5697 53.3742 54.603 53.6019 52.2334C53.6159 52.0045 53.6468 51.75 53.5454 51.5444C54.0445 50.2056 54.5774 49.1381 55.5406 47.596C55.7229 47.3071 55.8784 47.0025 56.0479 46.7055C56.5074 46.1727 57.0088 45.6777 57.5073 45.1809C57.5399 45.1518 57.5714 45.1215 57.6034 45.0918C55.858 46.2239 54.2879 47.5878 53.0137 49.2645Z" fill="black"/>
</g>
<g id="Group_39" opacity="0.1294">
<path id="Vector_38" d="M64.8438 39.1981C65.0604 39.0047 65.2724 38.8027 65.4768 38.5907C65.7395 38.2873 65.994 37.9547 66.217 37.6426C65.8367 38.0834 65.4314 38.5027 64.9946 38.9011C64.8025 39.0764 64.6056 39.2458 64.4082 39.4153C64.5532 39.3431 64.6982 39.2703 64.8438 39.1981Z" fill="black"/>
</g>
<g id="Group_40" opacity="0.1294">
<path id="Vector_39" d="M65.3045 34.3068C65.3167 34.2946 65.3336 34.2824 65.3441 34.2696C65.3924 34.191 65.4111 34.103 65.4087 34.0157C65.3878 34.032 65.3651 34.0465 65.3388 34.0582C64.6977 34.3406 63.9982 34.495 63.3279 34.6959C62.671 34.8927 62.0153 35.0948 61.3618 35.3027C60.0335 35.7261 58.7214 36.1873 57.4157 36.6765C57.3721 36.6928 57.3307 36.7015 57.2905 36.7056C57.2899 36.7138 57.2888 36.7219 57.2882 36.7301C57.2888 36.7353 57.2911 36.7388 57.2911 36.7435C57.2928 36.7773 57.2864 36.8087 57.2777 36.8384C57.28 36.8588 57.2818 36.8792 57.2841 36.899C57.2847 36.903 57.2853 36.9065 57.2853 36.91C57.2858 36.9129 57.2859 36.9135 57.2864 36.917C57.287 36.9199 57.287 36.9223 57.287 36.9246C57.2882 36.9322 57.2888 36.9403 57.2899 36.9479C57.2894 36.9415 57.2888 36.938 57.2876 36.9333C57.301 37.0352 57.2963 37.1232 57.2468 37.2164C57.2334 37.242 57.2101 37.2595 57.1909 37.2798C57.1962 37.4353 57.1135 37.5815 56.9656 37.6438C56.7804 37.7219 56.6045 37.6432 56.4927 37.4889C56.269 37.1808 56.3197 36.7307 56.3238 36.3696C56.3255 36.1768 56.3389 35.9852 56.357 35.7936C56.3494 35.7465 56.3418 35.6999 56.3325 35.6527C56.3255 35.6183 56.329 35.5863 56.329 35.5537C56.2399 35.2538 56.106 34.6941 56.092 34.3569C56.0908 34.2655 56.0722 34.1863 56.0442 34.1158C56.046 33.94 56.0472 33.7641 56.0501 33.5882C56.1316 32.3274 56.3459 31.0665 56.2114 29.8005C56.1689 29.3387 56.1095 28.878 56.0914 28.4139C56.0437 28.1652 56.0809 27.867 55.919 27.6603C55.5917 27.1979 54.8335 27.5793 54.9942 28.1209C55.1317 29.1127 55.0076 31.0968 54.7799 32.0793C54.6221 33.1689 54.2086 34.2218 54.1574 35.3225C54.1527 35.8431 54.1166 36.3649 54.1486 36.885C54.1568 37.1715 54.2092 37.4703 54.4282 37.6753C54.8649 38.1423 55.6436 37.9368 55.8952 37.4161C56.0734 37.4505 56.2609 37.4534 56.4496 37.4423C55.6727 37.7737 54.8609 38.1528 54.0543 38.6269C54.0508 39.1766 54.0467 39.7264 54.0321 40.2761C54.0298 40.367 54.024 40.4578 54.0205 40.5493C54.3105 40.7164 54.6838 40.7478 55.0775 40.533C57.3895 38.96 59.9752 37.8471 62.4625 36.5886C63.1783 36.2042 63.9167 35.8594 64.3069 35.7115C64.6546 35.5304 65.1117 35.4722 65.372 35.167C65.612 34.8811 65.5264 34.5247 65.3045 34.3068Z" fill="black"/>
</g>
<g id="Group_41" opacity="0.1294">
<path id="Vector_40" d="M69.8956 11.8648C69.5595 11.6587 69.0913 11.8538 68.9911 12.2329C68.9376 12.4029 68.9958 12.5695 69.0243 12.7384C69.054 13.0208 69.0325 13.3056 69.0045 13.5875C68.9812 13.7936 68.9556 14.0941 68.7902 14.6287C68.7774 14.6631 68.764 14.6963 68.7506 14.7301C68.7495 14.733 68.7489 14.7347 68.7471 14.7382C68.587 15.0888 68.3878 15.4213 68.1613 15.7335C68.0396 15.8983 67.9825 15.9699 68.1421 15.7638C67.4106 16.7818 66.6611 17.5464 65.1149 18.2423C64.4265 18.5295 63.6281 18.5743 62.977 18.9307C62.3416 19.3785 62.8658 20.4239 63.6101 20.2014C64.5599 19.9481 65.5429 19.7926 66.4182 19.3209C68.0844 18.4508 69.5671 17.0118 70.0336 15.1447C70.2164 14.401 70.6031 12.347 69.8956 11.8648Z" fill="black"/>
</g>
<g id="Group_42">
<path id="Vector_41" d="M39.5258 67.8018C39.2806 67.8018 39.082 67.6032 39.082 67.358C39.082 65.0839 39.2946 62.7591 39.52 60.298C39.7774 57.4886 40.0429 54.5832 40.0587 51.2567C40.0604 50.8438 40.0383 50.2323 40.0121 49.5236C39.9463 47.7421 39.8653 45.5262 40.0942 44.4651C40.4762 42.697 41.5291 42.4321 42.5465 42.1752C43.2116 42.0075 43.9 41.834 44.6122 41.2691C46.2504 39.971 47.3354 37.1546 48.3842 34.4315C49.3853 31.8324 50.3311 29.3777 51.7771 27.9159C52.4381 27.2479 53.3291 26.5113 54.3605 26.7576C54.8508 26.8735 55.2171 27.128 55.4483 27.5118C55.9026 28.2653 55.7122 29.32 55.4961 30.154C55.0145 32.0123 54.9429 34.0052 54.8741 35.9322C54.8206 37.4301 54.7705 38.8447 54.534 40.1387C54.4903 40.3798 54.2562 40.5382 54.0181 40.4951C53.7769 40.4514 53.6174 40.2202 53.6616 39.9791C53.8859 38.7492 53.9359 37.3654 53.9878 35.9008C54.0582 33.926 54.1316 31.8836 54.6371 29.9315C54.8869 28.9683 54.9038 28.3265 54.6884 27.9695C54.5818 27.7925 54.4123 27.6812 54.1555 27.6207C53.5545 27.4757 52.9051 28.0371 52.4084 28.5396C51.0928 29.8698 50.1371 32.3507 49.2123 34.75C48.1204 37.5838 46.9912 40.5149 45.1637 41.9638C44.3018 42.6469 43.4492 42.8624 42.7638 43.0348C41.7726 43.2846 41.2269 43.4221 40.9613 44.6515C40.7558 45.6036 40.8384 47.8498 40.8984 49.4898C40.9246 50.2078 40.9474 50.8281 40.9456 51.2596C40.9299 54.6251 40.662 57.5498 40.4028 60.3778C40.1798 62.8179 39.9684 65.1229 39.9684 67.3569C39.9696 67.6026 39.771 67.8018 39.5258 67.8018Z" fill="black"/>
</g>
<g id="Group_43">
<path id="Vector_42" d="M30.6355 46.2339C30.4532 46.2339 30.2861 46.1215 30.2203 45.9456C28.599 41.6052 27.4284 37.9514 26.425 34.0985C26.365 33.8696 26.496 33.6343 26.7214 33.5638C28.2321 33.0898 30.112 32.4993 31.2132 31.1557C31.5883 30.698 31.8835 30.1418 32.0914 29.503C32.5981 27.9457 32.3611 25.8725 30.9285 24.9232C30.5208 24.653 29.9972 24.4655 29.3718 24.3659C27.5303 24.0701 25.4676 24.7305 24.2388 26.007C24.1182 26.1317 23.9365 26.1747 23.7735 26.1183C23.6098 26.0612 23.4939 25.9138 23.4776 25.7415C23.0164 20.9439 22.1877 16.218 21.0142 11.6953C20.9571 11.4746 21.0765 11.2463 21.2908 11.1677C26.5951 9.21791 31.2156 7.69443 35.8303 6.3742C35.9828 6.33111 36.1459 6.37129 36.2595 6.48077C36.373 6.59026 36.4208 6.75216 36.3835 6.90532C35.765 9.45377 37.1196 12.3656 39.4677 13.5338C40.3873 13.9916 41.2905 14.0778 41.9457 13.7709C42.3068 13.6014 42.6498 13.291 42.9637 12.8484C43.7505 11.7396 44.0492 10.2522 43.7633 8.86907C43.4307 7.2629 42.3906 5.9945 41.5765 5.21296C41.4588 5.09998 41.4128 4.93167 41.4565 4.77443C41.5002 4.61719 41.6266 4.49664 41.7856 4.45995C46.4923 3.3884 51.3603 2.28015 55.9895 0.0438493C56.1142 -0.0161347 56.2603 -0.0143876 56.3832 0.0479258C56.5067 0.110822 56.594 0.227295 56.6185 0.36357C56.9982 2.44787 58.3423 9.54054 59.8512 14.1657C60.0725 14.2601 60.3113 14.27 60.5769 14.1972C61.2035 14.0254 61.9047 13.3912 62.321 12.6189C62.4305 12.4163 62.5359 12.2055 62.6425 11.9935C63.1742 10.933 63.777 9.73039 64.9994 9.29303C65.5777 9.08629 66.2672 9.08047 66.994 9.27615C69.5762 9.97091 71.2866 12.9387 70.6542 15.6275C70.0479 18.2039 67.517 20.1437 64.7647 20.1437C64.6616 20.1426 64.5608 20.1414 64.4584 20.1391C64.0128 20.1286 63.5941 20.1193 63.2919 20.3021C62.639 20.6964 62.7508 21.8116 62.9593 22.6776C63.5493 25.1282 64.2778 26.9644 65.0483 28.9078C65.6196 30.348 66.2101 31.8365 66.8129 33.7188C66.8828 33.9371 66.7744 34.1736 66.563 34.2627C65.276 34.8066 63.6139 35.4158 61.8546 36.0616C59.3178 36.9917 56.6954 37.9532 54.8586 38.8395C54.6379 38.9461 54.3729 38.8535 54.2663 38.6334C54.1597 38.4126 54.2523 38.1477 54.4725 38.0411C56.3483 37.1355 58.9917 36.1665 61.5488 35.2288C63.13 34.6494 64.6325 34.0985 65.8421 33.6023C65.2911 31.928 64.749 30.5606 64.2231 29.2351C63.4404 27.2614 62.7008 25.3973 62.0963 22.8855C61.5931 20.7948 62.2186 19.9137 62.8324 19.5427C63.3554 19.2271 63.9517 19.2405 64.4776 19.2521C64.5737 19.2545 64.6604 19.2603 64.7635 19.2568C67.0773 19.2568 69.2839 17.5755 69.7899 15.4248C70.3082 13.2211 68.8651 10.6989 66.7622 10.1334C66.3778 10.0303 65.8106 9.94529 65.2964 10.1293C64.4088 10.4467 63.9354 11.3919 63.434 12.3924C63.3233 12.6125 63.2138 12.8315 63.1003 13.0417C62.6955 13.7918 61.8528 14.769 60.8092 15.0544C60.2571 15.2052 59.7202 15.1371 59.256 14.8576C59.1652 14.8028 59.0971 14.7172 59.0639 14.6171C57.6318 10.297 56.3419 3.7384 55.8492 1.09211C51.5437 3.08847 47.0863 4.16003 42.7476 5.15123C43.521 6.01779 44.327 7.22155 44.631 8.68912C44.9665 10.3093 44.613 12.0564 43.6864 13.362C43.2823 13.931 42.8233 14.3387 42.3213 14.5745C41.0861 15.1534 39.7548 14.6689 39.0717 14.3288C36.5897 13.0936 35.0714 10.1672 35.3906 7.42479C31.1317 8.66175 26.8385 10.0821 21.9722 11.8636C23.0356 16.0415 23.8084 20.386 24.2732 24.7969C25.7034 23.7177 27.7016 23.2018 29.511 23.4906C30.2622 23.6106 30.9034 23.8441 31.4176 24.1848C33.2195 25.3781 33.5439 27.9021 32.9341 29.7779C32.6919 30.5221 32.343 31.1755 31.8981 31.7183C30.7328 33.141 28.9333 33.7921 27.3894 34.2837C28.334 37.8547 29.4341 41.2826 30.9215 45.2898C33.58 44.8024 36.2601 43.9533 38.8551 43.1304C39.5464 42.9114 40.7338 42.4927 41.8817 42.088C43.04 41.6797 44.2385 41.2575 44.9414 41.0351C45.1749 40.9599 45.4242 41.0904 45.4982 41.3239C45.5727 41.5574 45.4428 41.8067 45.2093 41.8807C44.5198 42.099 43.3282 42.5189 42.1763 42.9248C41.0221 43.3319 39.8282 43.7524 39.127 43.9749C36.3812 44.8449 33.5468 45.7441 30.7095 46.2286C30.685 46.2315 30.66 46.2339 30.6355 46.2339Z" fill="black"/>
</g>
<g id="Group_44">
<path id="Vector_43" d="M52.5727 68.0506C52.3491 68.0506 52.1569 67.8823 52.1324 67.6552C51.5285 62.0918 52.3269 54.461 53.9902 49.9057C55.3535 46.171 58.7901 43.548 61.8225 41.2342C64.3866 39.2775 66.8081 37.4291 67.4551 35.2964C68.1534 32.9943 68.1103 32.9052 67.0096 30.6223C66.4902 29.5444 65.7051 27.9155 64.6848 25.36C64.4921 24.8773 64.3057 24.4376 64.142 24.3601C63.9807 24.2832 63.5131 24.4096 63.007 24.5569C62.7717 24.6251 62.5254 24.4911 62.4567 24.2559C62.3879 24.0206 62.5225 23.7742 62.7577 23.7055C64.4676 23.2053 64.8537 23.391 65.5077 25.0304C66.5169 27.5573 67.263 29.1064 67.8086 30.2368C68.9547 32.6152 69.1021 32.9204 68.3036 35.5538C67.5739 37.9602 65.0412 39.8931 62.36 41.9395C59.4249 44.1799 56.0978 46.719 54.8236 50.2103C53.2005 54.6549 52.4224 62.1139 53.0141 67.5597C53.0409 67.8037 52.8645 68.022 52.621 68.0483C52.6047 68.05 52.5884 68.0506 52.5727 68.0506Z" fill="black"/>
</g>
<g id="Group_45">
<path id="Vector_44" d="M36.9025 99.5496C36.8972 99.5496 36.8914 99.5496 36.8862 99.549C36.641 99.5403 36.45 99.3341 36.4593 99.0895C36.7936 89.9848 36.9106 80.7473 36.8093 71.6326C36.807 71.4183 36.9584 71.2331 37.1686 71.1923C40.6058 70.5278 43.973 70.7026 47.2285 70.8709C49.6686 70.9972 52.1087 71.123 54.5256 71.2447C54.6479 71.2506 54.762 71.3076 54.8412 71.4008C54.9204 71.494 54.9577 71.6157 54.9437 71.738C54.4714 75.9118 54.6292 80.187 54.7818 84.3218L55.3246 99.036C55.3333 99.2811 55.1423 99.4867 54.8977 99.4955C54.642 99.5048 54.4475 99.3132 54.4382 99.0686L53.8954 84.3545C53.7475 80.3408 53.5943 76.1955 54.0119 72.1072C51.7482 71.9937 49.4648 71.8754 47.1825 71.7572C44.0959 71.5982 40.908 71.4334 37.6998 71.9972C37.7941 81.0047 37.6747 90.1281 37.3451 99.1227C37.3369 99.3615 37.1401 99.5496 36.9025 99.5496Z" fill="black"/>
</g>
<g id="Group_46">
<path id="Vector_45" d="M37.9 71.8413C37.8959 71.8413 37.8918 71.8413 37.8877 71.8407C37.6426 71.8343 37.4498 71.6305 37.4562 71.3859L37.5593 67.5551C37.5651 67.321 37.7526 67.1323 37.9862 67.1235C43.362 66.9249 48.8048 67.0612 54.1656 67.5306C54.395 67.5504 54.5709 67.7432 54.5703 67.9738C54.5674 69.1333 54.4864 70.3039 54.3309 71.4517C54.2983 71.6945 54.0753 71.8663 53.8318 71.832C53.589 71.7988 53.4189 71.5757 53.4516 71.3329C53.5838 70.3574 53.6595 69.3662 53.6781 68.3791C48.6243 67.9534 43.4995 67.8241 38.434 67.9953L38.3414 71.4092C38.3367 71.6503 38.1393 71.8413 37.9 71.8413Z" fill="black"/>
</g>
<g id="Group_47">
<path id="Vector_46" d="M69.1055 43.0126C69.0164 43.0126 68.9261 42.9858 68.8481 42.9299C68.6484 42.7878 68.6023 42.5106 68.745 42.3114C71.3814 38.6181 72.987 34.2765 73.3888 29.7556C73.4104 29.511 73.6288 29.3328 73.8699 29.3531C74.1139 29.3747 74.2938 29.5902 74.2723 29.8342C73.8565 34.5118 72.1944 39.0048 69.4666 42.8268C69.3798 42.948 69.2435 43.0126 69.1055 43.0126Z" fill="black"/>
</g>
<g id="Group_48">
<path id="Vector_47" d="M73.8501 45.3105C73.7768 45.3105 73.7022 45.2925 73.6341 45.254C73.4204 45.1347 73.3441 44.8644 73.464 44.6507L77.3863 37.6431C77.5057 37.4293 77.7765 37.353 77.9896 37.4724C78.2034 37.5918 78.2796 37.862 78.1603 38.0758L74.238 45.0834C74.1565 45.229 74.0056 45.3105 73.8501 45.3105Z" fill="black"/>
</g>
</g>
</g>
</svg>
