<svg width="100" height="100" viewBox="0 0 100 100" fill="none" xmlns="http://www.w3.org/2000/svg">
<path d="M0.897949 81.7296C7.90882 71.4905 14.3957 60.8945 20.3279 49.8199C20.7609 49.949 21.1786 50.1085 21.5888 50.2984C21.5584 50.1769 21.5584 50.0477 21.5888 49.8123C21.9154 48.7109 22.3559 47.6475 22.918 46.6524C23.1839 46.1815 23.7004 45.6498 24.1789 45.9081C25.5766 42.8394 26.0551 39.3605 25.4854 36.0944C25.3942 33.6865 25.4702 31.271 25.8652 28.9999C26.3817 25.24 27.2932 21.5257 28.5769 17.9481C29.0858 16.5353 29.6706 15.1073 30.6961 14.0211C31.1442 13.5426 31.6911 13.1324 32.3292 12.9729C32.9672 12.8134 33.6964 12.9349 34.1598 13.3907C34.813 14.0363 34.7675 15.0921 34.6763 16.0036C34.532 17.4164 34.3952 18.8368 34.2737 20.2724C34.9573 20.7661 35.6182 21.2902 36.2562 21.8447C36.6588 22.1941 37.0613 22.5663 37.3804 23.0145C37.7829 22.4068 38.1855 21.7916 38.4893 21.1307C37.2436 18.8368 36.1954 16.4365 35.3599 13.9603C35.1548 13.3527 34.9649 12.7374 34.9269 12.0994C34.9042 11.7424 34.9345 11.3778 35.0712 11.0512C35.2079 10.7245 35.4586 10.4359 35.7853 10.3068C36.1878 10.1473 36.6512 10.246 37.0538 10.4207C38.421 11.0132 39.2945 12.35 40.0845 13.6185C40.6086 14.4617 41.1402 15.3124 41.634 16.1327C41.8542 15.8745 41.9834 15.5554 42.1429 15.2516C42.3708 14.8111 42.6518 14.4009 42.9936 13.9679C42.4619 12.8817 41.9682 11.7804 41.5125 10.6562C41.1479 9.76748 40.8136 8.85599 40.6845 7.89893C40.6009 7.26848 40.6541 6.53169 41.163 6.14431C41.52 5.87086 42.029 5.84808 42.4544 5.9924C42.8797 6.13672 43.2519 6.41776 43.5937 6.71399C44.5508 7.53433 45.3939 8.4914 46.1079 9.48644C46.556 8.40784 47.194 7.4128 47.9916 6.55448C48.1587 6.37978 48.3334 6.20508 48.5537 6.08354C48.9259 5.88605 49.4044 5.89365 49.7842 6.18229C49.9285 5.96961 50.0957 5.74174 50.3463 5.67337C50.6578 5.58222 50.9767 5.75693 51.235 5.93922C52.4427 6.79754 53.3238 8.03565 54.1974 9.22818C54.7898 8.53697 55.3899 7.84576 55.9823 7.15454C56.3014 6.78235 56.628 6.40256 57.0534 6.1595C57.4787 5.91644 58.0256 5.83289 58.4586 6.06076C58.8611 6.28103 59.0814 6.73678 59.1346 7.19252C59.1878 7.64827 59.0738 8.10401 58.9523 8.54457C58.4662 10.322 57.737 12.0234 56.7571 13.7097C57.3116 14.4844 57.8585 15.2668 58.3143 16.1631C59.2182 14.8414 60.1296 13.5198 61.0335 12.2057C61.5956 11.3854 62.2641 10.4967 63.2439 10.3296C63.5857 10.2688 63.9579 10.3144 64.2617 10.4967C64.7023 10.7625 64.9302 11.2942 64.9606 11.8107C64.9909 12.3273 64.8465 12.8362 64.6946 13.3299C63.8895 15.9428 62.7881 18.457 61.4133 20.8193C61.3829 20.8649 61.3601 20.9256 61.3981 20.9712C61.4361 21.0168 61.5045 20.918 61.4361 20.9408C61.9147 21.6396 62.3476 22.3688 62.735 23.1208C63.411 21.9359 64.5656 21.0396 65.986 20.713C65.7125 19.1558 65.553 17.5835 65.5074 16.0036C65.4695 14.9098 65.6289 13.5881 66.6164 13.1172C67.2164 12.8362 67.9532 12.9957 68.5001 13.3603C69.047 13.7249 69.4497 14.287 69.8067 14.8414C71.8879 18.0696 73.0955 21.8067 73.726 25.597C74.3564 29.3873 74.4173 33.2535 74.3489 37.097C74.2957 40.0517 74.2121 43.1736 75.8072 45.7334C75.9591 45.5359 76.263 45.4979 76.4909 45.5966C76.7187 45.6954 76.8935 45.9005 77.0226 46.1131C77.1669 46.3486 77.2809 46.6145 77.3872 46.8651C77.8429 47.9437 78.2987 49.0147 78.6101 50.2224C71.7511 53.5798 65.2036 57.5599 59.051 62.087C59.3169 60.8337 58.975 59.4665 58.1471 58.4866C57.8129 58.0916 57.4028 57.7498 57.1749 57.2789C56.947 56.8156 56.985 56.1547 57.5243 55.8737C55.7773 52.2049 52.8149 49.273 49.6854 46.6297C46.8446 49.2122 44.5356 52.372 42.9253 55.8585C42.8189 57.5068 42.1657 59.1095 41.0871 60.3628C40.8516 60.6362 40.5857 61.0084 40.7756 61.3122C40.8744 61.4717 41.0795 61.5553 41.1327 61.73C41.1783 61.8743 41.1099 62.0186 41.0416 62.1478C37.4488 69.2878 32.5494 75.7138 28.9187 82.8386C27.6958 85.2464 26.6172 87.7227 25.3563 90.1153C24.4144 91.9003 23.3814 93.6321 22.1281 95.3184C17.3428 93.86 13.0132 91.2319 8.77474 88.5734C5.91114 86.7808 2.99441 84.8894 0.928362 81.7144L0.897949 81.7296Z" fill="white"/>
<path d="M24.2008 46.1971C24.0869 46.1971 23.9729 46.1667 23.8742 46.0983C23.6083 45.916 23.54 45.559 23.7223 45.2932C25.1807 43.1512 25.0971 40.318 25.0135 37.5683L24.9908 36.8087C24.8617 31.8867 25.3933 26.9646 26.5707 22.1793C27.3379 19.0651 28.2341 16.7028 29.4039 14.7279C30.4825 12.9049 31.9256 12.0542 33.2701 12.4416C34.7665 12.8745 35.4653 14.6139 35.1387 17.0902C35.0476 17.7814 34.9412 18.4802 34.8349 19.1714C34.7817 19.5436 34.721 19.9082 34.6678 20.2804C34.6222 20.5994 34.326 20.8197 34.0146 20.7665C33.6955 20.7209 33.4828 20.4247 33.5284 20.1133C33.5816 19.7411 33.6423 19.3689 33.6955 18.9967C33.8018 18.3055 33.9082 17.6219 33.9994 16.9382C34.0677 16.4445 34.326 13.9531 32.9511 13.5581C32.0093 13.2847 31.0142 14.2873 30.4066 15.3203C29.2976 17.1965 28.4392 19.46 27.7024 22.4604C26.5479 27.1393 26.0314 31.9626 26.1529 36.7783L26.1757 37.5303C26.2668 40.4623 26.358 43.493 24.687 45.9388C24.573 46.1059 24.3907 46.1895 24.2084 46.1895L24.2008 46.1971Z" fill="black"/>
<path d="M50.0351 15.6538C49.9135 15.6538 49.7995 15.6158 49.6932 15.5398C49.4349 15.3499 49.3742 14.9929 49.5641 14.7347L50.468 13.4966C50.6579 13.2383 51.0149 13.1852 51.2732 13.3674C51.5314 13.5573 51.5845 13.9219 51.4022 14.1726L50.4984 15.4107C50.3844 15.5626 50.2097 15.6462 50.0274 15.6462L50.0351 15.6538Z" fill="black"/>
<path d="M56.8626 14.4238C56.779 14.4238 56.6955 14.4086 56.612 14.363C56.3233 14.2263 56.2017 13.8769 56.346 13.5882C57.2651 11.6893 57.9336 10.1246 58.4501 8.66619C58.7463 7.83825 58.8831 6.75965 58.3134 6.45582C57.7513 6.15959 56.9309 6.84321 56.3537 7.58759C55.7764 8.32438 55.2143 9.06117 54.6446 9.80555C54.4547 10.0638 54.0902 10.1094 53.8319 9.91949C53.5736 9.72959 53.5281 9.365 53.718 9.10674C54.2876 8.35476 54.8573 7.61038 55.4346 6.87359C56.5816 5.40761 57.8273 4.8835 58.8527 5.4304C59.8857 5.98489 60.144 7.33693 59.5363 9.04597C59.0046 10.5423 58.3209 12.1374 57.3867 14.082C57.2879 14.287 57.0829 14.4086 56.8626 14.4086V14.4238Z" fill="black"/>
<path d="M63.0302 23.366C62.8934 23.366 62.7567 23.3204 62.6504 23.2217C62.4073 23.009 62.3845 22.6444 62.5971 22.4089C63.4782 21.3987 64.4353 20.3657 65.6659 19.8568C65.9621 19.7352 66.2963 19.872 66.4254 20.1682C66.547 20.4644 66.4102 20.7986 66.114 20.9278C65.1189 21.3455 64.2682 22.2646 63.4783 23.1761C63.3643 23.3052 63.2049 23.3736 63.0378 23.3736L63.0302 23.366Z" fill="black"/>
<path d="M46.015 9.98142C45.9086 9.98142 45.8023 9.95104 45.7035 9.89027C45.4301 9.71557 45.3541 9.35857 45.5212 9.09272L46.8202 7.04186C47.8304 5.44676 49.0685 4.81631 50.1395 5.3632C50.4205 5.50752 50.5344 5.85693 50.3901 6.14557C50.2458 6.42661 49.8964 6.54055 49.6077 6.39623C49.0077 6.0848 48.1873 7.04946 47.7999 7.66472L46.5011 9.72317C46.3948 9.89787 46.2049 9.98902 46.015 9.98902V9.98142Z" fill="black"/>
<path d="M49.0847 14.2577C49.0239 14.2577 48.9556 14.2501 48.8948 14.2273C48.591 14.121 48.4315 13.7944 48.5378 13.4905C48.8645 12.5259 49.1606 11.5384 49.4189 10.5586C49.4948 10.2472 49.8139 10.0573 50.1253 10.1408C50.4367 10.2168 50.619 10.5358 50.543 10.8472C50.2848 11.8651 49.981 12.8829 49.6392 13.8703C49.5556 14.1134 49.3354 14.2577 49.0923 14.2577H49.0847Z" fill="black"/>
<path d="M37.3939 23.5789C37.2875 23.5789 37.1812 23.5485 37.0824 23.4877C36.809 23.313 36.733 22.956 36.9001 22.6902C37.128 22.3256 37.3103 22.0293 37.4926 21.7331C37.6749 21.4369 37.8648 21.1331 38.0927 20.7685C38.2674 20.495 38.6244 20.4191 38.8902 20.5862C39.1637 20.7609 39.2396 21.1179 39.0725 21.3837C38.8446 21.7483 38.6623 22.0445 38.48 22.3408C38.2977 22.637 38.1079 22.9408 37.88 23.3054C37.7737 23.4801 37.5838 23.5713 37.3939 23.5713V23.5789Z" fill="black"/>
<path d="M41.716 16.764C41.6097 16.764 41.5034 16.7336 41.4047 16.6729C41.1312 16.4982 41.0553 16.1412 41.2224 15.8753C41.4806 15.4651 41.6933 15.1233 41.9059 14.7891C42.111 14.4625 42.3161 14.1283 42.5744 13.7333C42.7491 13.4599 43.1061 13.3839 43.372 13.551C43.6454 13.7257 43.7214 14.0827 43.5542 14.3486C43.3036 14.7435 43.0985 15.0777 42.8934 15.4044C42.6807 15.7462 42.468 16.0804 42.2022 16.4982C42.0958 16.6729 41.9059 16.764 41.716 16.764Z" fill="black"/>
<path d="M61.4112 21.6639C61.3277 21.6639 61.2442 21.6487 61.1606 21.6031C60.872 21.4664 60.7504 21.117 60.8871 20.8284C62.1024 18.299 63.2114 15.686 64.1761 13.0503C64.404 12.4275 64.7078 11.3261 64.1761 10.9159C63.8723 10.6805 63.3633 10.7716 63.0215 10.9767C62.5658 11.2501 62.2164 11.7363 61.8822 12.1996C60.8795 13.5896 59.8617 15.0024 58.8667 16.4076C58.6844 16.6659 58.3197 16.7343 58.0615 16.5444C57.8032 16.3621 57.7349 15.9975 57.9248 15.7392C58.9199 14.3264 59.9377 12.906 60.9479 11.516C61.3125 11.0071 61.7682 10.3766 62.429 9.98164C63.1051 9.57147 64.1305 9.41955 64.8825 9.99683C65.4749 10.4526 66.0142 11.4172 65.2698 13.4529C64.29 16.119 63.1658 18.7699 61.9353 21.3297C61.8366 21.5348 61.6315 21.6563 61.4112 21.6563V21.6639Z" fill="black"/>
<path d="M42.7407 56.2378C42.642 56.2378 42.5356 56.2074 42.4445 56.1542C42.171 55.9871 42.0798 55.6377 42.247 55.3566C44.0396 52.3791 46.2802 49.432 49.5084 45.8012C49.7211 45.5657 50.0858 45.5429 50.3288 45.7556C50.5643 45.9683 50.587 46.3329 50.3744 46.576C47.1918 50.1536 44.9966 53.0475 43.2419 55.9567C43.1356 56.139 42.9458 56.2378 42.7483 56.2378H42.7407Z" fill="black"/>
<path d="M77.6833 95.1535C71.6523 84.0029 65.4313 72.9587 59.0205 62.0208C65.5301 57.4178 72.4878 53.4528 79.6354 50.3613C85.7576 61.4435 92.3735 72.2447 99.5135 82.5977C96.2321 85.6512 91.6671 86.7829 87.6489 88.7502C84.1473 90.4669 81.0255 92.8443 77.6909 95.1459L77.6833 95.1535Z" fill="#ACD4F7"/>
<path d="M57.2578 56.239C57.0604 56.239 56.8704 56.1402 56.7641 55.9579C53.6878 50.8384 49.4646 46.3265 45.3857 41.959C39.9851 36.1786 34.4022 30.2084 31.4019 22.7569C30.8702 21.4505 30.9918 20.425 31.7285 19.8781C32.0779 19.6199 32.5412 19.506 33.1033 19.5515C34.9035 19.6882 36.2176 21.0403 37.4101 22.4151C38.39 23.5469 39.385 24.6863 40.3876 25.8256C38.2 21.8606 36.3012 17.721 34.7364 13.4673C33.9844 11.4317 34.5314 10.467 35.1238 10.0189C35.8758 9.44159 36.9012 9.5935 37.5772 10.0037C38.2381 10.3986 38.6938 11.0291 39.0584 11.538C41.5346 14.9561 44.0564 18.5489 46.5858 22.2556C45.811 20.4782 44.9376 18.7464 44.0792 17.0373C42.788 14.4776 41.4511 11.8342 40.4713 9.07699C39.8636 7.36794 40.1218 6.0159 41.1548 5.46141C42.1802 4.90692 43.4335 5.43862 44.5729 6.9046C46.7453 9.69224 48.8721 12.5938 50.9381 15.4346C50.057 13.1863 49.3886 10.862 48.9328 8.47692C48.6366 6.93499 48.9709 5.8412 49.8596 5.37786C50.923 4.83097 52.1611 5.45382 53.1789 7.05652L65.6511 26.7295C65.9473 24.2609 65.5523 21.6859 65.1726 19.1793C65.0662 18.4881 64.9599 17.7969 64.8688 17.1057C64.5422 14.6295 65.241 12.8976 66.7373 12.4571C68.0818 12.0697 69.5249 12.9204 70.6035 14.7434C72.1379 17.3336 72.9582 20.2427 73.4367 22.1948C74.6141 26.9802 75.1458 31.8946 75.0167 36.8243L74.9939 37.5838C74.9103 40.3259 74.8192 43.1667 76.2851 45.3011C76.4674 45.567 76.3991 45.924 76.1333 46.1063C75.8674 46.2886 75.5104 46.2202 75.3281 45.9543C73.657 43.5009 73.7482 40.4778 73.8393 37.5459L73.8621 36.7939C73.9837 31.9706 73.4671 27.1549 72.3126 22.4759C71.5758 19.4756 70.7175 17.2044 69.6085 15.3359C69.0009 14.3029 68.0134 13.3002 67.0639 13.5737C65.6967 13.9687 65.9549 16.4601 66.0157 16.9538C66.1068 17.6374 66.2132 18.321 66.3119 19.0046C66.7828 22.1037 67.2766 25.3091 66.517 28.4234C66.4638 28.6512 66.2815 28.8183 66.0461 28.8563C65.8182 28.8943 65.5903 28.788 65.4612 28.5981L52.1914 7.67178C51.8041 7.05652 50.9837 6.09945 50.3837 6.40328C49.8368 6.68433 49.981 7.79331 50.0646 8.25665C50.9305 12.7913 52.5864 17.0905 55.0018 21.0251C55.1613 21.291 55.0854 21.6328 54.8347 21.8075C54.5765 21.9822 54.2272 21.9214 54.0449 21.6707C53.0118 20.2655 51.994 18.8603 50.9761 17.4627C48.6063 14.2041 46.1604 10.8316 43.6538 7.61861C43.069 6.87422 42.2562 6.18301 41.6942 6.48684C41.1245 6.79067 41.2612 7.86926 41.5574 8.6972C42.5145 11.3861 43.8362 13.999 45.1046 16.5284C46.6846 19.6579 48.3176 22.9013 49.305 26.3497C49.381 26.6232 49.2519 26.9118 48.9937 27.0333C48.7354 27.1549 48.4315 27.0637 48.272 26.8283C44.8615 21.7391 41.451 16.8247 38.1165 12.2292C37.7823 11.7659 37.4329 11.2798 36.9771 11.0063C36.6353 10.8012 36.1264 10.7177 35.8226 10.9455C35.2833 11.3557 35.5871 12.4571 35.8226 13.0799C38.0253 19.0654 40.889 24.8306 44.3299 30.2008C44.4894 30.4514 44.4362 30.7856 44.2007 30.9679C43.9652 31.1502 43.631 31.1274 43.4259 30.9072C41.132 28.4613 38.7926 25.78 36.5366 23.1823C35.5036 21.9898 34.3794 20.82 33.0122 20.7137C32.7387 20.6909 32.5412 20.7289 32.4197 20.82C32.1007 21.0555 32.245 21.7619 32.4805 22.3392C35.4049 29.5931 40.9118 35.4874 46.2364 41.1842C50.3533 45.5898 54.6145 50.1548 57.7591 55.3731C57.9262 55.6465 57.8351 56.0035 57.5617 56.1706C57.4705 56.2238 57.3642 56.2542 57.2654 56.2542L57.2578 56.239Z" fill="black"/>
<path d="M77.8657 95.7898C77.6606 95.7898 77.4631 95.6834 77.3568 95.486C71.3257 84.305 64.9453 73.1241 58.3902 62.2546C58.2459 62.0115 58.2915 61.7077 58.5041 61.5178C62.1653 58.2972 66.3277 56.1324 70.3535 54.036C73.3766 52.4636 76.3921 50.8913 79.3849 49.3342C79.5292 49.2582 79.6887 49.2506 79.8406 49.3038C79.9925 49.357 80.114 49.4709 80.1747 49.6152C82.5598 54.9702 85.7653 59.991 88.8643 64.8523L99.9086 82.1478C100.083 82.4137 99.9996 82.7783 99.7338 82.9454C99.4604 83.1125 99.1034 83.0365 98.9363 82.7707L87.8997 65.4752C84.8841 60.7506 81.7623 55.8665 79.3772 50.6483C76.5668 52.1142 73.726 53.5954 70.8852 55.069C67.0569 57.0591 63.0996 59.1175 59.6283 62.0799C66.0999 72.8354 72.4043 83.8873 78.367 94.9467C78.5189 95.2277 78.4126 95.5771 78.1315 95.729C78.048 95.7746 77.9492 95.7974 77.8581 95.7974L77.8657 95.7898Z" fill="black"/>
<path d="M59.4972 61.7997C59.2921 61.7997 59.0946 61.6934 58.9883 61.5035L56.4058 56.8321C56.2615 56.5663 56.345 56.2321 56.6033 56.065C62.9154 52.0316 69.554 48.3553 76.3218 45.1347C76.5953 45.0055 76.9219 45.1043 77.0662 45.3625C77.8789 46.7526 78.6081 48.2185 79.231 49.7073C79.3525 50.0035 79.2158 50.3378 78.9196 50.4669C78.6234 50.5884 78.2892 50.4517 78.16 50.1555C77.6207 48.8794 77.0054 47.6185 76.3294 46.4108C69.9338 49.4794 63.6597 52.9507 57.6742 56.7486L59.991 60.949C60.1429 61.2301 60.0441 61.5795 59.7631 61.7314C59.6719 61.777 59.5808 61.7997 59.482 61.7997H59.4972Z" fill="black"/>
<path d="M22.1423 95.7892C22.0512 95.7892 21.9523 95.7664 21.8688 95.7209C21.5877 95.5689 21.4814 95.2195 21.6334 94.9385C27.596 83.8867 33.9005 72.8273 40.3721 62.0717C36.9084 59.1169 32.951 57.0585 29.1151 55.0608C26.2743 53.5872 23.4412 52.1061 20.6232 50.6401C18.2381 55.8584 15.1238 60.7424 12.1007 65.467L1.0641 82.7625C0.889399 83.0284 0.532362 83.1119 0.266511 82.9372C0.000659396 82.7625 -0.082879 82.4055 0.0918232 82.1397L11.136 64.8441C14.2426 59.9829 17.4481 54.9545 19.8256 49.6071C19.8939 49.4628 20.0154 49.3488 20.1597 49.2956C20.3116 49.2425 20.4788 49.2577 20.6156 49.326C23.6083 50.8832 26.6238 52.4555 29.6469 54.0278C33.6727 56.1242 37.8427 58.289 41.4963 61.5096C41.7089 61.6919 41.7545 62.0033 41.6102 62.2464C35.0551 73.1159 28.6746 84.2969 22.6436 95.4778C22.5372 95.6753 22.3398 95.7816 22.1347 95.7816L22.1423 95.7892Z" fill="black"/>
<path d="M40.5095 61.7997C40.4184 61.7997 40.3196 61.777 40.2285 61.7314C39.9474 61.5795 39.8487 61.2225 40.0006 60.949L42.3173 56.7486C36.3319 52.9507 30.0578 49.4718 23.6622 46.4108C22.9786 47.6185 22.3633 48.8794 21.8316 50.1555C21.7101 50.4517 21.3683 50.5884 21.072 50.4669C20.7758 50.3454 20.639 50.0035 20.7606 49.7073C21.3834 48.2185 22.1126 46.7602 22.9253 45.3625C23.0773 45.1043 23.4039 45.0055 23.6773 45.1347C30.4451 48.3553 37.0839 52.0316 43.3959 56.065C43.6542 56.2321 43.7378 56.5663 43.5934 56.8321L41.0109 61.5035C40.9045 61.6934 40.707 61.7997 40.5019 61.7997H40.5095Z" fill="black"/>
<path d="M77.4235 20.0983C77.4235 20.0983 77.3551 20.0983 77.3248 20.0907C77.0133 20.0375 76.8007 19.7337 76.8538 19.4222C77.7425 14.3939 76.307 9.05404 73.0104 5.14983C72.8053 4.90676 72.8357 4.54217 73.0788 4.33708C73.3218 4.132 73.6865 4.16238 73.8916 4.40544C77.4084 8.56791 78.9351 14.2571 77.9932 19.6273C77.94 19.9084 77.697 20.1059 77.4235 20.1059V20.0983Z" fill="black"/>
<path d="M83.5315 19.3455C83.5315 19.3455 83.4783 19.3455 83.4555 19.3455C83.1365 19.2999 82.9162 19.0113 82.9618 18.6923C83.4631 14.9627 83.2809 11.218 82.4225 7.55688C82.3466 7.24546 82.544 6.93403 82.8554 6.85808C83.1669 6.78212 83.4783 6.97961 83.5543 7.29103C84.4506 11.0889 84.6405 14.9779 84.1164 18.8442C84.0784 19.1328 83.8277 19.3455 83.5467 19.3455H83.5315Z" fill="black"/>
<path d="M17.5775 40.1744C17.3269 40.1744 17.0913 40.0073 17.0229 39.749C15.5874 34.6447 15.7924 29.0846 17.6002 24.0942C17.7066 23.7903 18.0409 23.6384 18.3447 23.7448C18.6485 23.8511 18.8004 24.1853 18.6941 24.4892C16.9698 29.2517 16.7724 34.5611 18.1472 39.4376C18.2308 39.7414 18.056 40.068 17.7446 40.1516C17.6914 40.1668 17.6383 40.1744 17.5851 40.1744H17.5775Z" fill="black"/>
<path d="M24.2008 46.1971C24.0869 46.1971 23.9729 46.1667 23.8742 46.0983C23.6083 45.916 23.54 45.559 23.7223 45.2932C25.1807 43.1512 25.0971 40.318 25.0135 37.5683L24.9908 36.8087C24.8617 31.8867 25.3933 26.9646 26.5707 22.1793C27.3379 19.0651 28.2341 16.7028 29.4039 14.7279C30.4825 12.9049 31.9256 12.0542 33.2701 12.4416C34.7665 12.8745 35.4653 14.6139 35.1387 17.0902C35.0476 17.7814 34.9412 18.4802 34.8349 19.1714C34.7817 19.5436 34.721 19.9082 34.6678 20.2804C34.6222 20.5994 34.326 20.8197 34.0146 20.7665C33.6955 20.7209 33.4828 20.4247 33.5284 20.1133C33.5816 19.7411 33.6423 19.3689 33.6955 18.9967C33.8018 18.3055 33.9082 17.6219 33.9994 16.9382C34.0677 16.4445 34.326 13.9531 32.9511 13.5581C32.0093 13.2847 31.0142 14.2873 30.4066 15.3203C29.2976 17.1965 28.4392 19.46 27.7024 22.4604C26.5479 27.1393 26.0314 31.9626 26.1529 36.7783L26.1757 37.5303C26.2668 40.4623 26.358 43.493 24.687 45.9388C24.573 46.1059 24.3907 46.1895 24.2084 46.1895L24.2008 46.1971Z" fill="black"/>
<path d="M50.0351 15.6538C49.9135 15.6538 49.7995 15.6158 49.6932 15.5398C49.4349 15.3499 49.3742 14.9929 49.5641 14.7347L50.468 13.4966C50.6579 13.2383 51.0149 13.1852 51.2732 13.3674C51.5314 13.5573 51.5845 13.9219 51.4022 14.1726L50.4984 15.4107C50.3844 15.5626 50.2097 15.6462 50.0274 15.6462L50.0351 15.6538Z" fill="black"/>
<path d="M56.8626 14.4238C56.779 14.4238 56.6955 14.4086 56.612 14.363C56.3233 14.2263 56.2017 13.8769 56.346 13.5882C57.2651 11.6893 57.9336 10.1246 58.4501 8.66619C58.7463 7.83825 58.8831 6.75965 58.3134 6.45582C57.7513 6.15959 56.9309 6.84321 56.3537 7.58759C55.7764 8.32438 55.2143 9.06117 54.6446 9.80555C54.4547 10.0638 54.0902 10.1094 53.8319 9.91949C53.5736 9.72959 53.5281 9.365 53.718 9.10674C54.2876 8.35476 54.8573 7.61038 55.4346 6.87359C56.5816 5.40761 57.8273 4.8835 58.8527 5.4304C59.8857 5.98489 60.144 7.33693 59.5363 9.04597C59.0046 10.5423 58.3209 12.1374 57.3867 14.082C57.2879 14.287 57.0829 14.4086 56.8626 14.4086V14.4238Z" fill="black"/>
<path d="M63.0302 23.366C62.8934 23.366 62.7567 23.3204 62.6504 23.2217C62.4073 23.009 62.3845 22.6444 62.5971 22.4089C63.4782 21.3987 64.4353 20.3657 65.6659 19.8568C65.9621 19.7352 66.2963 19.872 66.4254 20.1682C66.547 20.4644 66.4102 20.7986 66.114 20.9278C65.1189 21.3455 64.2682 22.2646 63.4783 23.1761C63.3643 23.3052 63.2049 23.3736 63.0378 23.3736L63.0302 23.366Z" fill="black"/>
<path d="M46.015 9.98142C45.9086 9.98142 45.8023 9.95104 45.7035 9.89027C45.4301 9.71557 45.3541 9.35857 45.5212 9.09272L46.8202 7.04186C47.8304 5.44676 49.0685 4.81631 50.1395 5.3632C50.4205 5.50752 50.5344 5.85693 50.3901 6.14557C50.2458 6.42661 49.8964 6.54055 49.6077 6.39623C49.0077 6.0848 48.1873 7.04946 47.7999 7.66472L46.5011 9.72317C46.3948 9.89787 46.2049 9.98902 46.015 9.98902V9.98142Z" fill="black"/>
<path d="M49.0847 14.2577C49.0239 14.2577 48.9556 14.2501 48.8948 14.2273C48.591 14.121 48.4315 13.7944 48.5378 13.4905C48.8645 12.5259 49.1606 11.5384 49.4189 10.5586C49.4948 10.2472 49.8139 10.0573 50.1253 10.1408C50.4367 10.2168 50.619 10.5358 50.543 10.8472C50.2848 11.8651 49.981 12.8829 49.6392 13.8703C49.5556 14.1134 49.3354 14.2577 49.0923 14.2577H49.0847Z" fill="black"/>
<path d="M37.3939 23.5789C37.2875 23.5789 37.1812 23.5485 37.0824 23.4877C36.809 23.313 36.733 22.956 36.9001 22.6902C37.128 22.3256 37.3103 22.0293 37.4926 21.7331C37.6749 21.4369 37.8648 21.1331 38.0927 20.7685C38.2674 20.495 38.6244 20.4191 38.8902 20.5862C39.1637 20.7609 39.2396 21.1179 39.0725 21.3837C38.8446 21.7483 38.6623 22.0445 38.48 22.3408C38.2977 22.637 38.1079 22.9408 37.88 23.3054C37.7737 23.4801 37.5838 23.5713 37.3939 23.5713V23.5789Z" fill="black"/>
<path d="M41.716 16.764C41.6097 16.764 41.5034 16.7336 41.4047 16.6729C41.1312 16.4982 41.0553 16.1412 41.2224 15.8753C41.4806 15.4651 41.6933 15.1233 41.9059 14.7891C42.111 14.4625 42.3161 14.1283 42.5744 13.7333C42.7491 13.4599 43.1061 13.3839 43.372 13.551C43.6454 13.7257 43.7214 14.0827 43.5542 14.3486C43.3036 14.7435 43.0985 15.0777 42.8934 15.4044C42.6807 15.7462 42.468 16.0804 42.2022 16.4982C42.0958 16.6729 41.9059 16.764 41.716 16.764Z" fill="black"/>
<path d="M61.4112 21.6639C61.3277 21.6639 61.2442 21.6487 61.1606 21.6031C60.872 21.4664 60.7504 21.117 60.8871 20.8284C62.1024 18.299 63.2114 15.686 64.1761 13.0503C64.404 12.4275 64.7078 11.3261 64.1761 10.9159C63.8723 10.6805 63.3633 10.7716 63.0215 10.9767C62.5658 11.2501 62.2164 11.7363 61.8822 12.1996C60.8795 13.5896 59.8617 15.0024 58.8667 16.4076C58.6844 16.6659 58.3197 16.7343 58.0615 16.5444C57.8032 16.3621 57.7349 15.9975 57.9248 15.7392C58.9199 14.3264 59.9377 12.906 60.9479 11.516C61.3125 11.0071 61.7682 10.3766 62.429 9.98164C63.1051 9.57147 64.1305 9.41955 64.8825 9.99683C65.4749 10.4526 66.0142 11.4172 65.2698 13.4529C64.29 16.119 63.1658 18.7699 61.9353 21.3297C61.8366 21.5348 61.6315 21.6563 61.4112 21.6563V21.6639Z" fill="black"/>
<path d="M42.7407 56.2378C42.642 56.2378 42.5356 56.2074 42.4445 56.1542C42.171 55.9871 42.0798 55.6377 42.247 55.3566C44.0396 52.3791 46.2802 49.432 49.5084 45.8012C49.7211 45.5657 50.0858 45.5429 50.3288 45.7556C50.5643 45.9683 50.587 46.3329 50.3744 46.576C47.1918 50.1536 44.9966 53.0475 43.2419 55.9567C43.1356 56.139 42.9458 56.2378 42.7483 56.2378H42.7407Z" fill="black"/>
<path d="M77.6833 95.1535C71.6523 84.0029 65.4313 72.9587 59.0205 62.0208C65.5301 57.4178 72.4878 53.4528 79.6354 50.3613C85.7576 61.4435 92.3735 72.2447 99.5135 82.5977C96.2321 85.6512 91.6671 86.7829 87.6489 88.7502C84.1473 90.4669 81.0255 92.8443 77.6909 95.1459L77.6833 95.1535Z" fill="#2E90FA"/>
<path d="M57.2578 56.239C57.0604 56.239 56.8704 56.1402 56.7641 55.9579C53.6878 50.8384 49.4646 46.3265 45.3857 41.959C39.9851 36.1786 34.4022 30.2084 31.4019 22.7569C30.8702 21.4505 30.9918 20.425 31.7285 19.8781C32.0779 19.6199 32.5412 19.506 33.1033 19.5515C34.9035 19.6882 36.2176 21.0403 37.4101 22.4151C38.39 23.5469 39.385 24.6863 40.3876 25.8256C38.2 21.8606 36.3012 17.721 34.7364 13.4673C33.9844 11.4317 34.5314 10.467 35.1238 10.0189C35.8758 9.44159 36.9012 9.5935 37.5772 10.0037C38.2381 10.3986 38.6938 11.0291 39.0584 11.538C41.5346 14.9561 44.0564 18.5489 46.5858 22.2556C45.811 20.4782 44.9376 18.7464 44.0792 17.0373C42.788 14.4776 41.4511 11.8342 40.4713 9.07699C39.8636 7.36794 40.1218 6.0159 41.1548 5.46141C42.1802 4.90692 43.4335 5.43862 44.5729 6.9046C46.7453 9.69224 48.8721 12.5938 50.9381 15.4346C50.057 13.1863 49.3886 10.862 48.9328 8.47692C48.6366 6.93499 48.9709 5.8412 49.8596 5.37786C50.923 4.83097 52.1611 5.45382 53.1789 7.05652L65.6511 26.7295C65.9473 24.2609 65.5523 21.6859 65.1726 19.1793C65.0662 18.4881 64.9599 17.7969 64.8688 17.1057C64.5422 14.6295 65.241 12.8976 66.7373 12.4571C68.0818 12.0697 69.5249 12.9204 70.6035 14.7434C72.1379 17.3336 72.9582 20.2427 73.4367 22.1948C74.6141 26.9802 75.1458 31.8946 75.0167 36.8243L74.9939 37.5838C74.9103 40.3259 74.8192 43.1667 76.2851 45.3011C76.4674 45.567 76.3991 45.924 76.1333 46.1063C75.8674 46.2886 75.5104 46.2202 75.3281 45.9543C73.657 43.5009 73.7482 40.4778 73.8393 37.5459L73.8621 36.7939C73.9837 31.9706 73.4671 27.1549 72.3126 22.4759C71.5758 19.4756 70.7175 17.2044 69.6085 15.3359C69.0009 14.3029 68.0134 13.3002 67.0639 13.5737C65.6967 13.9687 65.9549 16.4601 66.0157 16.9538C66.1068 17.6374 66.2132 18.321 66.3119 19.0046C66.7828 22.1037 67.2766 25.3091 66.517 28.4234C66.4638 28.6512 66.2815 28.8183 66.0461 28.8563C65.8182 28.8943 65.5903 28.788 65.4612 28.5981L52.1914 7.67178C51.8041 7.05652 50.9837 6.09945 50.3837 6.40328C49.8368 6.68433 49.981 7.79331 50.0646 8.25665C50.9305 12.7913 52.5864 17.0905 55.0018 21.0251C55.1613 21.291 55.0854 21.6328 54.8347 21.8075C54.5765 21.9822 54.2272 21.9214 54.0449 21.6707C53.0118 20.2655 51.994 18.8603 50.9761 17.4627C48.6063 14.2041 46.1604 10.8316 43.6538 7.61861C43.069 6.87422 42.2562 6.18301 41.6942 6.48684C41.1245 6.79067 41.2612 7.86926 41.5574 8.6972C42.5145 11.3861 43.8362 13.999 45.1046 16.5284C46.6846 19.6579 48.3176 22.9013 49.305 26.3497C49.381 26.6232 49.2519 26.9118 48.9937 27.0333C48.7354 27.1549 48.4315 27.0637 48.272 26.8283C44.8615 21.7391 41.451 16.8247 38.1165 12.2292C37.7823 11.7659 37.4329 11.2798 36.9771 11.0063C36.6353 10.8012 36.1264 10.7177 35.8226 10.9455C35.2833 11.3557 35.5871 12.4571 35.8226 13.0799C38.0253 19.0654 40.889 24.8306 44.3299 30.2008C44.4894 30.4514 44.4362 30.7856 44.2007 30.9679C43.9652 31.1502 43.631 31.1274 43.4259 30.9072C41.132 28.4613 38.7926 25.78 36.5366 23.1823C35.5036 21.9898 34.3794 20.82 33.0122 20.7137C32.7387 20.6909 32.5412 20.7289 32.4197 20.82C32.1007 21.0555 32.245 21.7619 32.4805 22.3392C35.4049 29.5931 40.9118 35.4874 46.2364 41.1842C50.3533 45.5898 54.6145 50.1548 57.7591 55.3731C57.9262 55.6465 57.8351 56.0035 57.5617 56.1706C57.4705 56.2238 57.3642 56.2542 57.2654 56.2542L57.2578 56.239Z" fill="black"/>
<path d="M77.8657 95.7898C77.6606 95.7898 77.4631 95.6834 77.3568 95.486C71.3257 84.305 64.9453 73.1241 58.3902 62.2546C58.2459 62.0115 58.2915 61.7077 58.5041 61.5178C62.1653 58.2972 66.3277 56.1324 70.3535 54.036C73.3766 52.4636 76.3921 50.8913 79.3849 49.3342C79.5292 49.2582 79.6887 49.2506 79.8406 49.3038C79.9925 49.357 80.114 49.4709 80.1747 49.6152C82.5598 54.9702 85.7653 59.991 88.8643 64.8523L99.9086 82.1478C100.083 82.4137 99.9996 82.7783 99.7338 82.9454C99.4604 83.1125 99.1034 83.0365 98.9363 82.7707L87.8997 65.4752C84.8841 60.7506 81.7623 55.8665 79.3772 50.6483C76.5668 52.1142 73.726 53.5954 70.8852 55.069C67.0569 57.0591 63.0996 59.1175 59.6283 62.0799C66.0999 72.8354 72.4043 83.8873 78.367 94.9467C78.5189 95.2277 78.4126 95.5771 78.1315 95.729C78.048 95.7746 77.9492 95.7974 77.8581 95.7974L77.8657 95.7898Z" fill="black"/>
<path d="M59.4972 61.7997C59.2921 61.7997 59.0946 61.6934 58.9883 61.5035L56.4058 56.8321C56.2615 56.5663 56.345 56.2321 56.6033 56.065C62.9154 52.0316 69.554 48.3553 76.3218 45.1347C76.5953 45.0055 76.9219 45.1043 77.0662 45.3625C77.8789 46.7526 78.6081 48.2185 79.231 49.7073C79.3525 50.0035 79.2158 50.3378 78.9196 50.4669C78.6234 50.5884 78.2892 50.4517 78.16 50.1555C77.6207 48.8794 77.0054 47.6185 76.3294 46.4108C69.9338 49.4794 63.6597 52.9507 57.6742 56.7486L59.991 60.949C60.1429 61.2301 60.0441 61.5795 59.7631 61.7314C59.6719 61.777 59.5808 61.7997 59.482 61.7997H59.4972Z" fill="black"/>
<path d="M22.1423 95.7892C22.0512 95.7892 21.9523 95.7664 21.8688 95.7209C21.5877 95.5689 21.4814 95.2195 21.6334 94.9385C27.596 83.8867 33.9005 72.8273 40.3721 62.0717C36.9084 59.1169 32.951 57.0585 29.1151 55.0608C26.2743 53.5872 23.4412 52.1061 20.6232 50.6401C18.2381 55.8584 15.1238 60.7424 12.1007 65.467L1.0641 82.7625C0.889399 83.0284 0.532362 83.1119 0.266511 82.9372C0.000659396 82.7625 -0.082879 82.4055 0.0918232 82.1397L11.136 64.8441C14.2426 59.9829 17.4481 54.9545 19.8256 49.6071C19.8939 49.4628 20.0154 49.3488 20.1597 49.2956C20.3116 49.2425 20.4788 49.2577 20.6156 49.326C23.6083 50.8832 26.6238 52.4555 29.6469 54.0278C33.6727 56.1242 37.8427 58.289 41.4963 61.5096C41.7089 61.6919 41.7545 62.0033 41.6102 62.2464C35.0551 73.1159 28.6746 84.2969 22.6436 95.4778C22.5372 95.6753 22.3398 95.7816 22.1347 95.7816L22.1423 95.7892Z" fill="black"/>
<path d="M40.5095 61.7997C40.4184 61.7997 40.3196 61.777 40.2285 61.7314C39.9474 61.5795 39.8487 61.2225 40.0006 60.949L42.3173 56.7486C36.3319 52.9507 30.0578 49.4718 23.6622 46.4108C22.9786 47.6185 22.3633 48.8794 21.8316 50.1555C21.7101 50.4517 21.3683 50.5884 21.072 50.4669C20.7758 50.3454 20.639 50.0035 20.7606 49.7073C21.3834 48.2185 22.1126 46.7602 22.9253 45.3625C23.0773 45.1043 23.4039 45.0055 23.6773 45.1347C30.4451 48.3553 37.0839 52.0316 43.3959 56.065C43.6542 56.2321 43.7378 56.5663 43.5934 56.8321L41.0109 61.5035C40.9045 61.6934 40.707 61.7997 40.5019 61.7997H40.5095Z" fill="black"/>
<path d="M77.4235 20.0983C77.4235 20.0983 77.3551 20.0983 77.3248 20.0907C77.0133 20.0375 76.8007 19.7337 76.8538 19.4222C77.7425 14.3939 76.307 9.05404 73.0104 5.14983C72.8053 4.90676 72.8357 4.54217 73.0788 4.33708C73.3218 4.132 73.6865 4.16238 73.8916 4.40544C77.4084 8.56791 78.9351 14.2571 77.9932 19.6273C77.94 19.9084 77.697 20.1059 77.4235 20.1059V20.0983Z" fill="black"/>
<path d="M83.5315 19.3455C83.5315 19.3455 83.4783 19.3455 83.4555 19.3455C83.1365 19.2999 82.9162 19.0113 82.9618 18.6923C83.4631 14.9627 83.2809 11.218 82.4225 7.55688C82.3466 7.24546 82.544 6.93403 82.8554 6.85808C83.1669 6.78212 83.4783 6.97961 83.5543 7.29103C84.4506 11.0889 84.6405 14.9779 84.1164 18.8442C84.0784 19.1328 83.8277 19.3455 83.5467 19.3455H83.5315Z" fill="black"/>
<path d="M17.5775 40.1744C17.3269 40.1744 17.0913 40.0073 17.0229 39.749C15.5874 34.6447 15.7924 29.0846 17.6002 24.0942C17.7066 23.7903 18.0409 23.6384 18.3447 23.7448C18.6485 23.8511 18.8004 24.1853 18.6941 24.4892C16.9698 29.2517 16.7724 34.5611 18.1472 39.4376C18.2308 39.7414 18.056 40.068 17.7446 40.1516C17.6914 40.1668 17.6383 40.1744 17.5851 40.1744H17.5775Z" fill="black"/>
</svg>
