<svg width="200" height="56" viewBox="0 0 200 56" fill="none" xmlns="http://www.w3.org/2000/svg">
<g id="Relume / Black">
<g id="Group">
<g id="Group_2">
<path id="Vector" d="M55.7189 28.3238V46.6471C55.7189 48.4355 54.2708 49.8836 52.4881 49.8836C52.1535 49.8836 51.8304 49.8317 51.5304 49.7394C50.2093 49.3298 49.2516 48.1009 49.2516 46.6471V28.3238C49.2516 23.668 45.4785 19.8892 40.8169 19.8892H32.2495V13.416H40.8169C49.0496 13.416 55.7189 20.0911 55.7189 28.3181V28.3238Z" fill="#2EACE5"/>
<path id="Vector_2" d="M55.7189 28.3239V46.6471C55.7189 48.4356 54.2708 49.8837 52.4881 49.8837C52.1535 49.8837 51.8304 49.8318 51.5304 49.7395C51.2535 49.2202 51.0977 48.6202 51.0977 47.9856V26.9508C51.0977 21.6027 46.8285 17.27 41.5669 17.27H32.2495V13.4219H40.8169C49.0496 13.4219 55.7189 20.0969 55.7189 28.3239Z" fill="#57BAE5"/>
<path id="Vector_3" d="M49.0667 33.3962V39.8635H40.0378C31.805 39.8635 25.1357 33.1942 25.1357 24.9615V9.34984C25.1357 8.04021 25.9088 6.91522 27.0223 6.40752C27.4319 6.21713 27.8877 6.11328 28.3665 6.11328C29.2608 6.11328 30.0685 6.47675 30.6512 7.05945C31.2339 7.64215 31.5973 8.44982 31.5973 9.34406V24.9557C31.5973 29.6115 35.3762 33.3904 40.032 33.3904H49.0609L49.0667 33.3962Z" fill="#244AB4"/>
<path id="Vector_4" d="M49.0667 33.3962V39.8635H43.182C34.2512 39.8635 27.0107 32.6231 27.0107 23.6922V6.74789C27.0107 6.6325 27.0107 6.51714 27.0281 6.40752C27.4377 6.21713 27.8934 6.11328 28.3723 6.11328C29.2665 6.11328 30.0742 6.47675 30.6569 7.05945C31.2396 7.64215 31.6031 8.44982 31.6031 9.34406V24.9557C31.6031 29.6115 35.382 33.3904 40.0378 33.3904H49.0667V33.3962Z" fill="#4563B4"/>
</g>
<g id="Group_3">
<g id="Group_4">
<path id="Vector_5" d="M65.8843 24.2868V10.8848H70.7651C74.942 10.8848 77.7171 13.6251 77.7171 17.5656C77.7171 21.506 74.942 24.2868 70.7651 24.2868H65.8843ZM68.7574 21.8925H70.7651C73.3324 21.8925 74.769 20.1098 74.769 17.5656C74.769 15.0213 73.3324 13.279 70.7651 13.279H68.7574V21.8925Z" fill="#4563B4"/>
<path id="Vector_6" d="M78.8652 19.382C78.8652 16.3185 80.8729 14.3281 83.9191 14.3281C86.9653 14.3281 88.8576 16.1685 88.898 19.0589C88.898 19.3474 88.8807 19.6705 88.823 19.9762H81.6806V20.1089C81.7383 21.5051 82.6383 22.3474 83.9999 22.3474C85.0903 22.3474 85.8576 21.8686 86.0884 20.9512H88.748C88.4422 22.8666 86.7403 24.3955 84.1153 24.3955C80.8441 24.3955 78.871 22.4224 78.871 19.3762L78.8652 19.382ZM86.1807 18.2166C85.9903 17.0108 85.1653 16.3416 83.9422 16.3416C82.7191 16.3416 81.8941 17.0512 81.7383 18.2166H86.1807Z" fill="#4563B4"/>
<path id="Vector_7" d="M100.621 19.4992C100.621 22.5627 98.7052 24.5185 96.0629 24.5185C94.7013 24.5185 93.7263 23.9646 93.0975 23.1569V28.2281H90.3975V14.555H92.7513L93.0167 15.9165C93.6513 15.0742 94.6436 14.4396 96.0398 14.4396C98.6994 14.4223 100.615 16.3954 100.615 19.4935L100.621 19.4992ZM97.8802 19.4588C97.8802 17.7915 96.9225 16.6434 95.4514 16.6434C93.9802 16.6434 93.0571 17.7915 93.0571 19.4588C93.0571 21.1262 93.9744 22.3089 95.4514 22.3089C96.9283 22.3089 97.8802 21.1435 97.8802 19.4588Z" fill="#4563B4"/>
<path id="Vector_8" d="M101.706 19.382C101.706 16.3185 103.713 14.3281 106.759 14.3281C109.806 14.3281 111.698 16.1685 111.738 19.0589C111.738 19.3474 111.721 19.6705 111.663 19.9762H104.521V20.1089C104.579 21.5051 105.479 22.3474 106.84 22.3474C107.931 22.3474 108.698 21.8686 108.929 20.9512H111.588C111.283 22.8666 109.581 24.3955 106.956 24.3955C103.684 24.3955 101.711 22.4224 101.711 19.3762L101.706 19.382ZM109.021 18.2166C108.831 17.0108 108.006 16.3416 106.783 16.3416C105.559 16.3416 104.734 17.0512 104.579 18.2166H109.021Z" fill="#4563B4"/>
<path id="Vector_9" d="M122.804 18.8282V24.286H120.104V19.0994C120.104 17.4321 119.469 16.5551 118.113 16.5551C116.758 16.5551 115.909 17.5532 115.909 19.2552V24.2918H113.209V14.4494H115.563L115.811 15.6725C116.446 14.9051 117.346 14.334 118.858 14.334C120.981 14.334 122.804 15.4648 122.804 18.834V18.8282Z" fill="#4563B4"/>
<path id="Vector_10" d="M131.608 10.8847H134.308V24.2867H131.954L131.688 22.9252C131.037 23.7675 130.079 24.4021 128.665 24.4021C126.023 24.4021 124.09 22.4694 124.09 19.3482C124.09 16.227 126.023 14.3289 128.648 14.3289C130.01 14.3289 130.985 14.8655 131.613 15.6674V10.8789L131.608 10.8847ZM131.648 19.3886C131.648 17.704 130.731 16.5386 129.254 16.5386C127.777 16.5386 126.842 17.6866 126.842 19.3713C126.842 21.0559 127.783 22.204 129.254 22.204C130.725 22.204 131.648 21.0559 131.648 19.3886Z" fill="#4563B4"/>
<path id="Vector_11" d="M145.869 22.007V24.2859H144.49C143.094 24.2859 142.65 23.6167 142.673 22.6763C141.986 23.7667 140.988 24.4013 139.454 24.4013C137.331 24.4013 135.796 23.3859 135.796 21.5109C135.796 19.4224 137.365 18.2339 140.313 18.2339H142.263V17.7551C142.263 16.8724 141.634 16.3012 140.504 16.3012C139.448 16.3012 138.744 16.7801 138.629 17.507H136.027C136.217 15.5916 137.982 14.3281 140.584 14.3281C143.342 14.3281 144.929 15.5512 144.929 17.9109V21.3955C144.929 21.9147 145.142 22.007 145.563 22.007H145.869ZM142.269 20.0339H140.296C139.165 20.0339 138.513 20.4955 138.513 21.3147C138.513 22.0013 139.067 22.4455 139.967 22.4455C141.386 22.4455 142.246 21.5628 142.263 20.2243V20.0339H142.269Z" fill="#4563B4"/>
<path id="Vector_12" d="M157.148 19.3483C157.148 22.3945 155.233 24.4022 152.573 24.4022C151.154 24.4022 150.179 23.7906 149.55 22.9483L149.285 24.2868H146.931V10.8848H149.631V15.6905C150.283 14.9059 151.24 14.329 152.596 14.329C155.238 14.329 157.154 16.2271 157.154 19.3483H157.148ZM154.408 19.3656C154.408 17.6809 153.45 16.5329 151.979 16.5329C150.508 16.5329 149.585 17.681 149.585 19.3483C149.585 21.0156 150.502 22.1983 151.979 22.1983C153.456 22.1983 154.408 21.0502 154.408 19.3656Z" fill="#4563B4"/>
<path id="Vector_13" d="M158.642 10.8848H161.342V24.2868H158.642V10.8848Z" fill="#4563B4"/>
<path id="Vector_14" d="M162.831 19.382C162.831 16.3185 164.839 14.3281 167.885 14.3281C170.931 14.3281 172.823 16.1685 172.864 19.0589C172.864 19.3474 172.847 19.6705 172.789 19.9762H165.646V20.1089C165.704 21.5051 166.604 22.3474 167.966 22.3474C169.056 22.3474 169.823 21.8686 170.054 20.9512H172.714C172.408 22.8666 170.706 24.3955 168.081 24.3955C164.81 24.3955 162.837 22.4224 162.837 19.3762L162.831 19.382ZM170.147 18.2166C169.956 17.0108 169.131 16.3416 167.908 16.3416C166.685 16.3416 165.86 17.0512 165.704 18.2166H170.147Z" fill="#4563B4"/>
</g>
<g id="Group_5">
<path id="Vector_15" d="M65.8843 31.7285H68.7574V37.1113H74.0824V31.7285H76.9555V45.1306H74.0824V39.5978H68.7574V45.1306H65.8843V31.7285Z" fill="#4563B4"/>
<path id="Vector_16" d="M78.6343 40.2258C78.6343 37.1623 80.642 35.1719 83.6882 35.1719C86.7343 35.1719 88.6267 37.0123 88.667 39.9027C88.667 40.1912 88.6497 40.5142 88.592 40.82H81.4497V40.9527C81.5074 42.3489 82.4074 43.1912 83.7689 43.1912C84.8593 43.1912 85.6266 42.7123 85.8574 41.795H88.517C88.2113 43.7104 86.5093 45.2393 83.8843 45.2393C80.6131 45.2393 78.64 43.2662 78.64 40.22L78.6343 40.2258ZM85.9497 39.0604C85.7593 37.8546 84.9343 37.1853 83.7112 37.1853C82.4882 37.1853 81.6631 37.895 81.5074 39.0604H85.9497Z" fill="#4563B4"/>
<path id="Vector_17" d="M99.8251 42.8508V45.1296H98.4462C97.0501 45.1296 96.6059 44.4604 96.6289 43.52C95.9366 44.6104 94.9443 45.245 93.4097 45.245C91.2866 45.245 89.752 44.2296 89.752 42.3546C89.752 40.2662 91.3212 39.0777 94.2693 39.0777H96.2193V38.5988C96.2193 37.7161 95.5905 37.145 94.4597 37.145C93.4039 37.145 92.7 37.6238 92.5847 38.3508H89.9827C90.1731 36.4354 91.9385 35.1719 94.5404 35.1719C97.2982 35.1719 98.8847 36.395 98.8847 38.7546V42.2392C98.8847 42.7585 99.0982 42.8508 99.5193 42.8508H99.8251ZM96.2251 40.8777H94.252C93.1212 40.8777 92.4693 41.3392 92.4693 42.1585C92.4693 42.845 93.0231 43.2892 93.9231 43.2892C95.3424 43.2892 96.202 42.4065 96.2193 41.0681V40.8777H96.2251Z" fill="#4563B4"/>
<path id="Vector_18" d="M100.88 31.7285H103.58V45.1306H100.88V31.7285Z" fill="#4563B4"/>
<path id="Vector_19" d="M106.165 37.5679H104.538V35.289H106.165V32.5312H108.865V35.289H111.127V37.5679H108.865V41.8775C108.865 42.564 109.13 42.8525 109.84 42.8525H111.179V45.1314H108.975C107.1 45.1314 106.159 44.191 106.159 42.316V37.5679H106.165Z" fill="#4563B4"/>
<path id="Vector_20" d="M122.013 39.6728V45.1306H119.313V39.9036C119.313 38.294 118.661 37.3939 117.323 37.3939C115.984 37.3939 115.119 38.392 115.119 40.0767V45.1306H112.419V31.7285H115.119V36.4939C115.754 35.7266 116.631 35.1728 118.027 35.1728C120.207 35.1728 122.007 36.3382 122.007 39.6728H122.013Z" fill="#4563B4"/>
<path id="Vector_21" d="M128.14 38.4268C128.14 34.3075 130.65 31.6133 134.706 31.6133C137.884 31.6133 140.123 33.6037 140.469 36.5172H137.561C137.215 35.0229 136.142 34.0479 134.556 34.0479C132.375 34.0479 131.071 35.8479 131.071 38.4326C131.071 41.0172 132.352 42.8172 134.515 42.8172C136.142 42.8172 137.215 41.8422 137.561 40.3479H140.452C140.129 43.2556 137.809 45.2518 134.538 45.2518C130.557 45.2518 128.146 42.5518 128.146 38.4383L128.14 38.4268Z" fill="#4563B4"/>
<path id="Vector_22" d="M151.558 42.8508V45.1296H150.179C148.783 45.1296 148.339 44.4604 148.362 43.52C147.67 44.6104 146.677 45.245 145.143 45.245C143.02 45.245 141.485 44.2296 141.485 42.3546C141.485 40.2662 143.054 39.0777 146.002 39.0777H147.952V38.5988C147.952 37.7161 147.323 37.145 146.193 37.145C145.137 37.145 144.433 37.6238 144.318 38.3508H141.716C141.906 36.4354 143.671 35.1719 146.273 35.1719C149.031 35.1719 150.618 36.395 150.618 38.7546V42.2392C150.618 42.7585 150.831 42.8508 151.252 42.8508H151.558ZM147.958 40.8777H145.985C144.854 40.8777 144.202 41.3392 144.202 42.1585C144.202 42.845 144.756 43.2892 145.656 43.2892C147.075 43.2892 147.935 42.4065 147.952 41.0681V40.8777H147.958Z" fill="#4563B4"/>
<path id="Vector_23" d="M158.602 35.2891V37.741H157.529C155.919 37.741 155.308 38.8141 155.308 40.3083V45.1314H152.608V35.2891H155.06L155.308 36.766C155.844 35.8833 156.612 35.2891 158.141 35.2891H158.602Z" fill="#4563B4"/>
<path id="Vector_24" d="M159.098 40.2258C159.098 37.1623 161.106 35.1719 164.152 35.1719C167.198 35.1719 169.091 37.0123 169.131 39.9027C169.131 40.1912 169.114 40.5142 169.056 40.82H161.914V40.9527C161.971 42.3489 162.871 43.1912 164.233 43.1912C165.323 43.1912 166.091 42.7123 166.321 41.795H168.981C168.675 43.7104 166.973 45.2393 164.348 45.2393C161.077 45.2393 159.104 43.2662 159.104 40.22L159.098 40.2258ZM166.414 39.0604C166.223 37.8546 165.398 37.1853 164.175 37.1853C162.952 37.1853 162.127 37.895 161.971 39.0604H166.414Z" fill="#4563B4"/>
</g>
</g>
</g>
</g>
</svg>
