<svg width="320" height="320" viewBox="0 0 320 320" fill="none" xmlns="http://www.w3.org/2000/svg">
<path d="M159.999 26.668C233.637 26.668 293.333 86.3633 293.333 160.001C293.333 233.639 233.637 293.335 159.999 293.335C86.3613 293.335 26.666 233.639 26.666 160.001C26.666 86.3633 86.3613 26.668 159.999 26.668ZM159.999 53.3346C101.089 53.3346 53.3327 101.091 53.3327 160.001C53.3327 218.912 101.089 266.668 159.999 266.668C218.91 266.668 266.666 218.912 266.666 160.001C266.666 101.091 218.91 53.3346 159.999 53.3346ZM159.999 93.3346C196.818 93.3346 226.666 123.182 226.666 160.001C226.666 196.82 196.818 226.668 159.999 226.668C123.18 226.668 93.3327 196.82 93.3327 160.001C93.3327 153.164 94.3619 146.568 96.2736 140.359C101.489 151.94 113.136 160.001 126.666 160.001C145.075 160.001 159.999 145.077 159.999 126.668C159.999 113.138 151.938 101.491 140.358 96.2673C146.566 94.3638 153.162 93.3346 159.999 93.3346Z" fill="#EFF1F5"/>
</svg>
