<svg width="101" height="101" viewBox="0 0 101 101" fill="none" xmlns="http://www.w3.org/2000/svg">
<g id="Container">
<g id="Group">
<g id="Group_2">
<path id="Vector" d="M42.1489 42.5371C33.9425 47.3644 31.3966 52.3372 31.013 55.0948C30.861 56.1859 30.9668 60.504 38.3268 68.7171C38.6244 69.0477 38.9814 69.4313 39.4179 69.3718C39.8675 65.9397 39.4443 58.9765 40.9124 52.3174C41.6794 48.8523 42.916 52.0661 43.8418 49.6326C44.2187 48.6275 44.675 47.6223 44.7213 46.5511C44.7676 45.4798 43.8088 43 42.1489 42.5371Z" fill="white"/>
<path id="Vector_2" d="M39.3265 69.9482C38.6652 69.9482 38.1891 69.4191 37.8981 69.0951C30.3331 60.6506 30.2802 56.1804 30.4455 55.0099C30.6703 53.4096 32.1516 47.7491 41.8591 42.0422C41.9914 41.9629 42.1568 41.9431 42.3022 41.9827C44.2596 42.5316 45.3507 45.2693 45.2912 46.572C45.2449 47.5838 44.8878 48.5095 44.5373 49.4023C44.4844 49.5477 44.4249 49.6866 44.372 49.8321C43.8297 51.2605 43.0495 51.2671 42.3617 51.1679C41.9914 51.115 41.7666 51.0819 41.469 52.4375C40.5102 56.7689 40.3713 61.2127 40.2522 64.7836C40.1927 66.6352 40.1398 68.2421 39.9811 69.439C39.9481 69.6969 39.7431 69.8953 39.4918 69.9349C39.4323 69.9416 39.3794 69.9482 39.3265 69.9482ZM42.2096 43.1664C33.1568 48.5691 31.7813 53.7138 31.5763 55.1752C31.4705 55.9225 31.325 60.0555 38.7511 68.3347C38.804 68.3876 38.8636 68.4603 38.9363 68.533C39.0289 67.4882 39.0686 66.1987 39.1149 64.7571C39.2339 61.1399 39.3794 56.6366 40.3581 52.1995C40.8011 50.2024 41.5219 49.8916 42.5337 50.0437C42.9304 50.1032 43.0494 50.1164 43.3073 49.4353C43.3603 49.2898 43.4198 49.1444 43.4727 48.9989C43.8033 48.1524 44.1141 47.3589 44.1472 46.5323C44.1869 45.6528 43.3867 43.6954 42.2096 43.173V43.1664Z" fill="black"/>
</g>
<g id="Group_3">
<path id="Vector_3" d="M57.0625 42.5379C65.2689 47.3652 67.3255 51.8949 67.7157 54.6525C67.8678 55.7436 68.2447 60.5048 60.8913 68.7112C60.5937 69.0419 60.2366 69.4254 59.8002 69.3659C59.3505 65.9339 59.7737 58.9706 58.3057 52.3116C57.5386 48.8465 56.302 52.0603 55.3762 49.6268C54.9993 48.6216 54.543 47.6165 54.4967 46.5452C54.4504 45.4739 55.4093 42.9941 57.0691 42.5312L57.0625 42.5379Z" fill="white"/>
<path id="Vector_4" d="M59.8862 69.9482C59.8333 69.9482 59.7738 69.9482 59.7209 69.9349C59.463 69.9019 59.2646 69.6969 59.2316 69.439C59.0729 68.2355 59.02 66.6352 58.9604 64.7836C58.8414 61.2127 58.6959 56.7689 57.7437 52.4375C57.4461 51.0819 57.2213 51.115 56.851 51.1679C56.1633 51.2671 55.3829 51.2605 54.8407 49.8321C54.7878 49.6866 54.7283 49.5477 54.6754 49.4023C54.3249 48.5095 53.9678 47.5838 53.9215 46.572C53.862 45.2693 54.9531 42.5316 56.9105 41.9827C57.0626 41.9431 57.2213 41.9629 57.3535 42.0422C65.6129 46.9026 67.8546 51.5382 68.2779 54.5735C68.5225 56.3258 68.3374 61.2524 61.308 69.0951C61.017 69.4191 60.5409 69.9482 59.8796 69.9482H59.8862ZM57.0824 50.004C57.8892 50.004 58.4777 50.4735 58.8547 52.1929C59.8333 56.63 59.9788 61.1333 60.0979 64.7505C60.1441 66.1987 60.1904 67.4882 60.2764 68.5264C60.3425 68.4537 60.4086 68.3876 60.4616 68.328C67.1669 60.8424 67.3719 56.3258 67.1471 54.7322C66.7635 51.9746 64.6805 47.7425 57.0031 43.1664C55.826 43.6888 55.0259 45.6462 55.0655 46.5257C55.0986 47.3457 55.4094 48.1458 55.74 48.9923C55.7995 49.1378 55.8524 49.2832 55.9053 49.4287C56.1632 50.1098 56.2823 50.0966 56.6791 50.0371C56.8179 50.0173 56.9568 50.004 57.0824 50.004Z" fill="black"/>
</g>
<g id="Group_4">
<path id="Vector_5" d="M59.738 16.1087C59.1627 28.9573 58.5874 41.7993 58.0121 54.6479C58.0121 54.6479 41.5661 54.7405 41.2619 54.2975C40.1906 41.2637 39.3772 28.9639 38.6763 15.9037C41.1098 14.9647 43.5764 13.2652 46.1818 13.2387C47.6564 13.2255 49.1112 13.5099 50.5528 13.7876C52.0605 14.0785 53.5683 14.3761 55.076 14.6671C56.6829 14.9779 58.3162 15.3019 59.738 16.1087Z" fill="white"/>
<path id="Vector_6" d="M54.4612 55.2288C53.0659 55.2288 51.4061 55.2287 49.7463 55.2155C41.1497 55.1494 41.024 54.9642 40.7926 54.627C40.7397 54.5476 40.7 54.4484 40.6934 54.3493C39.675 42.0098 38.855 29.8026 38.1012 15.9356C38.0879 15.6909 38.2334 15.4595 38.4649 15.3735C39.179 15.1024 39.8866 14.7652 40.6339 14.4015C42.3995 13.5616 44.2246 12.6887 46.1754 12.6689C47.6963 12.6491 49.2106 12.9466 50.6655 13.231L55.1886 14.1105C56.822 14.4279 58.5082 14.7585 60.0226 15.6116C60.2077 15.7174 60.3201 15.9224 60.3135 16.134L58.5876 54.6733C58.5744 54.9775 58.323 55.2155 58.0189 55.2221C57.9924 55.2221 56.5244 55.2288 54.4678 55.2288H54.4612ZM41.7977 53.8467C43.5964 54.0649 51.9219 54.1046 57.4634 54.0781L59.1497 16.4448C57.8668 15.7968 56.3921 15.5124 54.9638 15.2347L50.4406 14.3552C49.0453 14.084 47.6104 13.7931 46.182 13.8129C44.4825 13.8261 42.7764 14.6461 41.1232 15.4331C40.5148 15.724 39.8866 16.0216 39.2584 16.2861C39.9924 29.8158 40.7992 41.7784 41.7911 53.8467H41.7977Z" fill="black"/>
</g>
<g id="Group_5">
<path id="Vector_7" d="M59.7436 15.9198C52.8862 15.5825 45.5262 15.4635 38.6687 15.8999C41.5188 11.1519 44.9575 6.11301 47.9266 1.43777C48.4622 0.591336 49.6856 0.551659 50.2741 1.35842C53.7657 6.13284 56.6356 11.4363 59.737 15.9198H59.7436Z" fill="white"/>
<path id="Vector_8" d="M59.7423 16.4893C59.7423 16.4893 59.7225 16.4893 59.7159 16.4893C51.7739 16.0925 44.7049 16.0925 38.7071 16.4694C38.4889 16.4826 38.2905 16.3768 38.1847 16.1983C38.0722 16.0197 38.0722 15.7883 38.1847 15.6098C39.9899 12.6076 42.0399 9.45987 44.0304 6.41799C45.1744 4.66561 46.3581 2.85371 47.4492 1.13438C47.7996 0.57891 48.408 0.228433 49.0693 0.208594C49.7174 0.182143 50.3522 0.492945 50.7423 1.02197C52.7195 3.72659 54.4984 6.59654 56.2243 9.38052C57.5866 11.576 58.8694 13.6458 60.2184 15.5965C60.3441 15.7751 60.3507 16.0065 60.2449 16.1983C60.1457 16.3768 59.9539 16.4893 59.7423 16.4893ZM48.3221 15.0477C51.5557 15.0477 55.001 15.127 58.6248 15.2923C57.494 13.6061 56.3962 11.8339 55.2456 9.97567C53.5329 7.21153 51.7673 4.36142 49.8166 1.68986C49.6512 1.45841 49.3801 1.33277 49.1024 1.34599C48.818 1.35261 48.5667 1.49809 48.408 1.74276C47.3103 3.46869 46.1266 5.28721 44.976 7.0396C43.1972 9.75745 41.3654 12.5613 39.7188 15.2659C42.3904 15.1204 45.2669 15.0477 48.3154 15.0477H48.3221Z" fill="black"/>
</g>
<g id="Group_6">
<path id="Vector_9" d="M49.2067 33.4911C52.3804 33.4911 54.9532 30.9183 54.9532 27.7446C54.9532 24.5708 52.3804 21.998 49.2067 21.998C46.033 21.998 43.4602 24.5708 43.4602 27.7446C43.4602 30.9183 46.033 33.4911 49.2067 33.4911Z" fill="#ACD4F7"/>
<path id="Vector_10" d="M49.2061 34.0596C45.7212 34.0596 42.8843 31.2228 42.8843 27.7378C42.8843 24.2529 45.7212 21.416 49.2061 21.416C52.691 21.416 55.5279 24.2529 55.5279 27.7378C55.5279 31.2228 52.691 34.0596 49.2061 34.0596ZM49.2061 22.5666C46.3494 22.5666 44.0283 24.8877 44.0283 27.7444C44.0283 30.6012 46.3494 32.9222 49.2061 32.9222C52.0628 32.9222 54.3839 30.6012 54.3839 27.7444C54.3839 24.8877 52.0628 22.5666 49.2061 22.5666Z" fill="black"/>
</g>
<path id="Vector_11" d="M38.8867 86.1278C37.9014 86.1278 36.9293 85.8038 36.1953 85.0565C35.977 84.8317 35.9837 84.468 36.2085 84.2498C36.4333 84.0315 36.7971 84.0381 37.0153 84.263C38.0799 85.3541 39.9976 85.1028 41.1681 84.2365C42.5171 83.238 43.2775 81.565 43.8396 80.0639C45.8036 74.8265 46.5509 69.1065 46.002 63.5385C45.969 63.2211 46.2004 62.9434 46.5178 62.9103C46.8286 62.8839 47.113 63.1087 47.146 63.4261C47.7147 69.1726 46.9476 75.0646 44.9175 80.4672C44.2959 82.127 43.4429 83.9852 41.8558 85.1557C41.0358 85.7641 39.9513 86.1344 38.8933 86.1344L38.8867 86.1278Z" fill="black"/>
<path id="Vector_12" d="M51.9403 84.2969C51.6229 84.2969 51.3716 84.039 51.3716 83.7216C51.398 78.4181 51.4906 73.0486 51.6493 67.765C51.6559 67.4475 51.9337 67.1963 52.2379 67.2095C52.5553 67.2161 52.8 67.4806 52.7933 67.798C52.6346 73.0684 52.542 78.4314 52.5156 83.7282C52.5156 84.0456 52.2577 84.2969 51.9469 84.2969H51.9403Z" fill="black"/>
<path id="Vector_13" d="M62.8042 85.9162C62.6786 85.9162 62.5463 85.8766 62.4405 85.784C60.7146 84.3755 59.3655 82.3453 58.4265 79.7597C57.6065 77.5048 57.2098 75.1242 56.8196 72.8295C56.7667 72.5187 56.9784 72.2212 57.2892 72.1683C57.6 72.1154 57.8975 72.327 57.9504 72.6378C58.334 74.8861 58.7241 77.2072 59.5044 79.3696C60.3707 81.7568 61.6007 83.6216 63.1679 84.8979C63.4126 85.0962 63.4457 85.46 63.2473 85.7046C63.1349 85.8435 62.9695 85.9162 62.8042 85.9162Z" fill="black"/>
<path id="Vector_14" d="M30.7656 100.206C27.1683 100.206 24.1925 99.3592 21.8912 97.6862C19.6826 96.0727 17.7715 93.0771 18.4857 90.0021C18.9949 87.8133 20.8795 85.9882 23.0881 85.5583C24.1131 85.36 25.1844 85.4658 26.1697 85.8162C25.363 84.0308 25.0786 82.0073 25.4555 80.1689C26.1036 76.9882 28.7223 74.3365 31.8369 73.7281C35.0639 73.0933 38.5026 74.6935 40.0235 77.5304C40.169 77.8082 40.0698 78.1586 39.7854 78.3041C39.5077 78.4496 39.1572 78.3438 39.0117 78.0661C37.7487 75.6987 34.7597 74.31 32.0551 74.8456C29.3835 75.3747 27.1352 77.6561 26.5731 80.3938C26.1234 82.6157 26.7781 85.1616 28.2197 87.0396C28.5172 87.3107 28.7884 87.6149 29.0198 87.9456C29.1918 88.1902 29.1455 88.5209 28.9206 88.7126C28.6958 88.9044 28.3652 88.8912 28.1536 88.6862C27.8758 88.4151 27.6179 88.1307 27.3799 87.8199C26.2888 86.8611 24.7413 86.3982 23.3064 86.6759C21.5342 87.0198 20.0066 88.4944 19.6032 90.2534C19.0081 92.8192 20.6679 95.3651 22.5724 96.7538C25.2175 98.6847 28.9008 99.4055 33.5099 98.8963C35.3152 98.6979 37.1337 98.3408 38.8993 97.997C40.9493 97.6002 43.072 97.1836 45.2013 97.0051C49.6583 96.6347 54.1286 97.2894 58.4599 97.9242C61.4555 98.3607 64.5569 98.817 67.6054 98.9228C67.9228 98.936 68.1675 99.2005 68.1542 99.5113C68.141 99.8287 67.8765 100.093 67.5657 100.06C64.4511 99.9544 61.3233 99.4981 58.2946 99.055C54.0294 98.4334 49.6186 97.7854 45.3005 98.1491C43.2307 98.321 41.141 98.731 39.1241 99.1211C37.3387 99.4716 35.4871 99.8287 33.6422 100.034C32.6502 100.146 31.6914 100.199 30.7788 100.199L30.7656 100.206Z" fill="black"/>
<path id="Vector_15" d="M75.8107 95.9613C75.5462 95.9613 75.3081 95.7762 75.2486 95.4984C75.1891 95.1876 75.3875 94.8901 75.6983 94.8239C77.054 94.5528 78.3434 93.6998 79.2362 92.4962C80.076 91.3588 80.5786 89.9305 80.691 88.3699C80.7439 87.616 80.691 87.0407 80.5058 86.5646C80.1752 85.6917 79.3883 85.0965 78.7931 84.7461C76.4125 83.364 73.1193 83.7409 70.9702 85.6322C70.752 85.824 70.4213 85.8239 70.2097 85.6256C69.9915 85.4272 69.9584 85.1032 70.1303 84.8651C71.2281 83.364 71.8232 81.9819 71.9422 80.6528C72.0877 79.0789 71.4727 77.5712 70.3816 76.8041C69.6675 76.3015 68.7417 76.0965 68.0209 75.9775C67.4389 75.8849 66.824 75.8122 66.2553 75.9511C65.7262 76.0833 65.2964 76.4073 65.1443 76.8107C65.0319 77.1083 64.7013 77.2538 64.4103 77.1414C64.1127 77.0289 63.9673 76.6983 64.0797 76.4073C64.364 75.6535 65.0782 75.065 65.9842 74.8467C66.7512 74.6616 67.5382 74.7475 68.206 74.8533C69.0525 74.9922 70.1303 75.2369 71.0363 75.8717C72.4514 76.8702 73.2516 78.7879 73.073 80.7586C72.9937 81.6447 72.7424 82.5374 72.306 83.4566C74.5742 82.4845 77.2655 82.5506 79.3552 83.7608C80.4397 84.389 81.2068 85.2156 81.5639 86.1546C81.8085 86.7894 81.8879 87.5234 81.8217 88.4492C81.6895 90.2347 81.1142 91.868 80.1487 93.1774C79.0907 94.6123 77.5433 95.6241 75.9099 95.9481C75.8702 95.9547 75.8372 95.9613 75.7975 95.9613H75.8107Z" fill="black"/>
<path id="Vector_16" d="M37.0872 63.2944C37.0277 63.2944 36.9681 63.2679 36.9285 63.215C35.6919 61.4494 34.5082 59.6111 33.4237 57.7463C33.3708 57.6537 33.4038 57.5413 33.4898 57.4884C33.5824 57.4355 33.6948 57.4685 33.7477 57.5545C34.8322 59.4127 36.0027 61.2444 37.2393 62.9968C37.2988 63.0828 37.2789 63.2018 37.193 63.2613C37.1599 63.2878 37.1202 63.2944 37.0806 63.2944H37.0872Z" fill="black"/>
<path id="Vector_17" d="M38.3769 60.6238C38.3174 60.6238 38.2579 60.5974 38.2182 60.5445C36.3732 57.9258 34.7134 55.1418 33.2652 52.2851C33.219 52.1925 33.2586 52.0735 33.3512 52.0272C33.4438 51.9809 33.5628 52.0206 33.6091 52.1132C35.0441 54.9567 36.7039 57.7208 38.5356 60.3262C38.5952 60.4122 38.5753 60.5312 38.4894 60.5908C38.4563 60.6172 38.4166 60.6238 38.3769 60.6238Z" fill="black"/>
<path id="Vector_18" d="M38.5361 56.6555C38.4765 56.6555 38.417 56.6224 38.3774 56.5695C37.2267 54.8304 36.1488 53.0052 35.1834 51.1537C35.1371 51.0611 35.1701 50.9421 35.2627 50.8958C35.3553 50.8495 35.4743 50.8825 35.5206 50.9751C36.4795 52.8201 37.5507 54.632 38.6948 56.3579C38.7543 56.4439 38.7278 56.5629 38.6418 56.6224C38.6088 56.6423 38.5757 56.6555 38.5361 56.6555Z" fill="black"/>
<path id="Vector_19" d="M39.1046 52.4438C39.0385 52.4438 38.9657 52.4041 38.9327 52.338C38.3508 51.2006 37.8085 50.0301 37.3192 48.8465C37.2795 48.7473 37.3192 48.6348 37.4184 48.5952C37.5176 48.5555 37.63 48.5952 37.6697 48.701C38.159 49.8714 38.6946 51.0353 39.2699 52.1661C39.3162 52.2586 39.2832 52.3777 39.184 52.424C39.1575 52.4372 39.1244 52.4438 39.098 52.4438H39.1046Z" fill="black"/>
<path id="Vector_20" d="M59.7894 51.1133C59.7894 51.1133 59.7233 51.1067 59.6969 51.0869C59.6043 51.034 59.5712 50.915 59.6241 50.829L61.5749 47.43C61.6278 47.3374 61.7468 47.3044 61.8328 47.3573C61.9254 47.4102 61.9584 47.5292 61.9055 47.6152L59.9548 51.0141C59.9217 51.0737 59.8556 51.1067 59.7894 51.1067V51.1133Z" fill="black"/>
<path id="Vector_21" d="M60.3568 55.3655C60.3568 55.3655 60.3039 55.3655 60.2841 55.3523C60.1849 55.3126 60.1452 55.2002 60.1849 55.101C61.0181 53.1766 61.9968 51.2986 63.1011 49.5132C63.154 49.4206 63.2731 49.3941 63.3656 49.4537C63.4582 49.5066 63.4846 49.6256 63.4251 49.7182C62.334 51.4838 61.3619 53.3486 60.5353 55.2531C60.5023 55.3258 60.4362 55.3655 60.3634 55.3655H60.3568Z" fill="black"/>
<path id="Vector_22" d="M60.476 60.8277C60.476 60.8277 60.4231 60.8277 60.3966 60.8078C60.3041 60.7615 60.2578 60.6491 60.304 60.5566C61.6861 57.6139 63.1409 54.6513 64.6354 51.7417C64.6817 51.6491 64.8007 51.6095 64.8933 51.6624C64.9859 51.7087 65.0256 51.8277 64.9727 51.9203C63.4848 54.8233 62.03 57.7858 60.6479 60.7219C60.6149 60.788 60.5487 60.8343 60.476 60.8343V60.8277Z" fill="black"/>
<path id="Vector_23" d="M60.9988 65.3181C60.9988 65.3181 60.9459 65.3181 60.9194 65.2982C60.8203 65.2519 60.7806 65.1395 60.8269 65.0469C62.2684 61.8331 63.9349 58.6788 65.76 55.6634C65.8129 55.5708 65.932 55.5444 66.0245 55.5973C66.1171 55.6502 66.1435 55.7692 66.0906 55.8618C64.2655 58.8574 62.6123 62.0051 61.1774 65.199C61.1443 65.2718 61.0782 65.3114 61.0054 65.3114L60.9988 65.3181Z" fill="black"/>
<path id="Vector_24" d="M31.6183 86.3935C31.572 86.3935 31.5191 86.3737 31.486 86.3406C30.4213 85.2825 29.813 83.8145 29.813 82.3134C29.813 80.8123 30.428 79.3443 31.4926 78.2928C31.5654 78.2201 31.691 78.2201 31.7638 78.2928C31.8365 78.3656 31.8365 78.4912 31.7638 78.564C30.7718 79.5493 30.1965 80.9181 30.1965 82.3134C30.1965 83.7153 30.7652 85.0842 31.7571 86.0695C31.8299 86.1422 31.8299 86.2678 31.7571 86.3406C31.7175 86.3803 31.6712 86.4001 31.6249 86.4001L31.6183 86.3935Z" fill="black"/>
<path id="Vector_25" d="M33.7747 85.3354C33.6953 85.3354 33.6226 85.2891 33.5961 85.2098C33.1928 84.1385 33.1134 82.9416 33.3713 81.8306C33.3978 81.7315 33.497 81.6653 33.6028 81.6852C33.7019 81.7116 33.7681 81.8108 33.7483 81.9166C33.5102 82.9548 33.5829 84.079 33.9598 85.0775C33.9995 85.1767 33.9466 85.2891 33.8474 85.3222C33.8276 85.3288 33.8012 85.3354 33.7813 85.3354H33.7747Z" fill="black"/>
<path id="Vector_26" d="M25.0396 95.816C24.9867 95.816 24.9338 95.7962 24.8941 95.7499C24.7288 95.5581 24.5569 95.373 24.3783 95.1878C23.9617 94.7448 23.5385 94.2885 23.2343 93.7396C22.5929 92.5758 22.6259 91.0879 23.307 89.9505C23.3599 89.8579 23.479 89.8315 23.5716 89.8844C23.6641 89.9373 23.6906 90.0563 23.6377 90.1489C23.0227 91.1739 22.9963 92.5163 23.5716 93.5611C23.8493 94.0703 24.246 94.4869 24.6627 94.9365C24.8412 95.1283 25.0198 95.3201 25.1851 95.5119C25.2512 95.5912 25.2446 95.7102 25.1652 95.783C25.1322 95.816 25.0859 95.8293 25.0396 95.8293V95.816Z" fill="black"/>
<path id="Vector_27" d="M75.3036 92.7867C75.2573 92.7867 75.211 92.7735 75.178 92.7404C75.0986 92.6743 75.092 92.5487 75.1581 92.4693C76.0112 91.4972 76.9766 90.3929 77.3073 89.0571C77.4065 88.6603 77.4263 88.3297 77.3602 88.0387C77.2874 87.7015 77.1023 87.4105 76.851 87.2651C76.7584 87.2122 76.7319 87.0931 76.7849 87.0072C76.8378 86.9146 76.9568 86.8881 77.0428 86.941C77.3866 87.146 77.6379 87.5163 77.7305 87.966C77.8032 88.3165 77.7834 88.7 77.671 89.1497C77.3205 90.5714 76.322 91.7155 75.4359 92.7206C75.3962 92.7669 75.3433 92.7867 75.2904 92.7867H75.3036Z" fill="black"/>
<path id="Vector_28" d="M72.0025 92.866C71.9562 92.866 71.9033 92.8462 71.8636 92.8065C71.7909 92.7338 71.7909 92.6081 71.8636 92.5354C72.3596 92.046 72.8754 91.5435 73.2655 90.9616C73.5631 90.5185 73.907 89.8242 73.8673 89.0571C73.8673 88.9513 73.9467 88.8653 74.0459 88.8587C74.1517 88.8455 74.2376 88.938 74.2443 89.0372C74.2839 89.9101 73.9004 90.6772 73.5764 91.1732C73.1664 91.7881 72.6373 92.3106 72.1215 92.8131C72.0819 92.8462 72.0356 92.866 71.9893 92.866H72.0025Z" fill="black"/>
<path id="Vector_29" d="M57.9915 51.6496L41.1685 51.4975C40.8511 51.4975 40.5999 51.233 40.5999 50.9222C40.5999 50.6048 40.8577 50.3535 41.1685 50.3535L57.9915 50.5056C58.3089 50.5056 58.5601 50.7701 58.5601 51.0809C58.5601 51.3983 58.3023 51.6496 57.9915 51.6496Z" fill="black"/>
</g>
</g>
</svg>
