<svg width="210" height="190" viewBox="0 0 210 190" fill="none" xmlns="http://www.w3.org/2000/svg">
<path d="M121.716 0C127.02 0 132.107 2.1071 135.858 5.8579L184.142 54.1421C187.893 57.8929 190 62.9799 190 68.2843V140H210V160L128.738 160.008C124.295 177.256 108.636 190 90 190C71.3643 190 55.7052 177.256 51.2621 160.008L10 160C4.4772 160 0 155.523 0 150V20C0 8.9543 8.9543 0 20 0H121.716ZM90 130C78.9543 130 70 138.954 70 150C70 161.046 78.9543 170 90 170C101.046 170 110 161.046 110 150C110 138.954 101.046 130 90 130ZM121.716 20H20V140L51.2595 140.002C55.6991 122.749 71.3607 110 90 110C108.639 110 124.301 122.749 128.74 140.002L170 140V68.2843L121.716 20ZM120 40V100H40V40H120ZM100 60H60V80H100V60Z" fill="#FDEAD7"/>
</svg>
