<svg width="41" height="44" viewBox="0 0 41 44" fill="none" xmlns="http://www.w3.org/2000/svg">
<g id="Treasure Vince 1" clip-path="url(#clip0_1562_45755)">
<g id="Layer 2">
<g id="Layer 1">
<path id="Vector" d="M4.77539 43.9681C5.52008 41.2907 7.49205 39.9052 10.0217 39.3614C12.4948 38.8397 15.0172 38.5873 17.5447 38.6087C16.6823 38.8604 15.8129 39.0971 14.9585 39.3684C14.133 39.6293 13.3179 39.9249 12.5709 40.4871C17.2422 42.0296 21.4852 40.3128 25.8321 38.9608C24.6937 40.8935 23.0266 42.1127 20.983 42.8263C16.8809 44.2602 12.6806 44.1655 8.43417 43.6587C7.63406 43.564 6.80278 43.7291 5.97382 43.87C5.69903 43.9173 4.95666 44.0639 4.77539 43.9681Z" fill="#00A745"/>
<path id="Vector_2" d="M2.0693 24.7012C2.3995 28.5793 2.35332 32.5383 4.55274 35.9003C4.48924 34.3648 4.74093 32.7726 4.67512 31.1909C7.02002 35.0991 6.91264 40.686 4.0609 43.1267C2.72739 39.1296 1.28997 35.3715 0.250876 31.5073C-0.372583 29.1808 0.554523 26.6512 2.0693 24.7012Z" fill="#00A745"/>
<path id="Vector_3" d="M8.46229 12.47H7.11377V11.873H10.425V12.47H9.07766V16.422H8.46229V12.47Z" fill="#00662A"/>
<path id="Vector_4" d="M13.5085 16.4239L12.3274 14.5767H11.6994V16.4239H11.084V11.875H12.6288C13.0837 11.875 13.4347 12.0105 13.6817 12.2814C13.8035 12.407 13.8993 12.5554 13.9637 12.718C14.0281 12.8806 14.0598 13.0544 14.057 13.2293C14.0606 13.5355 13.9566 13.8333 13.7631 14.0707C13.5696 14.3081 13.2989 14.47 12.9982 14.5282L14.2682 16.4239H13.5085ZM11.6994 12.4592V13.9982H12.5075C13.1229 13.9982 13.4243 13.6599 13.4243 13.2224C13.4243 12.7848 13.1414 12.4592 12.6299 12.4592H11.6994Z" fill="#00662A"/>
<path id="Vector_5" d="M15.0293 16.4239V11.875H17.8614V12.4592H15.6424V13.8204H17.6928V14.4046H15.6424V15.8386H17.8591V16.4239H15.0293Z" fill="#00662A"/>
<path id="Vector_6" d="M21.6031 16.4239L21.1413 15.2417H19.4095L18.9477 16.4239H18.2769L20.1172 11.875H20.4497L22.2716 16.4239H21.6031ZM20.28 12.9453L19.6208 14.6632H20.9323L20.28 12.9453Z" fill="#00662A"/>
<path id="Vector_7" d="M22.4033 15.5614L22.8594 15.1861C23.1053 15.6722 23.5059 15.9124 23.9481 15.9124C24.4654 15.9124 24.7863 15.611 24.7863 15.2196C24.7863 14.9737 24.6258 14.7647 24.3118 14.5858C24.2321 14.5431 24.0716 14.4703 23.8442 14.3641C23.6168 14.2579 23.4505 14.1736 23.3327 14.1055C22.8778 13.8168 22.6504 13.4532 22.6504 13.0225C22.6459 12.8583 22.6771 12.6952 22.7419 12.5443C22.8067 12.3934 22.9035 12.2583 23.0256 12.1485C23.2973 11.902 23.6556 11.7733 24.022 11.7906C24.2837 11.7827 24.5432 11.8408 24.7766 11.9594C25.01 12.078 25.2099 12.2534 25.3578 12.4695L24.9456 12.8632C24.8441 12.7135 24.7075 12.591 24.5477 12.5063C24.3879 12.4215 24.2098 12.3772 24.0289 12.3771C23.6168 12.3771 23.3085 12.623 23.3085 12.9925C23.3085 13.2326 23.4378 13.4231 23.6964 13.5767C23.8678 13.6763 24.0443 13.7669 24.2252 13.848C24.5023 13.9773 24.694 14.0789 24.8025 14.1367C25.2401 14.4022 25.4617 14.7532 25.4617 15.1954C25.4675 15.3751 25.4315 15.5537 25.3566 15.7172C25.2817 15.8807 25.1699 16.0246 25.0299 16.1375C24.7294 16.3851 24.3488 16.5144 23.9597 16.5012C23.6373 16.511 23.319 16.4275 23.0429 16.2608C22.7668 16.0941 22.5448 15.8512 22.4033 15.5614Z" fill="#00662A"/>
<path id="Vector_8" d="M26.2319 11.875H26.8485V14.7787C26.8485 15.4991 27.2237 15.8998 27.8818 15.8998C28.5399 15.8998 28.9105 15.4864 28.9105 14.7787V11.875H29.5316V14.8942C29.5316 15.3929 29.3781 15.7866 29.0768 16.0764C28.7754 16.3662 28.3748 16.5071 27.8818 16.5071C27.3888 16.5071 26.9893 16.3651 26.688 16.0764C26.3866 15.7878 26.2319 15.3929 26.2319 14.8942V11.875Z" fill="#00662A"/>
<path id="Vector_9" d="M33.0532 16.4239L31.8709 14.5767H31.2428V16.4239H30.6274V11.875H32.1722C32.6287 11.875 32.9796 12.0105 33.2252 12.2814C33.3469 12.407 33.4427 12.5554 33.5071 12.718C33.5715 12.8806 33.6032 13.0544 33.6004 13.2293C33.6041 13.5355 33.5001 13.8333 33.3066 14.0707C33.1131 14.3081 32.8424 14.47 32.5417 14.5282L33.8117 16.4239H33.0532ZM31.2428 12.4592V13.9982H32.051C32.6664 13.9982 32.9677 13.6599 32.9677 13.2224C32.9677 12.7848 32.6849 12.4592 32.1745 12.4592H31.2428Z" fill="#00662A"/>
<path id="Vector_10" d="M34.5771 16.4239V11.875H37.4093V12.4592H35.1891V13.8204H37.2384V14.4046H35.1891V15.8386H37.4046V16.4239H34.5771Z" fill="#00662A"/>
<path id="Vector_11" d="M8.77396 34.7316C7.92998 33.9107 7.51318 32.8577 7.51318 31.5739C7.51318 30.29 7.94152 29.2105 8.79705 28.3827C9.20792 27.9726 9.69729 27.6495 10.2359 27.4329C10.7745 27.2163 11.3512 27.1105 11.9317 27.1219C13.4695 27.1219 14.8573 27.8389 15.6089 28.9138L14.534 29.9437C13.8413 29.0766 12.995 28.6482 12.0009 28.6482C11.6228 28.6407 11.2471 28.7107 10.8971 28.8539C10.547 28.9971 10.23 29.2104 9.96545 29.4807C9.69468 29.7563 9.48239 30.0838 9.34133 30.4435C9.20027 30.8032 9.13334 31.1877 9.14457 31.5739C9.14457 32.3959 9.41011 33.0748 9.95275 33.6209C10.2191 33.8872 10.537 34.0962 10.887 34.2352C11.2371 34.3742 11.6118 34.4402 11.9882 34.4291C13.04 34.4291 13.8967 34.0008 14.5675 33.1337L15.6655 34.1278C14.8677 35.2038 13.4799 35.9439 11.9074 35.9439C10.6709 35.9462 9.61793 35.5409 8.77396 34.7316Z" fill="#00662A"/>
<path id="Vector_12" d="M21.9358 35.8191L21.2304 33.876H18.2009L17.4897 35.8191H15.8179L19.1257 27.2754H20.3403L23.6134 35.8191H21.9358ZM19.7272 29.5268L18.6627 32.4536H20.779L19.7272 29.5268Z" fill="#00662A"/>
<path id="Vector_13" d="M29.2336 35.8191L27.3252 32.6152H26.2734V35.8191H24.6997V27.2754H27.8805C28.8041 27.2754 29.5119 27.5294 30.0083 28.0501C30.2519 28.3011 30.4429 28.5981 30.5702 28.9238C30.6975 29.2496 30.7585 29.5974 30.7496 29.947C30.7496 31.0577 30.148 32.0518 28.9565 32.4339L31.1132 35.8191H29.2336ZM26.2734 28.7405V31.1928H27.7073C28.6667 31.1928 29.1297 30.649 29.1297 29.9551C29.1297 29.2612 28.6679 28.7405 27.8805 28.7405H26.2734Z" fill="#00662A"/>
<path id="Vector_14" d="M32.4146 35.8191V27.2754H38.0938V28.7486H33.9998V30.761H37.7809V32.2296H33.9998V34.3343H38.0938V35.8156L32.4146 35.8191Z" fill="#00662A"/>
<path id="Vector_15" d="M12.9616 18.334H14.444L11.4976 25.4472H10.4966L7.52246 18.334H9.03377L11.0069 23.3771L12.9616 18.334Z" fill="#00662A"/>
<path id="Vector_16" d="M15.3296 18.334H16.6481V25.4472H15.3296V18.334Z" fill="#00662A"/>
<path id="Vector_17" d="M22.9634 18.334H24.2623V25.4472H23.4056L19.584 20.9225V25.4472H18.2852V18.334H19.0737L22.9634 22.8956V18.334Z" fill="#00662A"/>
<path id="Vector_18" d="M26.5342 24.5404C25.8322 23.8569 25.4858 22.9806 25.4858 21.9127C25.4858 20.8447 25.8414 19.9499 26.5538 19.2572C26.8957 18.916 27.3029 18.6472 27.751 18.4668C28.1991 18.2865 28.679 18.1984 29.1619 18.2077C30.4423 18.2077 31.598 18.8046 32.2238 19.6994L31.3279 20.5503C30.7506 19.8287 30.0486 19.4731 29.2197 19.4731C28.905 19.4671 28.5925 19.5254 28.3012 19.6445C28.01 19.7636 27.7462 19.941 27.5259 20.1658C27.2997 20.3956 27.1224 20.6689 27.0047 20.9691C26.8871 21.2694 26.8315 21.5903 26.8413 21.9127C26.8319 22.2266 26.8867 22.5391 27.0023 22.8312C27.1178 23.1232 27.2917 23.3886 27.5134 23.6112C27.7351 23.8337 27.9998 24.0086 28.2914 24.1253C28.583 24.242 28.8953 24.298 29.2093 24.2899C30.0856 24.2899 30.7979 23.9343 31.3556 23.2127L32.27 24.0405C31.6061 24.9353 30.4516 25.5518 29.1423 25.5518C28.1113 25.5518 27.2373 25.2147 26.5342 24.5404Z" fill="#00662A"/>
<path id="Vector_19" d="M33.293 25.4472V18.334H38.0186V19.5659H34.6115V21.2446H37.7588V22.4673H34.6115V24.2199H38.0186V25.4472H33.293Z" fill="#00662A"/>
<path id="Vector_20" d="M3.96631 10.6437C8.17927 8.30228 11.8542 5.12611 15.0362 1.7756C16.895 -0.180214 17.866 -0.800209 20.4037 1.3588C25.2678 5.49672 32.7955 8.03674 32.7955 8.03674L32.8244 5.90543C32.8258 5.80695 32.8469 5.70974 32.8865 5.61952C32.926 5.5293 32.9831 5.44788 33.0545 5.38003C33.1259 5.31218 33.2102 5.25926 33.3023 5.22438C33.3944 5.1895 33.4925 5.17336 33.591 5.17691L35.1635 5.2381C35.3557 5.24531 35.5375 5.32732 35.6702 5.46665C35.8028 5.60597 35.8758 5.79159 35.8735 5.98394L35.847 8.23647C35.8448 8.42404 35.8962 8.60833 35.9952 8.76766C36.0942 8.92699 36.2366 9.05474 36.4058 9.13587C37.4449 9.64041 39.3649 10.3228 40.942 10.5825C28.0133 11.1459 17.7205 2.44986 17.7205 2.44986C17.7205 2.44986 13.2258 8.73293 3.96631 10.6437Z" fill="#00A745"/>
</g>
</g>
</g>
<defs>
<clipPath id="clip0_1562_45755">
<rect width="40.8885" height="44" fill="white" transform="translate(0.0556641)"/>
</clipPath>
</defs>
</svg>
