<svg width="24" height="25" viewBox="0 0 24 25" fill="none" xmlns="http://www.w3.org/2000/svg">
<g id="Frame">
<path id="Vector" d="M22.2125 6.15703C21.4491 6.49473 20.6395 6.71652 19.8106 6.81508C20.6839 6.29229 21.3374 5.46988 21.6493 4.50103C20.8287 4.98859 19.9305 5.33175 18.9938 5.51559C18.2031 4.67204 17.098 4.19401 15.9418 4.19532C13.6326 4.19532 11.7597 6.06759 11.7597 8.37781C11.7597 8.70556 11.7973 9.0234 11.8676 9.33007C8.39048 9.15502 5.31008 7.49103 3.24678 4.96039C2.87529 5.59865 2.68006 6.32415 2.68105 7.06264C2.68105 8.51357 3.41961 9.79422 4.5415 10.544C3.87738 10.523 3.22789 10.3436 2.64719 10.0207C2.64655 10.0383 2.64654 10.0558 2.64654 10.0725C2.64654 12.0994 4.0882 13.7902 6.002 14.1741C5.64281 14.2713 5.27233 14.3204 4.90022 14.3201C4.62997 14.3201 4.36772 14.2952 4.1128 14.2463C4.64532 15.9075 6.18886 17.1169 8.0196 17.1501C6.53813 18.3128 4.70869 18.9436 2.82543 18.9409C2.49212 18.9412 2.15909 18.9215 1.82812 18.8821C3.74004 20.1112 5.96552 20.7635 8.23842 20.7611C15.9316 20.7611 20.138 14.3885 20.138 8.86208C20.138 8.68127 20.1336 8.49984 20.1256 8.32095C20.9443 7.72943 21.651 6.99665 22.2125 6.15703Z" fill="#FAFFFF"/>
</g>
</svg>
