<svg width="100" height="100" viewBox="0 0 100 100" fill="none" xmlns="http://www.w3.org/2000/svg">
<g id="Container">
<g id="Group">
<g id="Group_2">
<path id="Vector" d="M13.4809 90.9422C10.1187 88.161 7.01733 85.0643 4.23159 81.706C3.31311 80.599 2.40844 79.4236 2.02431 78.038L27.0598 58.408C27.0598 58.408 28.2458 59.6611 28.3789 59.6493C30.8141 56.4135 32.8296 52.8622 34.5466 49.1731C32.5568 46.8723 30.3944 44.7217 28.0468 42.7062C27.6422 43.1568 27.2383 43.6075 26.8338 44.0589C26.8338 44.0589 26.7369 44.1181 26.5933 44.0252C18.0028 37.7494 9.20613 31.7549 0.184082 26.1597C0.78564 24.1653 1.93275 22.383 3.14378 20.6884C5.18235 17.8361 7.44429 15.1439 9.90257 12.6448C10.4376 12.1012 10.9877 11.5616 11.6341 11.157L35.3129 32.4066C35.3129 32.4066 33.9695 34.426 34.0433 34.5281C36.0489 35.6443 37.7824 37.2612 40.2091 38.1355C40.1491 36.6484 40.6505 35.1976 41.2429 33.833C41.3384 33.613 41.4478 33.381 41.652 33.2552C41.8563 33.1293 42.1818 33.1755 42.4789 33.524C43.433 35.2674 43.5733 37.3251 43.6939 39.309C43.8191 41.3766 43.9443 43.4441 44.0701 45.511C45.0538 42.4808 44.8878 39.2181 45.1579 36.0436C45.239 35.0908 45.3714 34.1078 45.8695 33.2921C45.9921 33.0911 46.1443 32.8954 46.3571 32.794C46.8084 32.5792 47.3698 32.8836 47.6116 33.3211C47.8534 33.7586 47.8607 34.283 48.0096 35.0111C48.2053 34.3496 48.7317 33.8449 49.2522 33.3922C51.8713 31.1145 55.0062 29.1523 56.4182 26.0615C56.2225 25.4455 56.5876 24.805 56.9361 24.2608C61.4863 17.1574 65.744 9.86559 69.7243 2.45451C70.9215 2.41234 72.0943 2.77604 73.2117 3.20761C77.3304 4.7988 81.061 7.38491 83.9963 10.6839L65.5904 32.2023C65.5904 32.2023 64.6825 31.6864 64.6364 31.6548C64.2891 32.0824 64.0072 32.5588 63.739 33.0397C61.8454 36.4317 60.5632 40.1636 60.0592 43.9587C62.8146 46.8723 66.2408 49.1474 69.9957 50.5561C70.1275 50.6055 70.2692 50.6549 70.4062 50.6226C70.5683 50.5851 70.6823 50.4447 70.8088 50.3367C70.9353 50.2286 71.1251 50.1476 71.5527 50.4362C76.4785 52.9643 81.3838 55.5333 86.2886 58.1022C88.818 59.4272 91.3481 60.7522 93.8775 62.0773C95.781 63.0741 97.6852 64.0717 99.6625 65.2577C97.8394 71.2798 94.404 76.8052 89.8102 81.1051L62.6275 62.9562C62.6275 62.9562 63.3707 61.392 63.4557 61.4276C61.8328 59.9636 60.0572 58.6695 58.2835 57.7636C57.054 60.0189 55.8245 62.2743 54.595 64.5296C53.9665 65.6833 53.3235 66.8851 53.2477 68.1969C53.6213 68.1376 53.7787 68.6575 53.7728 69.0357C53.7583 69.9179 53.6812 70.7982 53.5415 71.6692L46.9876 71.2555C46.9876 71.2555 38.0137 71.8788 37.9181 71.8228C38.6106 70.9524 38.5092 69.7183 38.4294 68.6094C38.413 68.3801 38.4275 68.0975 38.6324 67.9933C38.7022 67.9578 38.7839 67.9505 38.8531 67.9143C39.0191 67.8266 39.0567 67.6086 39.0686 67.4214C39.1279 66.4819 39.0244 65.5318 39.0191 64.9249C38.776 65.0014 38.5322 65.0778 38.299 65.1819C37.5149 65.5311 36.8982 66.1636 36.3019 66.781C35.9132 67.1842 35.5238 67.5875 35.135 67.9907C33.6506 69.5299 32.1661 71.0683 30.6863 72.6128C25.0048 78.542 19.397 84.5451 13.4809 90.9422Z" fill="white"/>
</g>
<g id="Group_3">
<path id="Vector_2" d="M25.5742 63.0513C25.5709 63.0513 25.5676 63.0513 25.5643 63.0513C25.4721 63.046 25.4022 62.9663 25.4075 62.874L25.5413 60.6615C25.5465 60.5693 25.6131 60.4955 25.7185 60.5047C25.8108 60.51 25.8806 60.5897 25.8753 60.6819L25.7416 62.8944C25.7363 62.9827 25.6625 63.0513 25.5742 63.0513Z" fill="black"/>
</g>
<g id="Group_4">
<path id="Vector_3" d="M27.3454 65.0208C27.2558 65.0208 27.1814 64.9496 27.1781 64.8594C27.1313 63.4454 27.1201 62.0117 27.1458 60.5977C27.1478 60.5055 27.2308 60.431 27.3158 60.4337C27.408 60.4356 27.4818 60.5114 27.4799 60.6036C27.4542 62.0123 27.4653 63.4408 27.5121 64.8488C27.5154 64.9411 27.4429 65.0182 27.3507 65.0214C27.3494 65.0208 27.3474 65.0208 27.3454 65.0208Z" fill="black"/>
</g>
<g id="Group_5">
<path id="Vector_4" d="M28.9453 67.0745C28.8557 67.0745 28.7813 67.0033 28.778 66.913C28.7226 65.2685 28.7213 63.6028 28.7733 61.9616C28.7766 61.8693 28.8584 61.7909 28.946 61.7995C29.0382 61.8028 29.1107 61.8798 29.1081 61.9721C29.056 63.6061 29.058 65.2645 29.1127 66.9018C29.1153 66.9941 29.0435 67.0712 28.9513 67.0745C28.9486 67.0745 28.9466 67.0745 28.9453 67.0745Z" fill="black"/>
</g>
<g id="Group_6">
<path id="Vector_5" d="M30.5525 68.8053C30.5512 68.8053 30.5492 68.8053 30.5492 68.8053C30.4569 68.8033 30.3838 68.7269 30.3858 68.6347L30.4945 63.7181C30.4965 63.6258 30.5683 63.5672 30.6652 63.5547C30.7574 63.5567 30.8305 63.6331 30.8285 63.7253L30.7198 68.6419C30.7179 68.7328 30.6434 68.8053 30.5525 68.8053Z" fill="black"/>
</g>
<g id="Group_7">
<path id="Vector_6" d="M32.2084 69.9185H32.2064C32.1142 69.9178 32.0404 69.8414 32.041 69.7491C32.0575 68.3115 32.1214 66.858 32.2314 65.4289C32.2387 65.3366 32.327 65.2628 32.4107 65.2747C32.5029 65.2813 32.5721 65.3617 32.5648 65.4539C32.4554 66.8758 32.3922 68.322 32.3757 69.7524C32.3744 69.8447 32.3 69.9185 32.2084 69.9185Z" fill="black"/>
</g>
<g id="Group_8">
<path id="Vector_7" d="M33.7495 68.3448C33.6639 68.3448 33.5901 68.279 33.5835 68.1913C33.5426 67.7071 33.5644 67.2195 33.6481 66.7424C33.6639 66.6515 33.7521 66.5883 33.8418 66.6067C33.9327 66.6225 33.9933 66.7095 33.9775 66.8004C33.8985 67.2491 33.8787 67.7071 33.9169 68.163C33.9248 68.2552 33.8563 68.3356 33.764 68.3435C33.7587 68.3442 33.7542 68.3448 33.7495 68.3448Z" fill="black"/>
</g>
<g id="Group_9">
<path id="Vector_8" d="M71.8376 67.7605C71.7638 67.7605 71.6966 67.7117 71.6762 67.6379C71.3283 66.3709 71.0371 65.0716 70.8111 63.7749C70.7953 63.684 70.8559 63.597 70.9468 63.5812C71.0357 63.5634 71.1241 63.6253 71.1399 63.7169C71.3639 65.003 71.6532 66.2918 71.9984 67.5483C72.0228 67.6372 71.9701 67.7295 71.8818 67.7539C71.8666 67.7585 71.8521 67.7605 71.8376 67.7605Z" fill="black"/>
</g>
<g id="Group_10">
<path id="Vector_9" d="M75.0679 69.2813C75.0007 69.2813 74.9381 69.2411 74.9117 69.1746C73.8911 66.5601 73.026 63.8528 72.3414 61.1296C72.319 61.04 72.3738 60.9491 72.4634 60.9267C72.5536 60.9049 72.6439 60.959 72.6663 61.0479C73.3469 63.7586 74.2074 66.4514 75.2234 69.0533C75.257 69.139 75.2148 69.2365 75.1285 69.2701C75.1087 69.2773 75.0884 69.2813 75.0679 69.2813Z" fill="black"/>
</g>
<g id="Group_11">
<path id="Vector_10" d="M77.9108 70.628C77.8442 70.628 77.781 70.5878 77.7553 70.5219C76.3137 66.8644 74.9966 63.1062 73.8416 59.3532C73.8139 59.2649 73.864 59.1714 73.9523 59.1443C74.0426 59.1167 74.1348 59.1667 74.1612 59.255C75.3142 63.0008 76.628 66.7505 78.0663 70.4C78.1006 70.4857 78.0584 70.5832 77.9721 70.6168C77.9523 70.6247 77.9319 70.628 77.9108 70.628Z" fill="black"/>
</g>
<g id="Group_12">
<path id="Vector_11" d="M80.9353 72.6464C80.868 72.6464 80.8048 72.6056 80.7791 72.539C78.7985 67.3754 77.0209 62.0609 75.4949 56.743C75.4692 56.6541 75.5206 56.5618 75.6095 56.5362C75.6971 56.5098 75.7908 56.5619 75.8165 56.6508C77.3398 61.9594 79.1148 67.264 81.0914 72.4191C81.1244 72.5054 81.0816 72.6023 80.9953 72.6352C80.9761 72.6432 80.9557 72.6464 80.9353 72.6464Z" fill="black"/>
</g>
<g id="Group_13">
<path id="Vector_12" d="M83.4758 73.906C83.4053 73.906 83.3401 73.8619 83.3171 73.7914L77.0827 55.0311C77.0537 54.9434 77.1012 54.8486 77.1888 54.8196C77.2764 54.7893 77.3714 54.838 77.4003 54.9256L83.6346 73.6859C83.6636 73.7736 83.6162 73.8685 83.5285 73.8974C83.5107 73.9034 83.493 73.906 83.4758 73.906Z" fill="black"/>
</g>
<g id="Group_14">
<path id="Vector_13" d="M86.6171 76.7006C86.5472 76.7006 86.4827 76.6571 86.459 76.5879L79.6626 56.8353C79.6323 56.7477 79.679 56.6528 79.766 56.6225C79.8543 56.5922 79.9485 56.639 79.9788 56.726L86.7752 76.4785C86.8055 76.5662 86.7587 76.6611 86.6718 76.6914C86.6533 76.698 86.6355 76.7006 86.6171 76.7006Z" fill="black"/>
</g>
<g id="Group_15">
<path id="Vector_14" d="M90.0698 79.5571C90.0006 79.5571 89.9367 79.5142 89.9117 79.4457C87.4923 72.6059 85.2778 65.5934 83.3315 58.6027C83.3064 58.5138 83.3585 58.4215 83.4481 58.3971C83.5377 58.3714 83.6293 58.4241 83.6537 58.5138C85.598 65.4966 87.8098 72.5018 90.2273 79.3344C90.2582 79.4214 90.2122 79.5169 90.1252 79.5479C90.1074 79.5538 90.0882 79.5571 90.0698 79.5571Z" fill="black"/>
</g>
<g id="Group_16">
<path id="Vector_15" d="M91.6713 76.8331C91.6034 76.8331 91.5395 76.7916 91.5145 76.7244C89.5042 71.3321 87.6534 65.7995 86.0128 60.2813C85.9865 60.1931 86.0372 60.0995 86.1255 60.0731C86.2145 60.0474 86.3074 60.0975 86.3337 60.1858C87.9717 65.6973 89.8205 71.2221 91.8281 76.6071C91.8604 76.6934 91.8162 76.7903 91.7299 76.8225C91.7102 76.8298 91.6904 76.8331 91.6713 76.8331Z" fill="black"/>
</g>
<g id="Group_17">
<path id="Vector_16" d="M93.2621 74.0156C93.191 74.0156 93.125 73.9701 93.1026 73.8989L89.2127 61.6747C89.1843 61.5871 89.233 61.4929 89.3213 61.4645C89.4083 61.4375 89.5039 61.4856 89.5316 61.5733L93.4215 73.7975C93.4499 73.8851 93.4011 73.9793 93.3128 74.0076C93.2957 74.0129 93.2786 74.0156 93.2621 74.0156Z" fill="black"/>
</g>
<g id="Group_18">
<path id="Vector_17" d="M94.9651 71.4983C94.8919 71.4983 94.8247 71.4502 94.8036 71.3765L92.5991 63.5424C92.574 63.4534 92.626 63.3612 92.7143 63.3361C92.8059 63.3118 92.8955 63.3631 92.9205 63.4514L95.1252 71.2855C95.1502 71.3745 95.0982 71.4667 95.0092 71.4917C94.9954 71.4964 94.9802 71.4983 94.9651 71.4983Z" fill="black"/>
</g>
<g id="Group_19">
<path id="Vector_18" d="M96.9062 68.9534C96.8311 68.9534 96.7633 68.9033 96.7441 68.8275L95.6576 64.5639C95.6346 64.4743 95.6893 64.3834 95.7789 64.361C95.8679 64.3372 95.9594 64.3926 95.9818 64.4822L97.0683 68.7452C97.0913 68.8348 97.0367 68.9257 96.9477 68.9481C96.9332 68.9514 96.9194 68.9534 96.9062 68.9534Z" fill="black"/>
</g>
<g id="Group_20">
<path id="Vector_19" d="M37.271 97.7236C37.58 89.0805 37.7375 80.432 37.7441 71.7835C43.1621 71.3269 48.6242 71.4 53.8979 72.0523C53.6666 80.685 53.8274 89.3275 54.4467 97.8851C51.4633 98.5453 48.3863 97.634 45.339 97.4034C42.6877 97.2018 40.0271 97.5187 37.271 97.7236Z" fill="#2E90FA"/>
</g>
<g id="Group_21" opacity="0.1294">
<path id="Vector_20" d="M63.7763 59.3844C62.5171 58.3078 61.2238 57.5587 60.1946 56.6435C60.3442 56.2594 60.4634 55.8574 60.6018 55.497C60.8785 54.1121 61.0419 52.8286 61.1783 50.6411C61.235 49.8023 61.287 48.9583 61.2284 48.1182C61.1691 47.7868 61.2218 47.3915 61.0327 47.1049C60.7995 46.7649 60.2743 46.8808 60.1268 47.2182C59.9475 47.2933 59.8079 47.4607 59.8144 47.6788C59.7934 48.8081 59.51 49.799 59.118 51.1109C58.7576 52.4168 58.3135 53.5342 57.9235 54.3789C57.8984 54.4909 56.9971 56.4788 56.3731 57.527C55.5152 59.1057 54.5829 60.6396 53.5953 62.1405C52.4929 63.5624 51.6219 65.2333 51.5619 67.0657C51.5468 67.1915 51.5804 67.5176 51.5942 67.6356C51.5909 67.6099 51.5863 67.5736 51.5791 67.5203C51.5732 67.743 51.6654 67.9617 51.8216 68.1185C51.8756 68.1752 51.9382 68.218 52.0041 68.2543C52.0001 68.2859 51.9962 68.3175 51.9975 68.3511C51.9369 69.3599 51.9336 70.3963 52.1213 71.3846C52.1675 71.517 52.2564 71.6106 52.3632 71.6758C52.0462 71.7193 51.7583 71.9512 51.7498 72.3789C51.6219 74.1723 51.7636 75.9724 51.7906 77.7678C51.728 79.2793 51.8459 80.7862 51.8545 82.2976C51.867 83.3934 52.0028 84.4818 52.0845 85.5736C52.1167 86.5791 52.0719 87.5852 52.1398 88.5906C52.1438 88.899 52.1523 89.208 52.1649 89.5163C52.1319 90.761 52.0831 91.9134 52.1622 92.8371C52.1787 93.3471 52.1886 93.8584 52.232 94.367C52.1833 94.6648 52.2288 94.9963 52.2057 95.2855C52.2143 95.8475 52.2558 96.2409 52.3039 96.5881C52.2703 96.799 52.2419 97.0104 52.2419 97.2239C52.2584 97.4071 52.2815 97.6008 52.3493 97.7741C52.4007 97.9243 52.4949 98.0574 52.6162 98.1569C53.028 98.093 53.4404 98.0383 53.8549 97.9968C53.9241 97.9059 53.9774 97.8031 54.0044 97.6911C54.0137 97.6674 54.0242 97.641 54.036 97.6114C54.1118 97.4308 54.0308 97.6232 54.0065 97.6805C54.0117 97.6687 54.0196 97.6496 54.0321 97.6193C54.1652 97.2272 54.125 97.2931 54.2014 96.488C54.2205 96.1493 54.2291 95.8106 54.2331 95.472C54.3517 95.2783 54.4077 95.0424 54.3589 94.7815C54.3035 94.0119 54.2713 93.9051 54.1909 93.0763C54.1606 92.2803 54.125 91.4844 54.1105 90.6891C54.098 90.0065 54.1118 89.3239 54.1211 88.6413C54.1606 88.5366 54.1784 88.4279 54.1679 88.3178C54.1731 88.1887 54.1751 88.0148 54.1652 87.8942C54.1263 87.3368 54.0861 86.8406 54.0453 86.3788C54.0051 85.7199 53.9814 85.0603 53.9524 84.3995C53.8852 83.3986 53.8074 82.3978 53.8008 81.3943C53.8041 81.312 53.7936 81.2336 53.7758 81.1565C53.7369 80.7967 53.704 80.4356 53.7027 80.0733C53.6776 78.604 53.8456 77.1386 53.8114 75.6667C53.8232 74.7699 53.8008 73.8725 53.7521 72.9765C53.6987 72.589 53.7982 72.1239 53.501 71.8208C53.4035 71.7173 53.2829 71.658 53.1578 71.6343C53.2138 71.5882 53.2645 71.5342 53.3021 71.4657C53.5248 70.9623 53.2783 70.3811 53.2928 69.8507C53.2408 69.2709 53.4372 68.6536 53.2902 68.0935C53.2573 68.0052 53.2098 67.9327 53.1538 67.8741C53.3759 67.1961 53.362 65.6879 54.66 63.7798C55.9468 61.6866 57.2461 59.5689 58.2786 57.3327C58.3576 57.6759 58.67 57.8881 58.9962 57.9151C59.1918 58.1055 59.4059 58.2782 59.6266 58.4402C60.5669 59.1532 61.1394 59.5346 61.6962 59.9768C62.3386 60.4248 62.0869 60.2555 62.7669 60.7806C62.9777 60.913 63.1951 61.0883 63.4501 61.1061C63.9245 61.2036 64.4022 60.7687 64.389 60.2917C64.393 59.8759 64.0662 59.6256 63.7763 59.3844Z" fill="black"/>
</g>
<g id="Group_22" opacity="0.1294">
<path id="Vector_21" d="M55.2098 47.5643C55.2151 46.0996 55.1611 44.6349 55.0194 43.1762C54.9878 42.8177 54.939 42.4606 54.883 42.1055C54.8395 41.8657 54.8158 41.6008 54.6366 41.4196C53.9909 40.5262 52.5453 41.2542 52.8471 42.3111C53.1791 43.8048 53.0164 47.4694 53.1515 49.9086C53.2147 50.4581 53.2668 51.0083 53.361 51.5532C53.361 51.5618 53.361 51.5762 53.3623 51.6066C53.39 51.8727 53.3366 52.1659 53.4473 52.4137C53.6127 52.8802 54.2742 52.9974 54.6116 52.6449C54.8534 52.415 54.821 52.0579 54.8981 51.7574C54.9014 51.7337 54.9047 51.7126 54.9074 51.6929C54.9054 51.7067 54.9041 51.7179 54.9021 51.7337C54.9199 51.683 54.9324 51.6309 54.9462 51.5789C55.1709 50.7296 55.2315 49.0929 55.2098 47.5643Z" fill="black"/>
</g>
<g id="Group_23" opacity="0.1294">
<path id="Vector_22" d="M37.8486 62.5301C37.5534 63.0579 37.1376 63.3636 36.2198 63.8215C36.2402 63.8129 36.2718 63.7998 36.3028 63.7866C36.0109 63.9309 35.6617 64.0304 35.4028 64.232C35.352 64.207 35.3013 64.1813 35.2585 64.1595C34.7788 63.919 34.3486 63.5889 33.915 63.2753C32.2632 62.0946 31.0739 61.1636 29.4313 59.5408C29.1599 59.3022 28.9306 58.9267 28.5293 58.9359C27.9311 58.9161 27.599 59.7134 28.0371 60.1245C28.8535 60.9686 29.6824 61.802 30.5336 62.6098C31.2867 63.2707 32.1051 63.8564 32.8206 64.5595C33.2634 65.0325 33.7734 65.4358 34.201 65.922C34.2577 65.9833 34.3143 66.0433 34.3677 66.1078C34.3163 66.0446 34.2359 65.9326 34.2003 65.893C34.2906 66.0031 34.3894 66.117 34.4948 66.2251C34.257 66.3279 34.0494 66.4985 33.9078 66.7146C33.9005 66.7219 33.894 66.7298 33.8867 66.737C31.41 69.0576 29.0637 70.6996 27.1991 72.5721C26.0315 73.6158 24.4014 75.4363 24.1056 75.9054C23.2524 76.9919 22.3181 78.0085 21.4266 79.0634C19.5047 81.1257 15.724 85.0553 13.383 88.0479C13.0292 88.492 12.7083 88.9598 12.3769 89.421C12.2932 89.5317 12.2385 89.6569 12.2036 89.7867C12.6273 90.2538 13.047 90.7236 13.4607 91.1993C14.1222 91.0609 14.5591 90.2083 14.992 89.6318C15.0058 89.6193 15.7154 88.745 15.8663 88.5756C16.4725 87.843 17.0819 87.1129 17.6967 86.3875C18.6613 85.2246 19.8005 83.783 21.6895 81.803C22.2561 81.2772 22.7463 80.6777 23.3163 80.1558C23.96 79.5674 24.6248 79.0015 25.2053 78.3478C26.1 77.4478 26.8828 76.4443 27.8059 75.5726C30.2108 73.2712 32.7145 71.0738 35.2275 68.8916C35.4476 68.6926 35.435 68.6992 35.1853 68.8942C35.3138 68.7974 35.4417 68.7005 35.5635 68.5951C35.7625 68.4396 35.9391 68.2591 36.0768 68.0462C36.3463 67.6022 36.2956 67.021 35.9944 66.6165C36.403 66.407 36.6065 65.9635 36.5545 65.5234C37.2325 65.1393 37.7971 64.5944 38.261 63.9678C38.2623 63.9658 38.261 63.9678 38.263 63.9658C38.4988 63.691 38.7321 63.4044 38.8514 63.0572C39.1235 62.4056 38.2215 61.9252 37.8486 62.5301Z" fill="black"/>
</g>
<g id="Group_24" opacity="0.1294">
<path id="Vector_23" d="M34.0943 34.3411C34.0331 34.2897 33.9751 34.2324 33.9145 34.1797C33.3024 34.9723 32.7081 35.7788 32.1434 36.605C31.7916 37.1196 31.4516 37.6421 31.1228 38.1725C30.8052 38.6851 30.5246 39.2254 30.1918 39.7275C30.0627 39.9225 29.8709 39.9548 29.7154 39.8902C29.3932 40.3376 29.075 40.7869 28.7699 41.2468C28.4319 41.7562 28.1176 42.2852 27.7783 42.7959C27.9621 43.5661 28.9037 44.082 29.664 43.6175C29.7662 43.549 29.8578 43.4686 29.9414 43.3823C29.9368 43.3902 29.9309 43.3994 29.927 43.408C29.9434 43.3889 29.9579 43.3684 29.9737 43.3493C30.06 43.2544 30.1318 43.149 30.1839 43.0311C30.2116 42.9777 30.2379 42.923 30.261 42.867C30.3427 42.7076 30.456 42.5653 30.5443 42.4091C31.0009 41.7595 31.9207 40.6736 32.8247 39.234C33.4335 38.3537 33.9962 37.4451 34.5628 36.5378C34.7875 36.0964 35.1921 35.7076 35.2744 35.2122C34.8679 34.9387 34.4693 34.6561 34.0943 34.3411Z" fill="black"/>
</g>
<g id="Group_25" opacity="0.1294">
<path id="Vector_24" d="M90.376 79.7593C90.3542 79.704 90.3305 79.6499 90.3029 79.5979C90.2686 79.5248 90.2311 79.4536 90.1856 79.3864C90.1599 79.3482 90.1342 79.3093 90.1078 79.2704C90.0696 79.1993 90.0288 79.1294 89.986 79.0635C89.9339 78.9476 89.783 78.8013 89.671 78.7031C89.6947 78.7216 89.7218 78.7413 89.7527 78.7657C89.5926 78.6214 89.4318 78.4778 89.271 78.3348C87.8604 77.1521 87.6548 77.1778 86.2408 76.2152C84.707 74.9778 83.2779 74.1417 81.2274 72.7152C78.5524 70.7274 75.7758 68.8924 72.9809 67.0792C72.2021 66.5534 71.3732 66.106 70.5674 65.6257C69.3096 64.721 68.0143 63.8717 66.7604 62.9612C66.1378 62.5125 65.4723 62.1283 64.8049 61.7515C64.4557 61.5676 64.0808 61.2988 63.669 61.3831C62.6029 61.4919 62.4948 63.0653 63.5352 63.3413C63.6769 63.4006 64.2745 63.734 64.9801 64.1333C65.0137 64.2717 65.0974 64.3975 65.2404 64.4733C66.5819 65.1473 67.2164 65.9017 68.5447 66.7774C69.784 67.5272 71.0267 68.2704 72.2107 69.1072C72.8933 69.5803 73.3341 69.9894 74.2961 70.5679C74.4964 70.7162 74.7665 70.6925 74.9503 70.5515C77.8355 72.7495 80.7142 75.0523 82.7093 76.3746C83.3365 76.8747 83.9657 77.3722 84.5838 77.8835C86.1855 78.9561 87.7866 80.0295 89.3666 81.1344C89.6842 80.6607 90.0215 80.2021 90.376 79.7593Z" fill="black"/>
</g>
<g id="Group_26" opacity="0.1294">
<path id="Vector_25" d="M83.1036 10.7369C82.7267 10.3936 82.3795 10.7863 82.1482 11.0901C81.7054 11.6284 81.2264 12.1344 80.7553 12.6477C78.5823 15.1185 76.4397 17.613 74.3781 20.1767C72.8495 21.8219 71.4236 23.5515 70.0314 25.312C69.1215 26.471 68.0521 27.4823 66.9478 28.4522C66.0405 29.262 65.7302 29.5941 64.8084 30.1574C64.5666 30.3149 64.2629 30.444 64.1904 30.7517C64.0204 31.3025 64.6793 31.8165 65.1721 31.5068C68.5002 29.4234 70.8833 26.2588 73.275 23.228C75.6898 20.238 79.2004 15.9401 82.1001 12.6141C82.4177 12.2484 82.7267 11.8741 83.0232 11.4913C83.1932 11.2554 83.3724 11.1032 83.1036 10.7369Z" fill="black"/>
</g>
<g id="Group_27">
<path id="Vector_26" d="M53.2888 68.4412C53.0272 68.4412 52.8071 68.2382 52.7887 67.9733C52.6483 65.919 53.8099 64.0747 54.8352 62.448L55.1086 62.0125C56.8441 59.2287 58.1994 56.2235 59.1377 53.0807C59.7372 51.0711 60.0146 49.4489 60.0094 47.975C60.0067 47.1962 59.7939 46.3113 59.2035 46.1618C58.5341 45.9905 57.893 46.8997 57.5438 47.7279C57.3626 48.1588 57.1881 48.5957 57.0128 49.0338C56.2155 51.0316 55.3906 53.0971 53.8521 54.6818C53.7118 54.8267 53.4996 54.8722 53.3112 54.8004C53.1234 54.7279 52.9969 54.55 52.9903 54.349L52.421 37.4533C52.4006 36.8557 52.2279 36.2041 51.8965 36.1857C51.6079 36.1639 51.3372 36.6449 51.1764 37.0943C50.1202 40.0474 49.6142 43.1349 49.6722 46.2711C49.6768 46.54 49.4692 46.7646 49.2004 46.7811C48.9296 46.7996 48.6983 46.5993 48.6707 46.3318C48.5488 45.1491 48.4348 43.9703 48.3208 42.7962C48.0559 40.0605 47.7818 37.2326 47.4181 34.4778C47.343 33.9086 47.1249 33.2391 46.7573 33.2247C46.7533 33.224 46.7494 33.224 46.7454 33.224C46.4015 33.224 46.13 33.8249 46.0213 34.3896C45.6556 36.2937 45.5285 38.2835 45.4059 40.2081C45.2531 42.6025 45.0949 45.0773 44.4795 47.4571C44.4183 47.697 44.1916 47.8558 43.9452 47.8314C43.6994 47.807 43.5077 47.608 43.4932 47.3609C43.2487 43.1876 42.9377 39.1183 42.5688 35.2659C42.5345 34.9048 42.495 34.4956 42.3316 34.1939C42.2031 33.956 41.9685 33.7966 41.7814 33.817C41.3762 33.8671 41.1924 34.6492 41.1324 34.9839C40.3602 39.2607 40.0532 43.631 40.2192 47.973C40.2291 48.232 40.04 48.456 39.783 48.4896C39.5261 48.5232 39.2856 48.3552 39.2282 48.1028C38.7235 45.8811 38.2795 43.4992 37.8505 41.1958C37.6542 40.1403 37.4045 39.0867 36.6711 38.5761C36.5446 38.4878 36.4267 38.4404 36.3595 38.4502C36.1948 38.468 36.0313 38.8067 35.9615 39.2732C35.1788 44.5297 36.3786 49.8904 37.5389 55.0751C38.4396 59.0976 39.3699 63.2577 39.4121 67.4285C39.4147 67.7058 39.1927 67.9325 38.9153 67.9351C38.6531 67.9411 38.4113 67.7157 38.4086 67.4383C38.3678 63.3737 37.4486 59.2669 36.5591 55.2945C35.3791 50.0202 34.1588 44.5666 34.9692 39.1256C35.1709 37.769 35.8587 37.4949 36.2508 37.4527C36.5736 37.4178 36.9083 37.5186 37.245 37.7531C38.2887 38.4812 38.6017 39.7522 38.8323 40.9922C38.9621 41.688 39.0925 42.389 39.2249 43.0894C39.3429 40.3116 39.6493 37.5397 40.1428 34.806C40.4169 33.2866 41.1173 32.888 41.6562 32.8221C42.3434 32.7312 42.9364 33.2088 43.2118 33.7162C43.4734 34.1978 43.5248 34.7374 43.5663 35.1723C43.8035 37.6543 44.0177 40.2259 44.2048 42.8575C44.2872 41.9502 44.3458 41.0423 44.4024 40.1455C44.527 38.19 44.6561 36.1679 45.0343 34.2018C45.2787 32.9288 45.9265 32.2008 46.7955 32.2232C47.6488 32.2574 48.2378 33.0316 48.4117 34.348C48.6931 36.4795 48.921 38.6505 49.1319 40.7873C49.3915 39.4227 49.7578 38.0773 50.2296 36.7576C50.7376 35.3337 51.5256 35.1651 51.9499 35.1842C52.8256 35.2323 53.3764 36.0684 53.4218 37.4204L53.9463 52.9957C54.8635 51.7043 55.4789 50.1638 56.0778 48.6629C56.255 48.2195 56.4316 47.776 56.6161 47.3392C57.3 45.717 58.3582 44.9145 59.4473 45.1899C60.4211 45.437 61.0055 46.4774 61.0101 47.973C61.0167 50.0419 60.4923 52.0436 60.0963 53.3693C59.1324 56.5984 57.7401 59.6853 55.9579 62.5448L55.6818 62.9843C54.6929 64.5544 53.6696 66.1786 53.7876 67.9068C53.8067 68.1829 53.5978 68.4227 53.3211 68.4412C53.3118 68.4412 53.3006 68.4412 53.2888 68.4412Z" fill="black"/>
</g>
<g id="Group_28">
<path id="Vector_27" d="M37.3597 98.3209C37.3537 98.3209 37.3472 98.3209 37.3413 98.3203C37.0645 98.3104 36.8477 98.0771 36.8583 97.8004C37.1759 89.1447 37.2879 80.3638 37.191 71.7021C37.1884 71.4597 37.3597 71.2501 37.5975 71.204C40.8728 70.5702 44.079 70.7362 47.1803 70.8963L47.7358 70.9253C49.8705 71.036 52.0033 71.146 54.1177 71.2521C54.2561 71.2587 54.3852 71.3233 54.4754 71.4287C54.5651 71.5341 54.6072 71.6718 54.5914 71.8102C54.1434 75.7707 54.2929 79.8327 54.4385 83.7616L54.9544 97.7503C54.9643 98.0277 54.7482 98.2603 54.4715 98.2702C54.4649 98.2708 54.459 98.2708 54.4524 98.2708C54.1835 98.2708 53.9615 98.058 53.951 97.7879L53.435 83.7992C53.2954 80.0073 53.1504 76.0923 53.5378 72.2286C51.5968 72.1311 49.6406 72.0296 47.6844 71.9288L47.1289 71.8998C44.2206 71.7496 41.2174 71.5947 38.1998 72.1153C38.2881 80.6557 38.1747 89.3068 37.8618 97.838C37.8512 98.1081 37.6285 98.3209 37.3597 98.3209Z" fill="black"/>
</g>
<g id="Group_29">
<path id="Vector_28" d="M38.3065 71.9812C38.3018 71.9812 38.2972 71.9812 38.2926 71.9812C38.0152 71.974 37.7971 71.7433 37.8044 71.466L37.9025 67.8243C37.9091 67.5595 38.1213 67.346 38.3855 67.3361C43.5017 67.147 48.6792 67.2768 53.777 67.7235C54.0366 67.7459 54.2355 67.964 54.2349 68.2249C54.2323 69.3299 54.1552 70.4454 54.0069 71.5424C53.9701 71.8178 53.717 72.0115 53.4423 71.9726C53.1675 71.9351 52.9751 71.6827 53.012 71.408C53.1339 70.5079 53.2051 69.5941 53.2255 68.6848C48.4756 68.2875 43.6585 68.1676 38.8928 68.3238L38.8072 71.4936C38.8006 71.7658 38.5773 71.9812 38.3065 71.9812Z" fill="black"/>
</g>
<g id="Group_30">
<path id="Vector_29" d="M13.7501 91.533C13.6348 91.533 13.5188 91.4935 13.4246 91.4131C13.2137 91.2326 13.1894 90.9163 13.3692 90.7055C20.327 82.567 27.7803 74.698 35.5313 67.3106C32.9525 65.3564 30.118 62.7057 26.8934 59.2354C24.1439 61.3556 21.4003 63.5629 18.743 65.7003C13.4516 69.9573 7.9796 74.3593 2.24404 78.2467C2.01475 78.4009 1.70307 78.3422 1.54692 78.1129C1.39142 77.8837 1.45138 77.5713 1.68067 77.4158C7.38263 73.5515 12.8382 69.1627 18.1145 64.9182C20.8923 62.6833 23.7651 60.3719 26.645 58.1607C26.8512 58.0019 27.1438 58.0276 27.3197 58.2187C30.8322 62.027 33.8696 64.8536 36.6053 66.8593C36.7252 66.9469 36.8003 67.0839 36.8096 67.2322C36.8188 67.3804 36.7621 67.5254 36.6547 67.6275C28.7739 75.1104 21.1967 83.0941 14.1335 91.3577C14.0327 91.4731 13.8917 91.533 13.7501 91.533Z" fill="black"/>
</g>
<g id="Group_31">
<path id="Vector_30" d="M31.9814 71.7709C31.8621 71.7709 31.7428 71.7287 31.6467 71.6431C28.5413 68.8593 25.098 65.1261 22.6608 61.9002C22.4941 61.6788 22.5376 61.3645 22.759 61.1972C22.9797 61.0305 23.2947 61.0733 23.462 61.2953C25.863 64.4738 29.2556 68.1523 32.3168 70.8959C32.523 71.081 32.5407 71.3986 32.3556 71.6048C32.2561 71.7149 32.1191 71.7709 31.9814 71.7709Z" fill="black"/>
</g>
<g id="Group_32">
<path id="Vector_31" d="M28.3291 59.9891C28.2053 59.9891 28.0814 59.9437 27.9839 59.8514C27.7829 59.661 27.7737 59.3434 27.9648 59.1418C31.3014 55.6181 33.2016 51.2576 35.0102 46.7239C35.113 46.4663 35.4062 46.3417 35.6625 46.4439C35.9201 46.5467 36.0453 46.8385 35.9432 47.0962C34.097 51.7235 32.1526 56.1801 28.6942 59.8323C28.5947 59.9364 28.4622 59.9891 28.3291 59.9891Z" fill="black"/>
</g>
<g id="Group_33">
<path id="Vector_32" d="M35.9235 67.2503C35.8214 67.2503 35.7186 67.2193 35.6296 67.1554C35.4049 66.9933 35.3549 66.679 35.517 66.4543C36.4051 65.2262 37.4231 64.3742 38.391 63.6376C38.6111 63.4696 38.9267 63.5131 39.0947 63.7325C39.2627 63.9532 39.2198 64.2682 38.9998 64.4362C37.9515 65.2341 37.0969 65.9826 36.3307 67.0427C36.2325 67.1778 36.079 67.2503 35.9235 67.2503Z" fill="black"/>
</g>
<g id="Group_34">
<path id="Vector_33" d="M35.2959 32.8385C35.1859 32.8385 35.0746 32.8023 34.9817 32.7278C26.8221 26.1753 18.9366 19.1002 11.5446 11.6983C11.349 11.502 11.3489 11.1851 11.5453 10.9887C11.741 10.793 12.0586 10.7924 12.2549 10.9894C19.6219 18.3649 27.4797 25.4162 35.6103 31.9451C35.8264 32.119 35.8606 32.4346 35.6874 32.6507C35.5879 32.7746 35.4429 32.8385 35.2959 32.8385Z" fill="black"/>
</g>
<g id="Group_35">
<path id="Vector_34" d="M26.9522 44.643C26.8494 44.643 26.7453 44.6114 26.6564 44.5462C18.1015 38.2848 9.21253 32.2482 0.234625 26.6022C6.36801e-05 26.4546 -0.0704455 26.145 0.0771437 25.9104C0.224733 25.6758 0.535058 25.6053 0.76896 25.7529C9.76597 31.4114 18.6754 37.4619 27.2487 43.7371C27.4727 43.9005 27.5215 44.2148 27.3574 44.4381C27.2599 44.5719 27.1071 44.643 26.9522 44.643Z" fill="black"/>
</g>
<g id="Group_36">
<path id="Vector_35" d="M26.8945 44.7193C26.7977 44.7193 26.7002 44.6916 26.6145 44.6336C26.3846 44.4788 26.324 44.1665 26.4788 43.9372C29.1341 39.9957 31.9152 36.0629 34.7425 32.248C34.9072 32.0253 35.2221 31.9785 35.4448 32.1439C35.6675 32.3086 35.7143 32.6229 35.5489 32.8462C32.7302 36.6493 29.9583 40.5696 27.3109 44.4985C27.2141 44.6422 27.0553 44.7193 26.8945 44.7193Z" fill="black"/>
</g>
<g id="Group_37">
<path id="Vector_36" d="M34.2067 49.5508C34.0506 49.5508 33.8964 49.4777 33.7982 49.3406C32.1062 46.97 30.0452 44.9116 27.6733 43.2209C27.4479 43.0602 27.3952 42.7465 27.556 42.5206C27.7168 42.2946 28.0304 42.2438 28.2564 42.4033C30.7186 44.1585 32.8587 46.2966 34.6152 48.7582C34.776 48.9835 34.724 49.2971 34.498 49.4579C34.4097 49.5205 34.3082 49.5508 34.2067 49.5508Z" fill="black"/>
</g>
<g id="Group_38">
<path id="Vector_37" d="M39.784 38.5914C39.697 38.5914 39.61 38.569 39.5296 38.5222C37.6308 37.4041 35.7641 36.1779 33.9818 34.876C33.7578 34.7126 33.7091 34.3989 33.8725 34.1749C34.0359 33.9502 34.3502 33.9021 34.5735 34.0655C36.3294 35.3477 38.1677 36.5561 40.0383 37.6571C40.2775 37.7981 40.3572 38.1051 40.2162 38.3443C40.1233 38.5031 39.9559 38.5914 39.784 38.5914Z" fill="black"/>
</g>
<g id="Group_39">
<path id="Vector_38" d="M89.6792 81.6197C89.5791 81.6197 89.4783 81.59 89.39 81.5274C80.532 75.2674 71.4012 69.1378 62.252 63.3081C62.0221 63.1618 61.9509 62.8587 62.0919 62.6254C64.8539 58.0601 67.7754 53.6765 70.3529 49.8096C70.4926 49.6 70.7668 49.5262 70.9921 49.6376C80.65 54.4013 90.3229 59.4569 99.7423 64.664C99.9847 64.7978 100.073 65.1035 99.9387 65.346C99.8049 65.5891 99.4979 65.6761 99.2567 65.5423C89.979 60.4136 80.4549 55.4325 70.9426 50.7333C68.5114 54.3815 65.7922 58.4732 63.2041 62.7269C72.2288 68.4855 81.2304 74.5341 89.9678 80.7084C90.1945 80.8685 90.2478 81.1815 90.0877 81.4075C89.9915 81.5459 89.8367 81.6197 89.6792 81.6197Z" fill="black"/>
</g>
<g id="Group_40">
<path id="Vector_39" d="M63.1101 61.7948C62.9915 61.7948 62.8716 61.7526 62.7761 61.667C61.2798 60.3281 59.6458 59.1329 57.9189 58.113C57.6803 57.972 57.6006 57.6643 57.7416 57.4258C57.8832 57.1873 58.1916 57.1095 58.4288 57.2485C60.2124 58.3014 61.8998 59.5362 63.4449 60.9185C63.6511 61.1036 63.6688 61.4206 63.4844 61.6275C63.3855 61.7381 63.2478 61.7948 63.1101 61.7948Z" fill="black"/>
</g>
<g id="Group_41">
<path id="Vector_40" d="M69.7124 51.1466C69.6432 51.1466 69.5734 51.1321 69.5062 51.1025C65.8948 49.4704 62.6353 47.2302 59.8186 44.4438C59.1387 43.7711 58.4772 43.0588 57.838 42.3697C56.345 40.7607 54.8019 39.097 52.965 37.9011C52.7324 37.7496 52.6671 37.4392 52.818 37.2067C52.9696 36.9741 53.2799 36.9088 53.5125 37.0597C55.4529 38.3235 57.0395 40.0333 58.5733 41.687C59.2059 42.3683 59.8589 43.0727 60.5237 43.7302C63.2554 46.4323 66.416 48.6053 69.9186 50.1879C70.1709 50.3026 70.283 50.5991 70.169 50.8521C70.086 51.0366 69.9035 51.1466 69.7124 51.1466Z" fill="black"/>
</g>
<g id="Group_42">
<path id="Vector_41" d="M56.2528 44.1813C56.1223 44.1813 55.9925 44.1312 55.8944 44.0304L52.9156 40.9877C52.7219 40.79 52.7251 40.4718 52.9234 40.2781C53.1204 40.0844 53.4387 40.087 53.6331 40.286L56.6119 43.3287C56.8056 43.5264 56.8023 43.8446 56.604 44.0383C56.5065 44.1339 56.3799 44.1813 56.2528 44.1813Z" fill="black"/>
</g>
<g id="Group_43">
<path id="Vector_42" d="M65.4581 32.6946C65.3626 32.6946 65.2664 32.6669 65.1814 32.6115C63.208 31.305 61.2789 29.9279 59.2357 28.4705C58.1037 27.662 56.9335 26.8266 55.6955 25.9615C55.5861 25.8844 55.5117 25.7671 55.4886 25.636C55.4662 25.5042 55.4965 25.3685 55.5743 25.2598C58.9616 20.4921 61.3903 16.1145 63.9605 11.4793C65.5979 8.52748 67.2905 5.47554 69.2869 2.23846C69.4325 2.00193 69.7422 1.92945 69.9774 2.07506C70.2133 2.22068 70.2871 2.52969 70.1415 2.76557C68.1576 5.98288 66.4702 9.02493 64.8388 11.9662C62.3278 16.4933 59.9525 20.7761 56.6838 25.4291C57.7723 26.194 58.8107 26.9346 59.8188 27.6541C61.7309 29.0187 63.5428 30.312 65.3797 31.5389C71.481 24.9053 77.6184 17.6227 83.5576 10.5773C83.7355 10.3658 84.053 10.3387 84.2645 10.5173C84.4767 10.6959 84.5031 11.0121 84.3246 11.2243C78.2846 18.3903 72.0391 25.7994 65.8272 32.5338C65.729 32.6392 65.5945 32.6946 65.4581 32.6946Z" fill="black"/>
</g>
<g id="Group_44">
<path id="Vector_43" d="M59.9843 44.4348C59.9513 44.4348 59.9184 44.4315 59.8848 44.4249C59.6127 44.3702 59.4367 44.1054 59.4914 43.8339C60.3427 39.596 61.3073 34.7928 64.3481 31.1768C64.5266 30.9647 64.8436 30.9377 65.0551 31.1155C65.2672 31.2941 65.2948 31.6104 65.1163 31.8232C62.2402 35.2428 61.3027 39.9123 60.4751 44.0316C60.4277 44.2701 60.2182 44.4348 59.9843 44.4348Z" fill="black"/>
</g>
<g id="Group_45">
<path id="Vector_44" d="M48.0535 35.141C47.9553 35.141 47.8572 35.1127 47.7702 35.0534C47.5416 34.8965 47.4836 34.5842 47.6404 34.3556C48.1181 33.6592 48.8013 33.2072 49.4622 32.7697L49.6994 32.6115C52.1702 30.9551 54.2918 28.7353 55.8362 26.1927C55.9798 25.9555 56.2889 25.8804 56.5254 26.0241C56.762 26.1677 56.8377 26.4767 56.6941 26.7132C55.0752 29.3797 52.8495 31.7076 50.2588 33.445L50.0163 33.6058C49.4095 34.0077 48.8356 34.3872 48.4686 34.9222C48.3704 35.0652 48.213 35.141 48.0535 35.141Z" fill="black"/>
</g>
<g id="Group_46">
<path id="Vector_45" d="M67.73 66.5648C67.6279 66.5648 67.5244 66.5339 67.4355 66.4693C67.2115 66.3066 67.1614 65.9923 67.3242 65.7682C70.3392 61.6193 73.2099 57.2878 75.8566 52.8937C75.9996 52.6559 76.3087 52.5794 76.5452 52.7224C76.7824 52.8654 76.8588 53.1737 76.7165 53.4109C74.0553 57.8301 71.1681 62.1859 68.1366 66.3579C68.0378 66.4937 67.8855 66.5648 67.73 66.5648Z" fill="black"/>
</g>
<g id="Group_47">
<path id="Vector_46" d="M16.277 63.1363C16.1419 63.1363 16.0068 63.0816 15.908 62.9742C15.7202 62.7707 15.7334 62.4531 15.9377 62.2653C19.1537 59.3056 22.5344 56.4461 25.9863 53.7638C26.205 53.5938 26.52 53.6333 26.6906 53.852C26.8606 54.0708 26.8211 54.3857 26.6023 54.5564C23.1728 57.2216 19.8138 60.064 16.6183 63.0039C16.5208 63.0922 16.3989 63.1363 16.277 63.1363Z" fill="black"/>
</g>
<g id="Group_48">
<path id="Vector_47" d="M11.461 61.99C11.3167 61.99 11.1737 61.9281 11.0742 61.8082C10.8976 61.5947 10.9273 61.2784 11.1408 61.1012C13.8119 58.888 16.3736 56.4871 18.7554 53.9655C18.9465 53.7639 19.2641 53.756 19.4651 53.9451C19.6667 54.1355 19.6753 54.4531 19.4855 54.6547C17.076 57.2059 14.4832 59.6345 11.7812 61.8741C11.687 61.9518 11.5737 61.99 11.461 61.99Z" fill="black"/>
</g>
</g>
</g>
</svg>
