<svg width="200" height="56" viewBox="0 0 200 56" fill="none" xmlns="http://www.w3.org/2000/svg">
<g id="Relume / Black">
<g id="Group">
<g id="Group_2">
<path id="Vector" d="M92.7489 37.2871C91.6237 39.3018 90.2156 40.259 87.8033 40.3635L87.7869 40.3819L75.3461 40.4209C74.9669 40.4209 74.641 40.1524 74.5714 39.7794L73.9298 36.3464C73.8376 35.8565 74.2188 35.4056 74.7189 35.4159C77.3895 35.4753 84.7454 35.6352 85.8255 35.6352C89.3138 35.6352 89.3692 32.1632 86.3461 31.577C86.3276 31.5729 86.3092 31.5688 86.2928 31.5627C83.5669 30.7265 79.9453 30.7613 77.4879 29.2057C74.9034 27.7198 73.9749 23.8994 75.4691 21.3805C77.3034 18.3758 81.093 17.5949 84.5261 17.5847C88.6641 17.4699 93.9007 19.4908 93.7696 24.0388C93.7573 24.461 93.4027 24.793 92.9805 24.7909L89.2974 24.7725C88.8957 24.7704 88.578 24.4651 88.5206 24.0675C87.996 20.4479 77.9162 21.2288 80.5274 24.9836C80.6421 25.1496 80.7959 25.289 80.9721 25.3874C84.0608 27.1049 87.2889 26.4962 90.3939 28.1112C93.6466 29.4598 94.2922 34.4198 92.7489 37.2871Z" fill="#E3A20B"/>
<path id="Vector_2" d="M67.904 40.373L62.2554 40.3566L55.0471 19.7708C54.8647 19.2502 55.2336 18.6989 55.7849 18.6722L59.6074 18.4796C59.9742 18.4611 60.3083 18.6866 60.4292 19.0329L67.9019 40.375L67.904 40.373Z" fill="#004799"/>
<path id="Vector_3" d="M78.7932 40.4039L74.7986 40.3937C73.8066 40.3916 72.9253 39.7624 72.5973 38.8278L65.6042 18.861C65.4874 18.5249 65.7252 18.1703 66.0797 18.1519L70.5109 17.9285C70.7466 17.9162 70.9638 18.0617 71.0417 18.2851L78.7932 40.406V40.4039Z" fill="#004799"/>
</g>
<g id="Group_3">
<g id="Group_4">
<g id="Group_5">
<path id="Vector_4" d="M105.417 22.4484H104.136L102.538 16.7383H103.72L104.813 20.9727L106.003 16.7383H106.967L108.166 20.9727L109.258 16.7383H110.441L108.842 22.4484H107.561L106.485 18.6792L105.417 22.4484Z" fill="#004799"/>
<path id="Vector_5" d="M113.769 18.8483V18.3666H114.821V22.4453H113.769V21.9636C113.453 22.3612 113.011 22.56 112.439 22.56C111.867 22.56 111.429 22.353 111.037 21.939C110.652 21.5209 110.457 21.0085 110.457 20.4059C110.457 19.8034 110.65 19.2992 111.037 18.8811C111.429 18.463 111.896 18.2539 112.439 18.2539C113.011 18.2539 113.453 18.4527 113.769 18.8503V18.8483ZM111.828 21.2381C112.039 21.4512 112.31 21.5557 112.636 21.5557C112.962 21.5557 113.232 21.4492 113.443 21.2381C113.66 21.0208 113.769 20.7441 113.769 20.4059C113.769 20.0678 113.66 19.7952 113.443 19.582C113.232 19.3648 112.962 19.2561 112.636 19.2561C112.31 19.2561 112.039 19.3648 111.828 19.582C111.615 19.7952 111.51 20.0698 111.51 20.4059C111.51 20.7421 111.617 21.0208 111.828 21.2381Z" fill="#004799"/>
<path id="Vector_6" d="M118 18.2539C118.451 18.2539 118.817 18.4035 119.1 18.7028C119.393 19.0081 119.541 19.4201 119.541 19.9427V22.4473H118.489V20.0739C118.489 19.8075 118.418 19.6005 118.274 19.4549C118.131 19.3074 117.932 19.2356 117.682 19.2356C117.405 19.2356 117.186 19.3217 117.026 19.4918C116.866 19.664 116.786 19.914 116.786 20.2461V22.4494H115.735V18.3707H116.786V18.8278C117.036 18.4466 117.442 18.256 118.002 18.256L118 18.2539Z" fill="#004799"/>
<path id="Vector_7" d="M123.494 18.8483V18.3666H124.546V22.4453H123.494V21.9636C123.179 22.3612 122.736 22.56 122.164 22.56C121.592 22.56 121.154 22.353 120.762 21.939C120.377 21.5209 120.182 21.0085 120.182 20.4059C120.182 19.8034 120.375 19.2992 120.762 18.8811C121.154 18.463 121.621 18.2539 122.164 18.2539C122.736 18.2539 123.179 18.4527 123.494 18.8503V18.8483ZM121.553 21.2381C121.764 21.4512 122.035 21.5557 122.361 21.5557C122.687 21.5557 122.957 21.4492 123.168 21.2381C123.386 21.0208 123.494 20.7441 123.494 20.4059C123.494 20.0678 123.386 19.7952 123.168 19.582C122.957 19.3648 122.687 19.2561 122.361 19.2561C122.035 19.2561 121.764 19.3648 121.553 19.582C121.34 19.7952 121.236 20.0698 121.236 20.4059C121.236 20.7421 121.342 21.0208 121.553 21.2381Z" fill="#004799"/>
</g>
<g id="Group_6">
<path id="Vector_8" d="M106.194 27.6516V25.3848H107.311V31.0948H106.194V28.7296H104.072V31.0948H102.947V25.3848H104.072V27.6516H106.194Z" fill="#004799"/>
<path id="Vector_9" d="M112.269 29.4888H109.194C109.33 29.9991 109.713 30.2553 110.344 30.2553C110.746 30.2553 111.051 30.1201 111.258 29.8475L112.107 30.3373C111.705 30.9194 111.111 31.2104 110.328 31.2104C109.654 31.2104 109.112 31.0055 108.705 30.5976C108.297 30.1897 108.092 29.6753 108.092 29.0563C108.092 28.4374 108.293 27.9352 108.696 27.5233C109.094 27.1093 109.611 26.9043 110.246 26.9043C110.881 26.9043 111.342 27.1113 111.722 27.5233C112.113 27.9373 112.31 28.4476 112.31 29.0563C112.31 29.1711 112.295 29.3146 112.269 29.4888ZM109.178 28.6731H111.258C111.199 28.4066 111.078 28.2037 110.896 28.0603C110.713 27.9188 110.498 27.8491 110.248 27.8491C109.965 27.8491 109.731 27.9209 109.547 28.0643C109.363 28.2078 109.24 28.4107 109.18 28.671L109.178 28.6731Z" fill="#004799"/>
<path id="Vector_10" d="M116.099 27.4987V27.017H117.151V31.0956H116.099V30.614C115.784 31.0116 115.341 31.2104 114.769 31.2104C114.197 31.2104 113.759 31.0034 113.367 30.5894C112.982 30.1713 112.787 29.6589 112.787 29.0563C112.787 28.4538 112.98 27.9496 113.367 27.5315C113.759 27.1134 114.226 26.9043 114.769 26.9043C115.341 26.9043 115.784 27.1031 116.099 27.5007V27.4987ZM114.158 29.8885C114.369 30.1016 114.64 30.2061 114.966 30.2061C115.292 30.2061 115.562 30.0996 115.773 29.8885C115.991 29.6712 116.099 29.3945 116.099 29.0563C116.099 28.7182 115.991 28.4456 115.773 28.2324C115.562 28.0152 115.292 27.9065 114.966 27.9065C114.64 27.9065 114.369 28.0152 114.158 28.2324C113.945 28.4456 113.841 28.7202 113.841 29.0563C113.841 29.3925 113.947 29.6712 114.158 29.8885Z" fill="#004799"/>
<path id="Vector_11" d="M119.11 31.0946H118.059V25.1406H119.11V31.0946Z" fill="#004799"/>
<path id="Vector_12" d="M122.369 27.0165V28.0269H121.447V29.724C121.447 29.8654 121.481 29.9679 121.553 30.0335C121.625 30.099 121.727 30.1359 121.863 30.1441C121.998 30.1523 122.168 30.1503 122.369 30.14V31.0951C121.656 31.1771 121.149 31.1095 120.848 30.8963C120.547 30.6832 120.395 30.2917 120.395 29.726V28.029H119.686V27.0186H120.395V26.1946L121.447 25.877V27.0186H122.369V27.0165Z" fill="#004799"/>
<path id="Vector_13" d="M125.429 26.9013C125.88 26.9013 126.247 27.051 126.529 27.3502C126.823 27.6556 126.97 28.0675 126.97 28.5902V31.0947H125.919V28.7213C125.919 28.4549 125.847 28.2479 125.703 28.1024C125.56 27.9548 125.361 27.8831 125.111 27.8831C124.834 27.8831 124.615 27.9692 124.455 28.1393C124.295 28.3114 124.215 28.5615 124.215 28.8935V31.0968H123.164V25.3867H124.215V27.4752C124.466 27.094 124.871 26.9034 125.431 26.9034L125.429 26.9013Z" fill="#004799"/>
<path id="Vector_14" d="M129.766 31.2104C129.151 31.2104 128.637 31.0034 128.225 30.5894C127.817 30.1754 127.612 29.6651 127.612 29.0563C127.612 28.4476 127.817 27.9352 128.225 27.5233C128.639 27.1093 129.151 26.9043 129.766 26.9043C130.164 26.9043 130.524 26.9986 130.85 27.1892C131.176 27.3798 131.424 27.636 131.592 27.9557L130.686 28.4866C130.604 28.3185 130.481 28.1853 130.315 28.0869C130.149 27.9885 129.963 27.9393 129.756 27.9393C129.44 27.9393 129.18 28.0439 128.973 28.2529C128.766 28.462 128.663 28.7305 128.663 29.0563C128.663 29.3822 128.766 29.6384 128.973 29.8557C129.18 30.0627 129.44 30.1651 129.756 30.1651C129.969 30.1651 130.157 30.118 130.323 30.0217C130.489 29.9274 130.612 29.7942 130.694 29.6261L131.608 30.1488C131.428 30.4746 131.174 30.7329 130.846 30.9235C130.518 31.1141 130.157 31.2084 129.766 31.2084V31.2104Z" fill="#004799"/>
<path id="Vector_15" d="M135.203 27.4987V27.017H136.255V31.0956H135.203V30.614C134.888 31.0116 134.445 31.2104 133.873 31.2104C133.301 31.2104 132.863 31.0034 132.471 30.5894C132.086 30.1713 131.891 29.6589 131.891 29.0563C131.891 28.4538 132.084 27.9496 132.471 27.5315C132.863 27.1134 133.33 26.9043 133.873 26.9043C134.445 26.9043 134.888 27.1031 135.203 27.5007V27.4987ZM133.262 29.8885C133.473 30.1016 133.744 30.2061 134.07 30.2061C134.396 30.2061 134.666 30.0996 134.877 29.8885C135.095 29.6712 135.203 29.3945 135.203 29.0563C135.203 28.7182 135.095 28.4456 134.877 28.2324C134.666 28.0152 134.396 27.9065 134.07 27.9065C133.744 27.9065 133.473 28.0152 133.262 28.2324C133.049 28.4456 132.945 28.7202 132.945 29.0563C132.945 29.3925 133.051 29.6712 133.262 29.8885Z" fill="#004799"/>
<path id="Vector_16" d="M138.216 27.0156V27.7165C138.308 27.4603 138.466 27.2677 138.689 27.1324C138.913 26.9992 139.167 26.9336 139.456 26.9336V28.108C139.134 28.0649 138.847 28.1305 138.591 28.3047C138.341 28.4728 138.216 28.7536 138.216 29.1451V31.0942H137.165V27.0156H138.216Z" fill="#004799"/>
<path id="Vector_17" d="M143.959 29.4888H140.884C141.02 29.9991 141.403 30.2553 142.034 30.2553C142.436 30.2553 142.741 30.1201 142.948 29.8475L143.797 30.3373C143.395 30.9194 142.801 31.2104 142.018 31.2104C141.344 31.2104 140.802 31.0055 140.395 30.5976C139.987 30.1897 139.782 29.6753 139.782 29.0563C139.782 28.4374 139.983 27.9352 140.386 27.5233C140.784 27.1093 141.3 26.9043 141.936 26.9043C142.571 26.9043 143.032 27.1113 143.412 27.5233C143.803 27.9373 144 28.4476 144 29.0563C144 29.1711 143.985 29.3146 143.959 29.4888ZM140.868 28.6731H142.948C142.889 28.4066 142.768 28.2037 142.586 28.0603C142.403 27.9188 142.188 27.8491 141.938 27.8491C141.655 27.8491 141.421 27.9209 141.237 28.0643C141.052 28.2078 140.929 28.4107 140.87 28.671L140.868 28.6731Z" fill="#004799"/>
</g>
<g id="Group_7">
<path id="Vector_18" d="M104.897 39.6427C104.337 39.6427 103.864 39.5177 103.478 39.2677C103.093 39.0176 102.818 38.6713 102.654 38.2327L103.618 37.669C103.841 38.2511 104.278 38.5421 104.931 38.5421C105.237 38.5421 105.464 38.4868 105.616 38.3782C105.768 38.2695 105.843 38.122 105.843 37.9375C105.843 37.7367 105.753 37.5809 105.575 37.4723C105.395 37.3575 105.075 37.2366 104.612 37.1054C104.112 36.9537 103.716 36.7754 103.429 36.5746C103.07 36.3081 102.89 35.9166 102.89 35.4002C102.89 34.8837 103.072 34.4676 103.437 34.1684C103.802 33.8589 104.245 33.7031 104.767 33.7031C105.224 33.7031 105.63 33.8138 105.983 34.0372C106.335 34.2606 106.61 34.5762 106.807 34.9841L105.86 35.5313C105.63 35.0415 105.267 34.7976 104.767 34.7976C104.54 34.7976 104.357 34.8509 104.22 34.9575C104.085 35.064 104.015 35.2014 104.015 35.3694C104.015 35.5498 104.089 35.6953 104.234 35.8101C104.398 35.9248 104.685 36.0437 105.099 36.1687L105.491 36.2999C105.561 36.3225 105.684 36.3676 105.858 36.4393C106.022 36.4987 106.141 36.5561 106.216 36.6114C106.483 36.7754 106.661 36.9435 106.755 37.1177C106.897 37.3452 106.967 37.6157 106.967 37.9252C106.967 38.452 106.774 38.8721 106.387 39.1816C106.001 39.4911 105.503 39.6468 104.894 39.6468L104.897 39.6427Z" fill="#004799"/>
<path id="Vector_19" d="M111.593 37.9204H108.518C108.653 38.4308 109.037 38.687 109.668 38.687C110.07 38.687 110.375 38.5517 110.582 38.2791L111.431 38.7689C111.029 39.351 110.435 39.6421 109.652 39.6421C108.977 39.6421 108.436 39.4371 108.028 39.0292C107.62 38.6214 107.416 38.1069 107.416 37.488C107.416 36.869 107.616 36.3669 108.02 35.9549C108.418 35.5409 108.934 35.3359 109.57 35.3359C110.205 35.3359 110.666 35.5429 111.045 35.9549C111.437 36.3689 111.634 36.8793 111.634 37.488C111.634 37.6027 111.619 37.7462 111.593 37.9204ZM108.502 37.1047H110.582C110.523 36.8383 110.402 36.6354 110.219 36.4919C110.037 36.3505 109.822 36.2808 109.572 36.2808C109.289 36.2808 109.055 36.3525 108.871 36.496C108.686 36.6395 108.563 36.8424 108.504 37.1027L108.502 37.1047Z" fill="#004799"/>
<path id="Vector_20" d="M113.38 35.4492V36.1501C113.472 35.8939 113.63 35.7013 113.853 35.566C114.076 35.4328 114.331 35.3672 114.62 35.3672V36.5416C114.298 36.4985 114.011 36.5641 113.755 36.7383C113.505 36.9064 113.38 37.1872 113.38 37.5787V39.5278H112.328V35.4492H113.38Z" fill="#004799"/>
<path id="Vector_21" d="M117.048 38.3043L118.044 35.4492H119.202L117.653 39.5278H116.454L114.904 35.4492H116.062L117.05 38.3043H117.048Z" fill="#004799"/>
<path id="Vector_22" d="M120.178 34.9614C120.004 34.9614 119.852 34.8979 119.725 34.7708C119.598 34.6438 119.533 34.4921 119.533 34.3179C119.533 34.1437 119.596 33.992 119.725 33.8608C119.852 33.7296 120.004 33.6641 120.178 33.6641C120.353 33.6641 120.51 33.7296 120.639 33.8608C120.767 33.992 120.83 34.1437 120.83 34.3179C120.83 34.4921 120.767 34.6417 120.639 34.7708C120.512 34.8979 120.359 34.9614 120.178 34.9614ZM120.709 39.5299H119.658V35.4513H120.709V39.5299Z" fill="#004799"/>
<path id="Vector_23" d="M123.535 39.6421C122.921 39.6421 122.406 39.4351 121.994 39.021C121.586 38.607 121.381 38.0967 121.381 37.488C121.381 36.8793 121.586 36.3669 121.994 35.9549C122.408 35.5409 122.921 35.3359 123.535 35.3359C123.933 35.3359 124.294 35.4302 124.62 35.6208C124.946 35.8114 125.194 36.0676 125.362 36.3874L124.456 36.9182C124.374 36.7501 124.251 36.6169 124.085 36.5185C123.919 36.4202 123.732 36.371 123.525 36.371C123.21 36.371 122.949 36.4755 122.742 36.6845C122.535 36.8936 122.433 37.1621 122.433 37.488C122.433 37.8139 122.535 38.07 122.742 38.2873C122.949 38.4943 123.21 38.5968 123.525 38.5968C123.738 38.5968 123.927 38.5496 124.093 38.4533C124.259 38.359 124.382 38.2258 124.464 38.0578L125.378 38.5804C125.198 38.9063 124.943 39.1645 124.616 39.3551C124.288 39.5457 123.927 39.64 123.535 39.64V39.6421Z" fill="#004799"/>
<path id="Vector_24" d="M129.836 37.9204H126.761C126.897 38.4308 127.28 38.687 127.911 38.687C128.313 38.687 128.618 38.5517 128.825 38.2791L129.674 38.7689C129.272 39.351 128.678 39.6421 127.895 39.6421C127.22 39.6421 126.679 39.4371 126.272 39.0292C125.864 38.6214 125.659 38.1069 125.659 37.488C125.659 36.869 125.86 36.3669 126.263 35.9549C126.661 35.5409 127.177 35.3359 127.813 35.3359C128.448 35.3359 128.909 35.5429 129.288 35.9549C129.68 36.3689 129.877 36.8793 129.877 37.488C129.877 37.6027 129.862 37.7462 129.836 37.9204ZM126.745 37.1047H128.825C128.766 36.8383 128.645 36.6354 128.462 36.4919C128.28 36.3505 128.065 36.2808 127.815 36.2808C127.532 36.2808 127.298 36.3525 127.114 36.496C126.929 36.6395 126.806 36.8424 126.747 37.1027L126.745 37.1047Z" fill="#004799"/>
<path id="Vector_25" d="M131.485 36.6087C131.485 36.7829 131.733 36.9325 132.227 37.0576C132.402 37.0965 132.559 37.1416 132.701 37.1928C132.842 37.2441 132.986 37.3179 133.129 37.4121C133.273 37.5064 133.385 37.6335 133.467 37.7913C133.549 37.9491 133.59 38.1315 133.59 38.3385C133.59 38.7567 133.433 39.0805 133.117 39.31C132.801 39.5334 132.412 39.6441 131.951 39.6441C131.112 39.6441 130.543 39.3203 130.237 38.6726L131.151 38.1582C131.276 38.5128 131.543 38.689 131.951 38.689C132.326 38.689 132.514 38.5722 132.514 38.3385C132.514 38.1643 132.266 38.0147 131.772 37.8897C131.588 37.8405 131.43 37.7913 131.299 37.7421C131.168 37.6929 131.026 37.6212 130.875 37.5269C130.723 37.4326 130.606 37.3097 130.528 37.16C130.448 37.0104 130.409 36.8362 130.409 36.6333C130.409 36.2316 130.557 35.916 130.85 35.6864C131.149 35.4528 131.518 35.3359 131.959 35.3359C132.291 35.3359 132.592 35.4118 132.865 35.5593C133.137 35.709 133.351 35.9221 133.508 36.1988L132.611 36.6886C132.48 36.412 132.262 36.2726 131.959 36.2726C131.824 36.2726 131.711 36.3033 131.621 36.3669C131.531 36.4304 131.485 36.5103 131.485 36.6067V36.6087Z" fill="#004799"/>
</g>
</g>
<path id="Vector_26" d="M98.4263 6.0918V49.9093" stroke="#004799" stroke-width="0.282839" stroke-miterlimit="10"/>
</g>
</g>
</g>
</svg>
